<?xml version="1.0" encoding="UTF-8" standalone="no"?>
<!-- Created with Inkscape (http://www.inkscape.org/) -->

<svg
   xmlns:dc="http://purl.org/dc/elements/1.1/"
   xmlns:cc="http://creativecommons.org/ns#"
   xmlns:rdf="http://www.w3.org/1999/02/22-rdf-syntax-ns#"
   xmlns:svg="http://www.w3.org/2000/svg"
   xmlns="http://www.w3.org/2000/svg"
   xmlns:sodipodi="http://sodipodi.sourceforge.net/DTD/sodipodi-0.dtd"
   xmlns:inkscape="http://www.inkscape.org/namespaces/inkscape"
   id="svg2"
   version="1.1"
   inkscape:version="0.48.4 r9939"
   width="267.76999"
   height="350.14774"
   xml:space="preserve"
   sodipodi:docname="Gomes2005-1.svg"><metadata
     id="metadata8"><rdf:RDF><cc:Work
         rdf:about=""><dc:format>image/svg+xml</dc:format><dc:type
           rdf:resource="http://purl.org/dc/dcmitype/StillImage" /><dc:title /></cc:Work></rdf:RDF></metadata><defs
     id="defs6"><clipPath
       clipPathUnits="userSpaceOnUse"
       id="clipPath878"><path
         d="m 0,782.362 595.275,0 0,-782.302 L 0,0.06 0,782.362 z"
         id="path880"
         inkscape:connector-curvature="0" /></clipPath></defs><sodipodi:namedview
     pagecolor="#ffffff"
     bordercolor="#666666"
     borderopacity="1"
     objecttolerance="10"
     gridtolerance="10"
     guidetolerance="10"
     inkscape:pageopacity="0"
     inkscape:pageshadow="2"
     inkscape:window-width="1280"
     inkscape:window-height="952"
     id="namedview4"
     showgrid="false"
     fit-margin-top="5"
     fit-margin-right="5"
     fit-margin-bottom="5"
     fit-margin-left="5"
     inkscape:zoom="2.05"
     inkscape:cx="136.1858"
     inkscape:cy="174.98028"
     inkscape:window-x="0"
     inkscape:window-y="24"
     inkscape:window-maximized="1"
     inkscape:current-layer="g10" /><g
     id="g10"
     inkscape:groupmode="layer"
     inkscape:label="Gomes2005"
     transform="matrix(1.25,0,0,-1.25,-399.4625,672.08023)"><g
       id="g3355"><path
         d="m 348.736,417.622 177.261,0 m -177.261,0 0,3.077 m 8.059,-3.077 0,3.077 m 8.055,-3.077 0,6.155 m 8.058,-6.155 0,3.077 m 8.059,-3.077 0,3.077 m 8.055,-3.077 0,3.077 m 8.059,-3.077 0,6.155 m 8.055,-6.155 0,3.077 m 8.058,-3.077 0,3.077 m 8.06,-3.077 0,3.077 m 8.055,-3.077 0,6.155 m 8.058,-6.155 0,3.077 m 8.06,-3.077 0,3.077 m 8.054,-3.077 0,3.077 m 8.059,-3.077 0,6.155 m 8.057,-6.155 0,3.077 m 8.055,-3.077 0,3.077 m 8.061,-3.077 0,3.077 m 8.054,-3.077 0,6.155 m 8.059,-6.155 0,3.077 m 8.059,-3.077 0,3.077 m 8.054,-3.077 0,3.077 m 8.058,-3.077 0,6.155 m -177.261,109.636 177.261,0 m -177.261,0 0,-3.078 m 8.059,3.078 0,-3.078 m 8.055,3.078 0,-6.155 m 8.058,6.155 0,-3.078 m 8.059,3.078 0,-3.078 m 8.055,3.078 0,-3.078 m 8.059,3.078 0,-6.155 m 8.055,6.155 0,-3.078 m 8.058,3.078 0,-3.078 m 8.06,3.078 0,-3.078 m 8.055,3.078 0,-6.155 m 8.058,6.155 0,-3.078 m 8.06,3.078 0,-3.078 m 8.054,3.078 0,-3.078 m 8.059,3.078 0,-6.155 m 8.057,6.155 0,-3.078 m 8.055,3.078 0,-3.078 m 8.061,3.078 0,-3.078 m 8.054,3.078 0,-6.155 m 8.059,6.155 0,-3.078 m 8.059,3.078 0,-3.078 m 8.054,3.078 0,-3.078 m 8.058,3.078 0,-6.155 m -177.261,-109.636 0,115.791 m 0,-115.791 3.077,0 m -3.077,0 6.155,0 m -6.155,13.943 3.077,0 m -3.077,8.158 3.077,0 m -3.077,5.785 3.077,0 m -3.077,4.489 3.077,0 m -3.077,3.668 3.077,0 m -3.077,3.099 3.077,0 m -3.077,2.687 3.077,0 m -3.077,2.368 3.077,0 m -3.077,2.121 3.077,0 m -3.077,0 6.155,0 m -6.155,13.943 3.077,0 m -3.077,8.153 3.077,0 m -3.077,5.786 3.077,0 m -3.077,4.489 3.077,0 m -3.077,3.668 3.077,0 m -3.077,3.102 3.077,0 m -3.077,2.684 3.077,0 m -3.077,2.372 3.077,0 m -3.077,2.117 3.077,0 m -3.077,0 6.155,0 m -6.155,13.942 3.077,0 m -3.077,8.158 3.077,0"
         style="fill:none;stroke:#000000;stroke-width:0.5;stroke-linecap:round;stroke-linejoin:round;stroke-miterlimit:10;stroke-opacity:1;stroke-dasharray:none"
         id="path296"
         inkscape:connector-curvature="0" /><path
         d="m 525.997,417.622 0,115.791 m 0,-115.791 -3.077,0 m 3.077,0 -6.154,0 m 6.154,13.943 -3.077,0 m 3.077,8.158 -3.077,0 m 3.077,5.785 -3.077,0 m 3.077,4.489 -3.077,0 m 3.077,3.668 -3.077,0 m 3.077,3.099 -3.077,0 m 3.077,2.687 -3.077,0 m 3.077,2.368 -3.077,0 m 3.077,2.121 -3.077,0 m 3.077,0 -6.154,0 m 6.154,13.943 -3.077,0 m 3.077,8.153 -3.077,0 m 3.077,5.786 -3.077,0 m 3.077,4.489 -3.077,0 m 3.077,3.668 -3.077,0 m 3.077,3.102 -3.077,0 m 3.077,2.684 -3.077,0 m 3.077,2.372 -3.077,0 m 3.077,2.117 -3.077,0 m 3.077,0 -6.154,0 m 6.154,13.942 -3.077,0 m 3.077,8.158 -3.077,0"
         style="fill:none;stroke:#000000;stroke-width:0.5;stroke-linecap:round;stroke-linejoin:round;stroke-miterlimit:10;stroke-opacity:1;stroke-dasharray:none"
         id="path298"
         inkscape:connector-curvature="0" /><path
         d="m 426.813,431.565 0.341,0 0,-13.943 -0.341,0 0,13.943 z m 1.019,-13.943 0,8.814 0.339,0 0,7.648 0.342,0 0,-16.462 m 0.336,0 0,25.953 0.339,0 0,0.899 0.338,0 0,-26.852 m 0.339,0 0,12.913 0.341,0 0,-10.997 0.338,0 0,9.91 0.34,0 0,-11.826 m 1.358,1.916 0.336,0 0,-1.917 -0.336,0 0,1.917 z m 1.354,21.481 0.341,0 0,-23.397 -0.341,0 0,23.397 z m 2.035,-7.538 0.342,0 0,-15.859 -0.342,0 0,15.859 z m 0.677,0.895 0.341,0 0,-16.754 -0.341,0 0,16.754 z m 17.295,22.1 0.336,0 0,-38.854 -0.336,0 0,38.854 z m 1.696,-38.854 0,35.703 0.34,0 0,-2.93 0.335,0 0,-32.773 m 36.287,36.043 0.336,0 0,-36.043 -0.336,0 0,36.043 z m 1.013,-1.751 0.341,0 0,-34.292 -0.341,0 0,34.292 z m 8.477,-34.292 0,13.943 0.341,0 0,2.811 0.341,0 0,-16.754 m 0.677,28.382 0.341,0 0,-28.382 -0.341,0 0,28.382 z m 9.154,8.958 0.341,0 0,-37.341 -0.341,0 0,37.341 z m 1.695,-37.34 0,25.198 0.34,0 0,-9.339 0.342,0 0,-15.859 0.335,0 0,70.872 0.341,0 0,-70.872 m 0.34,48.234 0.338,0 0,-48.235 -0.338,0 0,48.235 z m 0.677,-48.234 0,94.125 0.337,0 0,6.229 0.341,0 0,-33.86 0.341,0 0,-66.494 m 0.336,0 0,81.052 0.34,0 0,11.891 0.342,0 0,-27.54 0.336,0 0,9.991 0.339,0 0,-30.853 0.341,0 0,18.617 0.337,0 0,23.376 0.34,0 0,0.143 0.337,0 0,-14.881 0.341,0 0,13.922 0.341,0 0,-13.213 0.335,0 0,-18.514 0.342,0 0,27.664 0.34,0 0,4.9 0.336,0 0,-1.679 0.342,0 0,2.656 0.34,0 0,-1.982 0.336,0 0,3.992 0.34,0 0,6.344 0.337,0 0,-6.163 0.34,0 0,2.125 0.342,0 0,-2.515 0.336,0 0,-2.5 0.341,0 0,3.021 0.339,0 0,2.864 0.168,0 0,-92.718 -8.308,0"
         style="fill:#000000;fill-opacity:1;fill-rule:nonzero;stroke:none"
         id="path300"
         inkscape:connector-curvature="0" /><path
         d="m 348.736,486.032 177.261,0"
         style="fill:none;stroke:#000000;stroke-width:0.5;stroke-linecap:round;stroke-linejoin:round;stroke-miterlimit:10;stroke-opacity:1;stroke-dasharray:1, 3;stroke-dashoffset:0"
         id="path302"
         inkscape:connector-curvature="0" /><path
         d="m 354.21,423.28 1.777,-3.077 1.776,3.077 -3.553,0"
         style="fill:#000000;fill-opacity:1;fill-rule:nonzero;stroke:none"
         id="path304"
         inkscape:connector-curvature="0" /><path
         d="m 398.205,423.28 1.777,-3.077 1.776,3.077 -3.553,0"
         style="fill:#000000;fill-opacity:1;fill-rule:nonzero;stroke:none"
         id="path306"
         inkscape:connector-curvature="0" /><path
         d="m 451.704,423.28 1.777,-3.077 1.777,3.077 -3.554,0"
         style="fill:#000000;fill-opacity:1;fill-rule:nonzero;stroke:none"
         id="path308"
         inkscape:connector-curvature="0" /><path
         d="m 495.215,423.28 1.778,-3.077 1.776,3.077 -3.554,0"
         style="fill:#000000;fill-opacity:1;fill-rule:nonzero;stroke:none"
         id="path310"
         inkscape:connector-curvature="0" /><path
         d="m 427.502,410.303 -0.595,0 0,3.556 -1.288,0 0,0.476 c 0.679,0 1.295,0.182 1.428,0.931 l 0.455,0 0,-4.963"
         style="fill:#000000;fill-opacity:1;fill-rule:nonzero;stroke:none"
         id="path446"
         inkscape:connector-curvature="0" /><path
         d="m 430.849,415.266 c 1.553,0 1.651,-1.428 1.651,-2.527 0,-1.092 -0.098,-2.52 -1.651,-2.52 -1.555,0 -1.653,1.428 -1.653,2.52 0,1.099 0.098,2.527 1.653,2.527 z m 0,-4.522 c 1.014,0 1.021,1.26 1.021,2.002 0,0.735 -0.007,1.995 -1.021,1.995 -1.016,0 -1.023,-1.26 -1.023,-1.995 0,-0.742 0.007,-2.002 1.023,-2.002"
         style="fill:#000000;fill-opacity:1;fill-rule:nonzero;stroke:none"
         id="path448"
         inkscape:connector-curvature="0" /><path
         d="m 460.003,410.303 -0.595,0 0,3.556 -1.288,0 0,0.476 c 0.679,0 1.295,0.182 1.428,0.931 l 0.455,0 0,-4.963"
         style="fill:#000000;fill-opacity:1;fill-rule:nonzero;stroke:none"
         id="path450"
         inkscape:connector-curvature="0" /><path
         d="m 461.711,413.509 c -0.049,1.008 0.546,1.757 1.595,1.757 0.869,0 1.554,-0.504 1.554,-1.428 0,-0.875 -0.588,-1.316 -1.204,-1.701 -0.622,-0.378 -1.273,-0.693 -1.393,-1.309 l 2.548,0 0,-0.525 -3.241,0 c 0.099,1.176 0.693,1.596 1.394,2.03 0.839,0.518 1.266,0.826 1.266,1.512 0,0.539 -0.433,0.896 -0.959,0.896 -0.692,0 -0.986,-0.637 -0.966,-1.232 l -0.594,0"
         style="fill:#000000;fill-opacity:1;fill-rule:nonzero;stroke:none"
         id="path452"
         inkscape:connector-curvature="0" /><path
         d="m 492.253,410.303 -0.595,0 0,3.556 -1.288,0 0,0.476 c 0.678,0 1.295,0.182 1.427,0.931 l 0.456,0 0,-4.963"
         style="fill:#000000;fill-opacity:1;fill-rule:nonzero;stroke:none"
         id="path454"
         inkscape:connector-curvature="0" /><path
         d="m 496.586,411.99 0.671,0 0,-0.525 -0.671,0 0,-1.162 -0.561,0 0,1.162 -2.177,0 0,0.574 2.261,3.227 0.477,0 0,-3.276 z m -0.561,0 0,2.429 -0.014,0 -1.652,-2.429 1.666,0"
         style="fill:#000000;fill-opacity:1;fill-rule:nonzero;stroke:none"
         id="path456"
         inkscape:connector-curvature="0" /><path
         d="m 524.752,410.303 -0.594,0 0,3.556 -1.288,0 0,0.476 c 0.678,0 1.294,0.182 1.427,0.931 l 0.455,0 0,-4.963"
         style="fill:#000000;fill-opacity:1;fill-rule:nonzero;stroke:none"
         id="path458"
         inkscape:connector-curvature="0" /><path
         d="m 529.05,413.999 c -0.055,0.448 -0.364,0.742 -0.833,0.742 -1.014,0 -1.176,-1.12 -1.204,-1.883 l 0.014,-0.014 c 0.28,0.455 0.7,0.651 1.239,0.651 0.952,0 1.52,-0.693 1.52,-1.61 0,-0.721 -0.407,-1.666 -1.66,-1.666 -1.469,0 -1.708,1.344 -1.708,2.387 0,1.365 0.413,2.66 1.827,2.66 0.819,0 1.331,-0.462 1.4,-1.267 l -0.595,0 z m -1.925,-2.149 c 0,-0.616 0.378,-1.106 1.029,-1.106 0.644,0 1.001,0.511 1.001,1.099 0,0.616 -0.322,1.127 -1.001,1.127 -0.665,0 -1.029,-0.497 -1.029,-1.12"
         style="fill:#000000;fill-opacity:1;fill-rule:nonzero;stroke:none"
         id="path460"
         inkscape:connector-curvature="0" /><path
         d="m 396.868,415.266 c 1.085,0 1.505,-0.637 1.505,-1.267 0,-0.441 -0.28,-0.847 -0.686,-1.029 0.595,-0.189 0.881,-0.623 0.881,-1.239 0,-0.959 -0.728,-1.512 -1.645,-1.512 -0.951,0 -1.687,0.497 -1.687,1.512 0,0.588 0.316,1.043 0.869,1.239 -0.413,0.168 -0.693,0.581 -0.693,1.029 0,0.819 0.693,1.267 1.456,1.267 z m 0.055,-4.522 c 0.596,0 1.016,0.413 1.016,0.966 0,0.539 -0.462,0.945 -1.022,0.945 -0.588,0 -1.05,-0.378 -1.05,-0.952 0,-0.595 0.441,-0.959 1.056,-0.959 z m 0,2.436 c 0.47,0 0.82,0.294 0.82,0.798 0,0.497 -0.35,0.763 -0.833,0.763 -0.476,0 -0.868,-0.266 -0.868,-0.763 0,-0.546 0.392,-0.798 0.881,-0.798"
         style="fill:#000000;fill-opacity:1;fill-rule:nonzero;stroke:none"
         id="path462"
         inkscape:connector-curvature="0" /><path
         d="m 365.855,413.999 c -0.056,0.448 -0.364,0.742 -0.833,0.742 -1.015,0 -1.176,-1.12 -1.204,-1.883 l 0.014,-0.014 c 0.28,0.455 0.7,0.651 1.239,0.651 0.952,0 1.519,-0.693 1.519,-1.61 0,-0.721 -0.406,-1.666 -1.659,-1.666 -1.47,0 -1.708,1.344 -1.708,2.387 0,1.365 0.413,2.66 1.827,2.66 0.819,0 1.33,-0.462 1.4,-1.267 l -0.595,0 z m -1.925,-2.149 c 0,-0.616 0.378,-1.106 1.029,-1.106 0.644,0 1.001,0.511 1.001,1.099 0,0.616 -0.322,1.127 -1.001,1.127 -0.665,0 -1.029,-0.497 -1.029,-1.12"
         style="fill:#000000;fill-opacity:1;fill-rule:nonzero;stroke:none"
         id="path464"
         inkscape:connector-curvature="0" /><path
         d="m 359.385,522.963 c 0,-0.312 0.016,-0.664 0.192,-0.928 l -1.616,0 c -0.04,0.112 -0.064,0.28 -0.056,0.392 l -0.016,0 c -0.336,-0.384 -0.824,-0.496 -1.336,-0.496 -0.8,0 -1.464,0.384 -1.464,1.256 0,1.312 1.536,1.264 2.344,1.416 0.216,0.04 0.432,0.104 0.432,0.368 0,0.28 -0.264,0.384 -0.52,0.384 -0.488,0 -0.584,-0.248 -0.592,-0.424 l -1.472,0 c 0.048,1.168 1.152,1.36 2.136,1.36 1.984,0 1.968,-0.824 1.968,-1.624 l 0,-1.704 z m -1.52,0.936 c -0.192,-0.096 -0.408,-0.152 -0.624,-0.2 -0.352,-0.08 -0.536,-0.168 -0.536,-0.448 0,-0.192 0.208,-0.384 0.496,-0.384 0.36,0 0.64,0.216 0.664,0.648 l 0,0.384"
         style="fill:#000000;fill-opacity:1;fill-rule:nonzero;stroke:none"
         id="path514"
         inkscape:connector-curvature="0" /><path
         d="m 338.748,461.387 -0.595,0 0,3.556 -1.288,0 0,0.476 c 0.679,0 1.295,0.182 1.428,0.931 l 0.455,0 0,-4.963"
         style="fill:#000000;fill-opacity:1;fill-rule:nonzero;stroke:none"
         id="path524"
         inkscape:connector-curvature="0" /><path
         d="m 342.094,466.35 c 1.554,0 1.652,-1.428 1.652,-2.527 0,-1.093 -0.098,-2.52 -1.652,-2.52 -1.554,0 -1.652,1.427 -1.652,2.52 0,1.099 0.098,2.527 1.652,2.527 z m 0,-4.522 c 1.015,0 1.022,1.26 1.022,2.002 0,0.735 -0.007,1.995 -1.022,1.995 -1.015,0 -1.022,-1.26 -1.022,-1.995 0,-0.742 0.007,-2.002 1.022,-2.002"
         style="fill:#000000;fill-opacity:1;fill-rule:nonzero;stroke:none"
         id="path526"
         inkscape:connector-curvature="0" /><path
         d="m 346.11,466.027 c -0.04,0.32 -0.26,0.53 -0.595,0.53 -0.725,0 -0.84,-0.8 -0.86,-1.345 l 0.01,-0.01 c 0.2,0.325 0.5,0.464 0.885,0.464 0.68,0 1.085,-0.494 1.085,-1.149 0,-0.515 -0.29,-1.19 -1.185,-1.19 -1.05,0 -1.22,0.96 -1.22,1.705 0,0.975 0.295,1.9 1.305,1.9 0.585,0 0.95,-0.33 1,-0.905 l -0.425,0 z m -1.375,-1.535 c 0,-0.44 0.27,-0.79 0.735,-0.79 0.46,0 0.715,0.365 0.715,0.785 0,0.44 -0.23,0.804 -0.715,0.804 -0.475,0 -0.735,-0.354 -0.735,-0.799"
         style="fill:#000000;fill-opacity:1;fill-rule:nonzero;stroke:none"
         id="path528"
         inkscape:connector-curvature="0" /><path
         d="m 338.748,507.887 -0.595,0 0,3.556 -1.288,0 0,0.476 c 0.679,0 1.295,0.181 1.428,0.93 l 0.455,0 0,-4.962"
         style="fill:#000000;fill-opacity:1;fill-rule:nonzero;stroke:none"
         id="path530"
         inkscape:connector-curvature="0" /><path
         d="m 342.094,512.849 c 1.554,0 1.652,-1.427 1.652,-2.527 0,-1.092 -0.098,-2.52 -1.652,-2.52 -1.554,0 -1.652,1.428 -1.652,2.52 0,1.1 0.098,2.527 1.652,2.527 z m 0,-4.522 c 1.015,0 1.022,1.261 1.022,2.002 0,0.736 -0.007,1.995 -1.022,1.995 -1.015,0 -1.022,-1.259 -1.022,-1.995 0,-0.741 0.007,-2.002 1.022,-2.002"
         style="fill:#000000;fill-opacity:1;fill-rule:nonzero;stroke:none"
         id="path532"
         inkscape:connector-curvature="0" /><path
         d="m 346.585,513.007 c -0.715,-0.71 -1.295,-2.011 -1.36,-3.12 l -0.475,0 c 0.08,1.2 0.655,2.294 1.4,3.084 l -1.86,0 0,0.4 2.295,0 0,-0.364"
         style="fill:#000000;fill-opacity:1;fill-rule:nonzero;stroke:none"
         id="path534"
         inkscape:connector-curvature="0" /><path
         d="m 338.748,415.137 -0.595,0 0,3.556 -1.288,0 0,0.476 c 0.679,0 1.295,0.182 1.428,0.931 l 0.455,0 0,-4.963"
         style="fill:#000000;fill-opacity:1;fill-rule:nonzero;stroke:none"
         id="path536"
         inkscape:connector-curvature="0" /><path
         d="m 342.094,420.1 c 1.554,0 1.652,-1.428 1.652,-2.527 0,-1.092 -0.098,-2.52 -1.652,-2.52 -1.554,0 -1.652,1.428 -1.652,2.52 0,1.099 0.098,2.527 1.652,2.527 z m 0,-4.522 c 1.015,0 1.022,1.26 1.022,2.002 0,0.735 -0.007,1.995 -1.022,1.995 -1.015,0 -1.022,-1.26 -1.022,-1.995 0,-0.742 0.007,-2.002 1.022,-2.002"
         style="fill:#000000;fill-opacity:1;fill-rule:nonzero;stroke:none"
         id="path538"
         inkscape:connector-curvature="0" /><path
         d="m 346.39,420.247 -1.43,0 -0.19,-1.02 0.01,-0.01 c 0.155,0.175 0.42,0.255 0.66,0.255 0.63,0 1.145,-0.405 1.145,-1.215 0,-0.6 -0.415,-1.18 -1.24,-1.18 -0.615,0 -1.115,0.375 -1.13,1.015 l 0.425,0 c 0.025,-0.365 0.32,-0.64 0.745,-0.64 0.405,0 0.75,0.275 0.75,0.84 0,0.47 -0.325,0.805 -0.8,0.805 -0.27,0 -0.495,-0.135 -0.66,-0.335 l -0.365,0.02 0.33,1.84 1.75,0 0,-0.375"
         style="fill:#000000;fill-opacity:1;fill-rule:nonzero;stroke:none"
         id="path540"
         inkscape:connector-curvature="0" /></g><g
       id="g3397"><path
         d="m 348.736,279.292 177.261,0 m -177.261,0 0,3.077 m 8.059,-3.077 0,3.077 m 8.055,-3.077 0,6.155 m 8.058,-6.155 0,3.077 m 8.059,-3.077 0,3.077 m 8.055,-3.077 0,3.077 m 8.059,-3.077 0,6.155 m 8.055,-6.155 0,3.077 m 8.058,-3.077 0,3.077 m 8.06,-3.077 0,3.077 m 8.055,-3.077 0,6.155 m 8.058,-6.155 0,3.077 m 8.06,-3.077 0,3.077 m 8.054,-3.077 0,3.077 m 8.059,-3.077 0,6.155 m 8.057,-6.155 0,3.077 m 8.055,-3.077 0,3.077 m 8.061,-3.077 0,3.077 m 8.054,-3.077 0,6.155 m 8.059,-6.155 0,3.077 m 8.059,-3.077 0,3.077 m 8.054,-3.077 0,3.077 m 8.058,-3.077 0,6.155"
         style="fill:none;stroke:#000000;stroke-width:0.5;stroke-linecap:round;stroke-linejoin:round;stroke-miterlimit:10;stroke-opacity:1;stroke-dasharray:none"
         id="path342"
         inkscape:connector-curvature="0" /><path
         d="m 427.502,271.554 -0.595,0 0,3.555 -1.288,0 0,0.477 c 0.679,0 1.295,0.182 1.428,0.931 l 0.455,0 0,-4.963"
         style="fill:#000000;fill-opacity:1;fill-rule:nonzero;stroke:none"
         id="path344"
         inkscape:connector-curvature="0" /><path
         d="m 430.849,276.517 c 1.553,0 1.651,-1.428 1.651,-2.528 0,-1.092 -0.098,-2.519 -1.651,-2.519 -1.555,0 -1.653,1.427 -1.653,2.519 0,1.1 0.098,2.528 1.653,2.528 z m 0,-4.522 c 1.014,0 1.021,1.26 1.021,2.002 0,0.734 -0.007,1.994 -1.021,1.994 -1.016,0 -1.023,-1.26 -1.023,-1.994 0,-0.742 0.007,-2.002 1.023,-2.002"
         style="fill:#000000;fill-opacity:1;fill-rule:nonzero;stroke:none"
         id="path346"
         inkscape:connector-curvature="0" /><path
         d="m 460.003,271.554 -0.595,0 0,3.555 -1.288,0 0,0.477 c 0.679,0 1.295,0.182 1.428,0.931 l 0.455,0 0,-4.963"
         style="fill:#000000;fill-opacity:1;fill-rule:nonzero;stroke:none"
         id="path348"
         inkscape:connector-curvature="0" /><path
         d="m 461.711,274.76 c -0.049,1.008 0.546,1.757 1.595,1.757 0.869,0 1.554,-0.504 1.554,-1.428 0,-0.875 -0.588,-1.317 -1.204,-1.701 -0.622,-0.378 -1.273,-0.694 -1.393,-1.309 l 2.548,0 0,-0.525 -3.241,0 c 0.099,1.176 0.693,1.595 1.394,2.03 0.839,0.518 1.266,0.826 1.266,1.512 0,0.539 -0.433,0.895 -0.959,0.895 -0.692,0 -0.986,-0.636 -0.966,-1.231 l -0.594,0"
         style="fill:#000000;fill-opacity:1;fill-rule:nonzero;stroke:none"
         id="path350"
         inkscape:connector-curvature="0" /><path
         d="m 492.253,271.554 -0.595,0 0,3.555 -1.288,0 0,0.477 c 0.678,0 1.295,0.182 1.427,0.931 l 0.456,0 0,-4.963"
         style="fill:#000000;fill-opacity:1;fill-rule:nonzero;stroke:none"
         id="path352"
         inkscape:connector-curvature="0" /><path
         d="m 496.586,273.24 0.671,0 0,-0.524 -0.671,0 0,-1.162 -0.561,0 0,1.162 -2.177,0 0,0.574 2.261,3.227 0.477,0 0,-3.277 z m -0.561,0 0,2.43 -0.014,0 -1.652,-2.43 1.666,0"
         style="fill:#000000;fill-opacity:1;fill-rule:nonzero;stroke:none"
         id="path354"
         inkscape:connector-curvature="0" /><path
         d="m 524.752,276.517 -0.455,0 c -0.133,-0.749 -0.749,-0.931 -1.427,-0.931 l 0,-0.477 1.288,0 0,-3.555 0.594,0 0,4.963"
         style="fill:#000000;fill-opacity:1;fill-rule:nonzero;stroke:none"
         id="path356"
         inkscape:connector-curvature="0" /><path
         d="m 529.05,275.25 c -0.055,0.447 -0.364,0.741 -0.833,0.741 -1.014,0 -1.176,-1.119 -1.204,-1.883 l 0.014,-0.013 c 0.28,0.455 0.7,0.651 1.239,0.651 0.952,0 1.52,-0.693 1.52,-1.61 0,-0.721 -0.407,-1.666 -1.66,-1.666 -1.469,0 -1.708,1.343 -1.708,2.386 0,1.366 0.413,2.661 1.827,2.661 0.819,0 1.331,-0.462 1.4,-1.267 l -0.595,0 z m -1.925,-2.149 c 0,-0.617 0.378,-1.106 1.029,-1.106 0.644,0 1.001,0.511 1.001,1.099 0,0.616 -0.322,1.127 -1.001,1.127 -0.665,0 -1.029,-0.497 -1.029,-1.12"
         style="fill:#000000;fill-opacity:1;fill-rule:nonzero;stroke:none"
         id="path358"
         inkscape:connector-curvature="0" /><path
         d="m 396.868,276.517 c 1.085,0 1.505,-0.637 1.505,-1.267 0,-0.441 -0.28,-0.848 -0.686,-1.029 0.595,-0.19 0.881,-0.623 0.881,-1.24 0,-0.959 -0.728,-1.511 -1.645,-1.511 -0.951,0 -1.687,0.497 -1.687,1.511 0,0.588 0.316,1.043 0.869,1.24 -0.413,0.168 -0.693,0.581 -0.693,1.029 0,0.818 0.693,1.267 1.456,1.267 z m 0.055,-4.522 c 0.596,0 1.016,0.412 1.016,0.966 0,0.539 -0.462,0.944 -1.022,0.944 -0.588,0 -1.05,-0.378 -1.05,-0.951 0,-0.596 0.441,-0.959 1.056,-0.959 z m 0,2.436 c 0.47,0 0.82,0.294 0.82,0.798 0,0.497 -0.35,0.762 -0.833,0.762 -0.476,0 -0.868,-0.265 -0.868,-0.762 0,-0.546 0.392,-0.798 0.881,-0.798"
         style="fill:#000000;fill-opacity:1;fill-rule:nonzero;stroke:none"
         id="path360"
         inkscape:connector-curvature="0" /><path
         d="m 366.45,275.25 c -0.07,0.805 -0.581,1.267 -1.4,1.267 -1.414,0 -1.827,-1.295 -1.827,-2.661 0,-1.043 0.238,-2.386 1.708,-2.386 1.253,0 1.659,0.945 1.659,1.666 0,0.917 -0.567,1.61 -1.519,1.61 -0.539,0 -0.959,-0.196 -1.239,-0.651 l -0.014,0.013 c 0.028,0.764 0.189,1.883 1.204,1.883 0.469,0 0.777,-0.294 0.833,-0.741 l 0.595,0 z m -1.491,-1.029 c 0.679,0 1.001,-0.511 1.001,-1.127 0,-0.588 -0.357,-1.099 -1.001,-1.099 -0.651,0 -1.029,0.489 -1.029,1.106 0,0.623 0.364,1.12 1.029,1.12"
         style="fill:#000000;fill-opacity:1;fill-rule:nonzero;stroke:none"
         id="path362"
         inkscape:connector-curvature="0" /><path
         d="m 338.748,305.388 -0.595,0 0,3.555 -1.288,0 0,0.477 c 0.679,0 1.295,0.181 1.428,0.93 l 0.455,0 0,-4.962"
         style="fill:#000000;fill-opacity:1;fill-rule:nonzero;stroke:none"
         id="path364"
         inkscape:connector-curvature="0" /><path
         d="m 342.094,310.35 c 1.554,0 1.652,-1.427 1.652,-2.527 0,-1.092 -0.098,-2.519 -1.652,-2.519 -1.554,0 -1.652,1.427 -1.652,2.519 0,1.1 0.098,2.527 1.652,2.527 z m 0,-4.521 c 1.015,0 1.022,1.26 1.022,2.002 0,0.734 -0.007,1.994 -1.022,1.994 -1.015,0 -1.022,-1.26 -1.022,-1.994 0,-0.742 0.007,-2.002 1.022,-2.002"
         style="fill:#000000;fill-opacity:1;fill-rule:nonzero;stroke:none"
         id="path366"
         inkscape:connector-curvature="0" /><path
         d="m 346.11,310.027 c -0.04,0.32 -0.26,0.53 -0.595,0.53 -0.725,0 -0.84,-0.799 -0.86,-1.344 l 0.01,-0.01 c 0.2,0.324 0.5,0.465 0.885,0.465 0.68,0 1.085,-0.495 1.085,-1.151 0,-0.514 -0.29,-1.189 -1.185,-1.189 -1.05,0 -1.22,0.96 -1.22,1.704 0,0.976 0.295,1.9 1.305,1.9 0.585,0 0.95,-0.33 1,-0.905 l -0.425,0 z m -1.375,-1.534 c 0,-0.44 0.27,-0.79 0.735,-0.79 0.46,0 0.715,0.364 0.715,0.784 0,0.441 -0.23,0.806 -0.715,0.806 -0.475,0 -0.735,-0.356 -0.735,-0.8"
         style="fill:#000000;fill-opacity:1;fill-rule:nonzero;stroke:none"
         id="path368"
         inkscape:connector-curvature="0" /><path
         d="m 338.748,333.887 -0.595,0 0,3.556 -1.288,0 0,0.477 c 0.679,0 1.295,0.181 1.428,0.93 l 0.455,0 0,-4.963"
         style="fill:#000000;fill-opacity:1;fill-rule:nonzero;stroke:none"
         id="path370"
         inkscape:connector-curvature="0" /><path
         d="m 342.094,338.85 c 1.554,0 1.652,-1.428 1.652,-2.527 0,-1.092 -0.098,-2.52 -1.652,-2.52 -1.554,0 -1.652,1.428 -1.652,2.52 0,1.099 0.098,2.527 1.652,2.527 z m 0,-4.521 c 1.015,0 1.022,1.26 1.022,2.002 0,0.734 -0.007,1.994 -1.022,1.994 -1.015,0 -1.022,-1.26 -1.022,-1.994 0,-0.742 0.007,-2.002 1.022,-2.002"
         style="fill:#000000;fill-opacity:1;fill-rule:nonzero;stroke:none"
         id="path372"
         inkscape:connector-curvature="0" /><path
         d="m 346.585,339.008 c -0.715,-0.711 -1.295,-2.01 -1.36,-3.121 l -0.475,0 c 0.08,1.201 0.655,2.295 1.4,3.085 l -1.86,0 0,0.401 2.295,0 0,-0.365"
         style="fill:#000000;fill-opacity:1;fill-rule:nonzero;stroke:none"
         id="path374"
         inkscape:connector-curvature="0" /><path
         d="m 338.748,361.887 -0.595,0 0,3.556 -1.288,0 0,0.476 c 0.679,0 1.295,0.182 1.428,0.931 l 0.455,0 0,-4.963"
         style="fill:#000000;fill-opacity:1;fill-rule:nonzero;stroke:none"
         id="path376"
         inkscape:connector-curvature="0" /><path
         d="m 342.094,366.85 c 1.554,0 1.652,-1.428 1.652,-2.527 0,-1.092 -0.098,-2.52 -1.652,-2.52 -1.554,0 -1.652,1.428 -1.652,2.52 0,1.099 0.098,2.527 1.652,2.527 z m 0,-4.521 c 1.015,0 1.022,1.259 1.022,2.002 0,0.734 -0.007,1.994 -1.022,1.994 -1.015,0 -1.022,-1.26 -1.022,-1.994 0,-0.743 0.007,-2.002 1.022,-2.002"
         style="fill:#000000;fill-opacity:1;fill-rule:nonzero;stroke:none"
         id="path378"
         inkscape:connector-curvature="0" /><path
         d="m 345.405,367.432 c 0.775,0 1.075,-0.455 1.075,-0.905 0,-0.315 -0.2,-0.605 -0.49,-0.735 0.425,-0.135 0.63,-0.445 0.63,-0.885 0,-0.685 -0.52,-1.079 -1.175,-1.079 -0.68,0 -1.205,0.354 -1.205,1.079 0,0.421 0.225,0.745 0.62,0.885 -0.295,0.121 -0.495,0.416 -0.495,0.735 0,0.585 0.495,0.905 1.04,0.905 z m 0.04,-3.229 c 0.425,0 0.725,0.295 0.725,0.689 0,0.385 -0.33,0.675 -0.73,0.675 -0.42,0 -0.75,-0.27 -0.75,-0.68 0,-0.425 0.315,-0.684 0.755,-0.684 z m 0,1.739 c 0.335,0 0.585,0.21 0.585,0.57 0,0.356 -0.25,0.545 -0.595,0.545 -0.34,0 -0.62,-0.189 -0.62,-0.545 0,-0.389 0.28,-0.57 0.63,-0.57"
         style="fill:#000000;fill-opacity:1;fill-rule:nonzero;stroke:none"
         id="path380"
         inkscape:connector-curvature="0" /><path
         d="m 348.736,395.082 177.261,0 m -177.261,0 0,-3.077 m 8.059,3.077 0,-3.077 m 8.055,3.077 0,-6.154 m 8.058,6.154 0,-3.077 m 8.059,3.077 0,-3.077 m 8.055,3.077 0,-3.077 m 8.059,3.077 0,-6.154 m 8.055,6.154 0,-3.077 m 8.058,3.077 0,-3.077 m 8.06,3.077 0,-3.077 m 8.055,3.077 0,-6.154 m 8.058,6.154 0,-3.077 m 8.06,3.077 0,-3.077 m 8.054,3.077 0,-3.077 m 8.059,3.077 0,-6.154 m 8.057,6.154 0,-3.077 m 8.055,3.077 0,-3.077 m 8.061,3.077 0,-3.077 m 8.054,3.077 0,-6.154 m 8.059,6.154 0,-3.077 m 8.059,3.077 0,-3.077 m 8.054,3.077 0,-3.077 m 8.058,3.077 0,-6.154 m -177.261,-109.636 0,115.79 m 0,-115.79 3.077,0 m -3.077,0 6.155,0 m -6.155,8.501 3.077,0 m -3.077,4.974 3.077,0 m -3.077,3.529 3.077,0 m -3.077,2.737 3.077,0 m -3.077,2.235 3.077,0 m -3.077,1.892 3.077,0 m -3.077,1.637 3.077,0 m -3.077,1.445 3.077,0 m -3.077,1.292 3.077,0 m -3.077,0 6.155,0 m -6.155,8.503 3.077,0 m -3.077,4.973 3.077,0 m -3.077,3.524 3.077,0 m -3.077,2.737 3.077,0 m -3.077,2.237 3.077,0 m -3.077,1.891 3.077,0 m -3.077,1.637 3.077,0 m -3.077,1.445 3.077,0 m -3.077,1.293 3.077,0 m -3.077,0 6.155,0 m -6.155,8.501 3.077,0 m -3.077,4.973 3.077,0 m -3.077,3.53 3.077,0 m -3.077,2.735 3.077,0 m -3.077,2.237 3.077,0 m -3.077,1.892 3.077,0 m -3.077,1.637 3.077,0 m -3.077,1.444 3.077,0 m -3.077,1.293 3.077,0 m -3.077,0 6.155,0 m -6.155,8.503 3.077,0 m -3.077,4.972 3.077,0 m -3.077,3.529 3.077,0 m -3.077,2.737 3.077,0 m -3.077,2.236 3.077,0 m -3.077,1.888 3.077,0 m -3.077,1.641 3.077,0 m -3.077,1.444 3.077,0 m -3.077,1.293 3.077,0 m -3.077,0 6.155,0"
         style="fill:none;stroke:#000000;stroke-width:0.5;stroke-linecap:round;stroke-linejoin:round;stroke-miterlimit:10;stroke-opacity:1;stroke-dasharray:none"
         id="path382"
         inkscape:connector-curvature="0" /><path
         d="m 525.997,279.292 0,115.79 m 0,-115.79 -3.077,0 m 3.077,0 -6.154,0 m 6.154,8.501 -3.077,0 m 3.077,4.974 -3.077,0 m 3.077,3.529 -3.077,0 m 3.077,2.737 -3.077,0 m 3.077,2.235 -3.077,0 m 3.077,1.892 -3.077,0 m 3.077,1.637 -3.077,0 m 3.077,1.445 -3.077,0 m 3.077,1.292 -3.077,0 m 3.077,0 -6.154,0 m 6.154,8.503 -3.077,0 m 3.077,4.973 -3.077,0 m 3.077,3.524 -3.077,0 m 3.077,2.737 -3.077,0 m 3.077,2.237 -3.077,0 m 3.077,1.891 -3.077,0 m 3.077,1.637 -3.077,0 m 3.077,1.445 -3.077,0 m 3.077,1.293 -3.077,0 m 3.077,0 -6.154,0 m 6.154,8.501 -3.077,0 m 3.077,4.973 -3.077,0 m 3.077,3.53 -3.077,0 m 3.077,2.735 -3.077,0 m 3.077,2.237 -3.077,0 m 3.077,1.892 -3.077,0 m 3.077,1.637 -3.077,0 m 3.077,1.444 -3.077,0 m 3.077,1.293 -3.077,0 m 3.077,0 -6.154,0 m 6.154,8.503 -3.077,0 m 3.077,4.972 -3.077,0 m 3.077,3.529 -3.077,0 m 3.077,2.737 -3.077,0 m 3.077,2.236 -3.077,0 m 3.077,1.888 -3.077,0 m 3.077,1.641 -3.077,0 m 3.077,1.444 -3.077,0 m 3.077,1.293 -3.077,0 m 3.077,0 -6.154,0"
         style="fill:none;stroke:#000000;stroke-width:0.5;stroke-linecap:round;stroke-linejoin:round;stroke-miterlimit:10;stroke-opacity:1;stroke-dasharray:none"
         id="path384"
         inkscape:connector-curvature="0" /><path
         d="m 519.975,390.621 c 0,1.133 -0.92,2.052 -2.053,2.052 -1.132,0 -2.05,-0.919 -2.05,-2.052 0,-1.131 0.918,-2.05 2.05,-2.05 1.133,0 2.053,0.919 2.053,2.05"
         style="fill:#000000;fill-opacity:1;fill-rule:nonzero;stroke:none"
         id="path386"
         inkscape:connector-curvature="0" /><path
         d="m 515.986,387.077 c 0,1.133 -0.92,2.051 -2.051,2.051 -1.133,0 -2.053,-0.918 -2.053,-2.051 0,-1.132 0.92,-2.052 2.053,-2.052 1.131,0 2.051,0.92 2.051,2.052"
         style="fill:#000000;fill-opacity:1;fill-rule:nonzero;stroke:none"
         id="path388"
         inkscape:connector-curvature="0" /><path
         d="m 511.949,372.009 c 0,1.133 -0.919,2.052 -2.053,2.052 -1.132,0 -2.052,-0.919 -2.052,-2.052 0,-1.132 0.92,-2.051 2.052,-2.051 1.134,0 2.053,0.919 2.053,2.051"
         style="fill:#000000;fill-opacity:1;fill-rule:nonzero;stroke:none"
         id="path390"
         inkscape:connector-curvature="0" /><path
         d="m 503.873,358.025 c 0,1.132 -0.919,2.052 -2.051,2.052 -1.133,0 -2.052,-0.92 -2.052,-2.052 0,-1.132 0.919,-2.052 2.052,-2.052 1.132,0 2.051,0.92 2.051,2.052"
         style="fill:#000000;fill-opacity:1;fill-rule:nonzero;stroke:none"
         id="path392"
         inkscape:connector-curvature="0" /><path
         d="m 479.696,340.497 c 0,1.132 -0.918,2.05 -2.051,2.05 -1.133,0 -2.053,-0.918 -2.053,-2.05 0,-1.134 0.92,-2.054 2.053,-2.054 1.133,0 2.051,0.92 2.051,2.054"
         style="fill:#000000;fill-opacity:1;fill-rule:nonzero;stroke:none"
         id="path394"
         inkscape:connector-curvature="0" /><path
         d="m 447.493,317.748 c 0,1.133 -0.918,2.051 -2.051,2.051 -1.133,0 -2.051,-0.918 -2.051,-2.051 0,-1.133 0.918,-2.052 2.051,-2.052 1.133,0 2.051,0.919 2.051,2.052"
         style="fill:#000000;fill-opacity:1;fill-rule:nonzero;stroke:none"
         id="path396"
         inkscape:connector-curvature="0" /><path
         d="m 423.317,307.507 c 0,1.131 -0.919,2.05 -2.05,2.05 -1.133,0 -2.053,-0.919 -2.053,-2.05 0,-1.134 0.92,-2.052 2.053,-2.052 1.131,0 2.05,0.918 2.05,2.052"
         style="fill:#000000;fill-opacity:1;fill-rule:nonzero;stroke:none"
         id="path398"
         inkscape:connector-curvature="0" /><path
         d="m 366.889,296.279 c 0,1.133 -0.919,2.052 -2.052,2.052 -1.132,0 -2.051,-0.919 -2.051,-2.052 0,-1.133 0.919,-2.053 2.051,-2.053 1.133,0 2.052,0.92 2.052,2.053"
         style="fill:#000000;fill-opacity:1;fill-rule:nonzero;stroke:none"
         id="path400"
         inkscape:connector-curvature="0" /><path
         d="m 517.939,390.614 -4.024,-3.55 -4.03,-15.07 -8.059,-13.961 -24.174,-17.532 -32.225,-22.753 -24.173,-10.214 -56.404,-11.238"
         style="fill:none;stroke:#000000;stroke-width:0.5;stroke-linecap:round;stroke-linejoin:round;stroke-miterlimit:10;stroke-opacity:1;stroke-dasharray:none"
         id="path402"
         inkscape:connector-curvature="0" /><path
         d="m 354.21,283.141 1.777,-3.078 1.776,3.078 -3.553,0"
         style="fill:#000000;fill-opacity:1;fill-rule:nonzero;stroke:none"
         id="path404"
         inkscape:connector-curvature="0" /><path
         d="m 398.205,283.141 1.777,-3.078 1.776,3.078 -3.553,0"
         style="fill:#000000;fill-opacity:1;fill-rule:nonzero;stroke:none"
         id="path406"
         inkscape:connector-curvature="0" /><path
         d="m 451.704,283.141 1.777,-3.078 1.777,3.078 -3.554,0"
         style="fill:#000000;fill-opacity:1;fill-rule:nonzero;stroke:none"
         id="path408"
         inkscape:connector-curvature="0" /><path
         d="m 495.215,283.141 1.778,-3.078 1.776,3.078 -3.554,0"
         style="fill:#000000;fill-opacity:1;fill-rule:nonzero;stroke:none"
         id="path410"
         inkscape:connector-curvature="0" /><path
         d="m 355.189,387.395 1.584,0 0,-2.016 0.016,0 c 0.24,0.352 0.664,0.56 1.136,0.56 1.392,0 1.768,-1.184 1.768,-2.16 0,-1.04 -0.568,-2.2 -1.744,-2.2 -0.776,0 -1.016,0.296 -1.216,0.56 l -0.016,0 0,-0.456 -1.528,0 0,5.712 z m 2.224,-2.608 c -0.568,0 -0.696,-0.536 -0.696,-1.024 0,-0.496 0.128,-1.032 0.696,-1.032 0.568,0 0.696,0.536 0.696,1.032 0,0.488 -0.128,1.024 -0.696,1.024"
         style="fill:#000000;fill-opacity:1;fill-rule:nonzero;stroke:none"
         id="path516"
         inkscape:connector-curvature="0" /><path
         d="m 338.748,276.888 -0.595,0 0,3.555 -1.288,0 0,0.477 c 0.679,0 1.295,0.182 1.428,0.931 l 0.455,0 0,-4.963"
         style="fill:#000000;fill-opacity:1;fill-rule:nonzero;stroke:none"
         id="path518"
         inkscape:connector-curvature="0" /><path
         d="m 342.094,281.851 c 1.554,0 1.652,-1.428 1.652,-2.528 0,-1.092 -0.098,-2.519 -1.652,-2.519 -1.554,0 -1.652,1.427 -1.652,2.519 0,1.1 0.098,2.528 1.652,2.528 z m 0,-4.522 c 1.015,0 1.022,1.26 1.022,2.002 0,0.734 -0.007,1.994 -1.022,1.994 -1.015,0 -1.022,-1.26 -1.022,-1.994 0,-0.742 0.007,-2.002 1.022,-2.002"
         style="fill:#000000;fill-opacity:1;fill-rule:nonzero;stroke:none"
         id="path520"
         inkscape:connector-curvature="0" /><path
         d="m 346.39,281.998 -1.43,0 -0.19,-1.02 0.01,-0.01 c 0.155,0.175 0.42,0.255 0.66,0.255 0.63,0 1.145,-0.406 1.145,-1.215 0,-0.601 -0.415,-1.18 -1.24,-1.18 -0.615,0 -1.115,0.375 -1.13,1.015 l 0.425,0 c 0.025,-0.365 0.32,-0.64 0.745,-0.64 0.405,0 0.75,0.275 0.75,0.84 0,0.47 -0.325,0.805 -0.8,0.805 -0.27,0 -0.495,-0.135 -0.66,-0.335 l -0.365,0.019 0.33,1.841 1.75,0 0,-0.375"
         style="fill:#000000;fill-opacity:1;fill-rule:nonzero;stroke:none"
         id="path522"
         inkscape:connector-curvature="0" /><path
         d="m 338.748,390.387 -0.595,0 0,3.556 -1.288,0 0,0.476 c 0.679,0 1.295,0.182 1.428,0.931 l 0.455,0 0,-4.963"
         style="fill:#000000;fill-opacity:1;fill-rule:nonzero;stroke:none"
         id="path542"
         inkscape:connector-curvature="0" /><path
         d="m 342.094,395.35 c 1.554,0 1.652,-1.428 1.652,-2.527 0,-1.092 -0.098,-2.52 -1.652,-2.52 -1.554,0 -1.652,1.428 -1.652,2.52 0,1.099 0.098,2.527 1.652,2.527 z m 0,-4.522 c 1.015,0 1.022,1.26 1.022,2.002 0,0.735 -0.007,1.995 -1.022,1.995 -1.015,0 -1.022,-1.26 -1.022,-1.995 0,-0.742 0.007,-2.002 1.022,-2.002"
         style="fill:#000000;fill-opacity:1;fill-rule:nonzero;stroke:none"
         id="path544"
         inkscape:connector-curvature="0" /><path
         d="m 344.71,393.242 c 0.03,-0.345 0.31,-0.54 0.65,-0.54 0.52,0 0.775,0.455 0.8,1.37 l -0.01,0.01 c -0.16,-0.3 -0.475,-0.49 -0.82,-0.49 -0.72,0 -1.12,0.485 -1.12,1.185 0,0.685 0.48,1.155 1.165,1.155 0.66,0 1.215,-0.355 1.215,-1.695 0,-1.225 -0.37,-1.91 -1.23,-1.91 -0.595,0 -1.02,0.305 -1.075,0.915 l 0.425,0 z m 0.645,2.315 c -0.505,0 -0.695,-0.405 -0.695,-0.84 0,-0.39 0.29,-0.75 0.7,-0.75 0.445,0 0.725,0.36 0.725,0.78 0,0.435 -0.255,0.81 -0.73,0.81"
         style="fill:#000000;fill-opacity:1;fill-rule:nonzero;stroke:none"
         id="path546"
         inkscape:connector-curvature="0" /></g><text
       xml:space="preserve"
       style="font-size:32px;font-style:normal;font-weight:normal;line-height:125%;letter-spacing:0px;word-spacing:0px;fill:#000000;fill-opacity:1;stroke:none;font-family:Sans"
       x="360.29257"
       y="-489.80405"
       id="text3245"
       sodipodi:linespacing="125%"
       transform="scale(1,-1)"><tspan
         sodipodi:role="line"
         id="tspan3247"
         x="360.29257"
         y="-489.80405"
         style="font-size:6.4000001px">Lebensdauer der Gasscheibe</tspan></text>
<text
       xml:space="preserve"
       style="font-size:7.19999981px;font-style:normal;font-weight:normal;line-height:125%;letter-spacing:0px;word-spacing:0px;fill:#000000;fill-opacity:1;stroke:none;font-family:Sans"
       x="378.67706"
       y="-402.88791"
       id="text3249"
       sodipodi:linespacing="125%"
       transform="scale(1,-1)"><tspan
         sodipodi:role="line"
         id="tspan3251"
         x="378.67706"
         y="-402.88791"
         style="font-size:6.4000001px">Anfängliche große Halbachse (AU)</tspan></text>
<text
       xml:space="preserve"
       style="font-size:6.4000001px;font-style:normal;font-weight:normal;line-height:125%;letter-spacing:0px;word-spacing:0px;fill:#000000;fill-opacity:1;stroke:none;font-family:Sans"
       x="384.48801"
       y="-262.22891"
       id="text3385"
       sodipodi:linespacing="125%"
       transform="scale(1,-1)"><tspan
         sodipodi:role="line"
         id="tspan3387"
         x="384.48801"
         y="-262.22891">Innerer Rand der Scheibe (AU)</tspan></text>
<text
       xml:space="preserve"
       style="font-size:6.4000001px;font-style:normal;font-weight:normal;line-height:125%;letter-spacing:0px;word-spacing:0px;fill:#000000;fill-opacity:1;stroke:none;font-family:Sans"
       x="423.65976"
       y="331.2774"
       id="text3389"
       sodipodi:linespacing="125%"
       transform="matrix(0,1,1,0,0,0)"><tspan
         sodipodi:role="line"
         id="tspan3391"
         x="423.65976"
         y="331.2774">Dynamische Lebensdauer (yr)</tspan></text>
<text
       xml:space="preserve"
       style="font-size:6.4000001px;font-style:normal;font-weight:normal;line-height:125%;letter-spacing:0px;word-spacing:0px;fill:#000000;fill-opacity:1;stroke:none;font-family:Sans"
       x="285.66507"
       y="331.2774"
       id="text3393"
       sodipodi:linespacing="125%"
       transform="matrix(0,1,1,0,0,0)"><tspan
         sodipodi:role="line"
         id="tspan3395"
         x="285.66507"
         y="331.2774">Verzögerung der 1:2 MMR (yr)</tspan></text>
</g></svg>