<?xml version="1.0" encoding="UTF-8" standalone="no"?>
<!-- Created with Inkscape (http://www.inkscape.org/) -->

<svg
   xmlns:dc="http://purl.org/dc/elements/1.1/"
   xmlns:cc="http://creativecommons.org/ns#"
   xmlns:rdf="http://www.w3.org/1999/02/22-rdf-syntax-ns#"
   xmlns:svg="http://www.w3.org/2000/svg"
   xmlns="http://www.w3.org/2000/svg"
   xmlns:sodipodi="http://sodipodi.sourceforge.net/DTD/sodipodi-0.dtd"
   xmlns:inkscape="http://www.inkscape.org/namespaces/inkscape"
   id="svg2"
   version="1.1"
   inkscape:version="0.48.4 r9939"
   width="267.76999"
   height="350.14774"
   xml:space="preserve"
   sodipodi:docname="Gomes2005.pdf"><metadata
     id="metadata8"><rdf:RDF><cc:Work
         rdf:about=""><dc:format>image/svg+xml</dc:format><dc:type
           rdf:resource="http://purl.org/dc/dcmitype/StillImage" /><dc:title></dc:title></cc:Work></rdf:RDF></metadata><defs
     id="defs6"><clipPath
       clipPathUnits="userSpaceOnUse"
       id="clipPath878"><path
         d="m 0,782.362 595.275,0 0,-782.302 L 0,0.06 0,782.362 z"
         id="path880"
         inkscape:connector-curvature="0" /></clipPath></defs><sodipodi:namedview
     pagecolor="#ffffff"
     bordercolor="#666666"
     borderopacity="1"
     objecttolerance="10"
     gridtolerance="10"
     guidetolerance="10"
     inkscape:pageopacity="0"
     inkscape:pageshadow="2"
     inkscape:window-width="1280"
     inkscape:window-height="951"
     id="namedview4"
     showgrid="false"
     fit-margin-top="5"
     fit-margin-right="5"
     fit-margin-bottom="5"
     fit-margin-left="5"
     inkscape:zoom="1.55"
     inkscape:cx="103.33016"
     inkscape:cy="153.15436"
     inkscape:window-x="0"
     inkscape:window-y="25"
     inkscape:window-maximized="1"
     inkscape:current-layer="g10" /><g
     id="g10"
     inkscape:groupmode="layer"
     inkscape:label="Gomes2005"
     transform="matrix(1.25,0,0,-1.25,-399.4625,672.08023)"><g
       id="g4357"><path
         d="m 348.736,417.622 177.261,0 m -177.261,0 0,3.077 m 8.059,-3.077 0,3.077 m 8.055,-3.077 0,6.155 m 8.058,-6.155 0,3.077 m 8.059,-3.077 0,3.077 m 8.055,-3.077 0,3.077 m 8.059,-3.077 0,6.155 m 8.055,-6.155 0,3.077 m 8.058,-3.077 0,3.077 m 8.06,-3.077 0,3.077 m 8.055,-3.077 0,6.155 m 8.058,-6.155 0,3.077 m 8.06,-3.077 0,3.077 m 8.054,-3.077 0,3.077 m 8.059,-3.077 0,6.155 m 8.057,-6.155 0,3.077 m 8.055,-3.077 0,3.077 m 8.061,-3.077 0,3.077 m 8.054,-3.077 0,6.155 m 8.059,-6.155 0,3.077 m 8.059,-3.077 0,3.077 m 8.054,-3.077 0,3.077 m 8.058,-3.077 0,6.155 m -177.261,109.636 177.261,0 m -177.261,0 0,-3.078 m 8.059,3.078 0,-3.078 m 8.055,3.078 0,-6.155 m 8.058,6.155 0,-3.078 m 8.059,3.078 0,-3.078 m 8.055,3.078 0,-3.078 m 8.059,3.078 0,-6.155 m 8.055,6.155 0,-3.078 m 8.058,3.078 0,-3.078 m 8.06,3.078 0,-3.078 m 8.055,3.078 0,-6.155 m 8.058,6.155 0,-3.078 m 8.06,3.078 0,-3.078 m 8.054,3.078 0,-3.078 m 8.059,3.078 0,-6.155 m 8.057,6.155 0,-3.078 m 8.055,3.078 0,-3.078 m 8.061,3.078 0,-3.078 m 8.054,3.078 0,-6.155 m 8.059,6.155 0,-3.078 m 8.059,3.078 0,-3.078 m 8.054,3.078 0,-3.078 m 8.058,3.078 0,-6.155 m -177.261,-109.636 0,115.791 m 0,-115.791 3.077,0 m -3.077,0 6.155,0 m -6.155,13.943 3.077,0 m -3.077,8.158 3.077,0 m -3.077,5.785 3.077,0 m -3.077,4.489 3.077,0 m -3.077,3.668 3.077,0 m -3.077,3.099 3.077,0 m -3.077,2.687 3.077,0 m -3.077,2.368 3.077,0 m -3.077,2.121 3.077,0 m -3.077,0 6.155,0 m -6.155,13.943 3.077,0 m -3.077,8.153 3.077,0 m -3.077,5.786 3.077,0 m -3.077,4.489 3.077,0 m -3.077,3.668 3.077,0 m -3.077,3.102 3.077,0 m -3.077,2.684 3.077,0 m -3.077,2.372 3.077,0 m -3.077,2.117 3.077,0 m -3.077,0 6.155,0 m -6.155,13.942 3.077,0 m -3.077,8.158 3.077,0"
         style="fill:none;stroke:#000000;stroke-width:0.5;stroke-linecap:round;stroke-linejoin:round;stroke-miterlimit:10;stroke-opacity:1;stroke-dasharray:none"
         id="path296"
         inkscape:connector-curvature="0" /><path
         d="m 525.997,417.622 0,115.791 m 0,-115.791 -3.077,0 m 3.077,0 -6.154,0 m 6.154,13.943 -3.077,0 m 3.077,8.158 -3.077,0 m 3.077,5.785 -3.077,0 m 3.077,4.489 -3.077,0 m 3.077,3.668 -3.077,0 m 3.077,3.099 -3.077,0 m 3.077,2.687 -3.077,0 m 3.077,2.368 -3.077,0 m 3.077,2.121 -3.077,0 m 3.077,0 -6.154,0 m 6.154,13.943 -3.077,0 m 3.077,8.153 -3.077,0 m 3.077,5.786 -3.077,0 m 3.077,4.489 -3.077,0 m 3.077,3.668 -3.077,0 m 3.077,3.102 -3.077,0 m 3.077,2.684 -3.077,0 m 3.077,2.372 -3.077,0 m 3.077,2.117 -3.077,0 m 3.077,0 -6.154,0 m 6.154,13.942 -3.077,0 m 3.077,8.158 -3.077,0"
         style="fill:none;stroke:#000000;stroke-width:0.5;stroke-linecap:round;stroke-linejoin:round;stroke-miterlimit:10;stroke-opacity:1;stroke-dasharray:none"
         id="path298"
         inkscape:connector-curvature="0" /><path
         d="m 426.813,431.565 0.341,0 0,-13.943 -0.341,0 0,13.943 z m 1.019,-13.943 0,8.814 0.339,0 0,7.648 0.342,0 0,-16.462 m 0.336,0 0,25.953 0.339,0 0,0.899 0.338,0 0,-26.852 m 0.339,0 0,12.913 0.341,0 0,-10.997 0.338,0 0,9.91 0.34,0 0,-11.826 m 1.358,1.916 0.336,0 0,-1.917 -0.336,0 0,1.917 z m 1.354,21.481 0.341,0 0,-23.397 -0.341,0 0,23.397 z m 2.035,-7.538 0.342,0 0,-15.859 -0.342,0 0,15.859 z m 0.677,0.895 0.341,0 0,-16.754 -0.341,0 0,16.754 z m 17.295,22.1 0.336,0 0,-38.854 -0.336,0 0,38.854 z m 1.696,-38.854 0,35.703 0.34,0 0,-2.93 0.335,0 0,-32.773 m 36.287,36.043 0.336,0 0,-36.043 -0.336,0 0,36.043 z m 1.013,-1.751 0.341,0 0,-34.292 -0.341,0 0,34.292 z m 8.477,-34.292 0,13.943 0.341,0 0,2.811 0.341,0 0,-16.754 m 0.677,28.382 0.341,0 0,-28.382 -0.341,0 0,28.382 z m 9.154,8.958 0.341,0 0,-37.341 -0.341,0 0,37.341 z m 1.695,-37.34 0,25.198 0.34,0 0,-9.339 0.342,0 0,-15.859 0.335,0 0,70.872 0.341,0 0,-70.872 m 0.34,48.234 0.338,0 0,-48.235 -0.338,0 0,48.235 z m 0.677,-48.234 0,94.125 0.337,0 0,6.229 0.341,0 0,-33.86 0.341,0 0,-66.494 m 0.336,0 0,81.052 0.34,0 0,11.891 0.342,0 0,-27.54 0.336,0 0,9.991 0.339,0 0,-30.853 0.341,0 0,18.617 0.337,0 0,23.376 0.34,0 0,0.143 0.337,0 0,-14.881 0.341,0 0,13.922 0.341,0 0,-13.213 0.335,0 0,-18.514 0.342,0 0,27.664 0.34,0 0,4.9 0.336,0 0,-1.679 0.342,0 0,2.656 0.34,0 0,-1.982 0.336,0 0,3.992 0.34,0 0,6.344 0.337,0 0,-6.163 0.34,0 0,2.125 0.342,0 0,-2.515 0.336,0 0,-2.5 0.341,0 0,3.021 0.339,0 0,2.864 0.168,0 0,-92.718 -8.308,0"
         style="fill:#000000;fill-opacity:1;fill-rule:nonzero;stroke:none"
         id="path300"
         inkscape:connector-curvature="0" /><path
         d="m 348.736,486.032 177.261,0"
         style="fill:none;stroke:#000000;stroke-width:0.5;stroke-linecap:round;stroke-linejoin:round;stroke-miterlimit:10;stroke-opacity:1;stroke-dasharray:1, 3;stroke-dashoffset:0"
         id="path302"
         inkscape:connector-curvature="0" /><path
         d="m 354.21,423.28 1.777,-3.077 1.776,3.077 -3.553,0"
         style="fill:#000000;fill-opacity:1;fill-rule:nonzero;stroke:none"
         id="path304"
         inkscape:connector-curvature="0" /><path
         d="m 398.205,423.28 1.777,-3.077 1.776,3.077 -3.553,0"
         style="fill:#000000;fill-opacity:1;fill-rule:nonzero;stroke:none"
         id="path306"
         inkscape:connector-curvature="0" /><path
         d="m 451.704,423.28 1.777,-3.077 1.777,3.077 -3.554,0"
         style="fill:#000000;fill-opacity:1;fill-rule:nonzero;stroke:none"
         id="path308"
         inkscape:connector-curvature="0" /><path
         d="m 495.215,423.28 1.778,-3.077 1.776,3.077 -3.554,0"
         style="fill:#000000;fill-opacity:1;fill-rule:nonzero;stroke:none"
         id="path310"
         inkscape:connector-curvature="0" /><path
         d="m 364.634,488.859 c -0.386,-0.525 -1.016,-0.742 -1.603,-0.742 -1.492,0 -2.381,1.218 -2.381,2.52 0,1.456 0.799,2.716 2.381,2.716 1.091,0 1.96,-0.49 2.149,-1.659 l -0.666,0 c -0.133,0.756 -0.742,1.099 -1.483,1.099 -1.211,0 -1.716,-1.05 -1.716,-2.121 0,-1.043 0.602,-1.995 1.716,-1.995 1.028,0 1.645,0.721 1.603,1.631 l -1.597,0 0,0.56 2.191,0 0,-2.632 -0.42,0 -0.174,0.623"
         style="fill:#000000;fill-opacity:1;fill-rule:nonzero;stroke:none"
         id="path312"
         inkscape:connector-curvature="0" /><path
         d="m 369.316,488.25 c -0.105,-0.063 -0.238,-0.098 -0.427,-0.098 -0.308,0 -0.504,0.168 -0.504,0.56 -0.329,-0.385 -0.769,-0.56 -1.274,-0.56 -0.658,0 -1.197,0.294 -1.197,1.015 0,0.819 0.609,0.994 1.225,1.113 0.658,0.126 1.218,0.084 1.218,0.532 0,0.518 -0.427,0.602 -0.804,0.602 -0.505,0 -0.875,-0.154 -0.904,-0.686 l -0.594,0 c 0.034,0.896 0.728,1.211 1.532,1.211 0.651,0 1.358,-0.147 1.358,-0.994 l 0,-1.862 c 0,-0.28 0,-0.406 0.189,-0.406 0.049,0 0.106,0.007 0.182,0.035 l 0,-0.462 z m -0.966,1.855 c -0.231,-0.168 -0.679,-0.175 -1.078,-0.245 -0.392,-0.07 -0.728,-0.21 -0.728,-0.651 0,-0.392 0.336,-0.532 0.7,-0.532 0.784,0 1.106,0.49 1.106,0.819 l 0,0.609"
         style="fill:#000000;fill-opacity:1;fill-rule:nonzero;stroke:none"
         id="path314"
         inkscape:connector-curvature="0" /><path
         d="m 370.233,489.377 c 0.021,-0.532 0.483,-0.7 0.973,-0.7 0.371,0 0.875,0.084 0.875,0.539 0,0.462 -0.588,0.539 -1.183,0.672 -0.588,0.133 -1.183,0.329 -1.183,1.022 0,0.728 0.721,1.029 1.351,1.029 0.798,0 1.435,-0.252 1.484,-1.134 l -0.595,0 c -0.042,0.462 -0.448,0.609 -0.84,0.609 -0.357,0 -0.77,-0.098 -0.77,-0.462 0,-0.427 0.63,-0.497 1.183,-0.63 0.595,-0.133 1.183,-0.329 1.183,-1.029 0,-0.861 -0.805,-1.141 -1.54,-1.141 -0.812,0 -1.498,0.329 -1.533,1.225 l 0.595,0"
         style="fill:#000000;fill-opacity:1;fill-rule:nonzero;stroke:none"
         id="path316"
         inkscape:connector-curvature="0" /><path
         d="m 378.549,488.236 -0.595,0 0,0.49 -0.014,0 c -0.196,-0.399 -0.658,-0.574 -1.155,-0.574 -1.113,0 -1.666,0.882 -1.666,1.904 0,1.022 0.546,1.883 1.652,1.883 0.371,0 0.903,-0.14 1.169,-0.567 l 0.014,0 0,1.862 0.595,0 0,-4.998 z m -1.68,0.441 c 0.798,0 1.106,0.686 1.106,1.365 0,0.714 -0.322,1.372 -1.141,1.372 -0.812,0 -1.085,-0.693 -1.085,-1.4 0,-0.679 0.35,-1.337 1.12,-1.337"
         style="fill:#000000;fill-opacity:1;fill-rule:nonzero;stroke:none"
         id="path318"
         inkscape:connector-curvature="0" /><path
         d="m 379.501,493.234 0.595,0 0,-0.728 -0.595,0 0,0.728 z m 0,-1.379 0.595,0 0,-3.619 -0.595,0 0,3.619 z"
         style="fill:#000000;fill-opacity:1;fill-rule:nonzero;stroke:none"
         id="path320"
         inkscape:connector-curvature="0" /><path
         d="m 381.384,489.377 c 0.021,-0.532 0.483,-0.7 0.973,-0.7 0.371,0 0.875,0.084 0.875,0.539 0,0.462 -0.588,0.539 -1.183,0.672 -0.588,0.133 -1.183,0.329 -1.183,1.022 0,0.728 0.721,1.029 1.351,1.029 0.798,0 1.435,-0.252 1.484,-1.134 l -0.595,0 c -0.042,0.462 -0.448,0.609 -0.84,0.609 -0.357,0 -0.77,-0.098 -0.77,-0.462 0,-0.427 0.63,-0.497 1.183,-0.63 0.595,-0.133 1.183,-0.329 1.183,-1.029 0,-0.861 -0.805,-1.141 -1.54,-1.141 -0.812,0 -1.498,0.329 -1.533,1.225 l 0.595,0"
         style="fill:#000000;fill-opacity:1;fill-rule:nonzero;stroke:none"
         id="path322"
         inkscape:connector-curvature="0" /><path
         d="m 384.555,493.234 0.595,0 0,-2.961 1.652,1.582 0.798,0 -1.435,-1.316 1.54,-2.303 -0.756,0 -1.239,1.89 -0.56,-0.518 0,-1.372 -0.595,0 0,4.998"
         style="fill:#000000;fill-opacity:1;fill-rule:nonzero;stroke:none"
         id="path324"
         inkscape:connector-curvature="0" /><path
         d="m 390.134,493.234 0.595,0 0,-4.998 -0.595,0 0,4.998 z"
         style="fill:#000000;fill-opacity:1;fill-rule:nonzero;stroke:none"
         id="path326"
         inkscape:connector-curvature="0" /><path
         d="m 391.688,493.234 0.595,0 0,-0.728 -0.595,0 0,0.728 z m 0,-1.379 0.595,0 0,-3.619 -0.595,0 0,3.619 z"
         style="fill:#000000;fill-opacity:1;fill-rule:nonzero;stroke:none"
         id="path328"
         inkscape:connector-curvature="0" /><path
         d="m 393.452,491.33 -0.61,0 0,0.525 0.61,0 0,0.539 c 0,0.588 0.349,0.896 1.001,0.896 0.112,0 0.273,-0.021 0.385,-0.056 l 0,-0.518 c -0.105,0.035 -0.231,0.049 -0.336,0.049 -0.288,0 -0.456,-0.091 -0.456,-0.406 l 0,-0.504 0.701,0 0,-0.525 -0.701,0 0,-3.094 -0.594,0 0,3.094"
         style="fill:#000000;fill-opacity:1;fill-rule:nonzero;stroke:none"
         id="path330"
         inkscape:connector-curvature="0" /><path
         d="m 398.365,489.384 c -0.16,-0.798 -0.735,-1.232 -1.547,-1.232 -1.154,0 -1.701,0.798 -1.735,1.904 0,1.085 0.713,1.883 1.7,1.883 1.282,0 1.674,-1.197 1.638,-2.072 l -2.708,0 c -0.021,-0.63 0.335,-1.19 1.126,-1.19 0.491,0 0.833,0.238 0.938,0.707 l 0.588,0 z m -0.573,1.008 c -0.028,0.567 -0.455,1.022 -1.043,1.022 -0.623,0 -0.995,-0.469 -1.036,-1.022 l 2.079,0"
         style="fill:#000000;fill-opacity:1;fill-rule:nonzero;stroke:none"
         id="path332"
         inkscape:connector-curvature="0" /><path
         d="m 399.863,492.94 -0.594,0 0,-1.085 -0.617,0 0,-0.525 0.617,0 0,-2.303 c 0,-0.665 0.244,-0.791 0.86,-0.791 l 0.456,0 0,0.525 -0.273,0 c -0.371,0 -0.449,0.049 -0.449,0.322 l 0,2.247 0.722,0 0,0.525 -0.722,0 0,1.085"
         style="fill:#000000;fill-opacity:1;fill-rule:nonzero;stroke:none"
         id="path334"
         inkscape:connector-curvature="0" /><path
         d="m 401.277,492.506 0.595,0 0,0.728 -0.595,0 0,-0.728 z m 0,-4.27 0.595,0 0,3.619 -0.595,0 0,-3.619 z"
         style="fill:#000000;fill-opacity:1;fill-rule:nonzero;stroke:none"
         id="path336"
         inkscape:connector-curvature="0" /><path
         d="m 402.796,491.855 0.56,0 0,-0.532 0.014,0 c 0.266,0.406 0.672,0.616 1.169,0.616 0.441,0 0.847,-0.175 0.994,-0.616 0.245,0.385 0.672,0.616 1.134,0.616 0.721,0 1.204,-0.301 1.204,-1.05 l 0,-2.653 -0.595,0 0,2.373 c 0,0.448 -0.119,0.805 -0.7,0.805 -0.574,0 -0.945,-0.364 -0.945,-0.924 l 0,-2.254 -0.595,0 0,2.373 c 0,0.469 -0.147,0.805 -0.679,0.805 -0.707,0 -0.966,-0.651 -0.966,-0.924 l 0,-2.254 -0.595,0 0,3.619"
         style="fill:#000000;fill-opacity:1;fill-rule:nonzero;stroke:none"
         id="path338"
         inkscape:connector-curvature="0" /><path
         d="m 411.854,489.384 c -0.161,-0.798 -0.735,-1.232 -1.547,-1.232 -1.155,0 -1.701,0.798 -1.736,1.904 0,1.085 0.714,1.883 1.701,1.883 1.281,0 1.673,-1.197 1.638,-2.072 l -2.709,0 c -0.021,-0.63 0.336,-1.19 1.127,-1.19 0.49,0 0.833,0.238 0.938,0.707 l 0.588,0 z m -0.574,1.008 c -0.028,0.567 -0.455,1.022 -1.043,1.022 -0.623,0 -0.994,-0.469 -1.036,-1.022 l 2.079,0"
         style="fill:#000000;fill-opacity:1;fill-rule:nonzero;stroke:none"
         id="path340"
         inkscape:connector-curvature="0" /><path
         d="m 427.502,410.303 -0.595,0 0,3.556 -1.288,0 0,0.476 c 0.679,0 1.295,0.182 1.428,0.931 l 0.455,0 0,-4.963"
         style="fill:#000000;fill-opacity:1;fill-rule:nonzero;stroke:none"
         id="path446"
         inkscape:connector-curvature="0" /><path
         d="m 430.849,415.266 c 1.553,0 1.651,-1.428 1.651,-2.527 0,-1.092 -0.098,-2.52 -1.651,-2.52 -1.555,0 -1.653,1.428 -1.653,2.52 0,1.099 0.098,2.527 1.653,2.527 z m 0,-4.522 c 1.014,0 1.021,1.26 1.021,2.002 0,0.735 -0.007,1.995 -1.021,1.995 -1.016,0 -1.023,-1.26 -1.023,-1.995 0,-0.742 0.007,-2.002 1.023,-2.002"
         style="fill:#000000;fill-opacity:1;fill-rule:nonzero;stroke:none"
         id="path448"
         inkscape:connector-curvature="0" /><path
         d="m 460.003,410.303 -0.595,0 0,3.556 -1.288,0 0,0.476 c 0.679,0 1.295,0.182 1.428,0.931 l 0.455,0 0,-4.963"
         style="fill:#000000;fill-opacity:1;fill-rule:nonzero;stroke:none"
         id="path450"
         inkscape:connector-curvature="0" /><path
         d="m 461.711,413.509 c -0.049,1.008 0.546,1.757 1.595,1.757 0.869,0 1.554,-0.504 1.554,-1.428 0,-0.875 -0.588,-1.316 -1.204,-1.701 -0.622,-0.378 -1.273,-0.693 -1.393,-1.309 l 2.548,0 0,-0.525 -3.241,0 c 0.099,1.176 0.693,1.596 1.394,2.03 0.839,0.518 1.266,0.826 1.266,1.512 0,0.539 -0.433,0.896 -0.959,0.896 -0.692,0 -0.986,-0.637 -0.966,-1.232 l -0.594,0"
         style="fill:#000000;fill-opacity:1;fill-rule:nonzero;stroke:none"
         id="path452"
         inkscape:connector-curvature="0" /><path
         d="m 492.253,410.303 -0.595,0 0,3.556 -1.288,0 0,0.476 c 0.678,0 1.295,0.182 1.427,0.931 l 0.456,0 0,-4.963"
         style="fill:#000000;fill-opacity:1;fill-rule:nonzero;stroke:none"
         id="path454"
         inkscape:connector-curvature="0" /><path
         d="m 496.586,411.99 0.671,0 0,-0.525 -0.671,0 0,-1.162 -0.561,0 0,1.162 -2.177,0 0,0.574 2.261,3.227 0.477,0 0,-3.276 z m -0.561,0 0,2.429 -0.014,0 -1.652,-2.429 1.666,0"
         style="fill:#000000;fill-opacity:1;fill-rule:nonzero;stroke:none"
         id="path456"
         inkscape:connector-curvature="0" /><path
         d="m 524.752,410.303 -0.594,0 0,3.556 -1.288,0 0,0.476 c 0.678,0 1.294,0.182 1.427,0.931 l 0.455,0 0,-4.963"
         style="fill:#000000;fill-opacity:1;fill-rule:nonzero;stroke:none"
         id="path458"
         inkscape:connector-curvature="0" /><path
         d="m 529.05,413.999 c -0.055,0.448 -0.364,0.742 -0.833,0.742 -1.014,0 -1.176,-1.12 -1.204,-1.883 l 0.014,-0.014 c 0.28,0.455 0.7,0.651 1.239,0.651 0.952,0 1.52,-0.693 1.52,-1.61 0,-0.721 -0.407,-1.666 -1.66,-1.666 -1.469,0 -1.708,1.344 -1.708,2.387 0,1.365 0.413,2.66 1.827,2.66 0.819,0 1.331,-0.462 1.4,-1.267 l -0.595,0 z m -1.925,-2.149 c 0,-0.616 0.378,-1.106 1.029,-1.106 0.644,0 1.001,0.511 1.001,1.099 0,0.616 -0.322,1.127 -1.001,1.127 -0.665,0 -1.029,-0.497 -1.029,-1.12"
         style="fill:#000000;fill-opacity:1;fill-rule:nonzero;stroke:none"
         id="path460"
         inkscape:connector-curvature="0" /><path
         d="m 396.868,415.266 c 1.085,0 1.505,-0.637 1.505,-1.267 0,-0.441 -0.28,-0.847 -0.686,-1.029 0.595,-0.189 0.881,-0.623 0.881,-1.239 0,-0.959 -0.728,-1.512 -1.645,-1.512 -0.951,0 -1.687,0.497 -1.687,1.512 0,0.588 0.316,1.043 0.869,1.239 -0.413,0.168 -0.693,0.581 -0.693,1.029 0,0.819 0.693,1.267 1.456,1.267 z m 0.055,-4.522 c 0.596,0 1.016,0.413 1.016,0.966 0,0.539 -0.462,0.945 -1.022,0.945 -0.588,0 -1.05,-0.378 -1.05,-0.952 0,-0.595 0.441,-0.959 1.056,-0.959 z m 0,2.436 c 0.47,0 0.82,0.294 0.82,0.798 0,0.497 -0.35,0.763 -0.833,0.763 -0.476,0 -0.868,-0.266 -0.868,-0.763 0,-0.546 0.392,-0.798 0.881,-0.798"
         style="fill:#000000;fill-opacity:1;fill-rule:nonzero;stroke:none"
         id="path462"
         inkscape:connector-curvature="0" /><path
         d="m 365.855,413.999 c -0.056,0.448 -0.364,0.742 -0.833,0.742 -1.015,0 -1.176,-1.12 -1.204,-1.883 l 0.014,-0.014 c 0.28,0.455 0.7,0.651 1.239,0.651 0.952,0 1.519,-0.693 1.519,-1.61 0,-0.721 -0.406,-1.666 -1.659,-1.666 -1.47,0 -1.708,1.344 -1.708,2.387 0,1.365 0.413,2.66 1.827,2.66 0.819,0 1.33,-0.462 1.4,-1.267 l -0.595,0 z m -1.925,-2.149 c 0,-0.616 0.378,-1.106 1.029,-1.106 0.644,0 1.001,0.511 1.001,1.099 0,0.616 -0.322,1.127 -1.001,1.127 -0.665,0 -1.029,-0.497 -1.029,-1.12"
         style="fill:#000000;fill-opacity:1;fill-rule:nonzero;stroke:none"
         id="path464"
         inkscape:connector-curvature="0" /><path
         d="m 399.156,407.263 0.665,0 0,-4.998 -0.665,0 0,4.998 z"
         style="fill:#000000;fill-opacity:1;fill-rule:nonzero;stroke:none"
         id="path466"
         inkscape:connector-curvature="0" /><path
         d="m 400.843,405.884 0.56,0 0,-0.574 0.014,0 c 0.252,0.448 0.658,0.658 1.176,0.658 0.952,0 1.246,-0.546 1.246,-1.323 l 0,-2.38 -0.595,0 0,2.45 c 0,0.441 -0.28,0.728 -0.735,0.728 -0.721,0 -1.071,-0.483 -1.071,-1.134 l 0,-2.044 -0.595,0 0,3.619"
         style="fill:#000000;fill-opacity:1;fill-rule:nonzero;stroke:none"
         id="path468"
         inkscape:connector-curvature="0" /><path
         d="m 404.77,406.535 0.595,0 0,0.728 -0.595,0 0,-0.728 z m 0,-4.27 0.595,0 0,3.619 -0.595,0 0,-3.619 z"
         style="fill:#000000;fill-opacity:1;fill-rule:nonzero;stroke:none"
         id="path470"
         inkscape:connector-curvature="0" /><path
         d="m 407.115,405.884 0.721,0 0,-0.525 -0.721,0 0,-2.247 c 0,-0.273 0.077,-0.322 0.448,-0.322 l 0.273,0 0,-0.525 -0.455,0 c -0.616,0 -0.861,0.126 -0.861,0.791 l 0,2.303 -0.616,0 0,0.525 0.616,0 0,1.085 0.595,0 0,-1.085"
         style="fill:#000000;fill-opacity:1;fill-rule:nonzero;stroke:none"
         id="path472"
         inkscape:connector-curvature="0" /><path
         d="m 408.529,406.535 0.595,0 0,0.728 -0.595,0 0,-0.728 z m 0,-4.27 0.595,0 0,3.619 -0.595,0 0,-3.619 z"
         style="fill:#000000;fill-opacity:1;fill-rule:nonzero;stroke:none"
         id="path474"
         inkscape:connector-curvature="0" /><path
         d="m 413.253,402.279 c -0.105,-0.063 -0.237,-0.098 -0.426,-0.098 -0.308,0 -0.504,0.168 -0.504,0.56 -0.329,-0.385 -0.77,-0.56 -1.274,-0.56 -0.658,0 -1.197,0.294 -1.197,1.015 0,0.819 0.609,0.994 1.225,1.113 0.657,0.126 1.217,0.084 1.217,0.532 0,0.518 -0.426,0.602 -0.804,0.602 -0.504,0 -0.875,-0.154 -0.903,-0.686 l -0.595,0 c 0.035,0.896 0.728,1.211 1.532,1.211 0.652,0 1.359,-0.147 1.359,-0.994 l 0,-1.862 c 0,-0.28 0,-0.406 0.189,-0.406 0.049,0 0.105,0.007 0.181,0.035 l 0,-0.462 z m -0.965,1.855 c -0.231,-0.168 -0.68,-0.175 -1.079,-0.245 -0.392,-0.07 -0.728,-0.21 -0.728,-0.651 0,-0.392 0.336,-0.532 0.701,-0.532 0.784,0 1.106,0.49 1.106,0.819 l 0,0.609"
         style="fill:#000000;fill-opacity:1;fill-rule:nonzero;stroke:none"
         id="path476"
         inkscape:connector-curvature="0" /><path
         d="m 413.841,407.263 0.595,0 0,-4.998 -0.595,0 0,4.998 z"
         style="fill:#000000;fill-opacity:1;fill-rule:nonzero;stroke:none"
         id="path478"
         inkscape:connector-curvature="0" /><path
         d="m 417.67,403.406 c 0.021,-0.532 0.483,-0.7 0.974,-0.7 0.371,0 0.875,0.084 0.875,0.539 0,0.462 -0.588,0.539 -1.184,0.672 -0.587,0.133 -1.183,0.329 -1.183,1.022 0,0.728 0.722,1.029 1.351,1.029 0.798,0 1.435,-0.252 1.484,-1.134 l -0.594,0 c -0.042,0.462 -0.449,0.609 -0.841,0.609 -0.357,0 -0.77,-0.098 -0.77,-0.462 0,-0.427 0.631,-0.497 1.183,-0.63 0.596,-0.133 1.183,-0.329 1.183,-1.029 0,-0.861 -0.805,-1.141 -1.54,-1.141 -0.812,0 -1.498,0.329 -1.533,1.225 l 0.595,0"
         style="fill:#000000;fill-opacity:1;fill-rule:nonzero;stroke:none"
         id="path480"
         inkscape:connector-curvature="0" /><path
         d="m 423.894,403.413 c -0.162,-0.798 -0.736,-1.232 -1.547,-1.232 -1.156,0 -1.701,0.798 -1.737,1.904 0,1.085 0.714,1.883 1.702,1.883 1.28,0 1.672,-1.197 1.637,-2.072 l -2.709,0 c -0.021,-0.63 0.337,-1.19 1.127,-1.19 0.49,0 0.833,0.238 0.939,0.707 l 0.588,0 z m -0.575,1.008 c -0.027,0.567 -0.455,1.022 -1.043,1.022 -0.623,0 -0.994,-0.469 -1.036,-1.022 l 2.079,0"
         style="fill:#000000;fill-opacity:1;fill-rule:nonzero;stroke:none"
         id="path482"
         inkscape:connector-curvature="0" /><path
         d="m 424.565,405.884 0.56,0 0,-0.532 0.014,0 c 0.266,0.406 0.673,0.616 1.169,0.616 0.442,0 0.847,-0.175 0.994,-0.616 0.245,0.385 0.672,0.616 1.135,0.616 0.72,0 1.204,-0.301 1.204,-1.05 l 0,-2.653 -0.596,0 0,2.373 c 0,0.448 -0.119,0.805 -0.7,0.805 -0.574,0 -0.945,-0.364 -0.945,-0.924 l 0,-2.254 -0.595,0 0,2.373 c 0,0.469 -0.147,0.805 -0.679,0.805 -0.707,0 -0.966,-0.651 -0.966,-0.924 l 0,-2.254 -0.595,0 0,3.619"
         style="fill:#000000;fill-opacity:1;fill-rule:nonzero;stroke:none"
         id="path484"
         inkscape:connector-curvature="0" /><path
         d="m 430.571,407.263 0.595,0 0,-0.728 -0.595,0 0,0.728 z m 0,-1.379 0.595,0 0,-3.619 -0.595,0 0,3.619 z"
         style="fill:#000000;fill-opacity:1;fill-rule:nonzero;stroke:none"
         id="path486"
         inkscape:connector-curvature="0" /><path
         d="m 432.09,405.884 0.56,0 0,-0.532 0.014,0 c 0.267,0.406 0.672,0.616 1.169,0.616 0.441,0 0.848,-0.175 0.994,-0.616 0.245,0.385 0.672,0.616 1.134,0.616 0.722,0 1.204,-0.301 1.204,-1.05 l 0,-2.653 -0.595,0 0,2.373 c 0,0.448 -0.119,0.805 -0.7,0.805 -0.574,0 -0.945,-0.364 -0.945,-0.924 l 0,-2.254 -0.595,0 0,2.373 c 0,0.469 -0.147,0.805 -0.679,0.805 -0.707,0 -0.966,-0.651 -0.966,-0.924 l 0,-2.254 -0.595,0 0,3.619"
         style="fill:#000000;fill-opacity:1;fill-rule:nonzero;stroke:none"
         id="path488"
         inkscape:connector-curvature="0" /><path
         d="m 441.267,402.279 c -0.105,-0.063 -0.238,-0.098 -0.427,-0.098 -0.308,0 -0.504,0.168 -0.504,0.56 -0.329,-0.385 -0.77,-0.56 -1.274,-0.56 -0.658,0 -1.197,0.294 -1.197,1.015 0,0.819 0.61,0.994 1.225,1.113 0.658,0.126 1.218,0.084 1.218,0.532 0,0.518 -0.427,0.602 -0.805,0.602 -0.504,0 -0.875,-0.154 -0.903,-0.686 l -0.595,0 c 0.035,0.896 0.728,1.211 1.533,1.211 0.651,0 1.358,-0.147 1.358,-0.994 l 0,-1.862 c 0,-0.28 0,-0.406 0.189,-0.406 0.049,0 0.105,0.007 0.182,0.035 l 0,-0.462 z m -0.966,1.855 c -0.231,-0.168 -0.679,-0.175 -1.077,-0.245 -0.393,-0.07 -0.729,-0.21 -0.729,-0.651 0,-0.392 0.336,-0.532 0.7,-0.532 0.784,0 1.106,0.49 1.106,0.819 l 0,0.609"
         style="fill:#000000;fill-opacity:1;fill-rule:nonzero;stroke:none"
         id="path490"
         inkscape:connector-curvature="0" /><path
         d="m 442.45,401.803 c 0,-0.644 -0.343,-0.924 -0.868,-0.924 -0.098,0 -0.203,0.007 -0.308,0.028 l 0,0.511 c 0.084,-0.014 0.161,-0.014 0.245,-0.014 0.259,0 0.336,0.126 0.336,0.497 l 0,3.983 0.595,0 0,-4.081 z m -0.595,5.46 0.595,0 0,-0.728 -0.595,0 0,0.728 z"
         style="fill:#000000;fill-opacity:1;fill-rule:nonzero;stroke:none"
         id="path492"
         inkscape:connector-curvature="0" /><path
         d="m 444.934,405.968 c 1.149,0 1.758,-0.833 1.758,-1.897 0,-1.057 -0.609,-1.89 -1.758,-1.89 -1.147,0 -1.756,0.833 -1.756,1.89 0,1.064 0.609,1.897 1.756,1.897 z m 0,-3.262 c 0.623,0 1.127,0.49 1.127,1.365 0,0.882 -0.504,1.372 -1.127,1.372 -0.623,0 -1.126,-0.49 -1.126,-1.372 0,-0.875 0.503,-1.365 1.126,-1.365"
         style="fill:#000000;fill-opacity:1;fill-rule:nonzero;stroke:none"
         id="path494"
         inkscape:connector-curvature="0" /><path
         d="m 447.371,405.884 0.559,0 0,-0.763 0.015,0 c 0.286,0.581 0.686,0.868 1.33,0.847 l 0,-0.63 c -0.959,0 -1.309,-0.546 -1.309,-1.463 l 0,-1.61 -0.595,0 0,3.619"
         style="fill:#000000;fill-opacity:1;fill-rule:nonzero;stroke:none"
         id="path496"
         inkscape:connector-curvature="0" /><path
         d="m 454.875,402.279 c -0.106,-0.063 -0.238,-0.098 -0.427,-0.098 -0.309,0 -0.504,0.168 -0.504,0.56 -0.329,-0.385 -0.77,-0.56 -1.274,-0.56 -0.658,0 -1.198,0.294 -1.198,1.015 0,0.819 0.61,0.994 1.226,1.113 0.657,0.126 1.218,0.084 1.218,0.532 0,0.518 -0.427,0.602 -0.805,0.602 -0.505,0 -0.875,-0.154 -0.903,-0.686 l -0.595,0 c 0.034,0.896 0.728,1.211 1.532,1.211 0.652,0 1.359,-0.147 1.359,-0.994 l 0,-1.862 c 0,-0.28 0,-0.406 0.188,-0.406 0.05,0 0.106,0.007 0.183,0.035 l 0,-0.462 z m -0.966,1.855 c -0.231,-0.168 -0.68,-0.175 -1.078,-0.245 -0.393,-0.07 -0.729,-0.21 -0.729,-0.651 0,-0.392 0.336,-0.532 0.701,-0.532 0.784,0 1.106,0.49 1.106,0.819 l 0,0.609"
         style="fill:#000000;fill-opacity:1;fill-rule:nonzero;stroke:none"
         id="path498"
         inkscape:connector-curvature="0" /><path
         d="m 456.4,404.169 -1.26,1.715 0.763,0 0.868,-1.267 0.904,1.267 0.713,0 -1.246,-1.666 1.401,-1.953 -0.763,0 -1.009,1.498 -1.008,-1.498 -0.72,0 1.357,1.904"
         style="fill:#000000;fill-opacity:1;fill-rule:nonzero;stroke:none"
         id="path500"
         inkscape:connector-curvature="0" /><path
         d="m 459.089,407.263 0.595,0 0,-0.728 -0.595,0 0,0.728 z m 0,-1.379 0.595,0 0,-3.619 -0.595,0 0,3.619 z"
         style="fill:#000000;fill-opacity:1;fill-rule:nonzero;stroke:none"
         id="path502"
         inkscape:connector-curvature="0" /><path
         d="m 460.971,403.406 c 0.021,-0.532 0.484,-0.7 0.973,-0.7 0.371,0 0.875,0.084 0.875,0.539 0,0.462 -0.588,0.539 -1.182,0.672 -0.588,0.133 -1.183,0.329 -1.183,1.022 0,0.728 0.721,1.029 1.35,1.029 0.798,0 1.435,-0.252 1.485,-1.134 l -0.596,0 c -0.042,0.462 -0.448,0.609 -0.84,0.609 -0.356,0 -0.769,-0.098 -0.769,-0.462 0,-0.427 0.63,-0.497 1.182,-0.63 0.595,-0.133 1.183,-0.329 1.183,-1.029 0,-0.861 -0.805,-1.141 -1.54,-1.141 -0.812,0 -1.498,0.329 -1.532,1.225 l 0.594,0"
         style="fill:#000000;fill-opacity:1;fill-rule:nonzero;stroke:none"
         id="path504"
         inkscape:connector-curvature="0" /><path
         d="m 467.033,400.879 c -0.672,1.05 -1.099,2.051 -1.099,3.276 0,1.092 0.385,2.275 1.099,3.227 l 0.455,0 c -0.665,-1.05 -0.924,-2.093 -0.924,-3.227 0,-1.176 0.259,-2.205 0.924,-3.276 l -0.455,0"
         style="fill:#000000;fill-opacity:1;fill-rule:nonzero;stroke:none"
         id="path506"
         inkscape:connector-curvature="0" /><path
         d="m 469.227,406.192 0.577,0 1.536,-3.927 -0.579,0 -0.428,1.183 -1.661,0 -0.441,-1.183 -0.538,0 1.534,3.927 z m -0.39,-2.305 1.331,0 -0.655,1.832 -0.011,0 -0.665,-1.832"
         style="fill:#000000;fill-opacity:1;fill-rule:nonzero;stroke:none"
         id="path508"
         inkscape:connector-curvature="0" /><path
         d="m 474.859,403.684 c 0,-0.99 -0.566,-1.512 -1.546,-1.512 -1.012,0 -1.611,0.467 -1.611,1.512 l 0,2.508 0.522,0 0,-2.508 c 0,-0.693 0.397,-1.072 1.089,-1.072 0.66,0 1.024,0.379 1.024,1.072 l 0,2.508 0.522,0 0,-2.508"
         style="fill:#000000;fill-opacity:1;fill-rule:nonzero;stroke:none"
         id="path510"
         inkscape:connector-curvature="0" /><path
         d="m 475.651,400.879 c 0.714,0.952 1.1,2.135 1.1,3.227 0,1.225 -0.428,2.226 -1.1,3.276 l -0.455,0 c 0.665,-1.071 0.924,-2.1 0.924,-3.276 0,-1.134 -0.259,-2.177 -0.924,-3.227 l 0.455,0"
         style="fill:#000000;fill-opacity:1;fill-rule:nonzero;stroke:none"
         id="path512"
         inkscape:connector-curvature="0" /><path
         d="m 359.385,522.963 c 0,-0.312 0.016,-0.664 0.192,-0.928 l -1.616,0 c -0.04,0.112 -0.064,0.28 -0.056,0.392 l -0.016,0 c -0.336,-0.384 -0.824,-0.496 -1.336,-0.496 -0.8,0 -1.464,0.384 -1.464,1.256 0,1.312 1.536,1.264 2.344,1.416 0.216,0.04 0.432,0.104 0.432,0.368 0,0.28 -0.264,0.384 -0.52,0.384 -0.488,0 -0.584,-0.248 -0.592,-0.424 l -1.472,0 c 0.048,1.168 1.152,1.36 2.136,1.36 1.984,0 1.968,-0.824 1.968,-1.624 l 0,-1.704 z m -1.52,0.936 c -0.192,-0.096 -0.408,-0.152 -0.624,-0.2 -0.352,-0.08 -0.536,-0.168 -0.536,-0.448 0,-0.192 0.208,-0.384 0.496,-0.384 0.36,0 0.64,0.216 0.664,0.648 l 0,0.384"
         style="fill:#000000;fill-opacity:1;fill-rule:nonzero;stroke:none"
         id="path514"
         inkscape:connector-curvature="0" /><path
         d="m 338.748,461.387 -0.595,0 0,3.556 -1.288,0 0,0.476 c 0.679,0 1.295,0.182 1.428,0.931 l 0.455,0 0,-4.963"
         style="fill:#000000;fill-opacity:1;fill-rule:nonzero;stroke:none"
         id="path524"
         inkscape:connector-curvature="0" /><path
         d="m 342.094,466.35 c 1.554,0 1.652,-1.428 1.652,-2.527 0,-1.093 -0.098,-2.52 -1.652,-2.52 -1.554,0 -1.652,1.427 -1.652,2.52 0,1.099 0.098,2.527 1.652,2.527 z m 0,-4.522 c 1.015,0 1.022,1.26 1.022,2.002 0,0.735 -0.007,1.995 -1.022,1.995 -1.015,0 -1.022,-1.26 -1.022,-1.995 0,-0.742 0.007,-2.002 1.022,-2.002"
         style="fill:#000000;fill-opacity:1;fill-rule:nonzero;stroke:none"
         id="path526"
         inkscape:connector-curvature="0" /><path
         d="m 346.11,466.027 c -0.04,0.32 -0.26,0.53 -0.595,0.53 -0.725,0 -0.84,-0.8 -0.86,-1.345 l 0.01,-0.01 c 0.2,0.325 0.5,0.464 0.885,0.464 0.68,0 1.085,-0.494 1.085,-1.149 0,-0.515 -0.29,-1.19 -1.185,-1.19 -1.05,0 -1.22,0.96 -1.22,1.705 0,0.975 0.295,1.9 1.305,1.9 0.585,0 0.95,-0.33 1,-0.905 l -0.425,0 z m -1.375,-1.535 c 0,-0.44 0.27,-0.79 0.735,-0.79 0.46,0 0.715,0.365 0.715,0.785 0,0.44 -0.23,0.804 -0.715,0.804 -0.475,0 -0.735,-0.354 -0.735,-0.799"
         style="fill:#000000;fill-opacity:1;fill-rule:nonzero;stroke:none"
         id="path528"
         inkscape:connector-curvature="0" /><path
         d="m 338.748,507.887 -0.595,0 0,3.556 -1.288,0 0,0.476 c 0.679,0 1.295,0.181 1.428,0.93 l 0.455,0 0,-4.962"
         style="fill:#000000;fill-opacity:1;fill-rule:nonzero;stroke:none"
         id="path530"
         inkscape:connector-curvature="0" /><path
         d="m 342.094,512.849 c 1.554,0 1.652,-1.427 1.652,-2.527 0,-1.092 -0.098,-2.52 -1.652,-2.52 -1.554,0 -1.652,1.428 -1.652,2.52 0,1.1 0.098,2.527 1.652,2.527 z m 0,-4.522 c 1.015,0 1.022,1.261 1.022,2.002 0,0.736 -0.007,1.995 -1.022,1.995 -1.015,0 -1.022,-1.259 -1.022,-1.995 0,-0.741 0.007,-2.002 1.022,-2.002"
         style="fill:#000000;fill-opacity:1;fill-rule:nonzero;stroke:none"
         id="path532"
         inkscape:connector-curvature="0" /><path
         d="m 346.585,513.007 c -0.715,-0.71 -1.295,-2.011 -1.36,-3.12 l -0.475,0 c 0.08,1.2 0.655,2.294 1.4,3.084 l -1.86,0 0,0.4 2.295,0 0,-0.364"
         style="fill:#000000;fill-opacity:1;fill-rule:nonzero;stroke:none"
         id="path534"
         inkscape:connector-curvature="0" /><path
         d="m 338.748,415.137 -0.595,0 0,3.556 -1.288,0 0,0.476 c 0.679,0 1.295,0.182 1.428,0.931 l 0.455,0 0,-4.963"
         style="fill:#000000;fill-opacity:1;fill-rule:nonzero;stroke:none"
         id="path536"
         inkscape:connector-curvature="0" /><path
         d="m 342.094,420.1 c 1.554,0 1.652,-1.428 1.652,-2.527 0,-1.092 -0.098,-2.52 -1.652,-2.52 -1.554,0 -1.652,1.428 -1.652,2.52 0,1.099 0.098,2.527 1.652,2.527 z m 0,-4.522 c 1.015,0 1.022,1.26 1.022,2.002 0,0.735 -0.007,1.995 -1.022,1.995 -1.015,0 -1.022,-1.26 -1.022,-1.995 0,-0.742 0.007,-2.002 1.022,-2.002"
         style="fill:#000000;fill-opacity:1;fill-rule:nonzero;stroke:none"
         id="path538"
         inkscape:connector-curvature="0" /><path
         d="m 346.39,420.247 -1.43,0 -0.19,-1.02 0.01,-0.01 c 0.155,0.175 0.42,0.255 0.66,0.255 0.63,0 1.145,-0.405 1.145,-1.215 0,-0.6 -0.415,-1.18 -1.24,-1.18 -0.615,0 -1.115,0.375 -1.13,1.015 l 0.425,0 c 0.025,-0.365 0.32,-0.64 0.745,-0.64 0.405,0 0.75,0.275 0.75,0.84 0,0.47 -0.325,0.805 -0.8,0.805 -0.27,0 -0.495,-0.135 -0.66,-0.335 l -0.365,0.02 0.33,1.84 1.75,0 0,-0.375"
         style="fill:#000000;fill-opacity:1;fill-rule:nonzero;stroke:none"
         id="path540"
         inkscape:connector-curvature="0" /><path
         d="m 323.689,441.646 0,1.714 c 0,1.54 0.77,2.402 2.38,2.402 1.673,0 2.618,-0.736 2.618,-2.402 l 0,-1.714 -4.998,0 z m 4.438,0.665 0,1.106 c 0,0.455 -0.126,1.68 -1.967,1.68 -1.19,0 -1.911,-0.441 -1.911,-1.666 l 0,-1.12 3.878,0"
         style="fill:#000000;fill-opacity:1;fill-rule:nonzero;stroke:none"
         id="path548"
         inkscape:connector-curvature="0" /><path
         d="m 329.17,447.897 c 0.707,-0.273 0.966,-0.519 0.966,-1.05 0,-0.14 -0.014,-0.281 -0.063,-0.413 l -0.546,0 c 0.035,0.112 0.084,0.231 0.084,0.35 0,0.244 -0.119,0.378 -0.329,0.49 l -0.616,0.245 -3.598,-1.435 0,0.671 2.961,1.058 0,0.014 -2.961,1.015 0,0.63 4.102,-1.575"
         style="fill:#000000;fill-opacity:1;fill-rule:nonzero;stroke:none"
         id="path550"
         inkscape:connector-curvature="0" /><path
         d="m 325.068,449.976 0,0.56 0.574,0 0,0.014 c -0.448,0.252 -0.658,0.658 -0.658,1.176 0,0.952 0.546,1.246 1.323,1.246 l 2.38,0 0,-0.596 -2.45,0 c -0.441,0 -0.728,-0.279 -0.728,-0.734 0,-0.721 0.483,-1.072 1.134,-1.072 l 2.044,0 0,-0.594 -3.619,0"
         style="fill:#000000;fill-opacity:1;fill-rule:nonzero;stroke:none"
         id="path552"
         inkscape:connector-curvature="0" /><path
         d="m 328.673,457.074 c 0.063,-0.105 0.098,-0.239 0.098,-0.428 0,-0.308 -0.168,-0.503 -0.56,-0.503 0.385,-0.33 0.56,-0.77 0.56,-1.274 0,-0.659 -0.294,-1.198 -1.015,-1.198 -0.819,0 -0.994,0.61 -1.113,1.225 -0.126,0.659 -0.084,1.219 -0.532,1.219 -0.518,0 -0.602,-0.427 -0.602,-0.805 0,-0.504 0.154,-0.875 0.686,-0.903 l 0,-0.595 c -0.896,0.035 -1.211,0.728 -1.211,1.533 0,0.651 0.147,1.358 0.994,1.358 l 1.862,0 c 0.28,0 0.406,0 0.406,0.189 0,0.048 -0.007,0.105 -0.035,0.182 l 0.462,0 z m -1.855,-0.967 c 0.168,-0.231 0.175,-0.678 0.245,-1.077 0.07,-0.392 0.21,-0.728 0.651,-0.728 0.392,0 0.532,0.336 0.532,0.699 0,0.785 -0.49,1.106 -0.819,1.106 l -0.609,0"
         style="fill:#000000;fill-opacity:1;fill-rule:nonzero;stroke:none"
         id="path554"
         inkscape:connector-curvature="0" /><path
         d="m 325.068,457.626 0,0.561 0.532,0 0,0.014 c -0.406,0.265 -0.616,0.672 -0.616,1.169 0,0.441 0.175,0.846 0.616,0.993 -0.385,0.245 -0.616,0.673 -0.616,1.135 0,0.72 0.301,1.204 1.05,1.204 l 2.653,0 0,-0.596 -2.373,0 c -0.448,0 -0.805,-0.119 -0.805,-0.7 0,-0.573 0.364,-0.945 0.924,-0.945 l 2.254,0 0,-0.594 -2.373,0 c -0.469,0 -0.805,-0.148 -0.805,-0.68 0,-0.707 0.651,-0.965 0.924,-0.965 l 2.254,0 0,-0.596 -3.619,0"
         style="fill:#000000;fill-opacity:1;fill-rule:nonzero;stroke:none"
         id="path556"
         inkscape:connector-curvature="0" /><path
         d="m 323.689,464.228 0.728,0 0,-0.595 -0.728,0 0,0.595 z m 1.379,0 3.619,0 0,-0.595 -3.619,0 0,0.595 z"
         style="fill:#000000;fill-opacity:1;fill-rule:nonzero;stroke:none"
         id="path558"
         inkscape:connector-curvature="0" /><path
         d="m 326.23,467.608 c -0.455,-0.09 -0.721,-0.406 -0.721,-0.896 0,-0.86 0.679,-1.127 1.414,-1.127 0.665,0 1.323,0.301 1.323,1.058 0,0.573 -0.336,0.917 -0.882,0.993 l 0,0.609 c 0.882,-0.133 1.407,-0.685 1.407,-1.596 0,-1.106 -0.77,-1.693 -1.848,-1.693 -1.085,0 -1.939,0.559 -1.939,1.708 0,0.818 0.385,1.476 1.246,1.56 l 0,-0.616"
         style="fill:#000000;fill-opacity:1;fill-rule:nonzero;stroke:none"
         id="path560"
         inkscape:connector-curvature="0" /><path
         d="m 328.673,472.116 c 0.063,-0.105 0.098,-0.238 0.098,-0.427 0,-0.308 -0.168,-0.504 -0.56,-0.504 0.385,-0.329 0.56,-0.77 0.56,-1.274 0,-0.658 -0.294,-1.197 -1.015,-1.197 -0.819,0 -0.994,0.609 -1.113,1.225 -0.126,0.658 -0.084,1.218 -0.532,1.218 -0.518,0 -0.602,-0.427 -0.602,-0.805 0,-0.504 0.154,-0.875 0.686,-0.903 l 0,-0.595 c -0.896,0.035 -1.211,0.728 -1.211,1.533 0,0.651 0.147,1.358 0.994,1.358 l 1.862,0 c 0.28,0 0.406,0 0.406,0.189 0,0.049 -0.007,0.105 -0.035,0.182 l 0.462,0 z m -1.855,-0.966 c 0.168,-0.231 0.175,-0.679 0.245,-1.078 0.07,-0.392 0.21,-0.728 0.651,-0.728 0.392,0 0.532,0.336 0.532,0.7 0,0.784 -0.49,1.106 -0.819,1.106 l -0.609,0"
         style="fill:#000000;fill-opacity:1;fill-rule:nonzero;stroke:none"
         id="path562"
         inkscape:connector-curvature="0" /><path
         d="m 323.689,473.299 4.998,0 0,-0.595 -4.998,0 0,0.595 z"
         style="fill:#000000;fill-opacity:1;fill-rule:nonzero;stroke:none"
         id="path564"
         inkscape:connector-curvature="0" /><path
         d="m 323.689,476.799 4.998,0 0,-0.595 -4.998,0 0,0.595 z"
         style="fill:#000000;fill-opacity:1;fill-rule:nonzero;stroke:none"
         id="path566"
         inkscape:connector-curvature="0" /><path
         d="m 323.689,477.758 0.728,0 0,0.595 -0.728,0 0,-0.595 z m 1.379,0 3.619,0 0,0.595 -3.619,0 0,-0.595 z"
         style="fill:#000000;fill-opacity:1;fill-rule:nonzero;stroke:none"
         id="path568"
         inkscape:connector-curvature="0" /><path
         d="m 325.593,479.522 0,-0.609 -0.525,0 0,0.609 -0.539,0 c -0.588,0 -0.896,0.35 -0.896,1.001 0,0.112 0.021,0.273 0.056,0.385 l 0.518,0 c -0.035,-0.105 -0.049,-0.231 -0.049,-0.336 0,-0.287 0.091,-0.455 0.406,-0.455 l 0.504,0 0,0.7 0.525,0 0,-0.7 3.094,0 0,-0.595 -3.094,0"
         style="fill:#000000;fill-opacity:1;fill-rule:nonzero;stroke:none"
         id="path570"
         inkscape:connector-curvature="0" /><path
         d="m 327.539,484.435 c 0.798,-0.16 1.232,-0.734 1.232,-1.546 0,-1.155 -0.798,-1.701 -1.904,-1.736 -1.085,0 -1.883,0.714 -1.883,1.701 0,1.281 1.197,1.673 2.072,1.638 l 0,-2.709 c 0.63,-0.021 1.19,0.336 1.19,1.127 0,0.49 -0.238,0.833 -0.707,0.938 l 0,0.587 z m -1.008,-0.573 c -0.567,-0.028 -1.022,-0.455 -1.022,-1.043 0,-0.623 0.469,-0.994 1.022,-1.036 l 0,2.079"
         style="fill:#000000;fill-opacity:1;fill-rule:nonzero;stroke:none"
         id="path572"
         inkscape:connector-curvature="0" /><path
         d="m 325.068,485.933 0,0.722 0.525,0 0,-0.722 2.247,0 c 0.273,0 0.322,0.078 0.322,0.449 l 0,0.273 0.525,0 0,-0.456 c 0,-0.616 -0.126,-0.86 -0.791,-0.86 l -2.303,0 0,-0.616 -0.525,0 0,0.616 -1.085,0 0,0.594 1.085,0"
         style="fill:#000000;fill-opacity:1;fill-rule:nonzero;stroke:none"
         id="path574"
         inkscape:connector-curvature="0" /><path
         d="m 323.689,487.348 0.728,0 0,0.595 -0.728,0 0,-0.595 z m 1.379,0 3.619,0 0,0.595 -3.619,0 0,-0.595 z"
         style="fill:#000000;fill-opacity:1;fill-rule:nonzero;stroke:none"
         id="path576"
         inkscape:connector-curvature="0" /><path
         d="m 325.068,488.866 0,0.56 0.532,0 0,0.014 c -0.406,0.266 -0.616,0.672 -0.616,1.169 0,0.441 0.175,0.847 0.616,0.994 -0.385,0.245 -0.616,0.672 -0.616,1.134 0,0.721 0.301,1.204 1.05,1.204 l 2.653,0 0,-0.594 -2.373,0 c -0.448,0 -0.805,-0.12 -0.805,-0.701 0,-0.574 0.364,-0.944 0.924,-0.944 l 2.254,0 0,-0.596 -2.373,0 c -0.469,0 -0.805,-0.147 -0.805,-0.678 0,-0.708 0.651,-0.967 0.924,-0.967 l 2.254,0 0,-0.595 -3.619,0"
         style="fill:#000000;fill-opacity:1;fill-rule:nonzero;stroke:none"
         id="path578"
         inkscape:connector-curvature="0" /><path
         d="m 327.539,497.924 c 0.798,-0.161 1.232,-0.735 1.232,-1.547 0,-1.155 -0.798,-1.701 -1.904,-1.736 -1.085,0 -1.883,0.714 -1.883,1.701 0,1.281 1.197,1.674 2.072,1.638 l 0,-2.709 c 0.63,-0.021 1.19,0.336 1.19,1.127 0,0.49 -0.238,0.833 -0.707,0.938 l 0,0.588 z m -1.008,-0.574 c -0.567,-0.028 -1.022,-0.455 -1.022,-1.043 0,-0.623 0.469,-0.994 1.022,-1.036 l 0,2.079"
         style="fill:#000000;fill-opacity:1;fill-rule:nonzero;stroke:none"
         id="path580"
         inkscape:connector-curvature="0" /><path
         d="m 330.073,501.522 c -1.05,-0.672 -2.051,-1.099 -3.276,-1.099 -1.092,0 -2.275,0.385 -3.227,1.099 l 0,0.455 c 1.05,-0.665 2.093,-0.924 3.227,-0.924 1.176,0 2.205,0.259 3.276,0.924 l 0,-0.455"
         style="fill:#000000;fill-opacity:1;fill-rule:nonzero;stroke:none"
         id="path582"
         inkscape:connector-curvature="0" /><path
         d="m 329.17,503.776 c 0.707,-0.273 0.966,-0.518 0.966,-1.05 0,-0.14 -0.014,-0.28 -0.063,-0.413 l -0.546,0 c 0.035,0.112 0.084,0.231 0.084,0.35 0,0.245 -0.119,0.378 -0.329,0.49 l -0.616,0.245 -3.598,-1.435 0,0.672 2.961,1.057 0,0.014 -2.961,1.015 0,0.63 4.102,-1.575"
         style="fill:#000000;fill-opacity:1;fill-rule:nonzero;stroke:none"
         id="path584"
         inkscape:connector-curvature="0" /><path
         d="m 325.068,505.834 0,0.56 0.763,0 0,0.014 c -0.581,0.287 -0.868,0.686 -0.847,1.33 l 0.63,0 c 0,-0.959 0.546,-1.309 1.463,-1.309 l 1.61,0 0,-0.595 -3.619,0"
         style="fill:#000000;fill-opacity:1;fill-rule:nonzero;stroke:none"
         id="path586"
         inkscape:connector-curvature="0" /><path
         d="m 330.073,507.668 c -1.05,0.665 -2.093,0.924 -3.227,0.924 -1.176,0 -2.205,-0.259 -3.276,-0.924 l 0,0.455 c 1.05,0.672 2.051,1.099 3.276,1.099 1.092,0 2.275,-0.385 3.227,-1.099 l 0,-0.455"
         style="fill:#000000;fill-opacity:1;fill-rule:nonzero;stroke:none"
         id="path588"
         inkscape:connector-curvature="0" /></g><g
       id="g4447"><path
         d="m 348.736,279.292 177.261,0 m -177.261,0 0,3.077 m 8.059,-3.077 0,3.077 m 8.055,-3.077 0,6.155 m 8.058,-6.155 0,3.077 m 8.059,-3.077 0,3.077 m 8.055,-3.077 0,3.077 m 8.059,-3.077 0,6.155 m 8.055,-6.155 0,3.077 m 8.058,-3.077 0,3.077 m 8.06,-3.077 0,3.077 m 8.055,-3.077 0,6.155 m 8.058,-6.155 0,3.077 m 8.06,-3.077 0,3.077 m 8.054,-3.077 0,3.077 m 8.059,-3.077 0,6.155 m 8.057,-6.155 0,3.077 m 8.055,-3.077 0,3.077 m 8.061,-3.077 0,3.077 m 8.054,-3.077 0,6.155 m 8.059,-6.155 0,3.077 m 8.059,-3.077 0,3.077 m 8.054,-3.077 0,3.077 m 8.058,-3.077 0,6.155"
         style="fill:none;stroke:#000000;stroke-width:0.5;stroke-linecap:round;stroke-linejoin:round;stroke-miterlimit:10;stroke-opacity:1;stroke-dasharray:none"
         id="path342"
         inkscape:connector-curvature="0" /><path
         d="m 427.502,271.554 -0.595,0 0,3.555 -1.288,0 0,0.477 c 0.679,0 1.295,0.182 1.428,0.931 l 0.455,0 0,-4.963"
         style="fill:#000000;fill-opacity:1;fill-rule:nonzero;stroke:none"
         id="path344"
         inkscape:connector-curvature="0" /><path
         d="m 430.849,276.517 c 1.553,0 1.651,-1.428 1.651,-2.528 0,-1.092 -0.098,-2.519 -1.651,-2.519 -1.555,0 -1.653,1.427 -1.653,2.519 0,1.1 0.098,2.528 1.653,2.528 z m 0,-4.522 c 1.014,0 1.021,1.26 1.021,2.002 0,0.734 -0.007,1.994 -1.021,1.994 -1.016,0 -1.023,-1.26 -1.023,-1.994 0,-0.742 0.007,-2.002 1.023,-2.002"
         style="fill:#000000;fill-opacity:1;fill-rule:nonzero;stroke:none"
         id="path346"
         inkscape:connector-curvature="0" /><path
         d="m 460.003,271.554 -0.595,0 0,3.555 -1.288,0 0,0.477 c 0.679,0 1.295,0.182 1.428,0.931 l 0.455,0 0,-4.963"
         style="fill:#000000;fill-opacity:1;fill-rule:nonzero;stroke:none"
         id="path348"
         inkscape:connector-curvature="0" /><path
         d="m 461.711,274.76 c -0.049,1.008 0.546,1.757 1.595,1.757 0.869,0 1.554,-0.504 1.554,-1.428 0,-0.875 -0.588,-1.317 -1.204,-1.701 -0.622,-0.378 -1.273,-0.694 -1.393,-1.309 l 2.548,0 0,-0.525 -3.241,0 c 0.099,1.176 0.693,1.595 1.394,2.03 0.839,0.518 1.266,0.826 1.266,1.512 0,0.539 -0.433,0.895 -0.959,0.895 -0.692,0 -0.986,-0.636 -0.966,-1.231 l -0.594,0"
         style="fill:#000000;fill-opacity:1;fill-rule:nonzero;stroke:none"
         id="path350"
         inkscape:connector-curvature="0" /><path
         d="m 492.253,271.554 -0.595,0 0,3.555 -1.288,0 0,0.477 c 0.678,0 1.295,0.182 1.427,0.931 l 0.456,0 0,-4.963"
         style="fill:#000000;fill-opacity:1;fill-rule:nonzero;stroke:none"
         id="path352"
         inkscape:connector-curvature="0" /><path
         d="m 496.586,273.24 0.671,0 0,-0.524 -0.671,0 0,-1.162 -0.561,0 0,1.162 -2.177,0 0,0.574 2.261,3.227 0.477,0 0,-3.277 z m -0.561,0 0,2.43 -0.014,0 -1.652,-2.43 1.666,0"
         style="fill:#000000;fill-opacity:1;fill-rule:nonzero;stroke:none"
         id="path354"
         inkscape:connector-curvature="0" /><path
         d="m 524.752,276.517 -0.455,0 c -0.133,-0.749 -0.749,-0.931 -1.427,-0.931 l 0,-0.477 1.288,0 0,-3.555 0.594,0 0,4.963"
         style="fill:#000000;fill-opacity:1;fill-rule:nonzero;stroke:none"
         id="path356"
         inkscape:connector-curvature="0" /><path
         d="m 529.05,275.25 c -0.055,0.447 -0.364,0.741 -0.833,0.741 -1.014,0 -1.176,-1.119 -1.204,-1.883 l 0.014,-0.013 c 0.28,0.455 0.7,0.651 1.239,0.651 0.952,0 1.52,-0.693 1.52,-1.61 0,-0.721 -0.407,-1.666 -1.66,-1.666 -1.469,0 -1.708,1.343 -1.708,2.386 0,1.366 0.413,2.661 1.827,2.661 0.819,0 1.331,-0.462 1.4,-1.267 l -0.595,0 z m -1.925,-2.149 c 0,-0.617 0.378,-1.106 1.029,-1.106 0.644,0 1.001,0.511 1.001,1.099 0,0.616 -0.322,1.127 -1.001,1.127 -0.665,0 -1.029,-0.497 -1.029,-1.12"
         style="fill:#000000;fill-opacity:1;fill-rule:nonzero;stroke:none"
         id="path358"
         inkscape:connector-curvature="0" /><path
         d="m 396.868,276.517 c 1.085,0 1.505,-0.637 1.505,-1.267 0,-0.441 -0.28,-0.848 -0.686,-1.029 0.595,-0.19 0.881,-0.623 0.881,-1.24 0,-0.959 -0.728,-1.511 -1.645,-1.511 -0.951,0 -1.687,0.497 -1.687,1.511 0,0.588 0.316,1.043 0.869,1.24 -0.413,0.168 -0.693,0.581 -0.693,1.029 0,0.818 0.693,1.267 1.456,1.267 z m 0.055,-4.522 c 0.596,0 1.016,0.412 1.016,0.966 0,0.539 -0.462,0.944 -1.022,0.944 -0.588,0 -1.05,-0.378 -1.05,-0.951 0,-0.596 0.441,-0.959 1.056,-0.959 z m 0,2.436 c 0.47,0 0.82,0.294 0.82,0.798 0,0.497 -0.35,0.762 -0.833,0.762 -0.476,0 -0.868,-0.265 -0.868,-0.762 0,-0.546 0.392,-0.798 0.881,-0.798"
         style="fill:#000000;fill-opacity:1;fill-rule:nonzero;stroke:none"
         id="path360"
         inkscape:connector-curvature="0" /><path
         d="m 366.45,275.25 c -0.07,0.805 -0.581,1.267 -1.4,1.267 -1.414,0 -1.827,-1.295 -1.827,-2.661 0,-1.043 0.238,-2.386 1.708,-2.386 1.253,0 1.659,0.945 1.659,1.666 0,0.917 -0.567,1.61 -1.519,1.61 -0.539,0 -0.959,-0.196 -1.239,-0.651 l -0.014,0.013 c 0.028,0.764 0.189,1.883 1.204,1.883 0.469,0 0.777,-0.294 0.833,-0.741 l 0.595,0 z m -1.491,-1.029 c 0.679,0 1.001,-0.511 1.001,-1.127 0,-0.588 -0.357,-1.099 -1.001,-1.099 -0.651,0 -1.029,0.489 -1.029,1.106 0,0.623 0.364,1.12 1.029,1.12"
         style="fill:#000000;fill-opacity:1;fill-rule:nonzero;stroke:none"
         id="path362"
         inkscape:connector-curvature="0" /><path
         d="m 338.748,305.388 -0.595,0 0,3.555 -1.288,0 0,0.477 c 0.679,0 1.295,0.181 1.428,0.93 l 0.455,0 0,-4.962"
         style="fill:#000000;fill-opacity:1;fill-rule:nonzero;stroke:none"
         id="path364"
         inkscape:connector-curvature="0" /><path
         d="m 342.094,310.35 c 1.554,0 1.652,-1.427 1.652,-2.527 0,-1.092 -0.098,-2.519 -1.652,-2.519 -1.554,0 -1.652,1.427 -1.652,2.519 0,1.1 0.098,2.527 1.652,2.527 z m 0,-4.521 c 1.015,0 1.022,1.26 1.022,2.002 0,0.734 -0.007,1.994 -1.022,1.994 -1.015,0 -1.022,-1.26 -1.022,-1.994 0,-0.742 0.007,-2.002 1.022,-2.002"
         style="fill:#000000;fill-opacity:1;fill-rule:nonzero;stroke:none"
         id="path366"
         inkscape:connector-curvature="0" /><path
         d="m 346.11,310.027 c -0.04,0.32 -0.26,0.53 -0.595,0.53 -0.725,0 -0.84,-0.799 -0.86,-1.344 l 0.01,-0.01 c 0.2,0.324 0.5,0.465 0.885,0.465 0.68,0 1.085,-0.495 1.085,-1.151 0,-0.514 -0.29,-1.189 -1.185,-1.189 -1.05,0 -1.22,0.96 -1.22,1.704 0,0.976 0.295,1.9 1.305,1.9 0.585,0 0.95,-0.33 1,-0.905 l -0.425,0 z m -1.375,-1.534 c 0,-0.44 0.27,-0.79 0.735,-0.79 0.46,0 0.715,0.364 0.715,0.784 0,0.441 -0.23,0.806 -0.715,0.806 -0.475,0 -0.735,-0.356 -0.735,-0.8"
         style="fill:#000000;fill-opacity:1;fill-rule:nonzero;stroke:none"
         id="path368"
         inkscape:connector-curvature="0" /><path
         d="m 338.748,333.887 -0.595,0 0,3.556 -1.288,0 0,0.477 c 0.679,0 1.295,0.181 1.428,0.93 l 0.455,0 0,-4.963"
         style="fill:#000000;fill-opacity:1;fill-rule:nonzero;stroke:none"
         id="path370"
         inkscape:connector-curvature="0" /><path
         d="m 342.094,338.85 c 1.554,0 1.652,-1.428 1.652,-2.527 0,-1.092 -0.098,-2.52 -1.652,-2.52 -1.554,0 -1.652,1.428 -1.652,2.52 0,1.099 0.098,2.527 1.652,2.527 z m 0,-4.521 c 1.015,0 1.022,1.26 1.022,2.002 0,0.734 -0.007,1.994 -1.022,1.994 -1.015,0 -1.022,-1.26 -1.022,-1.994 0,-0.742 0.007,-2.002 1.022,-2.002"
         style="fill:#000000;fill-opacity:1;fill-rule:nonzero;stroke:none"
         id="path372"
         inkscape:connector-curvature="0" /><path
         d="m 346.585,339.008 c -0.715,-0.711 -1.295,-2.01 -1.36,-3.121 l -0.475,0 c 0.08,1.201 0.655,2.295 1.4,3.085 l -1.86,0 0,0.401 2.295,0 0,-0.365"
         style="fill:#000000;fill-opacity:1;fill-rule:nonzero;stroke:none"
         id="path374"
         inkscape:connector-curvature="0" /><path
         d="m 338.748,361.887 -0.595,0 0,3.556 -1.288,0 0,0.476 c 0.679,0 1.295,0.182 1.428,0.931 l 0.455,0 0,-4.963"
         style="fill:#000000;fill-opacity:1;fill-rule:nonzero;stroke:none"
         id="path376"
         inkscape:connector-curvature="0" /><path
         d="m 342.094,366.85 c 1.554,0 1.652,-1.428 1.652,-2.527 0,-1.092 -0.098,-2.52 -1.652,-2.52 -1.554,0 -1.652,1.428 -1.652,2.52 0,1.099 0.098,2.527 1.652,2.527 z m 0,-4.521 c 1.015,0 1.022,1.259 1.022,2.002 0,0.734 -0.007,1.994 -1.022,1.994 -1.015,0 -1.022,-1.26 -1.022,-1.994 0,-0.743 0.007,-2.002 1.022,-2.002"
         style="fill:#000000;fill-opacity:1;fill-rule:nonzero;stroke:none"
         id="path378"
         inkscape:connector-curvature="0" /><path
         d="m 345.405,367.432 c 0.775,0 1.075,-0.455 1.075,-0.905 0,-0.315 -0.2,-0.605 -0.49,-0.735 0.425,-0.135 0.63,-0.445 0.63,-0.885 0,-0.685 -0.52,-1.079 -1.175,-1.079 -0.68,0 -1.205,0.354 -1.205,1.079 0,0.421 0.225,0.745 0.62,0.885 -0.295,0.121 -0.495,0.416 -0.495,0.735 0,0.585 0.495,0.905 1.04,0.905 z m 0.04,-3.229 c 0.425,0 0.725,0.295 0.725,0.689 0,0.385 -0.33,0.675 -0.73,0.675 -0.42,0 -0.75,-0.27 -0.75,-0.68 0,-0.425 0.315,-0.684 0.755,-0.684 z m 0,1.739 c 0.335,0 0.585,0.21 0.585,0.57 0,0.356 -0.25,0.545 -0.595,0.545 -0.34,0 -0.62,-0.189 -0.62,-0.545 0,-0.389 0.28,-0.57 0.63,-0.57"
         style="fill:#000000;fill-opacity:1;fill-rule:nonzero;stroke:none"
         id="path380"
         inkscape:connector-curvature="0" /><path
         d="m 348.736,395.082 177.261,0 m -177.261,0 0,-3.077 m 8.059,3.077 0,-3.077 m 8.055,3.077 0,-6.154 m 8.058,6.154 0,-3.077 m 8.059,3.077 0,-3.077 m 8.055,3.077 0,-3.077 m 8.059,3.077 0,-6.154 m 8.055,6.154 0,-3.077 m 8.058,3.077 0,-3.077 m 8.06,3.077 0,-3.077 m 8.055,3.077 0,-6.154 m 8.058,6.154 0,-3.077 m 8.06,3.077 0,-3.077 m 8.054,3.077 0,-3.077 m 8.059,3.077 0,-6.154 m 8.057,6.154 0,-3.077 m 8.055,3.077 0,-3.077 m 8.061,3.077 0,-3.077 m 8.054,3.077 0,-6.154 m 8.059,6.154 0,-3.077 m 8.059,3.077 0,-3.077 m 8.054,3.077 0,-3.077 m 8.058,3.077 0,-6.154 m -177.261,-109.636 0,115.79 m 0,-115.79 3.077,0 m -3.077,0 6.155,0 m -6.155,8.501 3.077,0 m -3.077,4.974 3.077,0 m -3.077,3.529 3.077,0 m -3.077,2.737 3.077,0 m -3.077,2.235 3.077,0 m -3.077,1.892 3.077,0 m -3.077,1.637 3.077,0 m -3.077,1.445 3.077,0 m -3.077,1.292 3.077,0 m -3.077,0 6.155,0 m -6.155,8.503 3.077,0 m -3.077,4.973 3.077,0 m -3.077,3.524 3.077,0 m -3.077,2.737 3.077,0 m -3.077,2.237 3.077,0 m -3.077,1.891 3.077,0 m -3.077,1.637 3.077,0 m -3.077,1.445 3.077,0 m -3.077,1.293 3.077,0 m -3.077,0 6.155,0 m -6.155,8.501 3.077,0 m -3.077,4.973 3.077,0 m -3.077,3.53 3.077,0 m -3.077,2.735 3.077,0 m -3.077,2.237 3.077,0 m -3.077,1.892 3.077,0 m -3.077,1.637 3.077,0 m -3.077,1.444 3.077,0 m -3.077,1.293 3.077,0 m -3.077,0 6.155,0 m -6.155,8.503 3.077,0 m -3.077,4.972 3.077,0 m -3.077,3.529 3.077,0 m -3.077,2.737 3.077,0 m -3.077,2.236 3.077,0 m -3.077,1.888 3.077,0 m -3.077,1.641 3.077,0 m -3.077,1.444 3.077,0 m -3.077,1.293 3.077,0 m -3.077,0 6.155,0"
         style="fill:none;stroke:#000000;stroke-width:0.5;stroke-linecap:round;stroke-linejoin:round;stroke-miterlimit:10;stroke-opacity:1;stroke-dasharray:none"
         id="path382"
         inkscape:connector-curvature="0" /><path
         d="m 525.997,279.292 0,115.79 m 0,-115.79 -3.077,0 m 3.077,0 -6.154,0 m 6.154,8.501 -3.077,0 m 3.077,4.974 -3.077,0 m 3.077,3.529 -3.077,0 m 3.077,2.737 -3.077,0 m 3.077,2.235 -3.077,0 m 3.077,1.892 -3.077,0 m 3.077,1.637 -3.077,0 m 3.077,1.445 -3.077,0 m 3.077,1.292 -3.077,0 m 3.077,0 -6.154,0 m 6.154,8.503 -3.077,0 m 3.077,4.973 -3.077,0 m 3.077,3.524 -3.077,0 m 3.077,2.737 -3.077,0 m 3.077,2.237 -3.077,0 m 3.077,1.891 -3.077,0 m 3.077,1.637 -3.077,0 m 3.077,1.445 -3.077,0 m 3.077,1.293 -3.077,0 m 3.077,0 -6.154,0 m 6.154,8.501 -3.077,0 m 3.077,4.973 -3.077,0 m 3.077,3.53 -3.077,0 m 3.077,2.735 -3.077,0 m 3.077,2.237 -3.077,0 m 3.077,1.892 -3.077,0 m 3.077,1.637 -3.077,0 m 3.077,1.444 -3.077,0 m 3.077,1.293 -3.077,0 m 3.077,0 -6.154,0 m 6.154,8.503 -3.077,0 m 3.077,4.972 -3.077,0 m 3.077,3.529 -3.077,0 m 3.077,2.737 -3.077,0 m 3.077,2.236 -3.077,0 m 3.077,1.888 -3.077,0 m 3.077,1.641 -3.077,0 m 3.077,1.444 -3.077,0 m 3.077,1.293 -3.077,0 m 3.077,0 -6.154,0"
         style="fill:none;stroke:#000000;stroke-width:0.5;stroke-linecap:round;stroke-linejoin:round;stroke-miterlimit:10;stroke-opacity:1;stroke-dasharray:none"
         id="path384"
         inkscape:connector-curvature="0" /><path
         d="m 519.975,390.621 c 0,1.133 -0.92,2.052 -2.053,2.052 -1.132,0 -2.05,-0.919 -2.05,-2.052 0,-1.131 0.918,-2.05 2.05,-2.05 1.133,0 2.053,0.919 2.053,2.05"
         style="fill:#000000;fill-opacity:1;fill-rule:nonzero;stroke:none"
         id="path386"
         inkscape:connector-curvature="0" /><path
         d="m 515.986,387.077 c 0,1.133 -0.92,2.051 -2.051,2.051 -1.133,0 -2.053,-0.918 -2.053,-2.051 0,-1.132 0.92,-2.052 2.053,-2.052 1.131,0 2.051,0.92 2.051,2.052"
         style="fill:#000000;fill-opacity:1;fill-rule:nonzero;stroke:none"
         id="path388"
         inkscape:connector-curvature="0" /><path
         d="m 511.949,372.009 c 0,1.133 -0.919,2.052 -2.053,2.052 -1.132,0 -2.052,-0.919 -2.052,-2.052 0,-1.132 0.92,-2.051 2.052,-2.051 1.134,0 2.053,0.919 2.053,2.051"
         style="fill:#000000;fill-opacity:1;fill-rule:nonzero;stroke:none"
         id="path390"
         inkscape:connector-curvature="0" /><path
         d="m 503.873,358.025 c 0,1.132 -0.919,2.052 -2.051,2.052 -1.133,0 -2.052,-0.92 -2.052,-2.052 0,-1.132 0.919,-2.052 2.052,-2.052 1.132,0 2.051,0.92 2.051,2.052"
         style="fill:#000000;fill-opacity:1;fill-rule:nonzero;stroke:none"
         id="path392"
         inkscape:connector-curvature="0" /><path
         d="m 479.696,340.497 c 0,1.132 -0.918,2.05 -2.051,2.05 -1.133,0 -2.053,-0.918 -2.053,-2.05 0,-1.134 0.92,-2.054 2.053,-2.054 1.133,0 2.051,0.92 2.051,2.054"
         style="fill:#000000;fill-opacity:1;fill-rule:nonzero;stroke:none"
         id="path394"
         inkscape:connector-curvature="0" /><path
         d="m 447.493,317.748 c 0,1.133 -0.918,2.051 -2.051,2.051 -1.133,0 -2.051,-0.918 -2.051,-2.051 0,-1.133 0.918,-2.052 2.051,-2.052 1.133,0 2.051,0.919 2.051,2.052"
         style="fill:#000000;fill-opacity:1;fill-rule:nonzero;stroke:none"
         id="path396"
         inkscape:connector-curvature="0" /><path
         d="m 423.317,307.507 c 0,1.131 -0.919,2.05 -2.05,2.05 -1.133,0 -2.053,-0.919 -2.053,-2.05 0,-1.134 0.92,-2.052 2.053,-2.052 1.131,0 2.05,0.918 2.05,2.052"
         style="fill:#000000;fill-opacity:1;fill-rule:nonzero;stroke:none"
         id="path398"
         inkscape:connector-curvature="0" /><path
         d="m 366.889,296.279 c 0,1.133 -0.919,2.052 -2.052,2.052 -1.132,0 -2.051,-0.919 -2.051,-2.052 0,-1.133 0.919,-2.053 2.051,-2.053 1.133,0 2.052,0.92 2.052,2.053"
         style="fill:#000000;fill-opacity:1;fill-rule:nonzero;stroke:none"
         id="path400"
         inkscape:connector-curvature="0" /><path
         d="m 517.939,390.614 -4.024,-3.55 -4.03,-15.07 -8.059,-13.961 -24.174,-17.532 -32.225,-22.753 -24.173,-10.214 -56.404,-11.238"
         style="fill:none;stroke:#000000;stroke-width:0.5;stroke-linecap:round;stroke-linejoin:round;stroke-miterlimit:10;stroke-opacity:1;stroke-dasharray:none"
         id="path402"
         inkscape:connector-curvature="0" /><path
         d="m 354.21,283.141 1.777,-3.078 1.776,3.078 -3.553,0"
         style="fill:#000000;fill-opacity:1;fill-rule:nonzero;stroke:none"
         id="path404"
         inkscape:connector-curvature="0" /><path
         d="m 398.205,283.141 1.777,-3.078 1.776,3.078 -3.553,0"
         style="fill:#000000;fill-opacity:1;fill-rule:nonzero;stroke:none"
         id="path406"
         inkscape:connector-curvature="0" /><path
         d="m 451.704,283.141 1.777,-3.078 1.777,3.078 -3.554,0"
         style="fill:#000000;fill-opacity:1;fill-rule:nonzero;stroke:none"
         id="path408"
         inkscape:connector-curvature="0" /><path
         d="m 495.215,283.141 1.778,-3.078 1.776,3.078 -3.554,0"
         style="fill:#000000;fill-opacity:1;fill-rule:nonzero;stroke:none"
         id="path410"
         inkscape:connector-curvature="0" /><path
         d="m 406.763,268.014 1.715,0 c 1.54,0 2.401,-0.771 2.401,-2.38 0,-1.673 -0.735,-2.618 -2.401,-2.618 l -1.715,0 0,4.998 z m 0.665,-4.439 1.106,0 c 0.455,0 1.68,0.126 1.68,1.968 0,1.189 -0.441,1.911 -1.666,1.911 l -1.12,0 0,-3.879"
         style="fill:#000000;fill-opacity:1;fill-rule:nonzero;stroke:none"
         id="path412"
         inkscape:connector-curvature="0" /><path
         d="m 411.628,267.285 0.595,0 0,0.729 -0.595,0 0,-0.729 z m 0,-4.269 0.595,0 0,3.619 -0.595,0 0,-3.619 z"
         style="fill:#000000;fill-opacity:1;fill-rule:nonzero;stroke:none"
         id="path414"
         inkscape:connector-curvature="0" /><path
         d="m 413.511,264.156 c 0.021,-0.531 0.483,-0.699 0.972,-0.699 0.371,0 0.875,0.084 0.875,0.539 0,0.462 -0.587,0.538 -1.182,0.672 -0.588,0.133 -1.183,0.329 -1.183,1.021 0,0.729 0.721,1.03 1.351,1.03 0.798,0 1.435,-0.252 1.484,-1.134 l -0.596,0 c -0.042,0.462 -0.447,0.608 -0.839,0.608 -0.357,0 -0.77,-0.097 -0.77,-0.461 0,-0.427 0.629,-0.498 1.183,-0.63 0.594,-0.133 1.183,-0.33 1.183,-1.03 0,-0.86 -0.805,-1.14 -1.54,-1.14 -0.812,0 -1.498,0.329 -1.533,1.224 l 0.595,0"
         style="fill:#000000;fill-opacity:1;fill-rule:nonzero;stroke:none"
         id="path416"
         inkscape:connector-curvature="0" /><path
         d="m 416.682,268.014 0.595,0 0,-2.961 1.652,1.582 0.798,0 -1.435,-1.317 1.54,-2.302 -0.756,0 -1.24,1.889 -0.559,-0.517 0,-1.372 -0.595,0 0,4.998"
         style="fill:#000000;fill-opacity:1;fill-rule:nonzero;stroke:none"
         id="path418"
         inkscape:connector-curvature="0" /><path
         d="m 422.261,268.014 0.595,0 0,-0.729 -0.595,0 0,0.729 z m 0,-1.379 0.595,0 0,-3.619 -0.595,0 0,3.619 z"
         style="fill:#000000;fill-opacity:1;fill-rule:nonzero;stroke:none"
         id="path420"
         inkscape:connector-curvature="0" /><path
         d="m 423.779,266.635 0.56,0 0,-0.574 0.015,0 c 0.251,0.448 0.658,0.658 1.175,0.658 0.952,0 1.246,-0.546 1.246,-1.323 l 0,-2.38 -0.594,0 0,2.45 c 0,0.44 -0.281,0.727 -0.736,0.727 -0.72,0 -1.07,-0.482 -1.07,-1.133 l 0,-2.044 -0.596,0 0,3.619"
         style="fill:#000000;fill-opacity:1;fill-rule:nonzero;stroke:none"
         id="path422"
         inkscape:connector-curvature="0" /><path
         d="m 427.671,266.635 0.56,0 0,-0.574 0.015,0 c 0.251,0.448 0.657,0.658 1.176,0.658 0.951,0 1.246,-0.546 1.246,-1.323 l 0,-2.38 -0.596,0 0,2.45 c 0,0.44 -0.279,0.727 -0.734,0.727 -0.721,0 -1.071,-0.482 -1.071,-1.133 l 0,-2.044 -0.596,0 0,3.619"
         style="fill:#000000;fill-opacity:1;fill-rule:nonzero;stroke:none"
         id="path424"
         inkscape:connector-curvature="0" /><path
         d="m 434.65,264.164 c -0.161,-0.799 -0.735,-1.232 -1.547,-1.232 -1.155,0 -1.701,0.798 -1.736,1.904 0,1.085 0.714,1.883 1.701,1.883 1.282,0 1.673,-1.198 1.638,-2.073 l -2.709,0 c -0.021,-0.629 0.337,-1.189 1.127,-1.189 0.49,0 0.833,0.237 0.938,0.707 l 0.588,0 z m -0.574,1.008 c -0.027,0.566 -0.455,1.021 -1.043,1.021 -0.623,0 -0.994,-0.468 -1.036,-1.021 l 2.079,0"
         style="fill:#000000;fill-opacity:1;fill-rule:nonzero;stroke:none"
         id="path426"
         inkscape:connector-curvature="0" /><path
         d="m 435.302,266.635 0.559,0 0,-0.763 0.014,0 c 0.287,0.58 0.686,0.867 1.33,0.847 l 0,-0.63 c -0.959,0 -1.309,-0.546 -1.309,-1.463 l 0,-1.61 -0.594,0 0,3.619"
         style="fill:#000000;fill-opacity:1;fill-rule:nonzero;stroke:none"
         id="path428"
         inkscape:connector-curvature="0" /><path
         d="m 442.686,264.164 c -0.161,-0.799 -0.735,-1.232 -1.546,-1.232 -1.156,0 -1.702,0.798 -1.737,1.904 0,1.085 0.714,1.883 1.701,1.883 1.282,0 1.673,-1.198 1.638,-2.073 l -2.709,0 c -0.02,-0.629 0.336,-1.189 1.127,-1.189 0.49,0 0.833,0.237 0.939,0.707 l 0.587,0 z m -0.574,1.008 c -0.028,0.566 -0.455,1.021 -1.043,1.021 -0.623,0 -0.994,-0.468 -1.036,-1.021 l 2.079,0"
         style="fill:#000000;fill-opacity:1;fill-rule:nonzero;stroke:none"
         id="path430"
         inkscape:connector-curvature="0" /><path
         d="m 446.592,263.016 -0.595,0 0,0.49 -0.014,0 c -0.196,-0.399 -0.658,-0.574 -1.155,-0.574 -1.113,0 -1.666,0.881 -1.666,1.904 0,1.021 0.546,1.883 1.652,1.883 0.371,0 0.903,-0.14 1.169,-0.568 l 0.014,0 0,1.863 0.595,0 0,-4.998 z m -1.68,0.441 c 0.798,0 1.106,0.686 1.106,1.364 0,0.714 -0.322,1.372 -1.141,1.372 -0.812,0 -1.085,-0.692 -1.085,-1.399 0,-0.68 0.35,-1.337 1.12,-1.337"
         style="fill:#000000;fill-opacity:1;fill-rule:nonzero;stroke:none"
         id="path432"
         inkscape:connector-curvature="0" /><path
         d="m 450.631,263.323 c 0,-1.176 -0.539,-1.777 -1.68,-1.777 -0.679,0 -1.463,0.272 -1.498,1.063 l 0.595,0 c 0.028,-0.433 0.546,-0.588 0.938,-0.588 0.776,0 1.085,0.561 1.085,1.373 l 0,0.238 -0.014,0 c -0.196,-0.442 -0.672,-0.658 -1.127,-0.658 -1.078,0 -1.617,0.846 -1.617,1.834 0,0.853 0.42,1.911 1.673,1.911 0.455,0 0.861,-0.203 1.078,-0.603 l -0.007,0 0.014,0 0,0.519 0.56,0 0,-3.312 z m -0.588,1.575 c 0,0.637 -0.281,1.295 -1.029,1.295 -0.763,0 -1.071,-0.623 -1.071,-1.315 0,-0.651 0.238,-1.379 1.022,-1.379 0.784,0 1.078,0.721 1.078,1.399"
         style="fill:#000000;fill-opacity:1;fill-rule:nonzero;stroke:none"
         id="path434"
         inkscape:connector-curvature="0" /><path
         d="m 454.026,264.164 c -0.105,-0.47 -0.448,-0.707 -0.938,-0.707 -0.791,0 -1.148,0.56 -1.127,1.189 l 2.709,0 c 0.035,0.875 -0.357,2.073 -1.638,2.073 -0.987,0 -1.701,-0.798 -1.701,-1.883 0.035,-1.106 0.581,-1.904 1.736,-1.904 0.812,0 1.386,0.433 1.547,1.232 l -0.588,0 z m -2.065,1.008 c 0.042,0.553 0.413,1.021 1.036,1.021 0.588,0 1.015,-0.455 1.043,-1.021 l -2.079,0"
         style="fill:#000000;fill-opacity:1;fill-rule:nonzero;stroke:none"
         id="path436"
         inkscape:connector-curvature="0" /><path
         d="m 458.212,261.63 c -0.672,1.05 -1.099,2.051 -1.099,3.275 0,1.093 0.385,2.276 1.099,3.228 l 0.455,0 c -0.665,-1.05 -0.924,-2.093 -0.924,-3.228 0,-1.175 0.259,-2.205 0.924,-3.275 l -0.455,0"
         style="fill:#000000;fill-opacity:1;fill-rule:nonzero;stroke:none"
         id="path438"
         inkscape:connector-curvature="0" /><path
         d="m 460.093,266.942 0.577,0 1.535,-3.926 -0.578,0 -0.429,1.182 -1.661,0 -0.441,-1.182 -0.538,0 1.535,3.926 z m -0.391,-2.304 1.331,0 -0.654,1.832 -0.012,0 -0.665,-1.832"
         style="fill:#000000;fill-opacity:1;fill-rule:nonzero;stroke:none"
         id="path440"
         inkscape:connector-curvature="0" /><path
         d="m 465.724,264.435 c 0,-0.991 -0.566,-1.513 -1.546,-1.513 -1.011,0 -1.611,0.468 -1.611,1.513 l 0,2.507 0.523,0 0,-2.507 c 0,-0.694 0.396,-1.073 1.088,-1.073 0.661,0 1.024,0.379 1.024,1.073 l 0,2.507 0.522,0 0,-2.507"
         style="fill:#000000;fill-opacity:1;fill-rule:nonzero;stroke:none"
         id="path442"
         inkscape:connector-curvature="0" /><path
         d="m 466.061,261.63 c 0.665,1.05 0.924,2.093 0.924,3.227 0,1.175 -0.259,2.205 -0.924,3.276 l 0.455,0 c 0.672,-1.05 1.1,-2.051 1.1,-3.276 0,-1.092 -0.386,-2.275 -1.1,-3.227 l -0.455,0"
         style="fill:#000000;fill-opacity:1;fill-rule:nonzero;stroke:none"
         id="path444"
         inkscape:connector-curvature="0" /><path
         d="m 355.189,387.395 1.584,0 0,-2.016 0.016,0 c 0.24,0.352 0.664,0.56 1.136,0.56 1.392,0 1.768,-1.184 1.768,-2.16 0,-1.04 -0.568,-2.2 -1.744,-2.2 -0.776,0 -1.016,0.296 -1.216,0.56 l -0.016,0 0,-0.456 -1.528,0 0,5.712 z m 2.224,-2.608 c -0.568,0 -0.696,-0.536 -0.696,-1.024 0,-0.496 0.128,-1.032 0.696,-1.032 0.568,0 0.696,0.536 0.696,1.032 0,0.488 -0.128,1.024 -0.696,1.024"
         style="fill:#000000;fill-opacity:1;fill-rule:nonzero;stroke:none"
         id="path516"
         inkscape:connector-curvature="0" /><path
         d="m 338.748,276.888 -0.595,0 0,3.555 -1.288,0 0,0.477 c 0.679,0 1.295,0.182 1.428,0.931 l 0.455,0 0,-4.963"
         style="fill:#000000;fill-opacity:1;fill-rule:nonzero;stroke:none"
         id="path518"
         inkscape:connector-curvature="0" /><path
         d="m 342.094,281.851 c 1.554,0 1.652,-1.428 1.652,-2.528 0,-1.092 -0.098,-2.519 -1.652,-2.519 -1.554,0 -1.652,1.427 -1.652,2.519 0,1.1 0.098,2.528 1.652,2.528 z m 0,-4.522 c 1.015,0 1.022,1.26 1.022,2.002 0,0.734 -0.007,1.994 -1.022,1.994 -1.015,0 -1.022,-1.26 -1.022,-1.994 0,-0.742 0.007,-2.002 1.022,-2.002"
         style="fill:#000000;fill-opacity:1;fill-rule:nonzero;stroke:none"
         id="path520"
         inkscape:connector-curvature="0" /><path
         d="m 346.39,281.998 -1.43,0 -0.19,-1.02 0.01,-0.01 c 0.155,0.175 0.42,0.255 0.66,0.255 0.63,0 1.145,-0.406 1.145,-1.215 0,-0.601 -0.415,-1.18 -1.24,-1.18 -0.615,0 -1.115,0.375 -1.13,1.015 l 0.425,0 c 0.025,-0.365 0.32,-0.64 0.745,-0.64 0.405,0 0.75,0.275 0.75,0.84 0,0.47 -0.325,0.805 -0.8,0.805 -0.27,0 -0.495,-0.135 -0.66,-0.335 l -0.365,0.019 0.33,1.841 1.75,0 0,-0.375"
         style="fill:#000000;fill-opacity:1;fill-rule:nonzero;stroke:none"
         id="path522"
         inkscape:connector-curvature="0" /><path
         d="m 338.748,390.387 -0.595,0 0,3.556 -1.288,0 0,0.476 c 0.679,0 1.295,0.182 1.428,0.931 l 0.455,0 0,-4.963"
         style="fill:#000000;fill-opacity:1;fill-rule:nonzero;stroke:none"
         id="path542"
         inkscape:connector-curvature="0" /><path
         d="m 342.094,395.35 c 1.554,0 1.652,-1.428 1.652,-2.527 0,-1.092 -0.098,-2.52 -1.652,-2.52 -1.554,0 -1.652,1.428 -1.652,2.52 0,1.099 0.098,2.527 1.652,2.527 z m 0,-4.522 c 1.015,0 1.022,1.26 1.022,2.002 0,0.735 -0.007,1.995 -1.022,1.995 -1.015,0 -1.022,-1.26 -1.022,-1.995 0,-0.742 0.007,-2.002 1.022,-2.002"
         style="fill:#000000;fill-opacity:1;fill-rule:nonzero;stroke:none"
         id="path544"
         inkscape:connector-curvature="0" /><path
         d="m 344.71,393.242 c 0.03,-0.345 0.31,-0.54 0.65,-0.54 0.52,0 0.775,0.455 0.8,1.37 l -0.01,0.01 c -0.16,-0.3 -0.475,-0.49 -0.82,-0.49 -0.72,0 -1.12,0.485 -1.12,1.185 0,0.685 0.48,1.155 1.165,1.155 0.66,0 1.215,-0.355 1.215,-1.695 0,-1.225 -0.37,-1.91 -1.23,-1.91 -0.595,0 -1.02,0.305 -1.075,0.915 l 0.425,0 z m 0.645,2.315 c -0.505,0 -0.695,-0.405 -0.695,-0.84 0,-0.39 0.29,-0.75 0.7,-0.75 0.445,0 0.725,0.36 0.725,0.78 0,0.435 -0.255,0.81 -0.73,0.81"
         style="fill:#000000;fill-opacity:1;fill-rule:nonzero;stroke:none"
         id="path546"
         inkscape:connector-curvature="0" /><path
         d="m 324.249,291.633 0,-1.666 -0.56,0 0,3.997 0.56,0 0,-1.666 4.438,0 0,-0.665 -4.438,0"
         style="fill:#000000;fill-opacity:1;fill-rule:nonzero;stroke:none"
         id="path590"
         inkscape:connector-curvature="0" /><path
         d="m 323.689,295.049 0.728,0 0,-0.595 -0.728,0 0,0.595 z m 1.379,0 3.619,0 0,-0.595 -3.619,0 0,0.595 z"
         style="fill:#000000;fill-opacity:1;fill-rule:nonzero;stroke:none"
         id="path592"
         inkscape:connector-curvature="0" /><path
         d="m 325.068,295.973 0,0.56 0.532,0 0,0.014 c -0.406,0.265 -0.616,0.672 -0.616,1.169 0,0.441 0.175,0.846 0.616,0.994 -0.385,0.245 -0.616,0.672 -0.616,1.134 0,0.72 0.301,1.204 1.05,1.204 l 2.653,0 0,-0.595 -2.373,0 c -0.448,0 -0.805,-0.119 -0.805,-0.7 0,-0.574 0.364,-0.945 0.924,-0.945 l 2.254,0 0,-0.595 -2.373,0 c -0.469,0 -0.805,-0.147 -0.805,-0.679 0,-0.707 0.651,-0.966 0.924,-0.966 l 2.254,0 0,-0.595 -3.619,0"
         style="fill:#000000;fill-opacity:1;fill-rule:nonzero;stroke:none"
         id="path594"
         inkscape:connector-curvature="0" /><path
         d="m 327.539,305.031 c 0.798,-0.161 1.232,-0.735 1.232,-1.547 0,-1.155 -0.798,-1.701 -1.904,-1.736 -1.085,0 -1.883,0.714 -1.883,1.701 0,1.28 1.197,1.673 2.072,1.638 l 0,-2.709 c 0.63,-0.022 1.19,0.336 1.19,1.127 0,0.49 -0.238,0.833 -0.707,0.938 l 0,0.588 z m -1.008,-0.574 c -0.567,-0.028 -1.022,-0.455 -1.022,-1.043 0,-0.623 0.469,-0.994 1.022,-1.036 l 0,2.079"
         style="fill:#000000;fill-opacity:1;fill-rule:nonzero;stroke:none"
         id="path596"
         inkscape:connector-curvature="0" /><path
         d="m 324.984,309.21 c 0,1.147 0.833,1.757 1.897,1.757 1.057,0 1.89,-0.61 1.89,-1.757 0,-1.149 -0.833,-1.757 -1.89,-1.757 -1.064,0 -1.897,0.608 -1.897,1.757 z m 3.262,0 c 0,0.623 -0.49,1.127 -1.365,1.127 -0.882,0 -1.372,-0.504 -1.372,-1.127 0,-0.623 0.49,-1.127 1.372,-1.127 0.875,0 1.365,0.504 1.365,1.127"
         style="fill:#000000;fill-opacity:1;fill-rule:nonzero;stroke:none"
         id="path598"
         inkscape:connector-curvature="0" /><path
         d="m 325.593,311.912 0,-0.609 -0.525,0 0,0.609 -0.539,0 c -0.588,0 -0.896,0.35 -0.896,1.001 0,0.111 0.021,0.272 0.056,0.385 l 0.518,0 c -0.035,-0.106 -0.049,-0.232 -0.049,-0.336 0,-0.287 0.091,-0.455 0.406,-0.455 l 0.504,0 0,0.7 0.525,0 0,-0.7 3.094,0 0,-0.595 -3.094,0"
         style="fill:#000000;fill-opacity:1;fill-rule:nonzero;stroke:none"
         id="path600"
         inkscape:connector-curvature="0" /><path
         d="m 328.687,317.728 0,-0.594 -3.556,0 0,-1.288 -0.476,0 c 0,0.678 -0.182,1.294 -0.931,1.427 l 0,0.455 4.963,0"
         style="fill:#000000;fill-opacity:1;fill-rule:nonzero;stroke:none"
         id="path602"
         inkscape:connector-curvature="0" /><path
         d="m 325.068,320.486 0.777,0 0,-0.776 -0.777,0 0,0.776 z m 2.842,0 0.777,0 0,-0.776 -0.777,0 0,0.776 z"
         style="fill:#000000;fill-opacity:1;fill-rule:nonzero;stroke:none"
         id="path604"
         inkscape:connector-curvature="0" /><path
         d="m 325.481,321.383 c -1.008,-0.049 -1.757,0.545 -1.757,1.595 0,0.868 0.504,1.554 1.428,1.554 0.875,0 1.316,-0.588 1.701,-1.203 0.378,-0.623 0.693,-1.274 1.309,-1.394 l 0,2.548 0.525,0 0,-3.24 c -1.176,0.098 -1.596,0.692 -2.03,1.392 -0.518,0.84 -0.826,1.267 -1.512,1.267 -0.539,0 -0.896,-0.433 -0.896,-0.959 0,-0.692 0.637,-0.986 1.232,-0.966 l 0,-0.594"
         style="fill:#000000;fill-opacity:1;fill-rule:nonzero;stroke:none"
         id="path606"
         inkscape:connector-curvature="0" /><path
         d="m 323.689,327.472 0,0.911 4.2,1.575 -4.2,1.582 0,0.909 4.998,0 0,-0.63 -4.158,0 0,-0.014 4.158,-1.56 0,-0.568 -4.158,-1.561 0,-0.014 4.158,0 0,-0.63 -4.998,0"
         style="fill:#000000;fill-opacity:1;fill-rule:nonzero;stroke:none"
         id="path608"
         inkscape:connector-curvature="0" /><path
         d="m 323.689,333.569 0,0.91 4.2,1.575 -4.2,1.582 0,0.911 4.998,0 0,-0.63 -4.158,0 0,-0.015 4.158,-1.56 0,-0.568 -4.158,-1.56 0,-0.015 4.158,0 0,-0.63 -4.998,0"
         style="fill:#000000;fill-opacity:1;fill-rule:nonzero;stroke:none"
         id="path610"
         inkscape:connector-curvature="0" /><path
         d="m 323.689,339.652 0,2.352 c 0,0.938 0.511,1.519 1.309,1.519 0.602,0 1.099,-0.266 1.267,-0.868 l 0.014,0 c 0.112,0.581 0.539,0.7 1.029,0.749 0.49,0.042 1.036,0.015 1.379,0.294 l 0,-0.742 c -0.203,-0.189 -0.742,-0.084 -1.232,-0.182 -0.49,-0.07 -0.903,-0.188 -0.903,-0.833 l 0,-1.624 2.135,0 0,-0.665 -4.998,0 z m 2.303,2.051 c 0,0.623 -0.161,1.155 -0.889,1.155 -0.49,0 -0.854,-0.266 -0.854,-0.889 l 0,-1.652 1.743,0 0,1.386"
         style="fill:#000000;fill-opacity:1;fill-rule:nonzero;stroke:none"
         id="path612"
         inkscape:connector-curvature="0" /><path
         d="m 326.23,348.753 c -0.455,-0.092 -0.721,-0.407 -0.721,-0.897 0,-0.861 0.679,-1.127 1.414,-1.127 0.665,0 1.323,0.301 1.323,1.057 0,0.574 -0.336,0.917 -0.882,0.994 l 0,0.609 c 0.882,-0.133 1.407,-0.686 1.407,-1.595 0,-1.107 -0.77,-1.695 -1.848,-1.695 -1.085,0 -1.939,0.56 -1.939,1.708 0,0.819 0.385,1.477 1.246,1.561 l 0,-0.615"
         style="fill:#000000;fill-opacity:1;fill-rule:nonzero;stroke:none"
         id="path614"
         inkscape:connector-curvature="0" /><path
         d="m 325.068,350.033 0,0.56 0.763,0 0,0.014 c -0.581,0.287 -0.868,0.686 -0.847,1.33 l 0.63,0 c 0,-0.959 0.546,-1.308 1.463,-1.308 l 1.61,0 0,-0.596 -3.619,0"
         style="fill:#000000;fill-opacity:1;fill-rule:nonzero;stroke:none"
         id="path616"
         inkscape:connector-curvature="0" /><path
         d="m 324.984,353.821 c 0,1.148 0.833,1.757 1.897,1.757 1.057,0 1.89,-0.609 1.89,-1.757 0,-1.148 -0.833,-1.757 -1.89,-1.757 -1.064,0 -1.897,0.609 -1.897,1.757 z m 3.262,0 c 0,0.623 -0.49,1.127 -1.365,1.127 -0.882,0 -1.372,-0.504 -1.372,-1.127 0,-0.623 0.49,-1.127 1.372,-1.127 0.875,0 1.365,0.504 1.365,1.127"
         style="fill:#000000;fill-opacity:1;fill-rule:nonzero;stroke:none"
         id="path618"
         inkscape:connector-curvature="0" /><path
         d="m 327.546,356.642 c 0.532,0.021 0.7,0.483 0.7,0.973 0,0.371 -0.084,0.875 -0.539,0.875 -0.462,0 -0.539,-0.588 -0.672,-1.183 -0.133,-0.588 -0.329,-1.183 -1.022,-1.183 -0.728,0 -1.029,0.721 -1.029,1.351 0,0.798 0.252,1.435 1.134,1.483 l 0,-0.594 c -0.462,-0.042 -0.609,-0.448 -0.609,-0.84 0,-0.357 0.098,-0.77 0.462,-0.77 0.427,0 0.497,0.63 0.63,1.183 0.133,0.595 0.329,1.183 1.029,1.183 0.861,0 1.141,-0.805 1.141,-1.54 0,-0.812 -0.329,-1.498 -1.225,-1.533 l 0,0.595"
         style="fill:#000000;fill-opacity:1;fill-rule:nonzero;stroke:none"
         id="path620"
         inkscape:connector-curvature="0" /><path
         d="m 327.546,360.142 c 0.532,0.021 0.7,0.483 0.7,0.973 0,0.371 -0.084,0.875 -0.539,0.875 -0.462,0 -0.539,-0.588 -0.672,-1.183 -0.133,-0.588 -0.329,-1.183 -1.022,-1.183 -0.728,0 -1.029,0.721 -1.029,1.351 0,0.798 0.252,1.435 1.134,1.483 l 0,-0.594 c -0.462,-0.042 -0.609,-0.448 -0.609,-0.84 0,-0.357 0.098,-0.77 0.462,-0.77 0.427,0 0.497,0.63 0.63,1.183 0.133,0.595 0.329,1.183 1.029,1.183 0.861,0 1.141,-0.805 1.141,-1.54 0,-0.812 -0.329,-1.498 -1.225,-1.533 l 0,0.595"
         style="fill:#000000;fill-opacity:1;fill-rule:nonzero;stroke:none"
         id="path622"
         inkscape:connector-curvature="0" /><path
         d="m 323.689,363.313 0.728,0 0,0.595 -0.728,0 0,-0.595 z m 1.379,0 3.619,0 0,0.595 -3.619,0 0,-0.595 z"
         style="fill:#000000;fill-opacity:1;fill-rule:nonzero;stroke:none"
         id="path624"
         inkscape:connector-curvature="0" /><path
         d="m 325.068,364.832 0,0.56 0.574,0 0,0.014 c -0.448,0.252 -0.658,0.658 -0.658,1.176 0,0.952 0.546,1.246 1.323,1.246 l 2.38,0 0,-0.595 -2.45,0 c -0.441,0 -0.728,-0.28 -0.728,-0.735 0,-0.721 0.483,-1.071 1.134,-1.071 l 2.044,0 0,-0.595 -3.619,0"
         style="fill:#000000;fill-opacity:1;fill-rule:nonzero;stroke:none"
         id="path626"
         inkscape:connector-curvature="0" /><path
         d="m 328.379,371.846 c 1.176,0 1.778,-0.539 1.778,-1.68 0,-0.679 -0.273,-1.463 -1.064,-1.499 l 0,0.596 c 0.434,0.028 0.588,0.546 0.588,0.938 0,0.777 -0.56,1.085 -1.372,1.085 l -0.238,0 0,-0.014 c 0.441,-0.196 0.658,-0.672 0.658,-1.127 0,-1.078 -0.847,-1.617 -1.834,-1.617 -0.854,0 -1.911,0.42 -1.911,1.673 0,0.455 0.203,0.861 0.602,1.078 l 0,-0.007 0,0.014 -0.518,0 0,0.56 3.311,0 z m -1.575,-0.588 c -0.637,0 -1.295,-0.28 -1.295,-1.029 0,-0.764 0.623,-1.071 1.316,-1.071 0.651,0 1.379,0.238 1.379,1.022 0,0.783 -0.721,1.078 -1.4,1.078"
         style="fill:#000000;fill-opacity:1;fill-rule:nonzero;stroke:none"
         id="path628"
         inkscape:connector-curvature="0" /><path
         d="m 330.073,375.668 c -1.05,-0.672 -2.051,-1.099 -3.276,-1.099 -1.092,0 -2.275,0.385 -3.227,1.099 l 0,0.454 c 1.05,-0.665 2.093,-0.923 3.227,-0.923 1.176,0 2.205,0.258 3.276,0.923 l 0,-0.454"
         style="fill:#000000;fill-opacity:1;fill-rule:nonzero;stroke:none"
         id="path630"
         inkscape:connector-curvature="0" /><path
         d="m 329.17,377.922 c 0.707,-0.274 0.966,-0.518 0.966,-1.05 0,-0.141 -0.014,-0.28 -0.063,-0.414 l -0.546,0 c 0.035,0.113 0.084,0.231 0.084,0.351 0,0.245 -0.119,0.378 -0.329,0.49 l -0.616,0.244 -3.598,-1.434 0,0.672 2.961,1.057 0,0.014 -2.961,1.015 0,0.629 4.102,-1.574"
         style="fill:#000000;fill-opacity:1;fill-rule:nonzero;stroke:none"
         id="path632"
         inkscape:connector-curvature="0" /><path
         d="m 325.068,379.979 0,0.56 0.763,0 0,0.015 c -0.581,0.287 -0.868,0.686 -0.847,1.33 l 0.63,0 c 0,-0.959 0.546,-1.309 1.463,-1.309 l 1.61,0 0,-0.596 -3.619,0"
         style="fill:#000000;fill-opacity:1;fill-rule:nonzero;stroke:none"
         id="path634"
         inkscape:connector-curvature="0" /><path
         d="m 330.073,381.814 c -1.05,0.665 -2.093,0.924 -3.227,0.924 -1.176,0 -2.205,-0.259 -3.276,-0.924 l 0,0.454 c 1.05,0.673 2.051,1.1 3.276,1.1 1.092,0 2.275,-0.385 3.227,-1.1 l 0,-0.454"
         style="fill:#000000;fill-opacity:1;fill-rule:nonzero;stroke:none"
         id="path636"
         inkscape:connector-curvature="0" /></g></g></svg>