<?xml version="1.0" encoding="UTF-8" standalone="no"?>
<!-- Created with Inkscape (http://www.inkscape.org/) -->

<svg
   xmlns:dc="http://purl.org/dc/elements/1.1/"
   xmlns:cc="http://creativecommons.org/ns#"
   xmlns:rdf="http://www.w3.org/1999/02/22-rdf-syntax-ns#"
   xmlns:svg="http://www.w3.org/2000/svg"
   xmlns="http://www.w3.org/2000/svg"
   xmlns:sodipodi="http://sodipodi.sourceforge.net/DTD/sodipodi-0.dtd"
   xmlns:inkscape="http://www.inkscape.org/namespaces/inkscape"
   id="svg2"
   version="1.1"
   inkscape:version="0.48.4 r9939"
   width="549.03461"
   height="182.41933"
   xml:space="preserve"
   sodipodi:docname="Morbidelli2005-1v.pdf"><metadata
     id="metadata8"><rdf:RDF><cc:Work
         rdf:about=""><dc:format>image/svg+xml</dc:format><dc:type
           rdf:resource="http://purl.org/dc/dcmitype/StillImage" /><dc:title></dc:title></cc:Work></rdf:RDF></metadata><defs
     id="defs6"><clipPath
       clipPathUnits="userSpaceOnUse"
       id="clipPath562"><path
         d="m 88.23,132.085 177.561,0 0,114.03 -177.561,0 0,-114.03 z"
         id="path564"
         inkscape:connector-curvature="0" /></clipPath><clipPath
       clipPathUnits="userSpaceOnUse"
       id="clipPath578"><path
         d="m 88.23,132.085 177.561,0 0,114.03 -177.561,0 0,-114.03 z"
         id="path580"
         inkscape:connector-curvature="0" /></clipPath><clipPath
       clipPathUnits="userSpaceOnUse"
       id="clipPath680"><path
         d="m 88.23,269.6 177.561,0 0,114.03 -177.561,0 0,-114.03 z"
         id="path682"
         inkscape:connector-curvature="0" /></clipPath><clipPath
       clipPathUnits="userSpaceOnUse"
       id="clipPath1308"><path
         d="m 0,782.362 595.275,0 0,-782.302 L 0,0.06 0,782.362 z"
         id="path1310"
         inkscape:connector-curvature="0" /></clipPath></defs><sodipodi:namedview
     pagecolor="#ffffff"
     bordercolor="#666666"
     borderopacity="1"
     objecttolerance="10"
     gridtolerance="10"
     guidetolerance="10"
     inkscape:pageopacity="0"
     inkscape:pageshadow="2"
     inkscape:window-width="1280"
     inkscape:window-height="951"
     id="namedview4"
     showgrid="false"
     fit-margin-top="5"
     fit-margin-right="5"
     fit-margin-bottom="5"
     fit-margin-left="5"
     inkscape:zoom="1.9"
     inkscape:cx="222.13663"
     inkscape:cy="78.424915"
     inkscape:window-x="1024"
     inkscape:window-y="25"
     inkscape:window-maximized="1"
     inkscape:current-layer="g10" /><g
     id="g10"
     inkscape:groupmode="layer"
     inkscape:label="Morbidelli2005"
     transform="matrix(1.25,0,0,-1.25,102.7352,338.31049)"><g
       id="g3876"><text
         transform="scale(1,-1)"
         sodipodi:linespacing="125%"
         id="text3199"
         y="-130.21059"
         x="239.41576"
         style="font-size:6.4000001px;font-style:normal;font-weight:normal;line-height:125%;letter-spacing:0px;word-spacing:0px;fill:#000000;fill-opacity:1;stroke:none;font-family:Sans"
         xml:space="preserve"><tspan
           style="font-size:7.19999981px"
           y="-130.21059"
           x="239.41576"
           id="tspan3201"
           sodipodi:role="line">Zeit (yr)</tspan></text>
<path
         d="m 141.27553,266.61589 1.584,0 0,-2.016 0.016,0 c 0.24,0.352 0.664,0.56 1.136,0.56 1.392,0 1.768,-1.184 1.768,-2.159 0,-1.04 -0.568,-2.201 -1.744,-2.201 -0.776,0 -1.016,0.296 -1.216,0.56 l -0.016,0 0,-0.456 -1.528,0 0,5.712 z m 2.224,-2.608 c -0.568,0 -0.696,-0.536 -0.696,-1.024 0,-0.496 0.128,-1.032 0.696,-1.032 0.568,0 0.696,0.536 0.696,1.032 0,0.488 -0.128,1.024 -0.696,1.024"
         style="fill:#000000;fill-opacity:1;fill-rule:nonzero;stroke:none"
         id="path872"
         inkscape:connector-curvature="0" /><g
         transform="translate(78.823529,17.676892)"
         id="g4183"><path
           inkscape:connector-curvature="0"
           id="path460"
           style="fill:none;stroke:#000000;stroke-width:0.5;stroke-linecap:round;stroke-linejoin:round;stroke-miterlimit:10;stroke-opacity:1;stroke-dasharray:none"
           d="m 88.23,132.085 177.56,0 m -168.682,0 0,2.934 m 8.878,-2.934 0,2.934 m 8.878,-2.934 0,2.934 m 8.878,-2.934 0,2.934 m 8.878,-2.934 0,5.873 m 8.878,-5.873 0,2.934 m 8.878,-2.934 0,2.934 m 8.878,-2.934 0,2.934 m 8.878,-2.934 0,2.934 m 8.878,-2.934 0,5.873 m 8.878,-5.873 0,2.934 m 8.878,-2.934 0,2.934 m 8.878,-2.934 0,2.934 m 8.878,-2.934 0,2.934 m 8.878,-2.934 0,5.873 m 8.878,-5.873 0,2.934 m 8.879,-2.934 0,2.934 m 8.877,-2.934 0,2.934 m 8.878,-2.934 0,2.934 m 8.878,-2.934 0,5.873 m -177.56,108.157 177.56,0 m -168.682,0 0,-2.939 m 8.878,2.939 0,-2.939 m 8.878,2.939 0,-2.939 m 8.878,2.939 0,-2.939 m 8.878,2.939 0,-5.874 m 8.878,5.874 0,-2.939 m 8.878,2.939 0,-2.939 m 8.878,2.939 0,-2.939 m 8.878,2.939 0,-2.939 m 8.878,2.939 0,-5.874 m 8.878,5.874 0,-2.939 m 8.878,2.939 0,-2.939 m 8.878,2.939 0,-2.939 m 8.878,2.939 0,-2.939 m 8.878,2.939 0,-5.874 m 8.878,5.874 0,-2.939 m 8.879,2.939 0,-2.939 m 8.877,2.939 0,-2.939 m 8.878,2.939 0,-2.939 m 8.878,2.939 0,-5.874 M 88.23,132.085 l 0,114.03 m 0,-108.387 2.935,0 m -2.935,5.647 2.935,0 m -2.935,5.644 2.935,0 m -2.935,5.647 5.873,0 m -5.873,5.644 2.935,0 m -2.935,5.643 2.935,0 m -2.935,5.647 2.935,0 m -2.935,5.643 5.873,0 m -5.873,5.648 2.935,0 m -2.935,5.644 2.935,0 m -2.935,5.643 2.935,0 m -2.935,5.647 5.873,0 m -5.873,5.643 2.935,0 m -2.935,5.648 2.935,0 m -2.935,5.643 2.935,0 m -2.935,5.644 5.873,0 m -5.873,5.647 2.935,0 m -2.935,5.643 2.935,0 m -2.935,5.648 2.935,0 m -2.935,5.643 5.873,0 m 171.687,-112.899 0,114.03 m 0,-108.387 -2.934,0 m 2.934,5.647 -2.934,0 m 2.934,5.644 -2.934,0 m 2.934,5.647 -5.873,0 m 5.873,5.644 -2.934,0 m 2.934,5.643 -2.934,0 m 2.934,5.647 -2.934,0 m 2.934,5.643 -5.873,0 m 5.873,5.648 -2.934,0 m 2.934,5.644 -2.934,0 m 2.934,5.643 -2.934,0 m 2.934,5.647 -5.873,0 m 5.873,5.643 -2.934,0 m 2.934,5.648 -2.934,0 m 2.934,5.643 -2.934,0 m 2.934,5.644 -5.873,0 m 5.873,5.647 -2.934,0 m 2.934,5.643 -2.934,0 m 2.934,5.648 -2.934,0 m 2.934,5.643 -5.873,0" /><g
           id="g558"><g
             clip-path="url(#clipPath562)"
             id="g560"><path
               inkscape:connector-curvature="0"
               id="path566"
               style="fill:#000000;fill-opacity:1;fill-rule:nonzero;stroke:none"
               d="m 90.186,242.716 c 0,1.079 -0.876,1.956 -1.956,1.956 -1.08,0 -1.957,-0.877 -1.957,-1.956 0,-1.081 0.877,-1.957 1.957,-1.957 1.08,0 1.956,0.876 1.956,1.957" /></g></g><path
           inkscape:connector-curvature="0"
           id="path568"
           style="fill:#000000;fill-opacity:1;fill-rule:nonzero;stroke:none"
           d="m 94.625,242.716 c 0,1.079 -0.876,1.956 -1.956,1.956 -1.081,0 -1.957,-0.877 -1.957,-1.956 0,-1.081 0.876,-1.957 1.957,-1.957 1.08,0 1.956,0.876 1.956,1.957" /><path
           inkscape:connector-curvature="0"
           id="path570"
           style="fill:#000000;fill-opacity:1;fill-rule:nonzero;stroke:none"
           d="m 107.942,230.68 c 0,1.081 -0.876,1.957 -1.956,1.957 -1.081,0 -1.957,-0.876 -1.957,-1.957 0,-1.079 0.876,-1.956 1.957,-1.956 1.08,0 1.956,0.877 1.956,1.956" /><path
           inkscape:connector-curvature="0"
           id="path572"
           style="fill:#000000;fill-opacity:1;fill-rule:nonzero;stroke:none"
           d="m 121.259,243.85 c 0,1.08 -0.876,1.956 -1.956,1.956 -1.08,0 -1.957,-0.876 -1.957,-1.956 0,-1.08 0.877,-1.957 1.957,-1.957 1.08,0 1.956,0.877 1.956,1.957" /><g
           id="g574"><g
             clip-path="url(#clipPath578)"
             id="g576"><path
               inkscape:connector-curvature="0"
               id="path582"
               style="fill:#000000;fill-opacity:1;fill-rule:nonzero;stroke:none"
               d="m 125.698,161.432 c 0,1.08 -0.876,1.957 -1.956,1.957 -1.08,0 -1.956,-0.877 -1.956,-1.957 0,-1.08 0.876,-1.957 1.956,-1.957 1.08,0 1.956,0.877 1.956,1.957" /><path
               inkscape:connector-curvature="0"
               id="path584"
               style="fill:#000000;fill-opacity:1;fill-rule:nonzero;stroke:none"
               d="m 130.137,132.085 c 0,1.08 -0.876,1.956 -1.956,1.956 -1.081,0 -1.956,-0.876 -1.956,-1.956 0,-1.081 0.875,-1.956 1.956,-1.956 1.08,0 1.956,0.875 1.956,1.956" /><path
               inkscape:connector-curvature="0"
               id="path586"
               style="fill:#000000;fill-opacity:1;fill-rule:nonzero;stroke:none"
               d="m 132.801,132.677 c 0,1.079 -0.877,1.956 -1.956,1.956 -1.081,0 -1.957,-0.877 -1.957,-1.956 0,-1.08 0.876,-1.957 1.957,-1.957 1.079,0 1.956,0.877 1.956,1.957" /></g></g><path
           inkscape:connector-curvature="0"
           id="path588"
           style="fill:#000000;fill-opacity:1;fill-rule:nonzero;stroke:none"
           d="m 133.689,136.475 c 0,1.08 -0.877,1.956 -1.957,1.956 -1.08,0 -1.957,-0.876 -1.957,-1.956 0,-1.08 0.877,-1.956 1.957,-1.956 1.08,0 1.957,0.876 1.957,1.956" /><path
           inkscape:connector-curvature="0"
           id="path590"
           style="fill:#000000;fill-opacity:1;fill-rule:nonzero;stroke:none"
           d="m 134.576,144.515 c 0,1.079 -0.876,1.956 -1.956,1.956 -1.08,0 -1.957,-0.877 -1.957,-1.956 0,-1.081 0.877,-1.957 1.957,-1.957 1.08,0 1.956,0.876 1.956,1.957" /><path
           inkscape:connector-curvature="0"
           id="path592"
           style="fill:#000000;fill-opacity:1;fill-rule:nonzero;stroke:none"
           d="m 139.015,187.424 c 0,1.081 -0.876,1.957 -1.957,1.957 -1.079,0 -1.956,-0.876 -1.956,-1.957 0,-1.079 0.877,-1.956 1.956,-1.956 1.081,0 1.957,0.877 1.957,1.956" /><path
           inkscape:connector-curvature="0"
           id="path594"
           style="fill:#000000;fill-opacity:1;fill-rule:nonzero;stroke:none"
           d="m 140.791,185.995 c 0,1.079 -0.877,1.956 -1.957,1.956 -1.079,0 -1.956,-0.877 -1.956,-1.956 0,-1.081 0.877,-1.957 1.956,-1.957 1.08,0 1.957,0.876 1.957,1.957" /><path
           inkscape:connector-curvature="0"
           id="path596"
           style="fill:#000000;fill-opacity:1;fill-rule:nonzero;stroke:none"
           d="m 143.454,180.618 c 0,1.08 -0.876,1.957 -1.956,1.957 -1.08,0 -1.957,-0.877 -1.957,-1.957 0,-1.08 0.877,-1.956 1.957,-1.956 1.08,0 1.956,0.876 1.956,1.956" /><path
           inkscape:connector-curvature="0"
           id="path598"
           style="fill:#000000;fill-opacity:1;fill-rule:nonzero;stroke:none"
           d="m 147.893,224.712 c 0,1.08 -0.876,1.957 -1.956,1.957 -1.08,0 -1.956,-0.877 -1.956,-1.957 0,-1.079 0.876,-1.956 1.956,-1.956 1.08,0 1.956,0.877 1.956,1.956" /><path
           inkscape:connector-curvature="0"
           id="path600"
           style="fill:#000000;fill-opacity:1;fill-rule:nonzero;stroke:none"
           d="m 152.332,234.824 c 0,1.08 -0.876,1.956 -1.956,1.956 -1.08,0 -1.956,-0.876 -1.956,-1.956 0,-1.08 0.876,-1.957 1.956,-1.957 1.08,0 1.956,0.877 1.956,1.957" /><path
           inkscape:connector-curvature="0"
           id="path602"
           style="fill:#000000;fill-opacity:1;fill-rule:nonzero;stroke:none"
           d="m 156.771,235.958 c 0,1.081 -0.876,1.957 -1.956,1.957 -1.08,0 -1.956,-0.876 -1.956,-1.957 0,-1.08 0.876,-1.957 1.956,-1.957 1.08,0 1.956,0.877 1.956,1.957" /><path
           inkscape:connector-curvature="0"
           id="path604"
           style="fill:#000000;fill-opacity:1;fill-rule:nonzero;stroke:none"
           d="m 161.211,238.227 c 0,1.08 -0.877,1.956 -1.957,1.956 -1.08,0 -1.956,-0.876 -1.956,-1.956 0,-1.08 0.876,-1.956 1.956,-1.956 1.08,0 1.957,0.876 1.957,1.956" /><path
           inkscape:connector-curvature="0"
           id="path606"
           style="fill:#000000;fill-opacity:1;fill-rule:nonzero;stroke:none"
           d="m 170.089,228.066 c 0,1.08 -0.877,1.957 -1.957,1.957 -1.08,0 -1.957,-0.877 -1.957,-1.957 0,-1.079 0.877,-1.956 1.957,-1.956 1.08,0 1.957,0.877 1.957,1.956" /><path
           inkscape:connector-curvature="0"
           id="path608"
           style="fill:#000000;fill-opacity:1;fill-rule:nonzero;stroke:none"
           d="m 174.527,200.939 c 0,1.08 -0.877,1.957 -1.956,1.957 -1.08,0 -1.957,-0.877 -1.957,-1.957 0,-1.08 0.877,-1.956 1.957,-1.956 1.079,0 1.956,0.876 1.956,1.956" /><path
           inkscape:connector-curvature="0"
           id="path610"
           style="fill:#000000;fill-opacity:1;fill-rule:nonzero;stroke:none"
           d="m 178.078,177.067 c 0,1.08 -0.876,1.956 -1.956,1.956 -1.08,0 -1.956,-0.876 -1.956,-1.956 0,-1.079 0.876,-1.956 1.956,-1.956 1.08,0 1.956,0.877 1.956,1.956" /><path
           inkscape:connector-curvature="0"
           id="path612"
           style="fill:#000000;fill-opacity:1;fill-rule:nonzero;stroke:none"
           d="m 178.966,172.924 c 0,1.08 -0.876,1.956 -1.956,1.956 -1.08,0 -1.957,-0.876 -1.957,-1.956 0,-1.08 0.877,-1.956 1.957,-1.956 1.08,0 1.956,0.876 1.956,1.956" /><path
           inkscape:connector-curvature="0"
           id="path614"
           style="fill:#000000;fill-opacity:1;fill-rule:nonzero;stroke:none"
           d="m 180.742,168.781 c 0,1.08 -0.877,1.956 -1.956,1.956 -1.08,0 -1.957,-0.876 -1.957,-1.956 0,-1.08 0.877,-1.957 1.957,-1.957 1.079,0 1.956,0.877 1.956,1.957" /><path
           inkscape:connector-curvature="0"
           id="path616"
           style="fill:#000000;fill-opacity:1;fill-rule:nonzero;stroke:none"
           d="m 183.405,173.269 c 0,1.08 -0.876,1.956 -1.956,1.956 -1.08,0 -1.957,-0.876 -1.957,-1.956 0,-1.08 0.877,-1.956 1.957,-1.956 1.08,0 1.956,0.876 1.956,1.956" /><path
           inkscape:connector-curvature="0"
           id="path618"
           style="fill:#000000;fill-opacity:1;fill-rule:nonzero;stroke:none"
           d="m 187.845,211.1 c 0,1.08 -0.877,1.956 -1.957,1.956 -1.08,0 -1.957,-0.876 -1.957,-1.956 0,-1.081 0.877,-1.956 1.957,-1.956 1.08,0 1.957,0.875 1.957,1.956" /><path
           inkscape:connector-curvature="0"
           id="path620"
           style="fill:#000000;fill-opacity:1;fill-rule:nonzero;stroke:none"
           d="m 192.284,236.254 c 0,1.08 -0.877,1.956 -1.957,1.956 -1.08,0 -1.957,-0.876 -1.957,-1.956 0,-1.08 0.877,-1.956 1.957,-1.956 1.08,0 1.957,0.876 1.957,1.956" /><path
           inkscape:connector-curvature="0"
           id="path622"
           style="fill:#000000;fill-opacity:1;fill-rule:nonzero;stroke:none"
           d="m 196.723,240.496 c 0,1.08 -0.877,1.956 -1.957,1.956 -1.08,0 -1.956,-0.876 -1.956,-1.956 0,-1.08 0.876,-1.957 1.956,-1.957 1.08,0 1.957,0.877 1.957,1.957" /><path
           inkscape:connector-curvature="0"
           id="path624"
           style="fill:#000000;fill-opacity:1;fill-rule:nonzero;stroke:none"
           d="m 201.162,242.666 c 0,1.08 -0.877,1.956 -1.957,1.956 -1.08,0 -1.956,-0.876 -1.956,-1.956 0,-1.08 0.876,-1.957 1.956,-1.957 1.08,0 1.957,0.877 1.957,1.957" /><path
           inkscape:connector-curvature="0"
           id="path626"
           style="fill:#000000;fill-opacity:1;fill-rule:nonzero;stroke:none"
           d="m 205.601,242.074 c 0,1.08 -0.877,1.957 -1.957,1.957 -1.08,0 -1.957,-0.877 -1.957,-1.957 0,-1.079 0.877,-1.956 1.957,-1.956 1.08,0 1.957,0.877 1.957,1.956" /><path
           inkscape:connector-curvature="0"
           id="path628"
           style="fill:#000000;fill-opacity:1;fill-rule:nonzero;stroke:none"
           d="m 210.039,242.37 c 0,1.08 -0.876,1.957 -1.956,1.957 -1.08,0 -1.957,-0.877 -1.957,-1.957 0,-1.08 0.877,-1.957 1.957,-1.957 1.08,0 1.956,0.877 1.956,1.957" /><path
           inkscape:connector-curvature="0"
           id="path630"
           style="fill:#000000;fill-opacity:1;fill-rule:nonzero;stroke:none"
           d="m 214.478,241.432 c 0,1.081 -0.876,1.957 -1.956,1.957 -1.08,0 -1.957,-0.876 -1.957,-1.957 0,-1.079 0.877,-1.956 1.957,-1.956 1.08,0 1.956,0.877 1.956,1.956" /><path
           inkscape:connector-curvature="0"
           id="path632"
           style="fill:#000000;fill-opacity:1;fill-rule:nonzero;stroke:none"
           d="m 218.917,241.432 c 0,1.081 -0.876,1.957 -1.956,1.957 -1.08,0 -1.956,-0.876 -1.956,-1.957 0,-1.079 0.876,-1.956 1.956,-1.956 1.08,0 1.956,0.877 1.956,1.956" /><path
           inkscape:connector-curvature="0"
           id="path634"
           style="fill:#000000;fill-opacity:1;fill-rule:nonzero;stroke:none"
           d="m 223.356,241.285 c 0,1.08 -0.876,1.956 -1.956,1.956 -1.08,0 -1.956,-0.876 -1.956,-1.956 0,-1.08 0.876,-1.956 1.956,-1.956 1.08,0 1.956,0.876 1.956,1.956" /><path
           inkscape:connector-curvature="0"
           id="path636"
           style="fill:#000000;fill-opacity:1;fill-rule:nonzero;stroke:none"
           d="m 227.795,237.931 c 0,1.08 -0.876,1.956 -1.956,1.956 -1.08,0 -1.956,-0.876 -1.956,-1.956 0,-1.079 0.876,-1.956 1.956,-1.956 1.08,0 1.956,0.877 1.956,1.956" /><path
           inkscape:connector-curvature="0"
           id="path638"
           style="fill:#000000;fill-opacity:1;fill-rule:nonzero;stroke:none"
           d="m 232.235,239.016 c 0,1.08 -0.877,1.957 -1.957,1.957 -1.08,0 -1.956,-0.877 -1.956,-1.957 0,-1.08 0.876,-1.956 1.956,-1.956 1.08,0 1.957,0.876 1.957,1.956" /><path
           inkscape:connector-curvature="0"
           id="path640"
           style="fill:#000000;fill-opacity:1;fill-rule:nonzero;stroke:none"
           d="m 236.674,241.137 c 0,1.08 -0.877,1.957 -1.956,1.957 -1.081,0 -1.957,-0.877 -1.957,-1.957 0,-1.08 0.876,-1.957 1.957,-1.957 1.079,0 1.956,0.877 1.956,1.957" /><path
           inkscape:connector-curvature="0"
           id="path642"
           style="fill:#000000;fill-opacity:1;fill-rule:nonzero;stroke:none"
           d="m 241.113,242.962 c 0,1.08 -0.877,1.956 -1.956,1.956 -1.081,0 -1.957,-0.876 -1.957,-1.956 0,-1.08 0.876,-1.956 1.957,-1.956 1.079,0 1.956,0.876 1.956,1.956" /><path
           inkscape:connector-curvature="0"
           id="path644"
           style="fill:#000000;fill-opacity:1;fill-rule:nonzero;stroke:none"
           d="m 245.552,243.751 c 0,1.08 -0.876,1.956 -1.957,1.956 -1.08,0 -1.956,-0.876 -1.956,-1.956 0,-1.08 0.876,-1.956 1.956,-1.956 1.081,0 1.957,0.876 1.957,1.956" /><path
           inkscape:connector-curvature="0"
           id="path646"
           style="fill:#000000;fill-opacity:1;fill-rule:nonzero;stroke:none"
           d="m 249.99,243.899 c 0,1.08 -0.875,1.956 -1.956,1.956 -1.08,0 -1.956,-0.876 -1.956,-1.956 0,-1.08 0.876,-1.957 1.956,-1.957 1.081,0 1.956,0.877 1.956,1.957" /><path
           inkscape:connector-curvature="0"
           id="path648"
           style="fill:#000000;fill-opacity:1;fill-rule:nonzero;stroke:none"
           d="m 254.43,243.455 c 0,1.08 -0.877,1.956 -1.957,1.956 -1.08,0 -1.956,-0.876 -1.956,-1.956 0,-1.08 0.876,-1.957 1.956,-1.957 1.08,0 1.957,0.877 1.957,1.957" /><path
           inkscape:connector-curvature="0"
           id="path650"
           style="fill:#000000;fill-opacity:1;fill-rule:nonzero;stroke:none"
           d="m 258.869,243.751 c 0,1.08 -0.877,1.956 -1.957,1.956 -1.08,0 -1.956,-0.876 -1.956,-1.956 0,-1.08 0.876,-1.956 1.956,-1.956 1.08,0 1.957,0.876 1.957,1.956" /><path
           inkscape:connector-curvature="0"
           id="path652"
           style="fill:#000000;fill-opacity:1;fill-rule:nonzero;stroke:none"
           d="m 263.308,244.047 c 0,1.08 -0.877,1.957 -1.957,1.957 -1.08,0 -1.956,-0.877 -1.956,-1.957 0,-1.08 0.876,-1.957 1.956,-1.957 1.08,0 1.957,0.877 1.957,1.957" /><path
           inkscape:connector-curvature="0"
           id="path764"
           style="fill:#000000;fill-opacity:1;fill-rule:nonzero;stroke:none"
           d="m 83.494,134.958 c 1.554,0 1.652,-1.427 1.652,-2.526 0,-1.093 -0.098,-2.52 -1.652,-2.52 -1.554,0 -1.652,1.427 -1.652,2.52 0,1.099 0.098,2.526 1.652,2.526 z m 0,-4.522 c 1.015,0 1.022,1.261 1.022,2.002 0,0.736 -0.007,1.996 -1.022,1.996 -1.015,0 -1.022,-1.26 -1.022,-1.996 0,-0.741 0.007,-2.002 1.022,-2.002" /><path
           inkscape:connector-curvature="0"
           id="path766"
           style="fill:#000000;fill-opacity:1;fill-rule:nonzero;stroke:none"
           d="m 77.656,157.535 c 1.554,0 1.652,-1.427 1.652,-2.526 0,-1.093 -0.098,-2.52 -1.652,-2.52 -1.554,0 -1.652,1.427 -1.652,2.52 0,1.099 0.098,2.526 1.652,2.526 z m 0,-4.521 c 1.015,0 1.022,1.26 1.022,2.001 0,0.736 -0.007,1.996 -1.022,1.996 -1.015,0 -1.022,-1.26 -1.022,-1.996 0,-0.741 0.007,-2.001 1.022,-2.001" /><path
           inkscape:connector-curvature="0"
           id="path768"
           style="fill:#000000;fill-opacity:1;fill-rule:nonzero;stroke:none"
           d="m 80.183,153.349 0.777,0 0,-0.777 -0.777,0 0,0.777 z" /><path
           inkscape:connector-curvature="0"
           id="path770"
           style="fill:#000000;fill-opacity:1;fill-rule:nonzero;stroke:none"
           d="m 81.856,155.779 c -0.049,1.007 0.546,1.756 1.596,1.756 0.868,0 1.554,-0.503 1.554,-1.427 0,-0.875 -0.588,-1.317 -1.204,-1.701 -0.623,-0.378 -1.274,-0.693 -1.393,-1.309 l 2.548,0 0,-0.525 -3.241,0 c 0.098,1.175 0.693,1.596 1.393,2.029 0.84,0.518 1.267,0.827 1.267,1.513 0,0.539 -0.434,0.896 -0.959,0.896 -0.693,0 -0.987,-0.638 -0.966,-1.232 l -0.595,0" /><path
           inkscape:connector-curvature="0"
           id="path772"
           style="fill:#000000;fill-opacity:1;fill-rule:nonzero;stroke:none"
           d="m 77.656,180.107 c 1.554,0 1.652,-1.428 1.652,-2.527 0,-1.092 -0.098,-2.52 -1.652,-2.52 -1.554,0 -1.652,1.428 -1.652,2.52 0,1.099 0.098,2.527 1.652,2.527 z m 0,-4.522 c 1.015,0 1.022,1.26 1.022,2.002 0,0.735 -0.007,1.995 -1.022,1.995 -1.015,0 -1.022,-1.26 -1.022,-1.995 0,-0.742 0.007,-2.002 1.022,-2.002" /><path
           inkscape:connector-curvature="0"
           id="path774"
           style="fill:#000000;fill-opacity:1;fill-rule:nonzero;stroke:none"
           d="m 80.183,175.921 0.777,0 0,-0.777 -0.777,0 0,0.777 z" /><path
           inkscape:connector-curvature="0"
           id="path776"
           style="fill:#000000;fill-opacity:1;fill-rule:nonzero;stroke:none"
           d="m 84.481,176.831 0.672,0 0,-0.525 -0.672,0 0,-1.162 -0.56,0 0,1.162 -2.177,0 0,0.574 2.261,3.227 0.476,0 0,-3.276 z m -0.56,0 0,2.429 -0.014,0 -1.652,-2.429 1.666,0" /><path
           inkscape:connector-curvature="0"
           id="path778"
           style="fill:#000000;fill-opacity:1;fill-rule:nonzero;stroke:none"
           d="m 77.656,202.685 c 1.554,0 1.652,-1.428 1.652,-2.527 0,-1.092 -0.098,-2.52 -1.652,-2.52 -1.554,0 -1.652,1.428 -1.652,2.52 0,1.099 0.098,2.527 1.652,2.527 z m 0,-4.522 c 1.015,0 1.022,1.26 1.022,2.002 0,0.735 -0.007,1.995 -1.022,1.995 -1.015,0 -1.022,-1.26 -1.022,-1.995 0,-0.742 0.007,-2.002 1.022,-2.002" /><path
           inkscape:connector-curvature="0"
           id="path780"
           style="fill:#000000;fill-opacity:1;fill-rule:nonzero;stroke:none"
           d="m 80.183,198.499 0.777,0 0,-0.777 -0.777,0 0,0.777 z" /><path
           inkscape:connector-curvature="0"
           id="path782"
           style="fill:#000000;fill-opacity:1;fill-rule:nonzero;stroke:none"
           d="m 84.446,201.418 c -0.056,0.448 -0.364,0.742 -0.833,0.742 -1.015,0 -1.176,-1.12 -1.204,-1.883 l 0.014,-0.014 c 0.28,0.455 0.7,0.651 1.239,0.651 0.952,0 1.519,-0.693 1.519,-1.61 0,-0.721 -0.406,-1.666 -1.659,-1.666 -1.47,0 -1.708,1.344 -1.708,2.387 0,1.365 0.413,2.66 1.827,2.66 0.819,0 1.33,-0.462 1.4,-1.267 l -0.595,0 z m -1.925,-2.149 c 0,-0.616 0.378,-1.106 1.029,-1.106 0.644,0 1.001,0.511 1.001,1.099 0,0.616 -0.322,1.127 -1.001,1.127 -0.665,0 -1.029,-0.497 -1.029,-1.12" /><path
           inkscape:connector-curvature="0"
           id="path784"
           style="fill:#000000;fill-opacity:1;fill-rule:nonzero;stroke:none"
           d="m 77.656,225.255 c 1.554,0 1.652,-1.427 1.652,-2.527 0,-1.091 -0.098,-2.52 -1.652,-2.52 -1.554,0 -1.652,1.429 -1.652,2.52 0,1.1 0.098,2.527 1.652,2.527 z m 0,-4.522 c 1.015,0 1.022,1.261 1.022,2.002 0,0.736 -0.007,1.995 -1.022,1.995 -1.015,0 -1.022,-1.259 -1.022,-1.995 0,-0.741 0.007,-2.002 1.022,-2.002" /><path
           inkscape:connector-curvature="0"
           id="path786"
           style="fill:#000000;fill-opacity:1;fill-rule:nonzero;stroke:none"
           d="m 80.183,221.069 0.777,0 0,-0.777 -0.777,0 0,0.777 z" /><path
           inkscape:connector-curvature="0"
           id="path788"
           style="fill:#000000;fill-opacity:1;fill-rule:nonzero;stroke:none"
           d="m 83.459,225.255 c 1.085,0 1.505,-0.636 1.505,-1.267 0,-0.441 -0.28,-0.846 -0.686,-1.029 0.595,-0.189 0.882,-0.623 0.882,-1.238 0,-0.959 -0.728,-1.513 -1.645,-1.513 -0.952,0 -1.687,0.498 -1.687,1.513 0,0.588 0.315,1.043 0.868,1.238 -0.413,0.168 -0.693,0.581 -0.693,1.029 0,0.82 0.693,1.267 1.456,1.267 z m 0.056,-4.522 c 0.595,0 1.015,0.413 1.015,0.967 0,0.538 -0.462,0.944 -1.022,0.944 -0.588,0 -1.05,-0.377 -1.05,-0.952 0,-0.594 0.441,-0.959 1.057,-0.959 z m 0,2.436 c 0.469,0 0.819,0.294 0.819,0.798 0,0.497 -0.35,0.763 -0.833,0.763 -0.476,0 -0.868,-0.266 -0.868,-0.763 0,-0.546 0.392,-0.798 0.882,-0.798" /><path
           inkscape:connector-curvature="0"
           id="path830"
           style="fill:#000000;fill-opacity:1;fill-rule:nonzero;stroke:none"
           d="m 88.547,129.082 c 1.555,0 1.653,-1.428 1.653,-2.527 0,-1.092 -0.098,-2.52 -1.653,-2.52 -1.553,0 -1.651,1.428 -1.651,2.52 0,1.099 0.098,2.527 1.651,2.527 z m 0,-4.522 c 1.016,0 1.022,1.26 1.022,2.002 0,0.735 -0.006,1.995 -1.022,1.995 -1.014,0 -1.022,-1.26 -1.022,-1.995 0,-0.742 0.008,-2.002 1.022,-2.002" /><path
           inkscape:connector-curvature="0"
           id="path832"
           style="fill:#000000;fill-opacity:1;fill-rule:nonzero;stroke:none"
           d="m 127.01,128.473 -2.002,0 -0.266,-1.428 0.014,-0.014 c 0.217,0.245 0.588,0.357 0.924,0.357 0.881,0 1.603,-0.567 1.603,-1.701 0,-0.84 -0.581,-1.652 -1.736,-1.652 -0.862,0 -1.561,0.525 -1.582,1.421 l 0.594,0 c 0.036,-0.511 0.449,-0.896 1.043,-0.896 0.567,0 1.051,0.385 1.051,1.176 0,0.658 -0.455,1.127 -1.12,1.127 -0.378,0 -0.693,-0.189 -0.924,-0.469 l -0.511,0.028 0.461,2.576 2.451,0 0,-0.525" /><path
           inkscape:connector-curvature="0"
           id="path834"
           style="fill:#000000;fill-opacity:1;fill-rule:nonzero;stroke:none"
           d="m 129.803,125.981 1.54,-1.547 -0.26,-0.259 -1.546,1.554 -1.547,-1.554 -0.26,0.259 1.54,1.547 -1.54,1.547 0.26,0.259 1.547,-1.554 1.546,1.554 0.26,-0.259 -1.54,-1.547" /><path
           inkscape:connector-curvature="0"
           id="path836"
           style="fill:#000000;fill-opacity:1;fill-rule:nonzero;stroke:none"
           d="m 133.947,124.119 -0.596,0 0,3.556 -1.288,0 0,0.476 c 0.68,0 1.295,0.182 1.429,0.931 l 0.455,0 0,-4.963" /><path
           inkscape:connector-curvature="0"
           id="path838"
           style="fill:#000000;fill-opacity:1;fill-rule:nonzero;stroke:none"
           d="m 137.292,129.082 c 1.554,0 1.653,-1.428 1.653,-2.527 0,-1.092 -0.099,-2.52 -1.653,-2.52 -1.553,0 -1.651,1.428 -1.651,2.52 0,1.099 0.098,2.527 1.651,2.527 z m 0,-4.522 c 1.015,0 1.022,1.26 1.022,2.002 0,0.735 -0.007,1.995 -1.022,1.995 -1.014,0 -1.022,-1.26 -1.022,-1.995 0,-0.742 0.008,-2.002 1.022,-2.002" /><path
           inkscape:connector-curvature="0"
           id="path840"
           style="fill:#000000;fill-opacity:1;fill-rule:nonzero;stroke:none"
           d="m 141.588,129.229 -1.43,0 -0.189,-1.02 0.009,-0.01 c 0.156,0.175 0.42,0.255 0.66,0.255 0.63,0 1.145,-0.405 1.145,-1.215 0,-0.6 -0.415,-1.18 -1.24,-1.18 -0.614,0 -1.114,0.375 -1.13,1.015 l 0.425,0 c 0.026,-0.365 0.32,-0.64 0.745,-0.64 0.406,0 0.75,0.275 0.75,0.84 0,0.47 -0.324,0.805 -0.8,0.805 -0.27,0 -0.495,-0.135 -0.66,-0.335 l -0.364,0.02 0.329,1.84 1.75,0 0,-0.375" /><path
           inkscape:connector-curvature="0"
           id="path842"
           style="fill:#000000;fill-opacity:1;fill-rule:nonzero;stroke:none"
           d="m 174.207,124.119 -0.595,0 0,3.556 -1.288,0 0,0.476 c 0.679,0 1.295,0.182 1.428,0.931 l 0.455,0 0,-4.963" /><path
           inkscape:connector-curvature="0"
           id="path844"
           style="fill:#000000;fill-opacity:1;fill-rule:nonzero;stroke:none"
           d="m 177.553,129.082 c 1.554,0 1.652,-1.428 1.652,-2.527 0,-1.092 -0.098,-2.52 -1.652,-2.52 -1.554,0 -1.653,1.428 -1.653,2.52 0,1.099 0.099,2.527 1.653,2.527 z m 0,-4.522 c 1.014,0 1.022,1.26 1.022,2.002 0,0.735 -0.008,1.995 -1.022,1.995 -1.015,0 -1.022,-1.26 -1.022,-1.995 0,-0.742 0.007,-2.002 1.022,-2.002" /><path
           inkscape:connector-curvature="0"
           id="path846"
           style="fill:#000000;fill-opacity:1;fill-rule:nonzero;stroke:none"
           d="m 181.568,128.759 c -0.039,0.32 -0.259,0.53 -0.594,0.53 -0.725,0 -0.84,-0.8 -0.86,-1.345 l 0.01,-0.01 c 0.2,0.325 0.5,0.465 0.885,0.465 0.68,0 1.085,-0.495 1.085,-1.15 0,-0.515 -0.29,-1.19 -1.185,-1.19 -1.051,0 -1.22,0.96 -1.22,1.705 0,0.975 0.294,1.9 1.305,1.9 0.585,0 0.949,-0.33 1,-0.905 l -0.426,0 z m -1.375,-1.535 c 0,-0.44 0.27,-0.79 0.736,-0.79 0.46,0 0.715,0.365 0.715,0.785 0,0.44 -0.23,0.805 -0.715,0.805 -0.475,0 -0.736,-0.355 -0.736,-0.8" /><path
           inkscape:connector-curvature="0"
           id="path848"
           style="fill:#000000;fill-opacity:1;fill-rule:nonzero;stroke:none"
           d="m 211.548,124.119 -0.595,0 0,3.556 -1.288,0 0,0.476 c 0.679,0 1.295,0.182 1.428,0.931 l 0.455,0 0,-4.963" /><path
           inkscape:connector-curvature="0"
           id="path850"
           style="fill:#000000;fill-opacity:1;fill-rule:nonzero;stroke:none"
           d="m 213.529,124.896 0.777,0 0,-0.777 -0.777,0 0,0.777 z" /><path
           inkscape:connector-curvature="0"
           id="path852"
           style="fill:#000000;fill-opacity:1;fill-rule:nonzero;stroke:none"
           d="m 218.184,128.473 -2.002,0 -0.266,-1.428 0.014,-0.014 c 0.217,0.245 0.588,0.357 0.924,0.357 0.882,0 1.603,-0.567 1.603,-1.701 0,-0.84 -0.581,-1.652 -1.736,-1.652 -0.861,0 -1.561,0.525 -1.582,1.421 l 0.595,0 c 0.035,-0.511 0.448,-0.896 1.043,-0.896 0.567,0 1.05,0.385 1.05,1.176 0,0.658 -0.455,1.127 -1.12,1.127 -0.378,0 -0.693,-0.189 -0.924,-0.469 l -0.511,0.028 0.462,2.576 2.45,0 0,-0.525" /><path
           inkscape:connector-curvature="0"
           id="path854"
           style="fill:#000000;fill-opacity:1;fill-rule:nonzero;stroke:none"
           d="m 220.977,125.981 1.54,-1.547 -0.259,-0.259 -1.547,1.554 -1.547,-1.554 -0.259,0.259 1.54,1.547 -1.54,1.547 0.259,0.259 1.547,-1.554 1.547,1.554 0.259,-0.259 -1.54,-1.547" /><path
           inkscape:connector-curvature="0"
           id="path856"
           style="fill:#000000;fill-opacity:1;fill-rule:nonzero;stroke:none"
           d="m 225.121,124.119 -0.595,0 0,3.556 -1.288,0 0,0.476 c 0.679,0 1.295,0.182 1.428,0.931 l 0.455,0 0,-4.963" /><path
           inkscape:connector-curvature="0"
           id="path858"
           style="fill:#000000;fill-opacity:1;fill-rule:nonzero;stroke:none"
           d="m 228.467,129.082 c 1.554,0 1.652,-1.428 1.652,-2.527 0,-1.092 -0.098,-2.52 -1.652,-2.52 -1.554,0 -1.652,1.428 -1.652,2.52 0,1.099 0.098,2.527 1.652,2.527 z m 0,-4.522 c 1.015,0 1.022,1.26 1.022,2.002 0,0.735 -0.007,1.995 -1.022,1.995 -1.015,0 -1.022,-1.26 -1.022,-1.995 0,-0.742 0.007,-2.002 1.022,-2.002" /><path
           inkscape:connector-curvature="0"
           id="path860"
           style="fill:#000000;fill-opacity:1;fill-rule:nonzero;stroke:none"
           d="m 232.483,128.759 c -0.04,0.32 -0.26,0.53 -0.595,0.53 -0.725,0 -0.84,-0.8 -0.86,-1.345 l 0.01,-0.01 c 0.2,0.325 0.5,0.465 0.885,0.465 0.68,0 1.085,-0.495 1.085,-1.15 0,-0.515 -0.29,-1.19 -1.185,-1.19 -1.05,0 -1.22,0.96 -1.22,1.705 0,0.975 0.295,1.9 1.305,1.9 0.585,0 0.95,-0.33 1,-0.905 l -0.425,0 z m -1.375,-1.535 c 0,-0.44 0.27,-0.79 0.735,-0.79 0.46,0 0.715,0.365 0.715,0.785 0,0.44 -0.23,0.805 -0.715,0.805 -0.475,0 -0.735,-0.355 -0.735,-0.8" /><path
           inkscape:connector-curvature="0"
           id="path862"
           style="fill:#000000;fill-opacity:1;fill-rule:nonzero;stroke:none"
           d="m 256.411,127.325 c -0.05,1.008 0.546,1.757 1.596,1.757 0.868,0 1.554,-0.504 1.554,-1.428 0,-0.875 -0.588,-1.316 -1.204,-1.701 -0.623,-0.378 -1.274,-0.693 -1.393,-1.309 l 2.547,0 0,-0.525 -3.24,0 c 0.098,1.176 0.693,1.596 1.393,2.03 0.84,0.518 1.267,0.826 1.267,1.512 0,0.539 -0.434,0.896 -0.959,0.896 -0.694,0 -0.987,-0.637 -0.966,-1.232 l -0.595,0" /><path
           inkscape:connector-curvature="0"
           id="path864"
           style="fill:#000000;fill-opacity:1;fill-rule:nonzero;stroke:none"
           d="m 262.186,125.981 1.54,-1.547 -0.26,-0.259 -1.546,1.554 -1.547,-1.554 -0.26,0.259 1.54,1.547 -1.54,1.547 0.26,0.259 1.547,-1.554 1.546,1.554 0.26,-0.259 -1.54,-1.547" /><path
           inkscape:connector-curvature="0"
           id="path866"
           style="fill:#000000;fill-opacity:1;fill-rule:nonzero;stroke:none"
           d="m 266.33,124.119 -0.595,0 0,3.556 -1.289,0 0,0.476 c 0.68,0 1.295,0.182 1.429,0.931 l 0.455,0 0,-4.963" /><path
           inkscape:connector-curvature="0"
           id="path868"
           style="fill:#000000;fill-opacity:1;fill-rule:nonzero;stroke:none"
           d="m 269.675,129.082 c 1.555,0 1.653,-1.428 1.653,-2.527 0,-1.092 -0.098,-2.52 -1.653,-2.52 -1.553,0 -1.651,1.428 -1.651,2.52 0,1.099 0.098,2.527 1.651,2.527 z m 0,-4.522 c 1.015,0 1.022,1.26 1.022,2.002 0,0.735 -0.007,1.995 -1.022,1.995 -1.014,0 -1.022,-1.26 -1.022,-1.995 0,-0.742 0.008,-2.002 1.022,-2.002" /><path
           inkscape:connector-curvature="0"
           id="path870"
           style="fill:#000000;fill-opacity:1;fill-rule:nonzero;stroke:none"
           d="m 273.691,128.759 c -0.04,0.32 -0.259,0.53 -0.595,0.53 -0.724,0 -0.84,-0.8 -0.86,-1.345 l 0.011,-0.01 c 0.199,0.325 0.5,0.465 0.884,0.465 0.681,0 1.085,-0.495 1.085,-1.15 0,-0.515 -0.29,-1.19 -1.185,-1.19 -1.049,0 -1.219,0.96 -1.219,1.705 0,0.975 0.295,1.9 1.304,1.9 0.585,0 0.95,-0.33 1,-0.905 l -0.425,0 z m -1.375,-1.535 c 0,-0.44 0.27,-0.79 0.735,-0.79 0.46,0 0.716,0.365 0.716,0.785 0,0.44 -0.23,0.805 -0.716,0.805 -0.475,0 -0.735,-0.355 -0.735,-0.8" /><path
           inkscape:connector-curvature="0"
           id="path874"
           style="fill:#000000;fill-opacity:1;fill-rule:nonzero;stroke:none"
           d="m 78.202,242.869 -0.595,0 0,3.557 -1.288,0 0,0.475 c 0.679,0 1.295,0.182 1.428,0.931 l 0.455,0 0,-4.963" /><path
           inkscape:connector-curvature="0"
           id="path876"
           style="fill:#000000;fill-opacity:1;fill-rule:nonzero;stroke:none"
           d="m 80.183,243.646 0.777,0 0,-0.777 -0.777,0 0,0.777 z" /><path
           inkscape:connector-curvature="0"
           id="path878"
           style="fill:#000000;fill-opacity:1;fill-rule:nonzero;stroke:none"
           d="m 83.494,247.832 c 1.554,0 1.652,-1.427 1.652,-2.526 0,-1.092 -0.098,-2.521 -1.652,-2.521 -1.554,0 -1.652,1.429 -1.652,2.521 0,1.099 0.098,2.526 1.652,2.526 z m 0,-4.522 c 1.015,0 1.022,1.261 1.022,2.002 0,0.736 -0.007,1.995 -1.022,1.995 -1.015,0 -1.022,-1.259 -1.022,-1.995 0,-0.741 0.007,-2.002 1.022,-2.002" /></g><text
         transform="matrix(0,1,1,0,0,0)"
         sodipodi:linespacing="125%"
         id="text4179"
         y="145.81668"
         x="168.90414"
         style="font-size:6.4000001px;font-style:normal;font-weight:normal;line-height:125%;letter-spacing:0px;word-spacing:0px;fill:#000000;fill-opacity:1;stroke:none;font-family:Sans"
         xml:space="preserve"><tspan
           y="145.81668"
           x="168.90414"
           id="tspan4181"
           sodipodi:role="line">Überlebende Trojaner</tspan></text>
</g><g
       id="g3789"><path
         d="m -76.19916,199.30339 0,1.967 c 0,0.959 0.469,1.484 1.379,1.484 0.623,0 1.575,-0.441 1.575,-1.911 l 0,-1.484 2.044,-0.434 0,-0.665 -4.998,1.043 z m 2.394,0.175 0,1.505 c 0,0.714 -0.42,1.106 -1.015,1.106 -0.616,0 -0.819,-0.378 -0.819,-0.819 l 0,-1.407 1.834,-0.385"
         style="fill:#000000;fill-opacity:1;fill-rule:nonzero;stroke:none"
         id="path548"
         inkscape:connector-curvature="0" /><path
         d="m -71.72616,205.20239 c -0.51,-0.055 -0.73,-0.395 -0.73,-0.885 0,-0.4 0.145,-0.8 0.61,-0.8 0.44,0 0.505,0.57 0.635,1.145 0.13,0.57 0.33,1.14 1.03,1.14 0.76,0 1.065,-0.745 1.065,-1.395 0,-0.8 -0.39,-1.475 -1.26,-1.475 l 0,0.45 c 0.6,0 0.86,0.5 0.86,1.04 0,0.43 -0.135,0.905 -0.65,0.905 -0.49,0 -0.575,-0.57 -0.7,-1.14 -0.125,-0.57 -0.29,-1.145 -0.945,-1.145 -0.725,0 -1.045,0.645 -1.045,1.295 0,0.73 0.345,1.285 1.13,1.315 l 0,-0.45"
         style="fill:#000000;fill-opacity:1;fill-rule:nonzero;stroke:none"
         id="path550"
         inkscape:connector-curvature="0" /><path
         d="m -76.31816,207.93339 0,0.511 5.236,-2.072 0,-0.511 -5.236,2.072"
         style="fill:#000000;fill-opacity:1;fill-rule:nonzero;stroke:none"
         id="path552"
         inkscape:connector-curvature="0" /><path
         d="m -76.19916,209.41039 0,1.967 c 0,0.959 0.469,1.484 1.379,1.484 0.623,0 1.575,-0.441 1.575,-1.911 l 0,-1.484 2.044,-0.434 0,-0.665 -4.998,1.043 z m 2.394,0.175 0,1.505 c 0,0.714 -0.42,1.106 -1.015,1.106 -0.616,0 -0.819,-0.378 -0.819,-0.819 l 0,-1.407 1.834,-0.385"
         style="fill:#000000;fill-opacity:1;fill-rule:nonzero;stroke:none"
         id="path554"
         inkscape:connector-curvature="0" /><path
         d="m -70.09116,215.05939 c 0.485,0 0.975,-0.255 0.975,-1.055 0,-0.665 -0.37,-1.04 -1.04,-1.04 l -0.22,0 0,0.475 0.15,0 c 0.415,0 0.71,0.11 0.71,0.575 0,0.435 -0.25,0.57 -0.645,0.57 l -2.61,0 0,0.475 2.68,0"
         style="fill:#000000;fill-opacity:1;fill-rule:nonzero;stroke:none"
         id="path556"
         inkscape:connector-curvature="0" /><g
         id="g3711"><path
           inkscape:connector-curvature="0"
           id="path654"
           style="fill:none;stroke:#000000;stroke-width:0.5;stroke-linecap:round;stroke-linejoin:round;stroke-miterlimit:10;stroke-opacity:1;stroke-dasharray:none"
           d="m -52.16216,149.74539 177.56,0 m -177.56,0 0,5.873 m 8.878,-5.873 0,2.939 m 8.878,-2.939 0,2.939 m 8.878,-2.939 0,2.939 m 8.878,-2.939 0,2.939 m 8.878,-2.939 0,5.873 m 8.878,-5.873 0,2.939 m 8.878,-2.939 0,2.939 m 8.878,-2.939 0,2.939 m 8.878,-2.939 0,2.939 m 8.878,-2.939 0,5.873 m 8.878,-5.873 0,2.939 m 8.878,-2.939 0,2.939 m 8.878,-2.939 0,2.939 m 8.878,-2.939 0,2.939 m 8.878,-2.939 0,5.873 m 8.878,-5.873 0,2.939 m 8.879,-2.939 0,2.939 m 8.877,-2.939 0,2.939 m 8.878,-2.939 0,2.939 m 8.878,-2.939 0,5.873" /><path
           inkscape:connector-curvature="0"
           id="path656"
           style="fill:#000000;fill-opacity:1;fill-rule:nonzero;stroke:none"
           d="m -51.84516,146.72639 c 1.555,0 1.653,-1.427 1.653,-2.527 0,-1.091 -0.098,-2.52 -1.653,-2.52 -1.553,0 -1.651,1.429 -1.651,2.52 0,1.1 0.098,2.527 1.651,2.527 z m 0,-4.522 c 1.016,0 1.022,1.261 1.022,2.002 0,0.736 -0.006,1.995 -1.022,1.995 -1.014,0 -1.022,-1.259 -1.022,-1.995 0,-0.741 0.008,-2.002 1.022,-2.002" /><path
           inkscape:connector-curvature="0"
           id="path658"
           style="fill:none;stroke:#000000;stroke-width:0.5;stroke-linecap:round;stroke-linejoin:round;stroke-miterlimit:10;stroke-opacity:1;stroke-dasharray:none"
           d="m -52.16216,263.77539 177.56,0 m -177.56,0 0,-5.874 m 8.878,5.874 0,-2.935 m 8.878,2.935 0,-2.935 m 8.878,2.935 0,-2.935 m 8.878,2.935 0,-2.935 m 8.878,2.935 0,-5.874 m 8.878,5.874 0,-2.935 m 8.878,2.935 0,-2.935 m 8.878,2.935 0,-2.935 m 8.878,2.935 0,-2.935 m 8.878,2.935 0,-5.874 m 8.878,5.874 0,-2.935 m 8.878,2.935 0,-2.935 m 8.878,2.935 0,-2.935 m 8.878,2.935 0,-2.935 m 8.878,2.935 0,-5.874 m 8.878,5.874 0,-2.935 m 8.879,2.935 0,-2.935 m 8.877,2.935 0,-2.935 m 8.878,2.935 0,-2.935 m 8.878,2.935 0,-5.874 m -177.56,-108.156 0,114.03 m 0,-114.03 5.873,0 m -5.873,7.604 2.935,0 m -2.935,7.6 2.935,0 m -2.935,7.604 2.935,0 m -2.935,7.599 2.935,0 m -2.935,7.604 5.873,0 m -5.873,7.6 2.935,0 m -2.935,7.604 2.935,0 m -2.935,7.6 2.935,0 m -2.935,7.604 2.935,0 m -2.935,7.599 5.873,0 m -5.873,7.604 2.935,0 m -2.935,7.6 2.935,0 m -2.935,7.604 2.935,0 m -2.935,7.6 2.935,0 m -2.935,7.604 5.873,0" /><path
           inkscape:connector-curvature="0"
           id="path660"
           style="fill:#000000;fill-opacity:1;fill-rule:nonzero;stroke:none"
           d="m -60.74616,147.60839 -0.595,0 0,3.556 -1.288,0 0,0.476 c 0.679,0 1.295,0.182 1.428,0.931 l 0.455,0 0,-4.963" /><path
           inkscape:connector-curvature="0"
           id="path662"
           style="fill:#000000;fill-opacity:1;fill-rule:nonzero;stroke:none"
           d="m -58.76516,148.38539 0.777,0 0,-0.777 -0.777,0 0,0.777 z" /><path
           inkscape:connector-curvature="0"
           id="path664"
           style="fill:#000000;fill-opacity:1;fill-rule:nonzero;stroke:none"
           d="m -56.46216,148.80539 c 0.042,-0.483 0.434,-0.756 0.91,-0.756 0.728,0 1.085,0.637 1.12,1.918 l -0.014,0.014 c -0.224,-0.42 -0.665,-0.686 -1.148,-0.686 -1.008,0 -1.568,0.679 -1.568,1.659 0,0.959 0.672,1.617 1.631,1.617 0.924,0 1.701,-0.497 1.701,-2.373 0,-1.715 -0.518,-2.674 -1.722,-2.674 -0.833,0 -1.428,0.427 -1.505,1.281 l 0.595,0 z m 0.903,3.241 c -0.707,0 -0.973,-0.567 -0.973,-1.176 0,-0.546 0.406,-1.05 0.98,-1.05 0.623,0 1.015,0.504 1.015,1.092 0,0.609 -0.357,1.134 -1.022,1.134" /><path
           inkscape:connector-curvature="0"
           id="path666"
           style="fill:#000000;fill-opacity:1;fill-rule:nonzero;stroke:none"
           d="m -58.04516,188.84239 c -0.05,1.008 0.546,1.757 1.595,1.757 0.869,0 1.555,-0.504 1.555,-1.428 0,-0.875 -0.588,-1.316 -1.204,-1.701 -0.623,-0.378 -1.274,-0.693 -1.393,-1.309 l 2.548,0 0,-0.525 -3.241,0 c 0.098,1.176 0.693,1.596 1.393,2.03 0.84,0.518 1.267,0.826 1.267,1.512 0,0.539 -0.434,0.896 -0.959,0.896 -0.694,0 -0.987,-0.637 -0.967,-1.232 l -0.594,0" /><path
           inkscape:connector-curvature="0"
           id="path668"
           style="fill:#000000;fill-opacity:1;fill-rule:nonzero;stroke:none"
           d="m -62.93016,226.86339 c -0.049,1.008 0.546,1.757 1.596,1.757 0.868,0 1.554,-0.504 1.554,-1.428 0,-0.875 -0.588,-1.316 -1.204,-1.701 -0.623,-0.378 -1.274,-0.693 -1.393,-1.309 l 2.548,0 0,-0.525 -3.241,0 c 0.098,1.176 0.693,1.596 1.393,2.03 0.84,0.518 1.267,0.826 1.267,1.512 0,0.539 -0.434,0.896 -0.959,0.896 -0.693,0 -0.987,-0.637 -0.966,-1.232 l -0.595,0" /><path
           inkscape:connector-curvature="0"
           id="path670"
           style="fill:#000000;fill-opacity:1;fill-rule:nonzero;stroke:none"
           d="m -58.76516,224.43439 0.777,0 0,-0.777 -0.777,0 0,0.777 z" /><path
           inkscape:connector-curvature="0"
           id="path672"
           style="fill:#000000;fill-opacity:1;fill-rule:nonzero;stroke:none"
           d="m -54.90816,223.65739 -0.595,0 0,3.556 -1.288,0 0,0.476 c 0.679,0 1.295,0.182 1.428,0.931 l 0.455,0 0,-4.963" /><path
           inkscape:connector-curvature="0"
           id="path674"
           style="fill:none;stroke:#000000;stroke-width:0.5;stroke-linecap:round;stroke-linejoin:round;stroke-miterlimit:10;stroke-opacity:1;stroke-dasharray:none"
           d="m 125.39784,149.74539 0,114.03 m 0,-114.03 -5.873,0 m 5.873,7.604 -2.934,0 m 2.934,7.6 -2.934,0 m 2.934,7.604 -2.934,0 m 2.934,7.599 -2.934,0 m 2.934,7.604 -5.873,0 m 5.873,7.6 -2.934,0 m 2.934,7.604 -2.934,0 m 2.934,7.6 -2.934,0 m 2.934,7.604 -2.934,0 m 2.934,7.599 -5.873,0 m 5.873,7.604 -2.934,0 m 2.934,7.6 -2.934,0 m 2.934,7.604 -2.934,0 m 2.934,7.6 -2.934,0 m 2.934,7.604 -5.873,0" /><g
           id="g676"
           transform="translate(-140.39216,-119.85461)"><g
             clip-path="url(#clipPath680)"
             id="g678"><path
               inkscape:connector-curvature="0"
               id="path684"
               style="fill:#000000;fill-opacity:1;fill-rule:nonzero;stroke:none"
               d="m 90.186,285.428 c 0,1.08 -0.876,1.957 -1.956,1.957 -1.08,0 -1.957,-0.877 -1.957,-1.957 0,-1.079 0.877,-1.956 1.957,-1.956 1.08,0 1.956,0.877 1.956,1.956" /></g></g><path
           inkscape:connector-curvature="0"
           id="path686"
           style="fill:#000000;fill-opacity:1;fill-rule:nonzero;stroke:none"
           d="m -45.76716,166.90539 c 0,1.08 -0.876,1.957 -1.956,1.957 -1.081,0 -1.957,-0.877 -1.957,-1.957 0,-1.08 0.876,-1.956 1.957,-1.956 1.08,0 1.956,0.876 1.956,1.956" /><path
           inkscape:connector-curvature="0"
           id="path688"
           style="fill:#000000;fill-opacity:1;fill-rule:nonzero;stroke:none"
           d="m -32.45016,170.75339 c 0,1.079 -0.876,1.956 -1.956,1.956 -1.081,0 -1.957,-0.877 -1.957,-1.956 0,-1.081 0.876,-1.957 1.957,-1.957 1.08,0 1.956,0.876 1.956,1.957" /><path
           inkscape:connector-curvature="0"
           id="path690"
           style="fill:#000000;fill-opacity:1;fill-rule:nonzero;stroke:none"
           d="m -19.13316,175.14239 c 0,1.08 -0.876,1.957 -1.956,1.957 -1.08,0 -1.957,-0.877 -1.957,-1.957 0,-1.08 0.877,-1.956 1.957,-1.956 1.08,0 1.956,0.876 1.956,1.956" /><path
           inkscape:connector-curvature="0"
           id="path692"
           style="fill:#000000;fill-opacity:1;fill-rule:nonzero;stroke:none"
           d="m -14.69416,198.42239 c 0,1.08 -0.876,1.957 -1.956,1.957 -1.08,0 -1.956,-0.877 -1.956,-1.957 0,-1.08 0.876,-1.956 1.956,-1.956 1.08,0 1.956,0.876 1.956,1.956" /><path
           inkscape:connector-curvature="0"
           id="path694"
           style="fill:#000000;fill-opacity:1;fill-rule:nonzero;stroke:none"
           d="m -10.25516,201.82639 c 0,1.08 -0.876,1.956 -1.956,1.956 -1.081,0 -1.956,-0.876 -1.956,-1.956 0,-1.08 0.875,-1.957 1.956,-1.957 1.08,0 1.956,0.877 1.956,1.957" /><path
           inkscape:connector-curvature="0"
           id="path696"
           style="fill:#000000;fill-opacity:1;fill-rule:nonzero;stroke:none"
           d="m -7.59116,205.27839 c 0,1.08 -0.877,1.956 -1.957,1.956 -1.08,0 -1.956,-0.876 -1.956,-1.956 0,-1.08 0.876,-1.956 1.956,-1.956 1.08,0 1.957,0.876 1.957,1.956" /><path
           inkscape:connector-curvature="0"
           id="path698"
           style="fill:#000000;fill-opacity:1;fill-rule:nonzero;stroke:none"
           d="m -6.70316,205.42639 c 0,1.08 -0.877,1.956 -1.957,1.956 -1.08,0 -1.957,-0.876 -1.957,-1.956 0,-1.08 0.877,-1.956 1.957,-1.956 1.08,0 1.957,0.876 1.957,1.956" /><path
           inkscape:connector-curvature="0"
           id="path700"
           style="fill:#000000;fill-opacity:1;fill-rule:nonzero;stroke:none"
           d="m -5.81616,205.82139 c 0,1.08 -0.876,1.956 -1.956,1.956 -1.08,0 -1.957,-0.876 -1.957,-1.956 0,-1.08 0.877,-1.957 1.957,-1.957 1.08,0 1.956,0.877 1.956,1.957" /><path
           inkscape:connector-curvature="0"
           id="path702"
           style="fill:#000000;fill-opacity:1;fill-rule:nonzero;stroke:none"
           d="m -1.37716,207.94239 c 0,1.079 -0.876,1.956 -1.957,1.956 -1.079,0 -1.956,-0.877 -1.956,-1.956 0,-1.08 0.877,-1.957 1.956,-1.957 1.081,0 1.957,0.877 1.957,1.957" /><path
           inkscape:connector-curvature="0"
           id="path704"
           style="fill:#000000;fill-opacity:1;fill-rule:nonzero;stroke:none"
           d="m 0.39884,207.25139 c 0,1.08 -0.877,1.956 -1.957,1.956 -1.079,0 -1.956,-0.876 -1.956,-1.956 0,-1.08 0.877,-1.956 1.956,-1.956 1.08,0 1.957,0.876 1.957,1.956" /><path
           inkscape:connector-curvature="0"
           id="path706"
           style="fill:#000000;fill-opacity:1;fill-rule:nonzero;stroke:none"
           d="m 3.06184,208.87939 c 0,1.079 -0.876,1.956 -1.956,1.956 -1.08,0 -1.957,-0.877 -1.957,-1.956 0,-1.08 0.877,-1.957 1.957,-1.957 1.08,0 1.956,0.877 1.956,1.957" /><path
           inkscape:connector-curvature="0"
           id="path708"
           style="fill:#000000;fill-opacity:1;fill-rule:nonzero;stroke:none"
           d="m 7.50084,209.02739 c 0,1.08 -0.876,1.956 -1.956,1.956 -1.08,0 -1.956,-0.876 -1.956,-1.956 0,-1.08 0.876,-1.957 1.956,-1.957 1.08,0 1.956,0.877 1.956,1.957" /><path
           inkscape:connector-curvature="0"
           id="path710"
           style="fill:#000000;fill-opacity:1;fill-rule:nonzero;stroke:none"
           d="m 11.93984,211.39439 c 0,1.08 -0.876,1.956 -1.956,1.956 -1.08,0 -1.956,-0.876 -1.956,-1.956 0,-1.08 0.876,-1.957 1.956,-1.957 1.08,0 1.956,0.877 1.956,1.957" /><path
           inkscape:connector-curvature="0"
           id="path712"
           style="fill:#000000;fill-opacity:1;fill-rule:nonzero;stroke:none"
           d="m 16.37884,212.47939 c 0,1.08 -0.876,1.956 -1.956,1.956 -1.08,0 -1.956,-0.876 -1.956,-1.956 0,-1.08 0.876,-1.956 1.956,-1.956 1.08,0 1.956,0.876 1.956,1.956" /><path
           inkscape:connector-curvature="0"
           id="path714"
           style="fill:#000000;fill-opacity:1;fill-rule:nonzero;stroke:none"
           d="m 20.81884,212.47939 c 0,1.08 -0.877,1.956 -1.957,1.956 -1.08,0 -1.956,-0.876 -1.956,-1.956 0,-1.08 0.876,-1.956 1.956,-1.956 1.08,0 1.957,0.876 1.957,1.956" /><path
           inkscape:connector-curvature="0"
           id="path716"
           style="fill:#000000;fill-opacity:1;fill-rule:nonzero;stroke:none"
           d="m 29.69684,217.60939 c 0,1.08 -0.877,1.956 -1.957,1.956 -1.08,0 -1.957,-0.876 -1.957,-1.956 0,-1.08 0.877,-1.957 1.957,-1.957 1.08,0 1.957,0.877 1.957,1.957" /><path
           inkscape:connector-curvature="0"
           id="path718"
           style="fill:#000000;fill-opacity:1;fill-rule:nonzero;stroke:none"
           d="m 34.13484,217.36239 c 0,1.08 -0.877,1.957 -1.956,1.957 -1.08,0 -1.957,-0.877 -1.957,-1.957 0,-1.08 0.877,-1.956 1.957,-1.956 1.079,0 1.956,0.876 1.956,1.956" /><path
           inkscape:connector-curvature="0"
           id="path720"
           style="fill:#000000;fill-opacity:1;fill-rule:nonzero;stroke:none"
           d="m 37.68584,218.10239 c 0,1.08 -0.876,1.956 -1.956,1.956 -1.08,0 -1.956,-0.876 -1.956,-1.956 0,-1.08 0.876,-1.957 1.956,-1.957 1.08,0 1.956,0.877 1.956,1.957" /><path
           inkscape:connector-curvature="0"
           id="path722"
           style="fill:#000000;fill-opacity:1;fill-rule:nonzero;stroke:none"
           d="m 38.57384,218.10239 c 0,1.08 -0.876,1.956 -1.956,1.956 -1.08,0 -1.957,-0.876 -1.957,-1.956 0,-1.08 0.877,-1.957 1.957,-1.957 1.08,0 1.956,0.877 1.956,1.957" /><path
           inkscape:connector-curvature="0"
           id="path724"
           style="fill:#000000;fill-opacity:1;fill-rule:nonzero;stroke:none"
           d="m 40.34984,218.94039 c 0,1.08 -0.877,1.957 -1.956,1.957 -1.08,0 -1.957,-0.877 -1.957,-1.957 0,-1.08 0.877,-1.956 1.957,-1.956 1.079,0 1.956,0.876 1.956,1.956" /><path
           inkscape:connector-curvature="0"
           id="path726"
           style="fill:#000000;fill-opacity:1;fill-rule:nonzero;stroke:none"
           d="m 43.01284,220.22339 c 0,1.08 -0.876,1.956 -1.956,1.956 -1.08,0 -1.957,-0.876 -1.957,-1.956 0,-1.08 0.877,-1.957 1.957,-1.957 1.08,0 1.956,0.877 1.956,1.957" /><path
           inkscape:connector-curvature="0"
           id="path728"
           style="fill:#000000;fill-opacity:1;fill-rule:nonzero;stroke:none"
           d="m 47.45284,221.16039 c 0,1.08 -0.877,1.957 -1.957,1.957 -1.08,0 -1.957,-0.877 -1.957,-1.957 0,-1.08 0.877,-1.957 1.957,-1.957 1.08,0 1.957,0.877 1.957,1.957" /><path
           inkscape:connector-curvature="0"
           id="path730"
           style="fill:#000000;fill-opacity:1;fill-rule:nonzero;stroke:none"
           d="m 51.89184,218.69439 c 0,1.08 -0.877,1.956 -1.957,1.956 -1.08,0 -1.957,-0.876 -1.957,-1.956 0,-1.08 0.877,-1.957 1.957,-1.957 1.08,0 1.957,0.877 1.957,1.957" /><path
           inkscape:connector-curvature="0"
           id="path732"
           style="fill:#000000;fill-opacity:1;fill-rule:nonzero;stroke:none"
           d="m 56.33084,225.55039 c 0,1.08 -0.877,1.956 -1.957,1.956 -1.08,0 -1.956,-0.876 -1.956,-1.956 0,-1.08 0.876,-1.957 1.956,-1.957 1.08,0 1.957,0.877 1.957,1.957" /><path
           inkscape:connector-curvature="0"
           id="path734"
           style="fill:#000000;fill-opacity:1;fill-rule:nonzero;stroke:none"
           d="m 60.76984,223.38039 c 0,1.079 -0.877,1.956 -1.957,1.956 -1.08,0 -1.956,-0.877 -1.956,-1.956 0,-1.08 0.876,-1.957 1.956,-1.957 1.08,0 1.957,0.877 1.957,1.957" /><path
           inkscape:connector-curvature="0"
           id="path736"
           style="fill:#000000;fill-opacity:1;fill-rule:nonzero;stroke:none"
           d="m 65.20884,222.29439 c 0,1.08 -0.877,1.957 -1.957,1.957 -1.08,0 -1.957,-0.877 -1.957,-1.957 0,-1.079 0.877,-1.956 1.957,-1.956 1.08,0 1.957,0.877 1.957,1.956" /><path
           inkscape:connector-curvature="0"
           id="path738"
           style="fill:#000000;fill-opacity:1;fill-rule:nonzero;stroke:none"
           d="m 69.64684,225.89539 c 0,1.08 -0.876,1.956 -1.956,1.956 -1.08,0 -1.957,-0.876 -1.957,-1.956 0,-1.08 0.877,-1.957 1.957,-1.957 1.08,0 1.956,0.877 1.956,1.957" /><path
           inkscape:connector-curvature="0"
           id="path740"
           style="fill:#000000;fill-opacity:1;fill-rule:nonzero;stroke:none"
           d="m 74.08584,227.22739 c 0,1.079 -0.876,1.956 -1.956,1.956 -1.08,0 -1.957,-0.877 -1.957,-1.956 0,-1.08 0.877,-1.957 1.957,-1.957 1.08,0 1.956,0.877 1.956,1.957" /><path
           inkscape:connector-curvature="0"
           id="path742"
           style="fill:#000000;fill-opacity:1;fill-rule:nonzero;stroke:none"
           d="m 78.52484,227.17739 c 0,1.08 -0.876,1.957 -1.956,1.957 -1.08,0 -1.956,-0.877 -1.956,-1.957 0,-1.08 0.876,-1.956 1.956,-1.956 1.08,0 1.956,0.876 1.956,1.956" /><path
           inkscape:connector-curvature="0"
           id="path744"
           style="fill:#000000;fill-opacity:1;fill-rule:nonzero;stroke:none"
           d="m 82.96384,228.95339 c 0,1.08 -0.876,1.956 -1.956,1.956 -1.08,0 -1.956,-0.876 -1.956,-1.956 0,-1.08 0.876,-1.957 1.956,-1.957 1.08,0 1.956,0.877 1.956,1.957" /><path
           inkscape:connector-curvature="0"
           id="path746"
           style="fill:#000000;fill-opacity:1;fill-rule:nonzero;stroke:none"
           d="m 87.40284,229.05239 c 0,1.08 -0.876,1.956 -1.956,1.956 -1.08,0 -1.956,-0.876 -1.956,-1.956 0,-1.081 0.876,-1.957 1.956,-1.957 1.08,0 1.956,0.876 1.956,1.957" /><path
           inkscape:connector-curvature="0"
           id="path748"
           style="fill:#000000;fill-opacity:1;fill-rule:nonzero;stroke:none"
           d="m 91.84284,230.53139 c 0,1.08 -0.877,1.957 -1.957,1.957 -1.08,0 -1.956,-0.877 -1.956,-1.957 0,-1.08 0.876,-1.956 1.956,-1.956 1.08,0 1.957,0.876 1.957,1.956" /><path
           inkscape:connector-curvature="0"
           id="path750"
           style="fill:#000000;fill-opacity:1;fill-rule:nonzero;stroke:none"
           d="m 96.28184,231.91239 c 0,1.08 -0.877,1.957 -1.956,1.957 -1.081,0 -1.957,-0.877 -1.957,-1.957 0,-1.08 0.876,-1.956 1.957,-1.956 1.079,0 1.956,0.876 1.956,1.956" /><path
           inkscape:connector-curvature="0"
           id="path752"
           style="fill:#000000;fill-opacity:1;fill-rule:nonzero;stroke:none"
           d="m 100.72084,228.95339 c 0,1.08 -0.877,1.956 -1.956,1.956 -1.081,0 -1.957,-0.876 -1.957,-1.956 0,-1.08 0.876,-1.957 1.957,-1.957 1.079,0 1.956,0.877 1.956,1.957" /><path
           inkscape:connector-curvature="0"
           id="path754"
           style="fill:#000000;fill-opacity:1;fill-rule:nonzero;stroke:none"
           d="m 105.15984,233.63839 c 0,1.08 -0.876,1.957 -1.957,1.957 -1.08,0 -1.956,-0.877 -1.956,-1.957 0,-1.079 0.876,-1.956 1.956,-1.956 1.081,0 1.957,0.877 1.957,1.956" /><path
           inkscape:connector-curvature="0"
           id="path756"
           style="fill:#000000;fill-opacity:1;fill-rule:nonzero;stroke:none"
           d="m 109.59784,234.32939 c 0,1.08 -0.875,1.956 -1.956,1.956 -1.08,0 -1.956,-0.876 -1.956,-1.956 0,-1.08 0.876,-1.956 1.956,-1.956 1.081,0 1.956,0.876 1.956,1.956" /><path
           inkscape:connector-curvature="0"
           id="path758"
           style="fill:#000000;fill-opacity:1;fill-rule:nonzero;stroke:none"
           d="m 114.03784,235.26639 c 0,1.08 -0.877,1.956 -1.957,1.956 -1.08,0 -1.956,-0.876 -1.956,-1.956 0,-1.08 0.876,-1.956 1.956,-1.956 1.08,0 1.957,0.876 1.957,1.956" /><path
           inkscape:connector-curvature="0"
           id="path760"
           style="fill:#000000;fill-opacity:1;fill-rule:nonzero;stroke:none"
           d="m 118.47684,237.63339 c 0,1.081 -0.877,1.957 -1.957,1.957 -1.08,0 -1.956,-0.876 -1.956,-1.957 0,-1.08 0.876,-1.956 1.956,-1.956 1.08,0 1.957,0.876 1.957,1.956" /><path
           inkscape:connector-curvature="0"
           id="path762"
           style="fill:#000000;fill-opacity:1;fill-rule:nonzero;stroke:none"
           d="m 122.91584,238.02839 c 0,1.08 -0.877,1.957 -1.957,1.957 -1.08,0 -1.956,-0.877 -1.956,-1.957 0,-1.08 0.876,-1.956 1.956,-1.956 1.08,0 1.957,0.876 1.957,1.956" /><path
           inkscape:connector-curvature="0"
           id="path790"
           style="fill:#000000;fill-opacity:1;fill-rule:nonzero;stroke:none"
           d="m -13.38216,146.11739 -2.002,0 -0.266,-1.428 0.014,-0.013 c 0.217,0.245 0.588,0.356 0.924,0.356 0.881,0 1.603,-0.566 1.603,-1.701 0,-0.84 -0.581,-1.652 -1.736,-1.652 -0.862,0 -1.561,0.525 -1.582,1.421 l 0.594,0 c 0.036,-0.51 0.449,-0.896 1.043,-0.896 0.567,0 1.051,0.386 1.051,1.177 0,0.657 -0.455,1.127 -1.12,1.127 -0.378,0 -0.693,-0.189 -0.924,-0.47 l -0.511,0.029 0.461,2.575 2.451,0 0,-0.525" /><path
           inkscape:connector-curvature="0"
           id="path792"
           style="fill:#000000;fill-opacity:1;fill-rule:nonzero;stroke:none"
           d="m -10.58916,143.62539 1.54,-1.547 -0.26,-0.258 -1.546,1.553 -1.547,-1.553 -0.26,0.258 1.54,1.547 -1.54,1.548 0.26,0.258 1.547,-1.554 1.546,1.554 0.26,-0.258 -1.54,-1.548" /><path
           inkscape:connector-curvature="0"
           id="path794"
           style="fill:#000000;fill-opacity:1;fill-rule:nonzero;stroke:none"
           d="m -6.44516,141.76339 -0.596,0 0,3.557 -1.288,0 0,0.475 c 0.68,0 1.295,0.182 1.429,0.931 l 0.455,0 0,-4.963" /><path
           inkscape:connector-curvature="0"
           id="path796"
           style="fill:#000000;fill-opacity:1;fill-rule:nonzero;stroke:none"
           d="m -3.10016,146.72639 c 1.554,0 1.653,-1.427 1.653,-2.527 0,-1.091 -0.099,-2.52 -1.653,-2.52 -1.553,0 -1.651,1.429 -1.651,2.52 0,1.1 0.098,2.527 1.651,2.527 z m 0,-4.522 c 1.015,0 1.022,1.261 1.022,2.002 0,0.736 -0.007,1.995 -1.022,1.995 -1.014,0 -1.022,-1.259 -1.022,-1.995 0,-0.741 0.008,-2.002 1.022,-2.002" /><path
           inkscape:connector-curvature="0"
           id="path798"
           style="fill:#000000;fill-opacity:1;fill-rule:nonzero;stroke:none"
           d="m 1.19584,146.87339 -1.43,0 -0.189,-1.02 0.009,-0.01 c 0.156,0.175 0.42,0.255 0.66,0.255 0.63,0 1.145,-0.404 1.145,-1.214 0,-0.601 -0.415,-1.181 -1.24,-1.181 -0.614,0 -1.114,0.375 -1.13,1.015 l 0.425,0 c 0.026,-0.365 0.32,-0.64 0.745,-0.64 0.406,0 0.75,0.275 0.75,0.84 0,0.47 -0.324,0.805 -0.8,0.805 -0.27,0 -0.495,-0.134 -0.66,-0.335 l -0.364,0.02 0.329,1.84 1.75,0 0,-0.375" /><path
           inkscape:connector-curvature="0"
           id="path800"
           style="fill:#000000;fill-opacity:1;fill-rule:nonzero;stroke:none"
           d="m 33.81484,141.76339 -0.595,0 0,3.557 -1.288,0 0,0.475 c 0.679,0 1.295,0.182 1.428,0.931 l 0.455,0 0,-4.963" /><path
           inkscape:connector-curvature="0"
           id="path802"
           style="fill:#000000;fill-opacity:1;fill-rule:nonzero;stroke:none"
           d="m 37.16084,146.72639 c 1.554,0 1.652,-1.427 1.652,-2.527 0,-1.091 -0.098,-2.52 -1.652,-2.52 -1.554,0 -1.653,1.429 -1.653,2.52 0,1.1 0.099,2.527 1.653,2.527 z m 0,-4.522 c 1.014,0 1.022,1.261 1.022,2.002 0,0.736 -0.008,1.995 -1.022,1.995 -1.015,0 -1.022,-1.259 -1.022,-1.995 0,-0.741 0.007,-2.002 1.022,-2.002" /><path
           inkscape:connector-curvature="0"
           id="path804"
           style="fill:#000000;fill-opacity:1;fill-rule:nonzero;stroke:none"
           d="m 41.17584,146.40439 c -0.039,0.319 -0.259,0.529 -0.594,0.529 -0.725,0 -0.84,-0.799 -0.86,-1.344 l 0.01,-0.011 c 0.2,0.326 0.5,0.465 0.885,0.465 0.68,0 1.085,-0.494 1.085,-1.15 0,-0.514 -0.29,-1.19 -1.185,-1.19 -1.051,0 -1.22,0.96 -1.22,1.705 0,0.976 0.294,1.9 1.305,1.9 0.585,0 0.949,-0.33 1,-0.904 l -0.426,0 z m -1.375,-1.536 c 0,-0.44 0.27,-0.79 0.736,-0.79 0.46,0 0.715,0.366 0.715,0.785 0,0.44 -0.23,0.805 -0.715,0.805 -0.475,0 -0.736,-0.355 -0.736,-0.8" /><path
           inkscape:connector-curvature="0"
           id="path806"
           style="fill:#000000;fill-opacity:1;fill-rule:nonzero;stroke:none"
           d="m 71.15584,141.76339 -0.595,0 0,3.557 -1.288,0 0,0.475 c 0.679,0 1.295,0.182 1.428,0.931 l 0.455,0 0,-4.963" /><path
           inkscape:connector-curvature="0"
           id="path808"
           style="fill:#000000;fill-opacity:1;fill-rule:nonzero;stroke:none"
           d="m 73.13684,142.54039 0.777,0 0,-0.777 -0.777,0 0,0.777 z" /><path
           inkscape:connector-curvature="0"
           id="path810"
           style="fill:#000000;fill-opacity:1;fill-rule:nonzero;stroke:none"
           d="m 77.79184,146.11739 -2.002,0 -0.266,-1.428 0.014,-0.013 c 0.217,0.245 0.588,0.356 0.924,0.356 0.882,0 1.603,-0.566 1.603,-1.701 0,-0.84 -0.581,-1.652 -1.736,-1.652 -0.861,0 -1.561,0.525 -1.582,1.421 l 0.595,0 c 0.035,-0.51 0.448,-0.896 1.043,-0.896 0.567,0 1.05,0.386 1.05,1.177 0,0.657 -0.455,1.127 -1.12,1.127 -0.378,0 -0.693,-0.189 -0.924,-0.47 l -0.511,0.029 0.462,2.575 2.45,0 0,-0.525" /><path
           inkscape:connector-curvature="0"
           id="path812"
           style="fill:#000000;fill-opacity:1;fill-rule:nonzero;stroke:none"
           d="m 80.58484,143.62539 1.54,-1.547 -0.259,-0.258 -1.547,1.553 -1.547,-1.553 -0.259,0.258 1.54,1.547 -1.54,1.548 0.259,0.258 1.547,-1.554 1.547,1.554 0.259,-0.258 -1.54,-1.548" /><path
           inkscape:connector-curvature="0"
           id="path814"
           style="fill:#000000;fill-opacity:1;fill-rule:nonzero;stroke:none"
           d="m 84.72884,141.76339 -0.595,0 0,3.557 -1.288,0 0,0.475 c 0.679,0 1.295,0.182 1.428,0.931 l 0.455,0 0,-4.963" /><path
           inkscape:connector-curvature="0"
           id="path816"
           style="fill:#000000;fill-opacity:1;fill-rule:nonzero;stroke:none"
           d="m 88.07484,146.72639 c 1.554,0 1.652,-1.427 1.652,-2.527 0,-1.091 -0.098,-2.52 -1.652,-2.52 -1.554,0 -1.652,1.429 -1.652,2.52 0,1.1 0.098,2.527 1.652,2.527 z m 0,-4.522 c 1.015,0 1.022,1.261 1.022,2.002 0,0.736 -0.007,1.995 -1.022,1.995 -1.015,0 -1.022,-1.259 -1.022,-1.995 0,-0.741 0.007,-2.002 1.022,-2.002" /><path
           inkscape:connector-curvature="0"
           id="path818"
           style="fill:#000000;fill-opacity:1;fill-rule:nonzero;stroke:none"
           d="m 92.09084,146.40439 c -0.04,0.319 -0.26,0.529 -0.595,0.529 -0.725,0 -0.84,-0.799 -0.86,-1.344 l 0.01,-0.011 c 0.2,0.326 0.5,0.465 0.885,0.465 0.68,0 1.085,-0.494 1.085,-1.15 0,-0.514 -0.29,-1.19 -1.185,-1.19 -1.05,0 -1.22,0.96 -1.22,1.705 0,0.976 0.295,1.9 1.305,1.9 0.585,0 0.95,-0.33 1,-0.904 l -0.425,0 z m -1.375,-1.536 c 0,-0.44 0.27,-0.79 0.735,-0.79 0.46,0 0.715,0.366 0.715,0.785 0,0.44 -0.23,0.805 -0.715,0.805 -0.475,0 -0.735,-0.355 -0.735,-0.8" /><path
           inkscape:connector-curvature="0"
           id="path820"
           style="fill:#000000;fill-opacity:1;fill-rule:nonzero;stroke:none"
           d="m 116.01884,144.96939 c -0.05,1.008 0.546,1.757 1.596,1.757 0.868,0 1.554,-0.504 1.554,-1.427 0,-0.875 -0.588,-1.316 -1.204,-1.702 -0.623,-0.378 -1.274,-0.692 -1.393,-1.309 l 2.547,0 0,-0.525 -3.24,0 c 0.098,1.176 0.693,1.597 1.393,2.03 0.84,0.518 1.267,0.826 1.267,1.512 0,0.539 -0.434,0.896 -0.959,0.896 -0.694,0 -0.987,-0.637 -0.966,-1.232 l -0.595,0" /><path
           inkscape:connector-curvature="0"
           id="path822"
           style="fill:#000000;fill-opacity:1;fill-rule:nonzero;stroke:none"
           d="m 121.79384,143.62539 1.54,-1.547 -0.26,-0.258 -1.546,1.553 -1.547,-1.553 -0.26,0.258 1.54,1.547 -1.54,1.548 0.26,0.258 1.547,-1.554 1.546,1.554 0.26,-0.258 -1.54,-1.548" /><path
           inkscape:connector-curvature="0"
           id="path824"
           style="fill:#000000;fill-opacity:1;fill-rule:nonzero;stroke:none"
           d="m 125.93784,141.76339 -0.595,0 0,3.557 -1.289,0 0,0.475 c 0.68,0 1.295,0.182 1.429,0.931 l 0.455,0 0,-4.963" /><path
           inkscape:connector-curvature="0"
           id="path826"
           style="fill:#000000;fill-opacity:1;fill-rule:nonzero;stroke:none"
           d="m 129.28284,146.72639 c 1.555,0 1.653,-1.427 1.653,-2.527 0,-1.091 -0.098,-2.52 -1.653,-2.52 -1.553,0 -1.651,1.429 -1.651,2.52 0,1.1 0.098,2.527 1.651,2.527 z m 0,-4.522 c 1.015,0 1.022,1.261 1.022,2.002 0,0.736 -0.007,1.995 -1.022,1.995 -1.014,0 -1.022,-1.259 -1.022,-1.995 0,-0.741 0.008,-2.002 1.022,-2.002" /><path
           inkscape:connector-curvature="0"
           id="path828"
           style="fill:#000000;fill-opacity:1;fill-rule:nonzero;stroke:none"
           d="m 133.29884,146.40439 c -0.04,0.319 -0.259,0.529 -0.595,0.529 -0.724,0 -0.84,-0.799 -0.86,-1.344 l 0.011,-0.011 c 0.199,0.326 0.5,0.465 0.884,0.465 0.681,0 1.085,-0.494 1.085,-1.15 0,-0.514 -0.29,-1.19 -1.185,-1.19 -1.049,0 -1.219,0.96 -1.219,1.705 0,0.976 0.295,1.9 1.304,1.9 0.585,0 0.95,-0.33 1,-0.904 l -0.425,0 z m -1.375,-1.536 c 0,-0.44 0.27,-0.79 0.735,-0.79 0.46,0 0.716,0.366 0.716,0.785 0,0.44 -0.23,0.805 -0.716,0.805 -0.475,0 -0.735,-0.355 -0.735,-0.8" /><path
           inkscape:connector-curvature="0"
           id="path880"
           style="fill:#000000;fill-opacity:1;fill-rule:nonzero;stroke:none"
           d="m -62.93016,264.89139 c -0.049,1.008 0.546,1.757 1.596,1.757 0.868,0 1.554,-0.504 1.554,-1.428 0,-0.875 -0.588,-1.316 -1.204,-1.701 -0.623,-0.378 -1.274,-0.693 -1.393,-1.309 l 2.548,0 0,-0.525 -3.241,0 c 0.098,1.176 0.693,1.596 1.393,2.03 0.84,0.518 1.267,0.826 1.267,1.512 0,0.539 -0.434,0.896 -0.959,0.896 -0.693,0 -0.987,-0.637 -0.966,-1.232 l -0.595,0" /><path
           inkscape:connector-curvature="0"
           id="path882"
           style="fill:#000000;fill-opacity:1;fill-rule:nonzero;stroke:none"
           d="m -58.76516,262.46239 0.777,0 0,-0.777 -0.777,0 0,0.777 z" /><path
           inkscape:connector-curvature="0"
           id="path884"
           style="fill:#000000;fill-opacity:1;fill-rule:nonzero;stroke:none"
           d="m -57.09216,264.89139 c -0.049,1.008 0.546,1.757 1.596,1.757 0.868,0 1.554,-0.504 1.554,-1.428 0,-0.875 -0.588,-1.316 -1.204,-1.701 -0.623,-0.378 -1.274,-0.693 -1.393,-1.309 l 2.548,0 0,-0.525 -3.241,0 c 0.098,1.176 0.693,1.596 1.393,2.03 0.84,0.518 1.267,0.826 1.267,1.512 0,0.539 -0.434,0.896 -0.959,0.896 -0.693,0 -0.987,-0.637 -0.966,-1.232 l -0.595,0" /></g><path
         d="m -73.89216,262.97139 c 0,-0.312 0.016,-0.664 0.192,-0.928 l -1.616,0 c -0.04,0.112 -0.064,0.28 -0.056,0.392 l -0.016,0 c -0.336,-0.384 -0.824,-0.496 -1.336,-0.496 -0.8,0 -1.464,0.384 -1.464,1.256 0,1.312 1.536,1.264 2.344,1.416 0.216,0.04 0.432,0.104 0.432,0.368 0,0.28 -0.264,0.384 -0.52,0.384 -0.488,0 -0.584,-0.248 -0.592,-0.424 l -1.472,0 c 0.048,1.168 1.152,1.36 2.136,1.36 1.984,0 1.968,-0.824 1.968,-1.624 l 0,-1.704 z m -1.52,0.936 c -0.192,-0.096 -0.408,-0.152 -0.624,-0.2 -0.352,-0.08 -0.536,-0.168 -0.536,-0.448 0,-0.192 0.208,-0.384 0.496,-0.384 0.36,0 0.64,0.216 0.664,0.648 l 0,0.384"
         style="fill:#000000;fill-opacity:1;fill-rule:nonzero;stroke:none"
         id="path886"
         inkscape:connector-curvature="0" /><text
         transform="scale(1,-1)"
         sodipodi:linespacing="125%"
         id="text3199-6"
         y="-130.21059"
         x="20.859068"
         style="font-size:6.4000001px;font-style:normal;font-weight:normal;line-height:125%;letter-spacing:0px;word-spacing:0px;fill:#000000;fill-opacity:1;stroke:none;font-family:Sans"
         xml:space="preserve"><tspan
           style="font-size:7.19999981px"
           y="-130.21059"
           x="20.859068"
           id="tspan3201-5"
           sodipodi:role="line">Zeit (yr)</tspan></text>
</g></g></svg>