<?xml version="1.0" encoding="UTF-8" standalone="no"?>
<!-- Created with Inkscape (http://www.inkscape.org/) -->

<svg
   xmlns:dc="http://purl.org/dc/elements/1.1/"
   xmlns:cc="http://creativecommons.org/ns#"
   xmlns:rdf="http://www.w3.org/1999/02/22-rdf-syntax-ns#"
   xmlns:svg="http://www.w3.org/2000/svg"
   xmlns="http://www.w3.org/2000/svg"
   xmlns:sodipodi="http://sodipodi.sourceforge.net/DTD/sodipodi-0.dtd"
   xmlns:inkscape="http://www.inkscape.org/namespaces/inkscape"
   id="svg2"
   version="1.1"
   inkscape:version="0.48.4 r9939"
   width="275.01501"
   height="350.36874"
   xml:space="preserve"
   sodipodi:docname="Morbidelli2005.pdf"><metadata
     id="metadata8"><rdf:RDF><cc:Work
         rdf:about=""><dc:format>image/svg+xml</dc:format><dc:type
           rdf:resource="http://purl.org/dc/dcmitype/StillImage" /><dc:title></dc:title></cc:Work></rdf:RDF></metadata><defs
     id="defs6"><clipPath
       clipPathUnits="userSpaceOnUse"
       id="clipPath562"><path
         d="m 88.23,132.085 177.561,0 0,114.03 -177.561,0 0,-114.03 z"
         id="path564"
         inkscape:connector-curvature="0" /></clipPath><clipPath
       clipPathUnits="userSpaceOnUse"
       id="clipPath578"><path
         d="m 88.23,132.085 177.561,0 0,114.03 -177.561,0 0,-114.03 z"
         id="path580"
         inkscape:connector-curvature="0" /></clipPath><clipPath
       clipPathUnits="userSpaceOnUse"
       id="clipPath680"><path
         d="m 88.23,269.6 177.561,0 0,114.03 -177.561,0 0,-114.03 z"
         id="path682"
         inkscape:connector-curvature="0" /></clipPath><clipPath
       clipPathUnits="userSpaceOnUse"
       id="clipPath1308"><path
         d="m 0,782.362 595.275,0 0,-782.302 L 0,0.06 0,782.362 z"
         id="path1310"
         inkscape:connector-curvature="0" /></clipPath></defs><sodipodi:namedview
     pagecolor="#ffffff"
     bordercolor="#666666"
     borderopacity="1"
     objecttolerance="10"
     gridtolerance="10"
     guidetolerance="10"
     inkscape:pageopacity="0"
     inkscape:pageshadow="2"
     inkscape:window-width="1280"
     inkscape:window-height="951"
     id="namedview4"
     showgrid="false"
     fit-margin-top="5"
     fit-margin-right="5"
     fit-margin-bottom="5"
     fit-margin-left="5"
     inkscape:zoom="0.95353535"
     inkscape:cx="351.49107"
     inkscape:cy="114.51623"
     inkscape:window-x="1024"
     inkscape:window-y="25"
     inkscape:window-maximized="1"
     inkscape:current-layer="g10" /><g
     id="g10"
     inkscape:groupmode="layer"
     inkscape:label="Morbidelli2005"
     transform="matrix(1.25,0,0,-1.25,-72.755,488.12875)"><g
       id="g5097"><path
         d="m 88.23,132.085 177.56,0 m -168.682,0 0,2.934 m 8.878,-2.934 0,2.934 m 8.878,-2.934 0,2.934 m 8.878,-2.934 0,2.934 m 8.878,-2.934 0,5.873 m 8.878,-5.873 0,2.934 m 8.878,-2.934 0,2.934 m 8.878,-2.934 0,2.934 m 8.878,-2.934 0,2.934 m 8.878,-2.934 0,5.873 m 8.878,-5.873 0,2.934 m 8.878,-2.934 0,2.934 m 8.878,-2.934 0,2.934 m 8.878,-2.934 0,2.934 m 8.878,-2.934 0,5.873 m 8.878,-5.873 0,2.934 m 8.879,-2.934 0,2.934 m 8.877,-2.934 0,2.934 m 8.878,-2.934 0,2.934 m 8.878,-2.934 0,5.873 m -177.56,108.157 177.56,0 m -168.682,0 0,-2.939 m 8.878,2.939 0,-2.939 m 8.878,2.939 0,-2.939 m 8.878,2.939 0,-2.939 m 8.878,2.939 0,-5.874 m 8.878,5.874 0,-2.939 m 8.878,2.939 0,-2.939 m 8.878,2.939 0,-2.939 m 8.878,2.939 0,-2.939 m 8.878,2.939 0,-5.874 m 8.878,5.874 0,-2.939 m 8.878,2.939 0,-2.939 m 8.878,2.939 0,-2.939 m 8.878,2.939 0,-2.939 m 8.878,2.939 0,-5.874 m 8.878,5.874 0,-2.939 m 8.879,2.939 0,-2.939 m 8.877,2.939 0,-2.939 m 8.878,2.939 0,-2.939 m 8.878,2.939 0,-5.874 M 88.23,132.085 l 0,114.03 m 0,-108.387 2.935,0 m -2.935,5.647 2.935,0 m -2.935,5.644 2.935,0 m -2.935,5.647 5.873,0 m -5.873,5.644 2.935,0 m -2.935,5.643 2.935,0 m -2.935,5.647 2.935,0 m -2.935,5.643 5.873,0 m -5.873,5.648 2.935,0 m -2.935,5.644 2.935,0 m -2.935,5.643 2.935,0 m -2.935,5.647 5.873,0 m -5.873,5.643 2.935,0 m -2.935,5.648 2.935,0 m -2.935,5.643 2.935,0 m -2.935,5.644 5.873,0 m -5.873,5.647 2.935,0 m -2.935,5.643 2.935,0 m -2.935,5.648 2.935,0 m -2.935,5.643 5.873,0 m 171.687,-112.899 0,114.03 m 0,-108.387 -2.934,0 m 2.934,5.647 -2.934,0 m 2.934,5.644 -2.934,0 m 2.934,5.647 -5.873,0 m 5.873,5.644 -2.934,0 m 2.934,5.643 -2.934,0 m 2.934,5.647 -2.934,0 m 2.934,5.643 -5.873,0 m 5.873,5.648 -2.934,0 m 2.934,5.644 -2.934,0 m 2.934,5.643 -2.934,0 m 2.934,5.647 -5.873,0 m 5.873,5.643 -2.934,0 m 2.934,5.648 -2.934,0 m 2.934,5.643 -2.934,0 m 2.934,5.644 -5.873,0 m 5.873,5.647 -2.934,0 m 2.934,5.643 -2.934,0 m 2.934,5.648 -2.934,0 m 2.934,5.643 -5.873,0"
         style="fill:none;stroke:#000000;stroke-width:0.5;stroke-linecap:round;stroke-linejoin:round;stroke-miterlimit:10;stroke-opacity:1;stroke-dasharray:none"
         id="path460"
         inkscape:connector-curvature="0" /><path
         d="m 150.621,120.676 0.91,0 1.575,-4.2 1.582,4.2 0.91,0 0,-4.998 -0.631,0 0,4.158 -0.013,0 -1.561,-4.158 -0.567,0 -1.561,4.158 -0.014,0 0,-4.158 -0.63,0 0,4.998"
         style="fill:#000000;fill-opacity:1;fill-rule:nonzero;stroke:none"
         id="path462"
         inkscape:connector-curvature="0" /><path
         d="m 156.64,119.948 0.595,0 0,0.728 -0.595,0 0,-0.728 z m 0,-4.27 0.595,0 0,3.619 -0.595,0 0,-3.619 z"
         style="fill:#000000;fill-opacity:1;fill-rule:nonzero;stroke:none"
         id="path464"
         inkscape:connector-curvature="0" /><path
         d="m 161.281,115.986 c 0,-1.176 -0.539,-1.778 -1.68,-1.778 -0.678,0 -1.463,0.273 -1.497,1.065 l 0.594,0 c 0.028,-0.435 0.546,-0.589 0.938,-0.589 0.777,0 1.085,0.56 1.085,1.372 l 0,0.238 -0.013,0 c -0.197,-0.441 -0.673,-0.658 -1.128,-0.658 -1.077,0 -1.616,0.847 -1.616,1.834 0,0.854 0.419,1.911 1.672,1.911 0.455,0 0.861,-0.203 1.079,-0.602 l -0.007,0 0.013,0 0,0.518 0.56,0 0,-3.311 z m -0.587,1.575 c 0,0.637 -0.281,1.295 -1.03,1.295 -0.762,0 -1.071,-0.623 -1.071,-1.316 0,-0.651 0.238,-1.379 1.022,-1.379 0.785,0 1.079,0.721 1.079,1.4"
         style="fill:#000000;fill-opacity:1;fill-rule:nonzero;stroke:none"
         id="path466"
         inkscape:connector-curvature="0" /><path
         d="m 162.156,119.297 0.56,0 0,-0.763 0.014,0 c 0.287,0.581 0.686,0.868 1.33,0.847 l 0,-0.629 c -0.959,0 -1.309,-0.547 -1.309,-1.464 l 0,-1.61 -0.595,0 0,3.619"
         style="fill:#000000;fill-opacity:1;fill-rule:nonzero;stroke:none"
         id="path468"
         inkscape:connector-curvature="0" /><path
         d="m 167.715,115.692 c -0.105,-0.063 -0.239,-0.098 -0.428,-0.098 -0.308,0 -0.504,0.168 -0.504,0.56 -0.329,-0.385 -0.77,-0.56 -1.274,-0.56 -0.658,0 -1.197,0.294 -1.197,1.015 0,0.819 0.61,0.994 1.225,1.113 0.658,0.126 1.219,0.084 1.219,0.532 0,0.518 -0.428,0.602 -0.806,0.602 -0.504,0 -0.875,-0.154 -0.902,-0.686 l -0.596,0 c 0.035,0.896 0.728,1.211 1.534,1.211 0.65,0 1.357,-0.147 1.357,-0.994 l 0,-1.862 c 0,-0.28 0,-0.406 0.189,-0.406 0.049,0 0.105,0.008 0.183,0.035 l 0,-0.462 z m -0.967,1.855 c -0.231,-0.168 -0.678,-0.175 -1.078,-0.245 -0.392,-0.07 -0.727,-0.21 -0.727,-0.651 0,-0.392 0.335,-0.532 0.699,-0.532 0.784,0 1.106,0.49 1.106,0.819 l 0,0.609"
         style="fill:#000000;fill-opacity:1;fill-rule:nonzero;stroke:none"
         id="path470"
         inkscape:connector-curvature="0" /><path
         d="m 169.093,119.297 0.721,0 0,-0.525 -0.721,0 0,-2.247 c 0,-0.273 0.077,-0.322 0.448,-0.322 l 0.273,0 0,-0.525 -0.455,0 c -0.616,0 -0.861,0.126 -0.861,0.791 l 0,2.303 -0.616,0 0,0.525 0.616,0 0,1.085 0.595,0 0,-1.085"
         style="fill:#000000;fill-opacity:1;fill-rule:nonzero;stroke:none"
         id="path472"
         inkscape:connector-curvature="0" /><path
         d="m 170.507,120.676 0.595,0 0,-0.728 -0.595,0 0,0.728 z m 0,-1.379 0.595,0 0,-3.619 -0.595,0 0,3.619 z"
         style="fill:#000000;fill-opacity:1;fill-rule:nonzero;stroke:none"
         id="path474"
         inkscape:connector-curvature="0" /><path
         d="m 173.587,119.381 c 1.148,0 1.757,-0.833 1.757,-1.897 0,-1.057 -0.609,-1.89 -1.757,-1.89 -1.148,0 -1.757,0.833 -1.757,1.89 0,1.064 0.609,1.897 1.757,1.897 z m 0,-3.262 c 0.623,0 1.127,0.49 1.127,1.365 0,0.882 -0.504,1.372 -1.127,1.372 -0.623,0 -1.127,-0.49 -1.127,-1.372 0,-0.875 0.504,-1.365 1.127,-1.365"
         style="fill:#000000;fill-opacity:1;fill-rule:nonzero;stroke:none"
         id="path476"
         inkscape:connector-curvature="0" /><path
         d="m 176.044,119.297 0.56,0 0,-0.574 0.014,0 c 0.252,0.448 0.658,0.658 1.176,0.658 0.952,0 1.246,-0.545 1.246,-1.323 l 0,-2.38 -0.595,0 0,2.45 c 0,0.441 -0.28,0.728 -0.735,0.728 -0.721,0 -1.071,-0.483 -1.071,-1.134 l 0,-2.044 -0.595,0 0,3.619"
         style="fill:#000000;fill-opacity:1;fill-rule:nonzero;stroke:none"
         id="path478"
         inkscape:connector-curvature="0" /><path
         d="m 182.708,119.297 0.721,0 0,-0.525 -0.721,0 0,-2.247 c 0,-0.273 0.077,-0.322 0.448,-0.322 l 0.273,0 0,-0.525 -0.455,0 c -0.616,0 -0.861,0.126 -0.861,0.791 l 0,2.303 -0.616,0 0,0.525 0.616,0 0,1.085 0.595,0 0,-1.085"
         style="fill:#000000;fill-opacity:1;fill-rule:nonzero;stroke:none"
         id="path480"
         inkscape:connector-curvature="0" /><path
         d="m 184.122,120.676 0.595,0 0,-0.728 -0.595,0 0,0.728 z m 0,-1.379 0.595,0 0,-3.619 -0.595,0 0,3.619 z"
         style="fill:#000000;fill-opacity:1;fill-rule:nonzero;stroke:none"
         id="path482"
         inkscape:connector-curvature="0" /><path
         d="m 185.641,119.297 0.56,0 0,-0.532 0.013,0 c 0.267,0.406 0.673,0.616 1.17,0.616 0.441,0 0.847,-0.175 0.994,-0.616 0.245,0.385 0.672,0.616 1.134,0.616 0.72,0 1.203,-0.301 1.203,-1.05 l 0,-2.653 -0.594,0 0,2.373 c 0,0.448 -0.12,0.805 -0.701,0.805 -0.573,0 -0.944,-0.364 -0.944,-0.924 l 0,-2.254 -0.596,0 0,2.373 c 0,0.469 -0.147,0.805 -0.678,0.805 -0.707,0 -0.967,-0.651 -0.967,-0.924 l 0,-2.254 -0.594,0 0,3.619"
         style="fill:#000000;fill-opacity:1;fill-rule:nonzero;stroke:none"
         id="path484"
         inkscape:connector-curvature="0" /><path
         d="m 194.699,116.826 c -0.161,-0.798 -0.736,-1.232 -1.548,-1.232 -1.154,0 -1.7,0.798 -1.735,1.904 0,1.085 0.713,1.883 1.701,1.883 1.28,0 1.673,-1.197 1.637,-2.072 l -2.709,0 c -0.021,-0.63 0.336,-1.19 1.127,-1.19 0.491,0 0.833,0.238 0.938,0.707 l 0.589,0 z m -0.575,1.008 c -0.027,0.567 -0.455,1.022 -1.042,1.022 -0.624,0 -0.995,-0.469 -1.037,-1.022 l 2.079,0"
         style="fill:#000000;fill-opacity:1;fill-rule:nonzero;stroke:none"
         id="path486"
         inkscape:connector-curvature="0" /><path
         d="m 198.296,114.293 c -0.672,1.049 -1.099,2.05 -1.099,3.275 0,1.092 0.385,2.275 1.099,3.227 l 0.455,0 c -0.665,-1.05 -0.923,-2.093 -0.923,-3.227 0,-1.176 0.258,-2.205 0.923,-3.275 l -0.455,0"
         style="fill:#000000;fill-opacity:1;fill-rule:nonzero;stroke:none"
         id="path488"
         inkscape:connector-curvature="0" /><path
         d="m 200.55,115.195 c -0.273,-0.707 -0.518,-0.966 -1.05,-0.966 -0.14,0 -0.28,0.014 -0.413,0.064 l 0,0.545 c 0.112,-0.035 0.231,-0.084 0.35,-0.084 0.246,0 0.378,0.119 0.49,0.329 l 0.245,0.616 -1.435,3.598 0.672,0 1.057,-2.961 0.014,0 1.016,2.961 0.629,0 -1.575,-4.102"
         style="fill:#000000;fill-opacity:1;fill-rule:nonzero;stroke:none"
         id="path490"
         inkscape:connector-curvature="0" /><path
         d="m 202.608,119.297 0.56,0 0,-0.763 0.015,0 c 0.286,0.581 0.685,0.868 1.329,0.847 l 0,-0.629 c -0.959,0 -1.308,-0.547 -1.308,-1.464 l 0,-1.61 -0.596,0 0,3.619"
         style="fill:#000000;fill-opacity:1;fill-rule:nonzero;stroke:none"
         id="path492"
         inkscape:connector-curvature="0" /><path
         d="m 204.442,114.293 c 0.665,1.049 0.924,2.092 0.924,3.226 0,1.176 -0.259,2.205 -0.924,3.276 l 0.455,0 c 0.672,-1.05 1.1,-2.051 1.1,-3.276 0,-1.092 -0.386,-2.275 -1.1,-3.226 l -0.455,0"
         style="fill:#000000;fill-opacity:1;fill-rule:nonzero;stroke:none"
         id="path494"
         inkscape:connector-curvature="0" /><path
         d="m 64.193,145.728 0,3.283 0.56,0 0,-2.618 1.589,0 0,2.296 0.56,0 0,-2.296 2.289,0 0,-0.665 -4.998,0"
         style="fill:#000000;fill-opacity:1;fill-rule:nonzero;stroke:none"
         id="path496"
         inkscape:connector-curvature="0" /><path
         d="m 65.572,149.627 0,0.56 0.763,0 0,0.014 c -0.581,0.287 -0.868,0.686 -0.847,1.33 l 0.63,0 c 0,-0.959 0.546,-1.309 1.463,-1.309 l 1.61,0 0,-0.595 -3.619,0"
         style="fill:#000000;fill-opacity:1;fill-rule:nonzero;stroke:none"
         id="path498"
         inkscape:connector-curvature="0" /><path
         d="m 69.177,155.185 c 0.063,-0.105 0.098,-0.238 0.098,-0.427 0,-0.308 -0.168,-0.504 -0.56,-0.504 0.385,-0.329 0.56,-0.77 0.56,-1.274 0,-0.658 -0.294,-1.197 -1.015,-1.197 -0.819,0 -0.994,0.609 -1.113,1.225 -0.126,0.658 -0.084,1.218 -0.532,1.218 -0.518,0 -0.602,-0.427 -0.602,-0.805 0,-0.504 0.154,-0.875 0.686,-0.903 l 0,-0.595 c -0.896,0.035 -1.211,0.728 -1.211,1.533 0,0.651 0.147,1.358 0.994,1.358 l 1.862,0 c 0.28,0 0.406,0 0.406,0.189 0,0.049 -0.007,0.105 -0.035,0.182 l 0.462,0 z m -1.855,-0.966 c 0.168,-0.231 0.175,-0.679 0.245,-1.078 0.07,-0.392 0.21,-0.728 0.651,-0.728 0.392,0 0.532,0.336 0.532,0.7 0,0.784 -0.49,1.106 -0.819,1.106 l -0.609,0"
         style="fill:#000000;fill-opacity:1;fill-rule:nonzero;stroke:none"
         id="path500"
         inkscape:connector-curvature="0" /><path
         d="m 66.734,158.195 c -0.455,-0.091 -0.721,-0.407 -0.721,-0.896 0,-0.861 0.679,-1.127 1.414,-1.127 0.665,0 1.323,0.301 1.323,1.057 0,0.574 -0.336,0.917 -0.882,0.994 l 0,0.609 c 0.882,-0.133 1.407,-0.686 1.407,-1.596 0,-1.106 -0.77,-1.694 -1.848,-1.694 -1.085,0 -1.939,0.56 -1.939,1.708 0,0.819 0.385,1.477 1.246,1.561 l 0,-0.616"
         style="fill:#000000;fill-opacity:1;fill-rule:nonzero;stroke:none"
         id="path502"
         inkscape:connector-curvature="0" /><path
         d="m 65.572,160.323 0,0.721 0.525,0 0,-0.721 2.247,0 c 0.273,0 0.322,0.077 0.322,0.447 l 0,0.274 0.525,0 0,-0.455 c 0,-0.616 -0.126,-0.862 -0.791,-0.862 l -2.303,0 0,-0.615 -0.525,0 0,0.615 -1.085,0 0,0.596 1.085,0"
         style="fill:#000000;fill-opacity:1;fill-rule:nonzero;stroke:none"
         id="path504"
         inkscape:connector-curvature="0" /><path
         d="m 64.193,162.331 0.728,0 0,-0.595 -0.728,0 0,0.595 z m 1.379,0 3.619,0 0,-0.595 -3.619,0 0,0.595 z"
         style="fill:#000000;fill-opacity:1;fill-rule:nonzero;stroke:none"
         id="path506"
         inkscape:connector-curvature="0" /><path
         d="m 65.488,164.816 c 0,1.148 0.833,1.758 1.897,1.758 1.057,0 1.89,-0.61 1.89,-1.758 0,-1.148 -0.833,-1.757 -1.89,-1.757 -1.064,0 -1.897,0.609 -1.897,1.757 z m 3.262,0 c 0,0.623 -0.49,1.127 -1.365,1.127 -0.882,0 -1.372,-0.504 -1.372,-1.127 0,-0.623 0.49,-1.127 1.372,-1.127 0.875,0 1.365,0.504 1.365,1.127"
         style="fill:#000000;fill-opacity:1;fill-rule:nonzero;stroke:none"
         id="path508"
         inkscape:connector-curvature="0" /><path
         d="m 65.572,167.273 0,0.56 0.574,0 0,0.014 c -0.448,0.252 -0.658,0.658 -0.658,1.176 0,0.952 0.546,1.246 1.323,1.246 l 2.38,0 0,-0.595 -2.45,0 c -0.441,0 -0.728,-0.28 -0.728,-0.735 0,-0.721 0.483,-1.071 1.134,-1.071 l 2.044,0 0,-0.595 -3.619,0"
         style="fill:#000000;fill-opacity:1;fill-rule:nonzero;stroke:none"
         id="path510"
         inkscape:connector-curvature="0" /><path
         d="m 65.488,174.672 c 0,1.148 0.833,1.757 1.897,1.757 1.057,0 1.89,-0.609 1.89,-1.757 0,-1.148 -0.833,-1.757 -1.89,-1.757 -1.064,0 -1.897,0.609 -1.897,1.757 z m 3.262,0 c 0,0.623 -0.49,1.127 -1.365,1.127 -0.882,0 -1.372,-0.504 -1.372,-1.127 0,-0.623 0.49,-1.127 1.372,-1.127 0.875,0 1.365,0.504 1.365,1.127"
         style="fill:#000000;fill-opacity:1;fill-rule:nonzero;stroke:none"
         id="path512"
         inkscape:connector-curvature="0" /><path
         d="m 66.097,177.374 0,-0.609 -0.525,0 0,0.609 -0.539,0 c -0.588,0 -0.896,0.35 -0.896,1.001 0,0.112 0.021,0.273 0.056,0.385 l 0.518,0 c -0.035,-0.105 -0.049,-0.231 -0.049,-0.336 0,-0.287 0.091,-0.455 0.406,-0.455 l 0.504,0 0,0.7 0.525,0 0,-0.7 3.094,0 0,-0.595 -3.094,0"
         style="fill:#000000;fill-opacity:1;fill-rule:nonzero;stroke:none"
         id="path514"
         inkscape:connector-curvature="0" /><path
         d="m 64.753,182.379 0,-1.666 -0.56,0 0,3.997 0.56,0 0,-1.666 4.438,0 0,-0.665 -4.438,0"
         style="fill:#000000;fill-opacity:1;fill-rule:nonzero;stroke:none"
         id="path516"
         inkscape:connector-curvature="0" /><path
         d="m 65.572,185.144 0,0.56 0.763,0 0,0.014 c -0.581,0.287 -0.868,0.686 -0.847,1.33 l 0.63,0 c 0,-0.959 0.546,-1.309 1.463,-1.309 l 1.61,0 0,-0.595 -3.619,0"
         style="fill:#000000;fill-opacity:1;fill-rule:nonzero;stroke:none"
         id="path518"
         inkscape:connector-curvature="0" /><path
         d="m 65.488,189.057 c 0,1.148 0.833,1.757 1.897,1.757 1.057,0 1.89,-0.609 1.89,-1.757 0,-1.148 -0.833,-1.757 -1.89,-1.757 -1.064,0 -1.897,0.609 -1.897,1.757 z m 3.262,0 c 0,0.623 -0.49,1.127 -1.365,1.127 -0.882,0 -1.372,-0.504 -1.372,-1.127 0,-0.623 0.49,-1.127 1.372,-1.127 0.875,0 1.365,0.504 1.365,1.127"
         style="fill:#000000;fill-opacity:1;fill-rule:nonzero;stroke:none"
         id="path520"
         inkscape:connector-curvature="0" /><path
         d="m 64.193,192.144 0.728,0 0,-0.595 -0.728,0 0,0.595 z m 5.46,0 c 0.644,0 0.924,-0.343 0.924,-0.868 0,-0.098 -0.007,-0.203 -0.028,-0.308 l -0.511,0 c 0.014,0.084 0.014,0.161 0.014,0.245 0,0.259 -0.126,0.336 -0.497,0.336 l -3.983,0 0,0.595 4.081,0"
         style="fill:#000000;fill-opacity:1;fill-rule:nonzero;stroke:none"
         id="path522"
         inkscape:connector-curvature="0" /><path
         d="m 69.177,196.274 c 0.063,-0.105 0.098,-0.238 0.098,-0.427 0,-0.308 -0.168,-0.505 -0.56,-0.505 0.385,-0.328 0.56,-0.769 0.56,-1.273 0,-0.658 -0.294,-1.197 -1.015,-1.197 -0.819,0 -0.994,0.609 -1.113,1.225 -0.126,0.658 -0.084,1.218 -0.532,1.218 -0.518,0 -0.602,-0.427 -0.602,-0.805 0,-0.504 0.154,-0.875 0.686,-0.903 l 0,-0.595 c -0.896,0.035 -1.211,0.728 -1.211,1.533 0,0.65 0.147,1.357 0.994,1.357 l 1.862,0 c 0.28,0 0.406,0 0.406,0.189 0,0.05 -0.007,0.105 -0.035,0.183 l 0.462,0 z m -1.855,-0.966 c 0.168,-0.231 0.175,-0.679 0.245,-1.078 0.07,-0.392 0.21,-0.728 0.651,-0.728 0.392,0 0.532,0.336 0.532,0.7 0,0.783 -0.49,1.106 -0.819,1.106 l -0.609,0"
         style="fill:#000000;fill-opacity:1;fill-rule:nonzero;stroke:none"
         id="path524"
         inkscape:connector-curvature="0" /><path
         d="m 65.572,196.827 0,0.559 0.574,0 0,0.015 c -0.448,0.251 -0.658,0.658 -0.658,1.176 0,0.951 0.546,1.245 1.323,1.245 l 2.38,0 0,-0.594 -2.45,0 c -0.441,0 -0.728,-0.281 -0.728,-0.736 0,-0.72 0.483,-1.07 1.134,-1.07 l 2.044,0 0,-0.595 -3.619,0"
         style="fill:#000000;fill-opacity:1;fill-rule:nonzero;stroke:none"
         id="path526"
         inkscape:connector-curvature="0" /><path
         d="m 68.05,201.083 c 0.532,0.021 0.7,0.483 0.7,0.973 0,0.37 -0.084,0.875 -0.539,0.875 -0.462,0 -0.539,-0.589 -0.672,-1.183 -0.133,-0.588 -0.329,-1.184 -1.022,-1.184 -0.728,0 -1.029,0.722 -1.029,1.352 0,0.797 0.252,1.435 1.134,1.483 l 0,-0.595 c -0.462,-0.042 -0.609,-0.448 -0.609,-0.84 0,-0.357 0.098,-0.77 0.462,-0.77 0.427,0 0.497,0.63 0.63,1.184 0.133,0.595 0.329,1.183 1.029,1.183 0.861,0 1.141,-0.806 1.141,-1.54 0,-0.812 -0.329,-1.498 -1.225,-1.534 l 0,0.596"
         style="fill:#000000;fill-opacity:1;fill-rule:nonzero;stroke:none"
         id="path528"
         inkscape:connector-curvature="0" /><path
         d="m 68.05,206.528 c 0.532,0.021 0.7,0.483 0.7,0.974 0,0.371 -0.084,0.875 -0.539,0.875 -0.462,0 -0.539,-0.588 -0.672,-1.184 -0.133,-0.587 -0.329,-1.183 -1.022,-1.183 -0.728,0 -1.029,0.721 -1.029,1.351 0,0.798 0.252,1.435 1.134,1.484 l 0,-0.594 c -0.462,-0.042 -0.609,-0.449 -0.609,-0.84 0,-0.358 0.098,-0.77 0.462,-0.77 0.427,0 0.497,0.63 0.63,1.182 0.133,0.595 0.329,1.183 1.029,1.183 0.861,0 1.141,-0.804 1.141,-1.54 0,-0.812 -0.329,-1.498 -1.225,-1.532 l 0,0.594"
         style="fill:#000000;fill-opacity:1;fill-rule:nonzero;stroke:none"
         id="path530"
         inkscape:connector-curvature="0" /><path
         d="m 69.191,212.661 0,-0.56 -0.574,0 0,-0.015 c 0.448,-0.251 0.658,-0.658 0.658,-1.175 0,-0.952 -0.546,-1.246 -1.323,-1.246 l -2.38,0 0,0.594 2.45,0 c 0.441,0 0.728,0.281 0.728,0.736 0,0.72 -0.483,1.07 -1.134,1.07 l -2.044,0 0,0.596 3.619,0"
         style="fill:#000000;fill-opacity:1;fill-rule:nonzero;stroke:none"
         id="path532"
         inkscape:connector-curvature="0" /><path
         d="m 65.572,213.536 0,0.559 0.763,0 0,0.014 c -0.581,0.288 -0.868,0.686 -0.847,1.33 l 0.63,0 c 0,-0.958 0.546,-1.309 1.463,-1.309 l 1.61,0 0,-0.594 -3.619,0"
         style="fill:#000000;fill-opacity:1;fill-rule:nonzero;stroke:none"
         id="path534"
         inkscape:connector-curvature="0" /><path
         d="m 69.191,217.519 0,-0.638 -3.619,-1.343 0,0.664 3.017,1.015 0,0.014 -3.017,0.987 0,0.623 3.619,-1.322"
         style="fill:#000000;fill-opacity:1;fill-rule:nonzero;stroke:none"
         id="path536"
         inkscape:connector-curvature="0" /><path
         d="m 64.193,220.018 0.728,0 0,-0.595 -0.728,0 0,0.595 z m 1.379,0 3.619,0 0,-0.595 -3.619,0 0,0.595 z"
         style="fill:#000000;fill-opacity:1;fill-rule:nonzero;stroke:none"
         id="path538"
         inkscape:connector-curvature="0" /><path
         d="m 69.191,222.572 0,-0.637 -3.619,-1.344 0,0.665 3.017,1.015 0,0.014 -3.017,0.987 0,0.623 3.619,-1.323"
         style="fill:#000000;fill-opacity:1;fill-rule:nonzero;stroke:none"
         id="path540"
         inkscape:connector-curvature="0" /><path
         d="m 64.193,224.476 0.728,0 0,0.595 -0.728,0 0,-0.595 z m 1.379,0 3.619,0 0,0.595 -3.619,0 0,-0.595 z"
         style="fill:#000000;fill-opacity:1;fill-rule:nonzero;stroke:none"
         id="path542"
         inkscape:connector-curvature="0" /><path
         d="m 65.572,225.995 0,0.56 0.574,0 0,0.014 c -0.448,0.252 -0.658,0.658 -0.658,1.176 0,0.952 0.546,1.246 1.323,1.246 l 2.38,0 0,-0.595 -2.45,0 c -0.441,0 -0.728,-0.28 -0.728,-0.735 0,-0.721 0.483,-1.071 1.134,-1.071 l 2.044,0 0,-0.595 -3.619,0"
         style="fill:#000000;fill-opacity:1;fill-rule:nonzero;stroke:none"
         id="path544"
         inkscape:connector-curvature="0" /><path
         d="m 68.883,233.009 c 1.176,0 1.778,-0.539 1.778,-1.68 0,-0.679 -0.273,-1.463 -1.064,-1.498 l 0,0.595 c 0.434,0.028 0.588,0.546 0.588,0.938 0,0.777 -0.56,1.085 -1.372,1.085 l -0.238,0 0,-0.014 c 0.441,-0.196 0.658,-0.672 0.658,-1.127 0,-1.078 -0.847,-1.617 -1.834,-1.617 -0.854,0 -1.911,0.42 -1.911,1.673 0,0.455 0.203,0.861 0.602,1.078 l 0,-0.007 0,0.014 -0.518,0 0,0.56 3.311,0 z m -1.575,-0.588 c -0.637,0 -1.295,-0.28 -1.295,-1.029 0,-0.763 0.623,-1.071 1.316,-1.071 0.651,0 1.379,0.238 1.379,1.022 0,0.784 -0.721,1.078 -1.4,1.078"
         style="fill:#000000;fill-opacity:1;fill-rule:nonzero;stroke:none"
         id="path546"
         inkscape:connector-curvature="0" /><path
         d="m 64.193,319.158 0,1.967 c 0,0.959 0.469,1.484 1.379,1.484 0.623,0 1.575,-0.441 1.575,-1.911 l 0,-1.484 2.044,-0.434 0,-0.665 -4.998,1.043 z m 2.394,0.175 0,1.505 c 0,0.714 -0.42,1.106 -1.015,1.106 -0.616,0 -0.819,-0.378 -0.819,-0.819 l 0,-1.407 1.834,-0.385"
         style="fill:#000000;fill-opacity:1;fill-rule:nonzero;stroke:none"
         id="path548"
         inkscape:connector-curvature="0" /><path
         d="m 68.666,325.057 c -0.51,-0.055 -0.73,-0.395 -0.73,-0.885 0,-0.4 0.145,-0.8 0.61,-0.8 0.44,0 0.505,0.57 0.635,1.145 0.13,0.57 0.33,1.14 1.03,1.14 0.76,0 1.065,-0.745 1.065,-1.395 0,-0.8 -0.39,-1.475 -1.26,-1.475 l 0,0.45 c 0.6,0 0.86,0.5 0.86,1.04 0,0.43 -0.135,0.905 -0.65,0.905 -0.49,0 -0.575,-0.57 -0.7,-1.14 -0.125,-0.57 -0.29,-1.145 -0.945,-1.145 -0.725,0 -1.045,0.645 -1.045,1.295 0,0.73 0.345,1.285 1.13,1.315 l 0,-0.45"
         style="fill:#000000;fill-opacity:1;fill-rule:nonzero;stroke:none"
         id="path550"
         inkscape:connector-curvature="0" /><path
         d="m 64.074,327.788 0,0.511 5.236,-2.072 0,-0.511 -5.236,2.072"
         style="fill:#000000;fill-opacity:1;fill-rule:nonzero;stroke:none"
         id="path552"
         inkscape:connector-curvature="0" /><path
         d="m 64.193,329.265 0,1.967 c 0,0.959 0.469,1.484 1.379,1.484 0.623,0 1.575,-0.441 1.575,-1.911 l 0,-1.484 2.044,-0.434 0,-0.665 -4.998,1.043 z m 2.394,0.175 0,1.505 c 0,0.714 -0.42,1.106 -1.015,1.106 -0.616,0 -0.819,-0.378 -0.819,-0.819 l 0,-1.407 1.834,-0.385"
         style="fill:#000000;fill-opacity:1;fill-rule:nonzero;stroke:none"
         id="path554"
         inkscape:connector-curvature="0" /><path
         d="m 70.301,334.914 c 0.485,0 0.975,-0.255 0.975,-1.055 0,-0.665 -0.37,-1.04 -1.04,-1.04 l -0.22,0 0,0.475 0.15,0 c 0.415,0 0.71,0.11 0.71,0.575 0,0.435 -0.25,0.57 -0.645,0.57 l -2.61,0 0,0.475 2.68,0"
         style="fill:#000000;fill-opacity:1;fill-rule:nonzero;stroke:none"
         id="path556"
         inkscape:connector-curvature="0" /><g
         id="g558"><g
           id="g560"
           clip-path="url(#clipPath562)"><path
             d="m 90.186,242.716 c 0,1.079 -0.876,1.956 -1.956,1.956 -1.08,0 -1.957,-0.877 -1.957,-1.956 0,-1.081 0.877,-1.957 1.957,-1.957 1.08,0 1.956,0.876 1.956,1.957"
             style="fill:#000000;fill-opacity:1;fill-rule:nonzero;stroke:none"
             id="path566"
             inkscape:connector-curvature="0" /></g></g><path
         d="m 94.625,242.716 c 0,1.079 -0.876,1.956 -1.956,1.956 -1.081,0 -1.957,-0.877 -1.957,-1.956 0,-1.081 0.876,-1.957 1.957,-1.957 1.08,0 1.956,0.876 1.956,1.957"
         style="fill:#000000;fill-opacity:1;fill-rule:nonzero;stroke:none"
         id="path568"
         inkscape:connector-curvature="0" /><path
         d="m 107.942,230.68 c 0,1.081 -0.876,1.957 -1.956,1.957 -1.081,0 -1.957,-0.876 -1.957,-1.957 0,-1.079 0.876,-1.956 1.957,-1.956 1.08,0 1.956,0.877 1.956,1.956"
         style="fill:#000000;fill-opacity:1;fill-rule:nonzero;stroke:none"
         id="path570"
         inkscape:connector-curvature="0" /><path
         d="m 121.259,243.85 c 0,1.08 -0.876,1.956 -1.956,1.956 -1.08,0 -1.957,-0.876 -1.957,-1.956 0,-1.08 0.877,-1.957 1.957,-1.957 1.08,0 1.956,0.877 1.956,1.957"
         style="fill:#000000;fill-opacity:1;fill-rule:nonzero;stroke:none"
         id="path572"
         inkscape:connector-curvature="0" /><g
         id="g574"><g
           id="g576"
           clip-path="url(#clipPath578)"><path
             d="m 125.698,161.432 c 0,1.08 -0.876,1.957 -1.956,1.957 -1.08,0 -1.956,-0.877 -1.956,-1.957 0,-1.08 0.876,-1.957 1.956,-1.957 1.08,0 1.956,0.877 1.956,1.957"
             style="fill:#000000;fill-opacity:1;fill-rule:nonzero;stroke:none"
             id="path582"
             inkscape:connector-curvature="0" /><path
             d="m 130.137,132.085 c 0,1.08 -0.876,1.956 -1.956,1.956 -1.081,0 -1.956,-0.876 -1.956,-1.956 0,-1.081 0.875,-1.956 1.956,-1.956 1.08,0 1.956,0.875 1.956,1.956"
             style="fill:#000000;fill-opacity:1;fill-rule:nonzero;stroke:none"
             id="path584"
             inkscape:connector-curvature="0" /><path
             d="m 132.801,132.677 c 0,1.079 -0.877,1.956 -1.956,1.956 -1.081,0 -1.957,-0.877 -1.957,-1.956 0,-1.08 0.876,-1.957 1.957,-1.957 1.079,0 1.956,0.877 1.956,1.957"
             style="fill:#000000;fill-opacity:1;fill-rule:nonzero;stroke:none"
             id="path586"
             inkscape:connector-curvature="0" /></g></g><path
         d="m 133.689,136.475 c 0,1.08 -0.877,1.956 -1.957,1.956 -1.08,0 -1.957,-0.876 -1.957,-1.956 0,-1.08 0.877,-1.956 1.957,-1.956 1.08,0 1.957,0.876 1.957,1.956"
         style="fill:#000000;fill-opacity:1;fill-rule:nonzero;stroke:none"
         id="path588"
         inkscape:connector-curvature="0" /><path
         d="m 134.576,144.515 c 0,1.079 -0.876,1.956 -1.956,1.956 -1.08,0 -1.957,-0.877 -1.957,-1.956 0,-1.081 0.877,-1.957 1.957,-1.957 1.08,0 1.956,0.876 1.956,1.957"
         style="fill:#000000;fill-opacity:1;fill-rule:nonzero;stroke:none"
         id="path590"
         inkscape:connector-curvature="0" /><path
         d="m 139.015,187.424 c 0,1.081 -0.876,1.957 -1.957,1.957 -1.079,0 -1.956,-0.876 -1.956,-1.957 0,-1.079 0.877,-1.956 1.956,-1.956 1.081,0 1.957,0.877 1.957,1.956"
         style="fill:#000000;fill-opacity:1;fill-rule:nonzero;stroke:none"
         id="path592"
         inkscape:connector-curvature="0" /><path
         d="m 140.791,185.995 c 0,1.079 -0.877,1.956 -1.957,1.956 -1.079,0 -1.956,-0.877 -1.956,-1.956 0,-1.081 0.877,-1.957 1.956,-1.957 1.08,0 1.957,0.876 1.957,1.957"
         style="fill:#000000;fill-opacity:1;fill-rule:nonzero;stroke:none"
         id="path594"
         inkscape:connector-curvature="0" /><path
         d="m 143.454,180.618 c 0,1.08 -0.876,1.957 -1.956,1.957 -1.08,0 -1.957,-0.877 -1.957,-1.957 0,-1.08 0.877,-1.956 1.957,-1.956 1.08,0 1.956,0.876 1.956,1.956"
         style="fill:#000000;fill-opacity:1;fill-rule:nonzero;stroke:none"
         id="path596"
         inkscape:connector-curvature="0" /><path
         d="m 147.893,224.712 c 0,1.08 -0.876,1.957 -1.956,1.957 -1.08,0 -1.956,-0.877 -1.956,-1.957 0,-1.079 0.876,-1.956 1.956,-1.956 1.08,0 1.956,0.877 1.956,1.956"
         style="fill:#000000;fill-opacity:1;fill-rule:nonzero;stroke:none"
         id="path598"
         inkscape:connector-curvature="0" /><path
         d="m 152.332,234.824 c 0,1.08 -0.876,1.956 -1.956,1.956 -1.08,0 -1.956,-0.876 -1.956,-1.956 0,-1.08 0.876,-1.957 1.956,-1.957 1.08,0 1.956,0.877 1.956,1.957"
         style="fill:#000000;fill-opacity:1;fill-rule:nonzero;stroke:none"
         id="path600"
         inkscape:connector-curvature="0" /><path
         d="m 156.771,235.958 c 0,1.081 -0.876,1.957 -1.956,1.957 -1.08,0 -1.956,-0.876 -1.956,-1.957 0,-1.08 0.876,-1.957 1.956,-1.957 1.08,0 1.956,0.877 1.956,1.957"
         style="fill:#000000;fill-opacity:1;fill-rule:nonzero;stroke:none"
         id="path602"
         inkscape:connector-curvature="0" /><path
         d="m 161.211,238.227 c 0,1.08 -0.877,1.956 -1.957,1.956 -1.08,0 -1.956,-0.876 -1.956,-1.956 0,-1.08 0.876,-1.956 1.956,-1.956 1.08,0 1.957,0.876 1.957,1.956"
         style="fill:#000000;fill-opacity:1;fill-rule:nonzero;stroke:none"
         id="path604"
         inkscape:connector-curvature="0" /><path
         d="m 170.089,228.066 c 0,1.08 -0.877,1.957 -1.957,1.957 -1.08,0 -1.957,-0.877 -1.957,-1.957 0,-1.079 0.877,-1.956 1.957,-1.956 1.08,0 1.957,0.877 1.957,1.956"
         style="fill:#000000;fill-opacity:1;fill-rule:nonzero;stroke:none"
         id="path606"
         inkscape:connector-curvature="0" /><path
         d="m 174.527,200.939 c 0,1.08 -0.877,1.957 -1.956,1.957 -1.08,0 -1.957,-0.877 -1.957,-1.957 0,-1.08 0.877,-1.956 1.957,-1.956 1.079,0 1.956,0.876 1.956,1.956"
         style="fill:#000000;fill-opacity:1;fill-rule:nonzero;stroke:none"
         id="path608"
         inkscape:connector-curvature="0" /><path
         d="m 178.078,177.067 c 0,1.08 -0.876,1.956 -1.956,1.956 -1.08,0 -1.956,-0.876 -1.956,-1.956 0,-1.079 0.876,-1.956 1.956,-1.956 1.08,0 1.956,0.877 1.956,1.956"
         style="fill:#000000;fill-opacity:1;fill-rule:nonzero;stroke:none"
         id="path610"
         inkscape:connector-curvature="0" /><path
         d="m 178.966,172.924 c 0,1.08 -0.876,1.956 -1.956,1.956 -1.08,0 -1.957,-0.876 -1.957,-1.956 0,-1.08 0.877,-1.956 1.957,-1.956 1.08,0 1.956,0.876 1.956,1.956"
         style="fill:#000000;fill-opacity:1;fill-rule:nonzero;stroke:none"
         id="path612"
         inkscape:connector-curvature="0" /><path
         d="m 180.742,168.781 c 0,1.08 -0.877,1.956 -1.956,1.956 -1.08,0 -1.957,-0.876 -1.957,-1.956 0,-1.08 0.877,-1.957 1.957,-1.957 1.079,0 1.956,0.877 1.956,1.957"
         style="fill:#000000;fill-opacity:1;fill-rule:nonzero;stroke:none"
         id="path614"
         inkscape:connector-curvature="0" /><path
         d="m 183.405,173.269 c 0,1.08 -0.876,1.956 -1.956,1.956 -1.08,0 -1.957,-0.876 -1.957,-1.956 0,-1.08 0.877,-1.956 1.957,-1.956 1.08,0 1.956,0.876 1.956,1.956"
         style="fill:#000000;fill-opacity:1;fill-rule:nonzero;stroke:none"
         id="path616"
         inkscape:connector-curvature="0" /><path
         d="m 187.845,211.1 c 0,1.08 -0.877,1.956 -1.957,1.956 -1.08,0 -1.957,-0.876 -1.957,-1.956 0,-1.081 0.877,-1.956 1.957,-1.956 1.08,0 1.957,0.875 1.957,1.956"
         style="fill:#000000;fill-opacity:1;fill-rule:nonzero;stroke:none"
         id="path618"
         inkscape:connector-curvature="0" /><path
         d="m 192.284,236.254 c 0,1.08 -0.877,1.956 -1.957,1.956 -1.08,0 -1.957,-0.876 -1.957,-1.956 0,-1.08 0.877,-1.956 1.957,-1.956 1.08,0 1.957,0.876 1.957,1.956"
         style="fill:#000000;fill-opacity:1;fill-rule:nonzero;stroke:none"
         id="path620"
         inkscape:connector-curvature="0" /><path
         d="m 196.723,240.496 c 0,1.08 -0.877,1.956 -1.957,1.956 -1.08,0 -1.956,-0.876 -1.956,-1.956 0,-1.08 0.876,-1.957 1.956,-1.957 1.08,0 1.957,0.877 1.957,1.957"
         style="fill:#000000;fill-opacity:1;fill-rule:nonzero;stroke:none"
         id="path622"
         inkscape:connector-curvature="0" /><path
         d="m 201.162,242.666 c 0,1.08 -0.877,1.956 -1.957,1.956 -1.08,0 -1.956,-0.876 -1.956,-1.956 0,-1.08 0.876,-1.957 1.956,-1.957 1.08,0 1.957,0.877 1.957,1.957"
         style="fill:#000000;fill-opacity:1;fill-rule:nonzero;stroke:none"
         id="path624"
         inkscape:connector-curvature="0" /><path
         d="m 205.601,242.074 c 0,1.08 -0.877,1.957 -1.957,1.957 -1.08,0 -1.957,-0.877 -1.957,-1.957 0,-1.079 0.877,-1.956 1.957,-1.956 1.08,0 1.957,0.877 1.957,1.956"
         style="fill:#000000;fill-opacity:1;fill-rule:nonzero;stroke:none"
         id="path626"
         inkscape:connector-curvature="0" /><path
         d="m 210.039,242.37 c 0,1.08 -0.876,1.957 -1.956,1.957 -1.08,0 -1.957,-0.877 -1.957,-1.957 0,-1.08 0.877,-1.957 1.957,-1.957 1.08,0 1.956,0.877 1.956,1.957"
         style="fill:#000000;fill-opacity:1;fill-rule:nonzero;stroke:none"
         id="path628"
         inkscape:connector-curvature="0" /><path
         d="m 214.478,241.432 c 0,1.081 -0.876,1.957 -1.956,1.957 -1.08,0 -1.957,-0.876 -1.957,-1.957 0,-1.079 0.877,-1.956 1.957,-1.956 1.08,0 1.956,0.877 1.956,1.956"
         style="fill:#000000;fill-opacity:1;fill-rule:nonzero;stroke:none"
         id="path630"
         inkscape:connector-curvature="0" /><path
         d="m 218.917,241.432 c 0,1.081 -0.876,1.957 -1.956,1.957 -1.08,0 -1.956,-0.876 -1.956,-1.957 0,-1.079 0.876,-1.956 1.956,-1.956 1.08,0 1.956,0.877 1.956,1.956"
         style="fill:#000000;fill-opacity:1;fill-rule:nonzero;stroke:none"
         id="path632"
         inkscape:connector-curvature="0" /><path
         d="m 223.356,241.285 c 0,1.08 -0.876,1.956 -1.956,1.956 -1.08,0 -1.956,-0.876 -1.956,-1.956 0,-1.08 0.876,-1.956 1.956,-1.956 1.08,0 1.956,0.876 1.956,1.956"
         style="fill:#000000;fill-opacity:1;fill-rule:nonzero;stroke:none"
         id="path634"
         inkscape:connector-curvature="0" /><path
         d="m 227.795,237.931 c 0,1.08 -0.876,1.956 -1.956,1.956 -1.08,0 -1.956,-0.876 -1.956,-1.956 0,-1.079 0.876,-1.956 1.956,-1.956 1.08,0 1.956,0.877 1.956,1.956"
         style="fill:#000000;fill-opacity:1;fill-rule:nonzero;stroke:none"
         id="path636"
         inkscape:connector-curvature="0" /><path
         d="m 232.235,239.016 c 0,1.08 -0.877,1.957 -1.957,1.957 -1.08,0 -1.956,-0.877 -1.956,-1.957 0,-1.08 0.876,-1.956 1.956,-1.956 1.08,0 1.957,0.876 1.957,1.956"
         style="fill:#000000;fill-opacity:1;fill-rule:nonzero;stroke:none"
         id="path638"
         inkscape:connector-curvature="0" /><path
         d="m 236.674,241.137 c 0,1.08 -0.877,1.957 -1.956,1.957 -1.081,0 -1.957,-0.877 -1.957,-1.957 0,-1.08 0.876,-1.957 1.957,-1.957 1.079,0 1.956,0.877 1.956,1.957"
         style="fill:#000000;fill-opacity:1;fill-rule:nonzero;stroke:none"
         id="path640"
         inkscape:connector-curvature="0" /><path
         d="m 241.113,242.962 c 0,1.08 -0.877,1.956 -1.956,1.956 -1.081,0 -1.957,-0.876 -1.957,-1.956 0,-1.08 0.876,-1.956 1.957,-1.956 1.079,0 1.956,0.876 1.956,1.956"
         style="fill:#000000;fill-opacity:1;fill-rule:nonzero;stroke:none"
         id="path642"
         inkscape:connector-curvature="0" /><path
         d="m 245.552,243.751 c 0,1.08 -0.876,1.956 -1.957,1.956 -1.08,0 -1.956,-0.876 -1.956,-1.956 0,-1.08 0.876,-1.956 1.956,-1.956 1.081,0 1.957,0.876 1.957,1.956"
         style="fill:#000000;fill-opacity:1;fill-rule:nonzero;stroke:none"
         id="path644"
         inkscape:connector-curvature="0" /><path
         d="m 249.99,243.899 c 0,1.08 -0.875,1.956 -1.956,1.956 -1.08,0 -1.956,-0.876 -1.956,-1.956 0,-1.08 0.876,-1.957 1.956,-1.957 1.081,0 1.956,0.877 1.956,1.957"
         style="fill:#000000;fill-opacity:1;fill-rule:nonzero;stroke:none"
         id="path646"
         inkscape:connector-curvature="0" /><path
         d="m 254.43,243.455 c 0,1.08 -0.877,1.956 -1.957,1.956 -1.08,0 -1.956,-0.876 -1.956,-1.956 0,-1.08 0.876,-1.957 1.956,-1.957 1.08,0 1.957,0.877 1.957,1.957"
         style="fill:#000000;fill-opacity:1;fill-rule:nonzero;stroke:none"
         id="path648"
         inkscape:connector-curvature="0" /><path
         d="m 258.869,243.751 c 0,1.08 -0.877,1.956 -1.957,1.956 -1.08,0 -1.956,-0.876 -1.956,-1.956 0,-1.08 0.876,-1.956 1.956,-1.956 1.08,0 1.957,0.876 1.957,1.956"
         style="fill:#000000;fill-opacity:1;fill-rule:nonzero;stroke:none"
         id="path650"
         inkscape:connector-curvature="0" /><path
         d="m 263.308,244.047 c 0,1.08 -0.877,1.957 -1.957,1.957 -1.08,0 -1.956,-0.877 -1.956,-1.957 0,-1.08 0.876,-1.957 1.956,-1.957 1.08,0 1.957,0.877 1.957,1.957"
         style="fill:#000000;fill-opacity:1;fill-rule:nonzero;stroke:none"
         id="path652"
         inkscape:connector-curvature="0" /><path
         d="m 88.23,269.6 177.56,0 m -177.56,0 0,5.873 m 8.878,-5.873 0,2.939 m 8.878,-2.939 0,2.939 m 8.878,-2.939 0,2.939 m 8.878,-2.939 0,2.939 m 8.878,-2.939 0,5.873 m 8.878,-5.873 0,2.939 m 8.878,-2.939 0,2.939 m 8.878,-2.939 0,2.939 m 8.878,-2.939 0,2.939 m 8.878,-2.939 0,5.873 m 8.878,-5.873 0,2.939 m 8.878,-2.939 0,2.939 m 8.878,-2.939 0,2.939 m 8.878,-2.939 0,2.939 m 8.878,-2.939 0,5.873 m 8.878,-5.873 0,2.939 m 8.879,-2.939 0,2.939 m 8.877,-2.939 0,2.939 m 8.878,-2.939 0,2.939 m 8.878,-2.939 0,5.873"
         style="fill:none;stroke:#000000;stroke-width:0.5;stroke-linecap:round;stroke-linejoin:round;stroke-miterlimit:10;stroke-opacity:1;stroke-dasharray:none"
         id="path654"
         inkscape:connector-curvature="0" /><path
         d="m 88.547,266.581 c 1.555,0 1.653,-1.427 1.653,-2.527 0,-1.091 -0.098,-2.52 -1.653,-2.52 -1.553,0 -1.651,1.429 -1.651,2.52 0,1.1 0.098,2.527 1.651,2.527 z m 0,-4.522 c 1.016,0 1.022,1.261 1.022,2.002 0,0.736 -0.006,1.995 -1.022,1.995 -1.014,0 -1.022,-1.259 -1.022,-1.995 0,-0.741 0.008,-2.002 1.022,-2.002"
         style="fill:#000000;fill-opacity:1;fill-rule:nonzero;stroke:none"
         id="path656"
         inkscape:connector-curvature="0" /><path
         d="m 88.23,383.63 177.56,0 m -177.56,0 0,-5.874 m 8.878,5.874 0,-2.935 m 8.878,2.935 0,-2.935 m 8.878,2.935 0,-2.935 m 8.878,2.935 0,-2.935 m 8.878,2.935 0,-5.874 m 8.878,5.874 0,-2.935 m 8.878,2.935 0,-2.935 m 8.878,2.935 0,-2.935 m 8.878,2.935 0,-2.935 m 8.878,2.935 0,-5.874 m 8.878,5.874 0,-2.935 m 8.878,2.935 0,-2.935 m 8.878,2.935 0,-2.935 m 8.878,2.935 0,-2.935 m 8.878,2.935 0,-5.874 m 8.878,5.874 0,-2.935 m 8.879,2.935 0,-2.935 m 8.877,2.935 0,-2.935 m 8.878,2.935 0,-2.935 m 8.878,2.935 0,-5.874 M 88.23,269.6 l 0,114.03 m 0,-114.03 5.873,0 m -5.873,7.604 2.935,0 m -2.935,7.6 2.935,0 m -2.935,7.604 2.935,0 m -2.935,7.599 2.935,0 m -2.935,7.604 5.873,0 m -5.873,7.6 2.935,0 m -2.935,7.604 2.935,0 m -2.935,7.6 2.935,0 m -2.935,7.604 2.935,0 m -2.935,7.599 5.873,0 m -5.873,7.604 2.935,0 m -2.935,7.6 2.935,0 m -2.935,7.604 2.935,0 m -2.935,7.6 2.935,0 m -2.935,7.604 5.873,0"
         style="fill:none;stroke:#000000;stroke-width:0.5;stroke-linecap:round;stroke-linejoin:round;stroke-miterlimit:10;stroke-opacity:1;stroke-dasharray:none"
         id="path658"
         inkscape:connector-curvature="0" /><path
         d="m 79.646,267.463 -0.595,0 0,3.556 -1.288,0 0,0.476 c 0.679,0 1.295,0.182 1.428,0.931 l 0.455,0 0,-4.963"
         style="fill:#000000;fill-opacity:1;fill-rule:nonzero;stroke:none"
         id="path660"
         inkscape:connector-curvature="0" /><path
         d="m 81.627,268.24 0.777,0 0,-0.777 -0.777,0 0,0.777 z"
         style="fill:#000000;fill-opacity:1;fill-rule:nonzero;stroke:none"
         id="path662"
         inkscape:connector-curvature="0" /><path
         d="m 83.93,268.66 c 0.042,-0.483 0.434,-0.756 0.91,-0.756 0.728,0 1.085,0.637 1.12,1.918 l -0.014,0.014 c -0.224,-0.42 -0.665,-0.686 -1.148,-0.686 -1.008,0 -1.568,0.679 -1.568,1.659 0,0.959 0.672,1.617 1.631,1.617 0.924,0 1.701,-0.497 1.701,-2.373 0,-1.715 -0.518,-2.674 -1.722,-2.674 -0.833,0 -1.428,0.427 -1.505,1.281 l 0.595,0 z m 0.903,3.241 c -0.707,0 -0.973,-0.567 -0.973,-1.176 0,-0.546 0.406,-1.05 0.98,-1.05 0.623,0 1.015,0.504 1.015,1.092 0,0.609 -0.357,1.134 -1.022,1.134"
         style="fill:#000000;fill-opacity:1;fill-rule:nonzero;stroke:none"
         id="path664"
         inkscape:connector-curvature="0" /><path
         d="m 82.347,308.697 c -0.05,1.008 0.546,1.757 1.595,1.757 0.869,0 1.555,-0.504 1.555,-1.428 0,-0.875 -0.588,-1.316 -1.204,-1.701 -0.623,-0.378 -1.274,-0.693 -1.393,-1.309 l 2.548,0 0,-0.525 -3.241,0 c 0.098,1.176 0.693,1.596 1.393,2.03 0.84,0.518 1.267,0.826 1.267,1.512 0,0.539 -0.434,0.896 -0.959,0.896 -0.694,0 -0.987,-0.637 -0.967,-1.232 l -0.594,0"
         style="fill:#000000;fill-opacity:1;fill-rule:nonzero;stroke:none"
         id="path666"
         inkscape:connector-curvature="0" /><path
         d="m 77.462,346.718 c -0.049,1.008 0.546,1.757 1.596,1.757 0.868,0 1.554,-0.504 1.554,-1.428 0,-0.875 -0.588,-1.316 -1.204,-1.701 -0.623,-0.378 -1.274,-0.693 -1.393,-1.309 l 2.548,0 0,-0.525 -3.241,0 c 0.098,1.176 0.693,1.596 1.393,2.03 0.84,0.518 1.267,0.826 1.267,1.512 0,0.539 -0.434,0.896 -0.959,0.896 -0.693,0 -0.987,-0.637 -0.966,-1.232 l -0.595,0"
         style="fill:#000000;fill-opacity:1;fill-rule:nonzero;stroke:none"
         id="path668"
         inkscape:connector-curvature="0" /><path
         d="m 81.627,344.289 0.777,0 0,-0.777 -0.777,0 0,0.777 z"
         style="fill:#000000;fill-opacity:1;fill-rule:nonzero;stroke:none"
         id="path670"
         inkscape:connector-curvature="0" /><path
         d="m 85.484,343.512 -0.595,0 0,3.556 -1.288,0 0,0.476 c 0.679,0 1.295,0.182 1.428,0.931 l 0.455,0 0,-4.963"
         style="fill:#000000;fill-opacity:1;fill-rule:nonzero;stroke:none"
         id="path672"
         inkscape:connector-curvature="0" /><path
         d="m 265.79,269.6 0,114.03 m 0,-114.03 -5.873,0 m 5.873,7.604 -2.934,0 m 2.934,7.6 -2.934,0 m 2.934,7.604 -2.934,0 m 2.934,7.599 -2.934,0 m 2.934,7.604 -5.873,0 m 5.873,7.6 -2.934,0 m 2.934,7.604 -2.934,0 m 2.934,7.6 -2.934,0 m 2.934,7.604 -2.934,0 m 2.934,7.599 -5.873,0 m 5.873,7.604 -2.934,0 m 2.934,7.6 -2.934,0 m 2.934,7.604 -2.934,0 m 2.934,7.6 -2.934,0 m 2.934,7.604 -5.873,0"
         style="fill:none;stroke:#000000;stroke-width:0.5;stroke-linecap:round;stroke-linejoin:round;stroke-miterlimit:10;stroke-opacity:1;stroke-dasharray:none"
         id="path674"
         inkscape:connector-curvature="0" /><g
         id="g676"><g
           id="g678"
           clip-path="url(#clipPath680)"><path
             d="m 90.186,285.428 c 0,1.08 -0.876,1.957 -1.956,1.957 -1.08,0 -1.957,-0.877 -1.957,-1.957 0,-1.079 0.877,-1.956 1.957,-1.956 1.08,0 1.956,0.877 1.956,1.956"
             style="fill:#000000;fill-opacity:1;fill-rule:nonzero;stroke:none"
             id="path684"
             inkscape:connector-curvature="0" /></g></g><path
         d="m 94.625,286.76 c 0,1.08 -0.876,1.957 -1.956,1.957 -1.081,0 -1.957,-0.877 -1.957,-1.957 0,-1.08 0.876,-1.956 1.957,-1.956 1.08,0 1.956,0.876 1.956,1.956"
         style="fill:#000000;fill-opacity:1;fill-rule:nonzero;stroke:none"
         id="path686"
         inkscape:connector-curvature="0" /><path
         d="m 107.942,290.608 c 0,1.079 -0.876,1.956 -1.956,1.956 -1.081,0 -1.957,-0.877 -1.957,-1.956 0,-1.081 0.876,-1.957 1.957,-1.957 1.08,0 1.956,0.876 1.956,1.957"
         style="fill:#000000;fill-opacity:1;fill-rule:nonzero;stroke:none"
         id="path688"
         inkscape:connector-curvature="0" /><path
         d="m 121.259,294.997 c 0,1.08 -0.876,1.957 -1.956,1.957 -1.08,0 -1.957,-0.877 -1.957,-1.957 0,-1.08 0.877,-1.956 1.957,-1.956 1.08,0 1.956,0.876 1.956,1.956"
         style="fill:#000000;fill-opacity:1;fill-rule:nonzero;stroke:none"
         id="path690"
         inkscape:connector-curvature="0" /><path
         d="m 125.698,318.277 c 0,1.08 -0.876,1.957 -1.956,1.957 -1.08,0 -1.956,-0.877 -1.956,-1.957 0,-1.08 0.876,-1.956 1.956,-1.956 1.08,0 1.956,0.876 1.956,1.956"
         style="fill:#000000;fill-opacity:1;fill-rule:nonzero;stroke:none"
         id="path692"
         inkscape:connector-curvature="0" /><path
         d="m 130.137,321.681 c 0,1.08 -0.876,1.956 -1.956,1.956 -1.081,0 -1.956,-0.876 -1.956,-1.956 0,-1.08 0.875,-1.957 1.956,-1.957 1.08,0 1.956,0.877 1.956,1.957"
         style="fill:#000000;fill-opacity:1;fill-rule:nonzero;stroke:none"
         id="path694"
         inkscape:connector-curvature="0" /><path
         d="m 132.801,325.133 c 0,1.08 -0.877,1.956 -1.957,1.956 -1.08,0 -1.956,-0.876 -1.956,-1.956 0,-1.08 0.876,-1.956 1.956,-1.956 1.08,0 1.957,0.876 1.957,1.956"
         style="fill:#000000;fill-opacity:1;fill-rule:nonzero;stroke:none"
         id="path696"
         inkscape:connector-curvature="0" /><path
         d="m 133.689,325.281 c 0,1.08 -0.877,1.956 -1.957,1.956 -1.08,0 -1.957,-0.876 -1.957,-1.956 0,-1.08 0.877,-1.956 1.957,-1.956 1.08,0 1.957,0.876 1.957,1.956"
         style="fill:#000000;fill-opacity:1;fill-rule:nonzero;stroke:none"
         id="path698"
         inkscape:connector-curvature="0" /><path
         d="m 134.576,325.676 c 0,1.08 -0.876,1.956 -1.956,1.956 -1.08,0 -1.957,-0.876 -1.957,-1.956 0,-1.08 0.877,-1.957 1.957,-1.957 1.08,0 1.956,0.877 1.956,1.957"
         style="fill:#000000;fill-opacity:1;fill-rule:nonzero;stroke:none"
         id="path700"
         inkscape:connector-curvature="0" /><path
         d="m 139.015,327.797 c 0,1.079 -0.876,1.956 -1.957,1.956 -1.079,0 -1.956,-0.877 -1.956,-1.956 0,-1.08 0.877,-1.957 1.956,-1.957 1.081,0 1.957,0.877 1.957,1.957"
         style="fill:#000000;fill-opacity:1;fill-rule:nonzero;stroke:none"
         id="path702"
         inkscape:connector-curvature="0" /><path
         d="m 140.791,327.106 c 0,1.08 -0.877,1.956 -1.957,1.956 -1.079,0 -1.956,-0.876 -1.956,-1.956 0,-1.08 0.877,-1.956 1.956,-1.956 1.08,0 1.957,0.876 1.957,1.956"
         style="fill:#000000;fill-opacity:1;fill-rule:nonzero;stroke:none"
         id="path704"
         inkscape:connector-curvature="0" /><path
         d="m 143.454,328.734 c 0,1.079 -0.876,1.956 -1.956,1.956 -1.08,0 -1.957,-0.877 -1.957,-1.956 0,-1.08 0.877,-1.957 1.957,-1.957 1.08,0 1.956,0.877 1.956,1.957"
         style="fill:#000000;fill-opacity:1;fill-rule:nonzero;stroke:none"
         id="path706"
         inkscape:connector-curvature="0" /><path
         d="m 147.893,328.882 c 0,1.08 -0.876,1.956 -1.956,1.956 -1.08,0 -1.956,-0.876 -1.956,-1.956 0,-1.08 0.876,-1.957 1.956,-1.957 1.08,0 1.956,0.877 1.956,1.957"
         style="fill:#000000;fill-opacity:1;fill-rule:nonzero;stroke:none"
         id="path708"
         inkscape:connector-curvature="0" /><path
         d="m 152.332,331.249 c 0,1.08 -0.876,1.956 -1.956,1.956 -1.08,0 -1.956,-0.876 -1.956,-1.956 0,-1.08 0.876,-1.957 1.956,-1.957 1.08,0 1.956,0.877 1.956,1.957"
         style="fill:#000000;fill-opacity:1;fill-rule:nonzero;stroke:none"
         id="path710"
         inkscape:connector-curvature="0" /><path
         d="m 156.771,332.334 c 0,1.08 -0.876,1.956 -1.956,1.956 -1.08,0 -1.956,-0.876 -1.956,-1.956 0,-1.08 0.876,-1.956 1.956,-1.956 1.08,0 1.956,0.876 1.956,1.956"
         style="fill:#000000;fill-opacity:1;fill-rule:nonzero;stroke:none"
         id="path712"
         inkscape:connector-curvature="0" /><path
         d="m 161.211,332.334 c 0,1.08 -0.877,1.956 -1.957,1.956 -1.08,0 -1.956,-0.876 -1.956,-1.956 0,-1.08 0.876,-1.956 1.956,-1.956 1.08,0 1.957,0.876 1.957,1.956"
         style="fill:#000000;fill-opacity:1;fill-rule:nonzero;stroke:none"
         id="path714"
         inkscape:connector-curvature="0" /><path
         d="m 170.089,337.464 c 0,1.08 -0.877,1.956 -1.957,1.956 -1.08,0 -1.957,-0.876 -1.957,-1.956 0,-1.08 0.877,-1.957 1.957,-1.957 1.08,0 1.957,0.877 1.957,1.957"
         style="fill:#000000;fill-opacity:1;fill-rule:nonzero;stroke:none"
         id="path716"
         inkscape:connector-curvature="0" /><path
         d="m 174.527,337.217 c 0,1.08 -0.877,1.957 -1.956,1.957 -1.08,0 -1.957,-0.877 -1.957,-1.957 0,-1.08 0.877,-1.956 1.957,-1.956 1.079,0 1.956,0.876 1.956,1.956"
         style="fill:#000000;fill-opacity:1;fill-rule:nonzero;stroke:none"
         id="path718"
         inkscape:connector-curvature="0" /><path
         d="m 178.078,337.957 c 0,1.08 -0.876,1.956 -1.956,1.956 -1.08,0 -1.956,-0.876 -1.956,-1.956 0,-1.08 0.876,-1.957 1.956,-1.957 1.08,0 1.956,0.877 1.956,1.957"
         style="fill:#000000;fill-opacity:1;fill-rule:nonzero;stroke:none"
         id="path720"
         inkscape:connector-curvature="0" /><path
         d="m 178.966,337.957 c 0,1.08 -0.876,1.956 -1.956,1.956 -1.08,0 -1.957,-0.876 -1.957,-1.956 0,-1.08 0.877,-1.957 1.957,-1.957 1.08,0 1.956,0.877 1.956,1.957"
         style="fill:#000000;fill-opacity:1;fill-rule:nonzero;stroke:none"
         id="path722"
         inkscape:connector-curvature="0" /><path
         d="m 180.742,338.795 c 0,1.08 -0.877,1.957 -1.956,1.957 -1.08,0 -1.957,-0.877 -1.957,-1.957 0,-1.08 0.877,-1.956 1.957,-1.956 1.079,0 1.956,0.876 1.956,1.956"
         style="fill:#000000;fill-opacity:1;fill-rule:nonzero;stroke:none"
         id="path724"
         inkscape:connector-curvature="0" /><path
         d="m 183.405,340.078 c 0,1.08 -0.876,1.956 -1.956,1.956 -1.08,0 -1.957,-0.876 -1.957,-1.956 0,-1.08 0.877,-1.957 1.957,-1.957 1.08,0 1.956,0.877 1.956,1.957"
         style="fill:#000000;fill-opacity:1;fill-rule:nonzero;stroke:none"
         id="path726"
         inkscape:connector-curvature="0" /><path
         d="m 187.845,341.015 c 0,1.08 -0.877,1.957 -1.957,1.957 -1.08,0 -1.957,-0.877 -1.957,-1.957 0,-1.08 0.877,-1.957 1.957,-1.957 1.08,0 1.957,0.877 1.957,1.957"
         style="fill:#000000;fill-opacity:1;fill-rule:nonzero;stroke:none"
         id="path728"
         inkscape:connector-curvature="0" /><path
         d="m 192.284,338.549 c 0,1.08 -0.877,1.956 -1.957,1.956 -1.08,0 -1.957,-0.876 -1.957,-1.956 0,-1.08 0.877,-1.957 1.957,-1.957 1.08,0 1.957,0.877 1.957,1.957"
         style="fill:#000000;fill-opacity:1;fill-rule:nonzero;stroke:none"
         id="path730"
         inkscape:connector-curvature="0" /><path
         d="m 196.723,345.405 c 0,1.08 -0.877,1.956 -1.957,1.956 -1.08,0 -1.956,-0.876 -1.956,-1.956 0,-1.08 0.876,-1.957 1.956,-1.957 1.08,0 1.957,0.877 1.957,1.957"
         style="fill:#000000;fill-opacity:1;fill-rule:nonzero;stroke:none"
         id="path732"
         inkscape:connector-curvature="0" /><path
         d="m 201.162,343.235 c 0,1.079 -0.877,1.956 -1.957,1.956 -1.08,0 -1.956,-0.877 -1.956,-1.956 0,-1.08 0.876,-1.957 1.956,-1.957 1.08,0 1.957,0.877 1.957,1.957"
         style="fill:#000000;fill-opacity:1;fill-rule:nonzero;stroke:none"
         id="path734"
         inkscape:connector-curvature="0" /><path
         d="m 205.601,342.149 c 0,1.08 -0.877,1.957 -1.957,1.957 -1.08,0 -1.957,-0.877 -1.957,-1.957 0,-1.079 0.877,-1.956 1.957,-1.956 1.08,0 1.957,0.877 1.957,1.956"
         style="fill:#000000;fill-opacity:1;fill-rule:nonzero;stroke:none"
         id="path736"
         inkscape:connector-curvature="0" /><path
         d="m 210.039,345.75 c 0,1.08 -0.876,1.956 -1.956,1.956 -1.08,0 -1.957,-0.876 -1.957,-1.956 0,-1.08 0.877,-1.957 1.957,-1.957 1.08,0 1.956,0.877 1.956,1.957"
         style="fill:#000000;fill-opacity:1;fill-rule:nonzero;stroke:none"
         id="path738"
         inkscape:connector-curvature="0" /><path
         d="m 214.478,347.082 c 0,1.079 -0.876,1.956 -1.956,1.956 -1.08,0 -1.957,-0.877 -1.957,-1.956 0,-1.08 0.877,-1.957 1.957,-1.957 1.08,0 1.956,0.877 1.956,1.957"
         style="fill:#000000;fill-opacity:1;fill-rule:nonzero;stroke:none"
         id="path740"
         inkscape:connector-curvature="0" /><path
         d="m 218.917,347.032 c 0,1.08 -0.876,1.957 -1.956,1.957 -1.08,0 -1.956,-0.877 -1.956,-1.957 0,-1.08 0.876,-1.956 1.956,-1.956 1.08,0 1.956,0.876 1.956,1.956"
         style="fill:#000000;fill-opacity:1;fill-rule:nonzero;stroke:none"
         id="path742"
         inkscape:connector-curvature="0" /><path
         d="m 223.356,348.808 c 0,1.08 -0.876,1.956 -1.956,1.956 -1.08,0 -1.956,-0.876 -1.956,-1.956 0,-1.08 0.876,-1.957 1.956,-1.957 1.08,0 1.956,0.877 1.956,1.957"
         style="fill:#000000;fill-opacity:1;fill-rule:nonzero;stroke:none"
         id="path744"
         inkscape:connector-curvature="0" /><path
         d="m 227.795,348.907 c 0,1.08 -0.876,1.956 -1.956,1.956 -1.08,0 -1.956,-0.876 -1.956,-1.956 0,-1.081 0.876,-1.957 1.956,-1.957 1.08,0 1.956,0.876 1.956,1.957"
         style="fill:#000000;fill-opacity:1;fill-rule:nonzero;stroke:none"
         id="path746"
         inkscape:connector-curvature="0" /><path
         d="m 232.235,350.386 c 0,1.08 -0.877,1.957 -1.957,1.957 -1.08,0 -1.956,-0.877 -1.956,-1.957 0,-1.08 0.876,-1.956 1.956,-1.956 1.08,0 1.957,0.876 1.957,1.956"
         style="fill:#000000;fill-opacity:1;fill-rule:nonzero;stroke:none"
         id="path748"
         inkscape:connector-curvature="0" /><path
         d="m 236.674,351.767 c 0,1.08 -0.877,1.957 -1.956,1.957 -1.081,0 -1.957,-0.877 -1.957,-1.957 0,-1.08 0.876,-1.956 1.957,-1.956 1.079,0 1.956,0.876 1.956,1.956"
         style="fill:#000000;fill-opacity:1;fill-rule:nonzero;stroke:none"
         id="path750"
         inkscape:connector-curvature="0" /><path
         d="m 241.113,348.808 c 0,1.08 -0.877,1.956 -1.956,1.956 -1.081,0 -1.957,-0.876 -1.957,-1.956 0,-1.08 0.876,-1.957 1.957,-1.957 1.079,0 1.956,0.877 1.956,1.957"
         style="fill:#000000;fill-opacity:1;fill-rule:nonzero;stroke:none"
         id="path752"
         inkscape:connector-curvature="0" /><path
         d="m 245.552,353.493 c 0,1.08 -0.876,1.957 -1.957,1.957 -1.08,0 -1.956,-0.877 -1.956,-1.957 0,-1.079 0.876,-1.956 1.956,-1.956 1.081,0 1.957,0.877 1.957,1.956"
         style="fill:#000000;fill-opacity:1;fill-rule:nonzero;stroke:none"
         id="path754"
         inkscape:connector-curvature="0" /><path
         d="m 249.99,354.184 c 0,1.08 -0.875,1.956 -1.956,1.956 -1.08,0 -1.956,-0.876 -1.956,-1.956 0,-1.08 0.876,-1.956 1.956,-1.956 1.081,0 1.956,0.876 1.956,1.956"
         style="fill:#000000;fill-opacity:1;fill-rule:nonzero;stroke:none"
         id="path756"
         inkscape:connector-curvature="0" /><path
         d="m 254.43,355.121 c 0,1.08 -0.877,1.956 -1.957,1.956 -1.08,0 -1.956,-0.876 -1.956,-1.956 0,-1.08 0.876,-1.956 1.956,-1.956 1.08,0 1.957,0.876 1.957,1.956"
         style="fill:#000000;fill-opacity:1;fill-rule:nonzero;stroke:none"
         id="path758"
         inkscape:connector-curvature="0" /><path
         d="m 258.869,357.488 c 0,1.081 -0.877,1.957 -1.957,1.957 -1.08,0 -1.956,-0.876 -1.956,-1.957 0,-1.08 0.876,-1.956 1.956,-1.956 1.08,0 1.957,0.876 1.957,1.956"
         style="fill:#000000;fill-opacity:1;fill-rule:nonzero;stroke:none"
         id="path760"
         inkscape:connector-curvature="0" /><path
         d="m 263.308,357.883 c 0,1.08 -0.877,1.957 -1.957,1.957 -1.08,0 -1.956,-0.877 -1.956,-1.957 0,-1.08 0.876,-1.956 1.956,-1.956 1.08,0 1.957,0.876 1.957,1.956"
         style="fill:#000000;fill-opacity:1;fill-rule:nonzero;stroke:none"
         id="path762"
         inkscape:connector-curvature="0" /><path
         d="m 83.494,134.958 c 1.554,0 1.652,-1.427 1.652,-2.526 0,-1.093 -0.098,-2.52 -1.652,-2.52 -1.554,0 -1.652,1.427 -1.652,2.52 0,1.099 0.098,2.526 1.652,2.526 z m 0,-4.522 c 1.015,0 1.022,1.261 1.022,2.002 0,0.736 -0.007,1.996 -1.022,1.996 -1.015,0 -1.022,-1.26 -1.022,-1.996 0,-0.741 0.007,-2.002 1.022,-2.002"
         style="fill:#000000;fill-opacity:1;fill-rule:nonzero;stroke:none"
         id="path764"
         inkscape:connector-curvature="0" /><path
         d="m 77.656,157.535 c 1.554,0 1.652,-1.427 1.652,-2.526 0,-1.093 -0.098,-2.52 -1.652,-2.52 -1.554,0 -1.652,1.427 -1.652,2.52 0,1.099 0.098,2.526 1.652,2.526 z m 0,-4.521 c 1.015,0 1.022,1.26 1.022,2.001 0,0.736 -0.007,1.996 -1.022,1.996 -1.015,0 -1.022,-1.26 -1.022,-1.996 0,-0.741 0.007,-2.001 1.022,-2.001"
         style="fill:#000000;fill-opacity:1;fill-rule:nonzero;stroke:none"
         id="path766"
         inkscape:connector-curvature="0" /><path
         d="m 80.183,153.349 0.777,0 0,-0.777 -0.777,0 0,0.777 z"
         style="fill:#000000;fill-opacity:1;fill-rule:nonzero;stroke:none"
         id="path768"
         inkscape:connector-curvature="0" /><path
         d="m 81.856,155.779 c -0.049,1.007 0.546,1.756 1.596,1.756 0.868,0 1.554,-0.503 1.554,-1.427 0,-0.875 -0.588,-1.317 -1.204,-1.701 -0.623,-0.378 -1.274,-0.693 -1.393,-1.309 l 2.548,0 0,-0.525 -3.241,0 c 0.098,1.175 0.693,1.596 1.393,2.029 0.84,0.518 1.267,0.827 1.267,1.513 0,0.539 -0.434,0.896 -0.959,0.896 -0.693,0 -0.987,-0.638 -0.966,-1.232 l -0.595,0"
         style="fill:#000000;fill-opacity:1;fill-rule:nonzero;stroke:none"
         id="path770"
         inkscape:connector-curvature="0" /><path
         d="m 77.656,180.107 c 1.554,0 1.652,-1.428 1.652,-2.527 0,-1.092 -0.098,-2.52 -1.652,-2.52 -1.554,0 -1.652,1.428 -1.652,2.52 0,1.099 0.098,2.527 1.652,2.527 z m 0,-4.522 c 1.015,0 1.022,1.26 1.022,2.002 0,0.735 -0.007,1.995 -1.022,1.995 -1.015,0 -1.022,-1.26 -1.022,-1.995 0,-0.742 0.007,-2.002 1.022,-2.002"
         style="fill:#000000;fill-opacity:1;fill-rule:nonzero;stroke:none"
         id="path772"
         inkscape:connector-curvature="0" /><path
         d="m 80.183,175.921 0.777,0 0,-0.777 -0.777,0 0,0.777 z"
         style="fill:#000000;fill-opacity:1;fill-rule:nonzero;stroke:none"
         id="path774"
         inkscape:connector-curvature="0" /><path
         d="m 84.481,176.831 0.672,0 0,-0.525 -0.672,0 0,-1.162 -0.56,0 0,1.162 -2.177,0 0,0.574 2.261,3.227 0.476,0 0,-3.276 z m -0.56,0 0,2.429 -0.014,0 -1.652,-2.429 1.666,0"
         style="fill:#000000;fill-opacity:1;fill-rule:nonzero;stroke:none"
         id="path776"
         inkscape:connector-curvature="0" /><path
         d="m 77.656,202.685 c 1.554,0 1.652,-1.428 1.652,-2.527 0,-1.092 -0.098,-2.52 -1.652,-2.52 -1.554,0 -1.652,1.428 -1.652,2.52 0,1.099 0.098,2.527 1.652,2.527 z m 0,-4.522 c 1.015,0 1.022,1.26 1.022,2.002 0,0.735 -0.007,1.995 -1.022,1.995 -1.015,0 -1.022,-1.26 -1.022,-1.995 0,-0.742 0.007,-2.002 1.022,-2.002"
         style="fill:#000000;fill-opacity:1;fill-rule:nonzero;stroke:none"
         id="path778"
         inkscape:connector-curvature="0" /><path
         d="m 80.183,198.499 0.777,0 0,-0.777 -0.777,0 0,0.777 z"
         style="fill:#000000;fill-opacity:1;fill-rule:nonzero;stroke:none"
         id="path780"
         inkscape:connector-curvature="0" /><path
         d="m 84.446,201.418 c -0.056,0.448 -0.364,0.742 -0.833,0.742 -1.015,0 -1.176,-1.12 -1.204,-1.883 l 0.014,-0.014 c 0.28,0.455 0.7,0.651 1.239,0.651 0.952,0 1.519,-0.693 1.519,-1.61 0,-0.721 -0.406,-1.666 -1.659,-1.666 -1.47,0 -1.708,1.344 -1.708,2.387 0,1.365 0.413,2.66 1.827,2.66 0.819,0 1.33,-0.462 1.4,-1.267 l -0.595,0 z m -1.925,-2.149 c 0,-0.616 0.378,-1.106 1.029,-1.106 0.644,0 1.001,0.511 1.001,1.099 0,0.616 -0.322,1.127 -1.001,1.127 -0.665,0 -1.029,-0.497 -1.029,-1.12"
         style="fill:#000000;fill-opacity:1;fill-rule:nonzero;stroke:none"
         id="path782"
         inkscape:connector-curvature="0" /><path
         d="m 77.656,225.255 c 1.554,0 1.652,-1.427 1.652,-2.527 0,-1.091 -0.098,-2.52 -1.652,-2.52 -1.554,0 -1.652,1.429 -1.652,2.52 0,1.1 0.098,2.527 1.652,2.527 z m 0,-4.522 c 1.015,0 1.022,1.261 1.022,2.002 0,0.736 -0.007,1.995 -1.022,1.995 -1.015,0 -1.022,-1.259 -1.022,-1.995 0,-0.741 0.007,-2.002 1.022,-2.002"
         style="fill:#000000;fill-opacity:1;fill-rule:nonzero;stroke:none"
         id="path784"
         inkscape:connector-curvature="0" /><path
         d="m 80.183,221.069 0.777,0 0,-0.777 -0.777,0 0,0.777 z"
         style="fill:#000000;fill-opacity:1;fill-rule:nonzero;stroke:none"
         id="path786"
         inkscape:connector-curvature="0" /><path
         d="m 83.459,225.255 c 1.085,0 1.505,-0.636 1.505,-1.267 0,-0.441 -0.28,-0.846 -0.686,-1.029 0.595,-0.189 0.882,-0.623 0.882,-1.238 0,-0.959 -0.728,-1.513 -1.645,-1.513 -0.952,0 -1.687,0.498 -1.687,1.513 0,0.588 0.315,1.043 0.868,1.238 -0.413,0.168 -0.693,0.581 -0.693,1.029 0,0.82 0.693,1.267 1.456,1.267 z m 0.056,-4.522 c 0.595,0 1.015,0.413 1.015,0.967 0,0.538 -0.462,0.944 -1.022,0.944 -0.588,0 -1.05,-0.377 -1.05,-0.952 0,-0.594 0.441,-0.959 1.057,-0.959 z m 0,2.436 c 0.469,0 0.819,0.294 0.819,0.798 0,0.497 -0.35,0.763 -0.833,0.763 -0.476,0 -0.868,-0.266 -0.868,-0.763 0,-0.546 0.392,-0.798 0.882,-0.798"
         style="fill:#000000;fill-opacity:1;fill-rule:nonzero;stroke:none"
         id="path788"
         inkscape:connector-curvature="0" /><path
         d="m 127.01,265.972 -2.002,0 -0.266,-1.428 0.014,-0.013 c 0.217,0.245 0.588,0.356 0.924,0.356 0.881,0 1.603,-0.566 1.603,-1.701 0,-0.84 -0.581,-1.652 -1.736,-1.652 -0.862,0 -1.561,0.525 -1.582,1.421 l 0.594,0 c 0.036,-0.51 0.449,-0.896 1.043,-0.896 0.567,0 1.051,0.386 1.051,1.177 0,0.657 -0.455,1.127 -1.12,1.127 -0.378,0 -0.693,-0.189 -0.924,-0.47 l -0.511,0.029 0.461,2.575 2.451,0 0,-0.525"
         style="fill:#000000;fill-opacity:1;fill-rule:nonzero;stroke:none"
         id="path790"
         inkscape:connector-curvature="0" /><path
         d="m 129.803,263.48 1.54,-1.547 -0.26,-0.258 -1.546,1.553 -1.547,-1.553 -0.26,0.258 1.54,1.547 -1.54,1.548 0.26,0.258 1.547,-1.554 1.546,1.554 0.26,-0.258 -1.54,-1.548"
         style="fill:#000000;fill-opacity:1;fill-rule:nonzero;stroke:none"
         id="path792"
         inkscape:connector-curvature="0" /><path
         d="m 133.947,261.618 -0.596,0 0,3.557 -1.288,0 0,0.475 c 0.68,0 1.295,0.182 1.429,0.931 l 0.455,0 0,-4.963"
         style="fill:#000000;fill-opacity:1;fill-rule:nonzero;stroke:none"
         id="path794"
         inkscape:connector-curvature="0" /><path
         d="m 137.292,266.581 c 1.554,0 1.653,-1.427 1.653,-2.527 0,-1.091 -0.099,-2.52 -1.653,-2.52 -1.553,0 -1.651,1.429 -1.651,2.52 0,1.1 0.098,2.527 1.651,2.527 z m 0,-4.522 c 1.015,0 1.022,1.261 1.022,2.002 0,0.736 -0.007,1.995 -1.022,1.995 -1.014,0 -1.022,-1.259 -1.022,-1.995 0,-0.741 0.008,-2.002 1.022,-2.002"
         style="fill:#000000;fill-opacity:1;fill-rule:nonzero;stroke:none"
         id="path796"
         inkscape:connector-curvature="0" /><path
         d="m 141.588,266.728 -1.43,0 -0.189,-1.02 0.009,-0.01 c 0.156,0.175 0.42,0.255 0.66,0.255 0.63,0 1.145,-0.404 1.145,-1.214 0,-0.601 -0.415,-1.181 -1.24,-1.181 -0.614,0 -1.114,0.375 -1.13,1.015 l 0.425,0 c 0.026,-0.365 0.32,-0.64 0.745,-0.64 0.406,0 0.75,0.275 0.75,0.84 0,0.47 -0.324,0.805 -0.8,0.805 -0.27,0 -0.495,-0.134 -0.66,-0.335 l -0.364,0.02 0.329,1.84 1.75,0 0,-0.375"
         style="fill:#000000;fill-opacity:1;fill-rule:nonzero;stroke:none"
         id="path798"
         inkscape:connector-curvature="0" /><path
         d="m 174.207,261.618 -0.595,0 0,3.557 -1.288,0 0,0.475 c 0.679,0 1.295,0.182 1.428,0.931 l 0.455,0 0,-4.963"
         style="fill:#000000;fill-opacity:1;fill-rule:nonzero;stroke:none"
         id="path800"
         inkscape:connector-curvature="0" /><path
         d="m 177.553,266.581 c 1.554,0 1.652,-1.427 1.652,-2.527 0,-1.091 -0.098,-2.52 -1.652,-2.52 -1.554,0 -1.653,1.429 -1.653,2.52 0,1.1 0.099,2.527 1.653,2.527 z m 0,-4.522 c 1.014,0 1.022,1.261 1.022,2.002 0,0.736 -0.008,1.995 -1.022,1.995 -1.015,0 -1.022,-1.259 -1.022,-1.995 0,-0.741 0.007,-2.002 1.022,-2.002"
         style="fill:#000000;fill-opacity:1;fill-rule:nonzero;stroke:none"
         id="path802"
         inkscape:connector-curvature="0" /><path
         d="m 181.568,266.259 c -0.039,0.319 -0.259,0.529 -0.594,0.529 -0.725,0 -0.84,-0.799 -0.86,-1.344 l 0.01,-0.011 c 0.2,0.326 0.5,0.465 0.885,0.465 0.68,0 1.085,-0.494 1.085,-1.15 0,-0.514 -0.29,-1.19 -1.185,-1.19 -1.051,0 -1.22,0.96 -1.22,1.705 0,0.976 0.294,1.9 1.305,1.9 0.585,0 0.949,-0.33 1,-0.904 l -0.426,0 z m -1.375,-1.536 c 0,-0.44 0.27,-0.79 0.736,-0.79 0.46,0 0.715,0.366 0.715,0.785 0,0.44 -0.23,0.805 -0.715,0.805 -0.475,0 -0.736,-0.355 -0.736,-0.8"
         style="fill:#000000;fill-opacity:1;fill-rule:nonzero;stroke:none"
         id="path804"
         inkscape:connector-curvature="0" /><path
         d="m 211.548,261.618 -0.595,0 0,3.557 -1.288,0 0,0.475 c 0.679,0 1.295,0.182 1.428,0.931 l 0.455,0 0,-4.963"
         style="fill:#000000;fill-opacity:1;fill-rule:nonzero;stroke:none"
         id="path806"
         inkscape:connector-curvature="0" /><path
         d="m 213.529,262.395 0.777,0 0,-0.777 -0.777,0 0,0.777 z"
         style="fill:#000000;fill-opacity:1;fill-rule:nonzero;stroke:none"
         id="path808"
         inkscape:connector-curvature="0" /><path
         d="m 218.184,265.972 -2.002,0 -0.266,-1.428 0.014,-0.013 c 0.217,0.245 0.588,0.356 0.924,0.356 0.882,0 1.603,-0.566 1.603,-1.701 0,-0.84 -0.581,-1.652 -1.736,-1.652 -0.861,0 -1.561,0.525 -1.582,1.421 l 0.595,0 c 0.035,-0.51 0.448,-0.896 1.043,-0.896 0.567,0 1.05,0.386 1.05,1.177 0,0.657 -0.455,1.127 -1.12,1.127 -0.378,0 -0.693,-0.189 -0.924,-0.47 l -0.511,0.029 0.462,2.575 2.45,0 0,-0.525"
         style="fill:#000000;fill-opacity:1;fill-rule:nonzero;stroke:none"
         id="path810"
         inkscape:connector-curvature="0" /><path
         d="m 220.977,263.48 1.54,-1.547 -0.259,-0.258 -1.547,1.553 -1.547,-1.553 -0.259,0.258 1.54,1.547 -1.54,1.548 0.259,0.258 1.547,-1.554 1.547,1.554 0.259,-0.258 -1.54,-1.548"
         style="fill:#000000;fill-opacity:1;fill-rule:nonzero;stroke:none"
         id="path812"
         inkscape:connector-curvature="0" /><path
         d="m 225.121,261.618 -0.595,0 0,3.557 -1.288,0 0,0.475 c 0.679,0 1.295,0.182 1.428,0.931 l 0.455,0 0,-4.963"
         style="fill:#000000;fill-opacity:1;fill-rule:nonzero;stroke:none"
         id="path814"
         inkscape:connector-curvature="0" /><path
         d="m 228.467,266.581 c 1.554,0 1.652,-1.427 1.652,-2.527 0,-1.091 -0.098,-2.52 -1.652,-2.52 -1.554,0 -1.652,1.429 -1.652,2.52 0,1.1 0.098,2.527 1.652,2.527 z m 0,-4.522 c 1.015,0 1.022,1.261 1.022,2.002 0,0.736 -0.007,1.995 -1.022,1.995 -1.015,0 -1.022,-1.259 -1.022,-1.995 0,-0.741 0.007,-2.002 1.022,-2.002"
         style="fill:#000000;fill-opacity:1;fill-rule:nonzero;stroke:none"
         id="path816"
         inkscape:connector-curvature="0" /><path
         d="m 232.483,266.259 c -0.04,0.319 -0.26,0.529 -0.595,0.529 -0.725,0 -0.84,-0.799 -0.86,-1.344 l 0.01,-0.011 c 0.2,0.326 0.5,0.465 0.885,0.465 0.68,0 1.085,-0.494 1.085,-1.15 0,-0.514 -0.29,-1.19 -1.185,-1.19 -1.05,0 -1.22,0.96 -1.22,1.705 0,0.976 0.295,1.9 1.305,1.9 0.585,0 0.95,-0.33 1,-0.904 l -0.425,0 z m -1.375,-1.536 c 0,-0.44 0.27,-0.79 0.735,-0.79 0.46,0 0.715,0.366 0.715,0.785 0,0.44 -0.23,0.805 -0.715,0.805 -0.475,0 -0.735,-0.355 -0.735,-0.8"
         style="fill:#000000;fill-opacity:1;fill-rule:nonzero;stroke:none"
         id="path818"
         inkscape:connector-curvature="0" /><path
         d="m 256.411,264.824 c -0.05,1.008 0.546,1.757 1.596,1.757 0.868,0 1.554,-0.504 1.554,-1.427 0,-0.875 -0.588,-1.316 -1.204,-1.702 -0.623,-0.378 -1.274,-0.692 -1.393,-1.309 l 2.547,0 0,-0.525 -3.24,0 c 0.098,1.176 0.693,1.597 1.393,2.03 0.84,0.518 1.267,0.826 1.267,1.512 0,0.539 -0.434,0.896 -0.959,0.896 -0.694,0 -0.987,-0.637 -0.966,-1.232 l -0.595,0"
         style="fill:#000000;fill-opacity:1;fill-rule:nonzero;stroke:none"
         id="path820"
         inkscape:connector-curvature="0" /><path
         d="m 262.186,263.48 1.54,-1.547 -0.26,-0.258 -1.546,1.553 -1.547,-1.553 -0.26,0.258 1.54,1.547 -1.54,1.548 0.26,0.258 1.547,-1.554 1.546,1.554 0.26,-0.258 -1.54,-1.548"
         style="fill:#000000;fill-opacity:1;fill-rule:nonzero;stroke:none"
         id="path822"
         inkscape:connector-curvature="0" /><path
         d="m 266.33,261.618 -0.595,0 0,3.557 -1.289,0 0,0.475 c 0.68,0 1.295,0.182 1.429,0.931 l 0.455,0 0,-4.963"
         style="fill:#000000;fill-opacity:1;fill-rule:nonzero;stroke:none"
         id="path824"
         inkscape:connector-curvature="0" /><path
         d="m 269.675,266.581 c 1.555,0 1.653,-1.427 1.653,-2.527 0,-1.091 -0.098,-2.52 -1.653,-2.52 -1.553,0 -1.651,1.429 -1.651,2.52 0,1.1 0.098,2.527 1.651,2.527 z m 0,-4.522 c 1.015,0 1.022,1.261 1.022,2.002 0,0.736 -0.007,1.995 -1.022,1.995 -1.014,0 -1.022,-1.259 -1.022,-1.995 0,-0.741 0.008,-2.002 1.022,-2.002"
         style="fill:#000000;fill-opacity:1;fill-rule:nonzero;stroke:none"
         id="path826"
         inkscape:connector-curvature="0" /><path
         d="m 273.691,266.259 c -0.04,0.319 -0.259,0.529 -0.595,0.529 -0.724,0 -0.84,-0.799 -0.86,-1.344 l 0.011,-0.011 c 0.199,0.326 0.5,0.465 0.884,0.465 0.681,0 1.085,-0.494 1.085,-1.15 0,-0.514 -0.29,-1.19 -1.185,-1.19 -1.049,0 -1.219,0.96 -1.219,1.705 0,0.976 0.295,1.9 1.304,1.9 0.585,0 0.95,-0.33 1,-0.904 l -0.425,0 z m -1.375,-1.536 c 0,-0.44 0.27,-0.79 0.735,-0.79 0.46,0 0.716,0.366 0.716,0.785 0,0.44 -0.23,0.805 -0.716,0.805 -0.475,0 -0.735,-0.355 -0.735,-0.8"
         style="fill:#000000;fill-opacity:1;fill-rule:nonzero;stroke:none"
         id="path828"
         inkscape:connector-curvature="0" /><path
         d="m 88.547,129.082 c 1.555,0 1.653,-1.428 1.653,-2.527 0,-1.092 -0.098,-2.52 -1.653,-2.52 -1.553,0 -1.651,1.428 -1.651,2.52 0,1.099 0.098,2.527 1.651,2.527 z m 0,-4.522 c 1.016,0 1.022,1.26 1.022,2.002 0,0.735 -0.006,1.995 -1.022,1.995 -1.014,0 -1.022,-1.26 -1.022,-1.995 0,-0.742 0.008,-2.002 1.022,-2.002"
         style="fill:#000000;fill-opacity:1;fill-rule:nonzero;stroke:none"
         id="path830"
         inkscape:connector-curvature="0" /><path
         d="m 127.01,128.473 -2.002,0 -0.266,-1.428 0.014,-0.014 c 0.217,0.245 0.588,0.357 0.924,0.357 0.881,0 1.603,-0.567 1.603,-1.701 0,-0.84 -0.581,-1.652 -1.736,-1.652 -0.862,0 -1.561,0.525 -1.582,1.421 l 0.594,0 c 0.036,-0.511 0.449,-0.896 1.043,-0.896 0.567,0 1.051,0.385 1.051,1.176 0,0.658 -0.455,1.127 -1.12,1.127 -0.378,0 -0.693,-0.189 -0.924,-0.469 l -0.511,0.028 0.461,2.576 2.451,0 0,-0.525"
         style="fill:#000000;fill-opacity:1;fill-rule:nonzero;stroke:none"
         id="path832"
         inkscape:connector-curvature="0" /><path
         d="m 129.803,125.981 1.54,-1.547 -0.26,-0.259 -1.546,1.554 -1.547,-1.554 -0.26,0.259 1.54,1.547 -1.54,1.547 0.26,0.259 1.547,-1.554 1.546,1.554 0.26,-0.259 -1.54,-1.547"
         style="fill:#000000;fill-opacity:1;fill-rule:nonzero;stroke:none"
         id="path834"
         inkscape:connector-curvature="0" /><path
         d="m 133.947,124.119 -0.596,0 0,3.556 -1.288,0 0,0.476 c 0.68,0 1.295,0.182 1.429,0.931 l 0.455,0 0,-4.963"
         style="fill:#000000;fill-opacity:1;fill-rule:nonzero;stroke:none"
         id="path836"
         inkscape:connector-curvature="0" /><path
         d="m 137.292,129.082 c 1.554,0 1.653,-1.428 1.653,-2.527 0,-1.092 -0.099,-2.52 -1.653,-2.52 -1.553,0 -1.651,1.428 -1.651,2.52 0,1.099 0.098,2.527 1.651,2.527 z m 0,-4.522 c 1.015,0 1.022,1.26 1.022,2.002 0,0.735 -0.007,1.995 -1.022,1.995 -1.014,0 -1.022,-1.26 -1.022,-1.995 0,-0.742 0.008,-2.002 1.022,-2.002"
         style="fill:#000000;fill-opacity:1;fill-rule:nonzero;stroke:none"
         id="path838"
         inkscape:connector-curvature="0" /><path
         d="m 141.588,129.229 -1.43,0 -0.189,-1.02 0.009,-0.01 c 0.156,0.175 0.42,0.255 0.66,0.255 0.63,0 1.145,-0.405 1.145,-1.215 0,-0.6 -0.415,-1.18 -1.24,-1.18 -0.614,0 -1.114,0.375 -1.13,1.015 l 0.425,0 c 0.026,-0.365 0.32,-0.64 0.745,-0.64 0.406,0 0.75,0.275 0.75,0.84 0,0.47 -0.324,0.805 -0.8,0.805 -0.27,0 -0.495,-0.135 -0.66,-0.335 l -0.364,0.02 0.329,1.84 1.75,0 0,-0.375"
         style="fill:#000000;fill-opacity:1;fill-rule:nonzero;stroke:none"
         id="path840"
         inkscape:connector-curvature="0" /><path
         d="m 174.207,124.119 -0.595,0 0,3.556 -1.288,0 0,0.476 c 0.679,0 1.295,0.182 1.428,0.931 l 0.455,0 0,-4.963"
         style="fill:#000000;fill-opacity:1;fill-rule:nonzero;stroke:none"
         id="path842"
         inkscape:connector-curvature="0" /><path
         d="m 177.553,129.082 c 1.554,0 1.652,-1.428 1.652,-2.527 0,-1.092 -0.098,-2.52 -1.652,-2.52 -1.554,0 -1.653,1.428 -1.653,2.52 0,1.099 0.099,2.527 1.653,2.527 z m 0,-4.522 c 1.014,0 1.022,1.26 1.022,2.002 0,0.735 -0.008,1.995 -1.022,1.995 -1.015,0 -1.022,-1.26 -1.022,-1.995 0,-0.742 0.007,-2.002 1.022,-2.002"
         style="fill:#000000;fill-opacity:1;fill-rule:nonzero;stroke:none"
         id="path844"
         inkscape:connector-curvature="0" /><path
         d="m 181.568,128.759 c -0.039,0.32 -0.259,0.53 -0.594,0.53 -0.725,0 -0.84,-0.8 -0.86,-1.345 l 0.01,-0.01 c 0.2,0.325 0.5,0.465 0.885,0.465 0.68,0 1.085,-0.495 1.085,-1.15 0,-0.515 -0.29,-1.19 -1.185,-1.19 -1.051,0 -1.22,0.96 -1.22,1.705 0,0.975 0.294,1.9 1.305,1.9 0.585,0 0.949,-0.33 1,-0.905 l -0.426,0 z m -1.375,-1.535 c 0,-0.44 0.27,-0.79 0.736,-0.79 0.46,0 0.715,0.365 0.715,0.785 0,0.44 -0.23,0.805 -0.715,0.805 -0.475,0 -0.736,-0.355 -0.736,-0.8"
         style="fill:#000000;fill-opacity:1;fill-rule:nonzero;stroke:none"
         id="path846"
         inkscape:connector-curvature="0" /><path
         d="m 211.548,124.119 -0.595,0 0,3.556 -1.288,0 0,0.476 c 0.679,0 1.295,0.182 1.428,0.931 l 0.455,0 0,-4.963"
         style="fill:#000000;fill-opacity:1;fill-rule:nonzero;stroke:none"
         id="path848"
         inkscape:connector-curvature="0" /><path
         d="m 213.529,124.896 0.777,0 0,-0.777 -0.777,0 0,0.777 z"
         style="fill:#000000;fill-opacity:1;fill-rule:nonzero;stroke:none"
         id="path850"
         inkscape:connector-curvature="0" /><path
         d="m 218.184,128.473 -2.002,0 -0.266,-1.428 0.014,-0.014 c 0.217,0.245 0.588,0.357 0.924,0.357 0.882,0 1.603,-0.567 1.603,-1.701 0,-0.84 -0.581,-1.652 -1.736,-1.652 -0.861,0 -1.561,0.525 -1.582,1.421 l 0.595,0 c 0.035,-0.511 0.448,-0.896 1.043,-0.896 0.567,0 1.05,0.385 1.05,1.176 0,0.658 -0.455,1.127 -1.12,1.127 -0.378,0 -0.693,-0.189 -0.924,-0.469 l -0.511,0.028 0.462,2.576 2.45,0 0,-0.525"
         style="fill:#000000;fill-opacity:1;fill-rule:nonzero;stroke:none"
         id="path852"
         inkscape:connector-curvature="0" /><path
         d="m 220.977,125.981 1.54,-1.547 -0.259,-0.259 -1.547,1.554 -1.547,-1.554 -0.259,0.259 1.54,1.547 -1.54,1.547 0.259,0.259 1.547,-1.554 1.547,1.554 0.259,-0.259 -1.54,-1.547"
         style="fill:#000000;fill-opacity:1;fill-rule:nonzero;stroke:none"
         id="path854"
         inkscape:connector-curvature="0" /><path
         d="m 225.121,124.119 -0.595,0 0,3.556 -1.288,0 0,0.476 c 0.679,0 1.295,0.182 1.428,0.931 l 0.455,0 0,-4.963"
         style="fill:#000000;fill-opacity:1;fill-rule:nonzero;stroke:none"
         id="path856"
         inkscape:connector-curvature="0" /><path
         d="m 228.467,129.082 c 1.554,0 1.652,-1.428 1.652,-2.527 0,-1.092 -0.098,-2.52 -1.652,-2.52 -1.554,0 -1.652,1.428 -1.652,2.52 0,1.099 0.098,2.527 1.652,2.527 z m 0,-4.522 c 1.015,0 1.022,1.26 1.022,2.002 0,0.735 -0.007,1.995 -1.022,1.995 -1.015,0 -1.022,-1.26 -1.022,-1.995 0,-0.742 0.007,-2.002 1.022,-2.002"
         style="fill:#000000;fill-opacity:1;fill-rule:nonzero;stroke:none"
         id="path858"
         inkscape:connector-curvature="0" /><path
         d="m 232.483,128.759 c -0.04,0.32 -0.26,0.53 -0.595,0.53 -0.725,0 -0.84,-0.8 -0.86,-1.345 l 0.01,-0.01 c 0.2,0.325 0.5,0.465 0.885,0.465 0.68,0 1.085,-0.495 1.085,-1.15 0,-0.515 -0.29,-1.19 -1.185,-1.19 -1.05,0 -1.22,0.96 -1.22,1.705 0,0.975 0.295,1.9 1.305,1.9 0.585,0 0.95,-0.33 1,-0.905 l -0.425,0 z m -1.375,-1.535 c 0,-0.44 0.27,-0.79 0.735,-0.79 0.46,0 0.715,0.365 0.715,0.785 0,0.44 -0.23,0.805 -0.715,0.805 -0.475,0 -0.735,-0.355 -0.735,-0.8"
         style="fill:#000000;fill-opacity:1;fill-rule:nonzero;stroke:none"
         id="path860"
         inkscape:connector-curvature="0" /><path
         d="m 256.411,127.325 c -0.05,1.008 0.546,1.757 1.596,1.757 0.868,0 1.554,-0.504 1.554,-1.428 0,-0.875 -0.588,-1.316 -1.204,-1.701 -0.623,-0.378 -1.274,-0.693 -1.393,-1.309 l 2.547,0 0,-0.525 -3.24,0 c 0.098,1.176 0.693,1.596 1.393,2.03 0.84,0.518 1.267,0.826 1.267,1.512 0,0.539 -0.434,0.896 -0.959,0.896 -0.694,0 -0.987,-0.637 -0.966,-1.232 l -0.595,0"
         style="fill:#000000;fill-opacity:1;fill-rule:nonzero;stroke:none"
         id="path862"
         inkscape:connector-curvature="0" /><path
         d="m 262.186,125.981 1.54,-1.547 -0.26,-0.259 -1.546,1.554 -1.547,-1.554 -0.26,0.259 1.54,1.547 -1.54,1.547 0.26,0.259 1.547,-1.554 1.546,1.554 0.26,-0.259 -1.54,-1.547"
         style="fill:#000000;fill-opacity:1;fill-rule:nonzero;stroke:none"
         id="path864"
         inkscape:connector-curvature="0" /><path
         d="m 266.33,124.119 -0.595,0 0,3.556 -1.289,0 0,0.476 c 0.68,0 1.295,0.182 1.429,0.931 l 0.455,0 0,-4.963"
         style="fill:#000000;fill-opacity:1;fill-rule:nonzero;stroke:none"
         id="path866"
         inkscape:connector-curvature="0" /><path
         d="m 269.675,129.082 c 1.555,0 1.653,-1.428 1.653,-2.527 0,-1.092 -0.098,-2.52 -1.653,-2.52 -1.553,0 -1.651,1.428 -1.651,2.52 0,1.099 0.098,2.527 1.651,2.527 z m 0,-4.522 c 1.015,0 1.022,1.26 1.022,2.002 0,0.735 -0.007,1.995 -1.022,1.995 -1.014,0 -1.022,-1.26 -1.022,-1.995 0,-0.742 0.008,-2.002 1.022,-2.002"
         style="fill:#000000;fill-opacity:1;fill-rule:nonzero;stroke:none"
         id="path868"
         inkscape:connector-curvature="0" /><path
         d="m 273.691,128.759 c -0.04,0.32 -0.259,0.53 -0.595,0.53 -0.724,0 -0.84,-0.8 -0.86,-1.345 l 0.011,-0.01 c 0.199,0.325 0.5,0.465 0.884,0.465 0.681,0 1.085,-0.495 1.085,-1.15 0,-0.515 -0.29,-1.19 -1.185,-1.19 -1.049,0 -1.219,0.96 -1.219,1.705 0,0.975 0.295,1.9 1.304,1.9 0.585,0 0.95,-0.33 1,-0.905 l -0.425,0 z m -1.375,-1.535 c 0,-0.44 0.27,-0.79 0.735,-0.79 0.46,0 0.716,0.365 0.716,0.785 0,0.44 -0.23,0.805 -0.716,0.805 -0.475,0 -0.735,-0.355 -0.735,-0.8"
         style="fill:#000000;fill-opacity:1;fill-rule:nonzero;stroke:none"
         id="path870"
         inkscape:connector-curvature="0" /><path
         d="m 62.452,248.939 1.584,0 0,-2.016 0.016,0 c 0.24,0.352 0.664,0.56 1.136,0.56 1.392,0 1.768,-1.184 1.768,-2.159 0,-1.04 -0.568,-2.201 -1.744,-2.201 -0.776,0 -1.016,0.296 -1.216,0.56 l -0.016,0 0,-0.456 -1.528,0 0,5.712 z m 2.224,-2.608 c -0.568,0 -0.696,-0.536 -0.696,-1.024 0,-0.496 0.128,-1.032 0.696,-1.032 0.568,0 0.696,0.536 0.696,1.032 0,0.488 -0.128,1.024 -0.696,1.024"
         style="fill:#000000;fill-opacity:1;fill-rule:nonzero;stroke:none"
         id="path872"
         inkscape:connector-curvature="0" /><path
         d="m 78.202,242.869 -0.595,0 0,3.557 -1.288,0 0,0.475 c 0.679,0 1.295,0.182 1.428,0.931 l 0.455,0 0,-4.963"
         style="fill:#000000;fill-opacity:1;fill-rule:nonzero;stroke:none"
         id="path874"
         inkscape:connector-curvature="0" /><path
         d="m 80.183,243.646 0.777,0 0,-0.777 -0.777,0 0,0.777 z"
         style="fill:#000000;fill-opacity:1;fill-rule:nonzero;stroke:none"
         id="path876"
         inkscape:connector-curvature="0" /><path
         d="m 83.494,247.832 c 1.554,0 1.652,-1.427 1.652,-2.526 0,-1.092 -0.098,-2.521 -1.652,-2.521 -1.554,0 -1.652,1.429 -1.652,2.521 0,1.099 0.098,2.526 1.652,2.526 z m 0,-4.522 c 1.015,0 1.022,1.261 1.022,2.002 0,0.736 -0.007,1.995 -1.022,1.995 -1.015,0 -1.022,-1.259 -1.022,-1.995 0,-0.741 0.007,-2.002 1.022,-2.002"
         style="fill:#000000;fill-opacity:1;fill-rule:nonzero;stroke:none"
         id="path878"
         inkscape:connector-curvature="0" /><path
         d="m 77.462,384.746 c -0.049,1.008 0.546,1.757 1.596,1.757 0.868,0 1.554,-0.504 1.554,-1.428 0,-0.875 -0.588,-1.316 -1.204,-1.701 -0.623,-0.378 -1.274,-0.693 -1.393,-1.309 l 2.548,0 0,-0.525 -3.241,0 c 0.098,1.176 0.693,1.596 1.393,2.03 0.84,0.518 1.267,0.826 1.267,1.512 0,0.539 -0.434,0.896 -0.959,0.896 -0.693,0 -0.987,-0.637 -0.966,-1.232 l -0.595,0"
         style="fill:#000000;fill-opacity:1;fill-rule:nonzero;stroke:none"
         id="path880"
         inkscape:connector-curvature="0" /><path
         d="m 81.627,382.317 0.777,0 0,-0.777 -0.777,0 0,0.777 z"
         style="fill:#000000;fill-opacity:1;fill-rule:nonzero;stroke:none"
         id="path882"
         inkscape:connector-curvature="0" /><path
         d="m 83.3,384.746 c -0.049,1.008 0.546,1.757 1.596,1.757 0.868,0 1.554,-0.504 1.554,-1.428 0,-0.875 -0.588,-1.316 -1.204,-1.701 -0.623,-0.378 -1.274,-0.693 -1.393,-1.309 l 2.548,0 0,-0.525 -3.241,0 c 0.098,1.176 0.693,1.596 1.393,2.03 0.84,0.518 1.267,0.826 1.267,1.512 0,0.539 -0.434,0.896 -0.959,0.896 -0.693,0 -0.987,-0.637 -0.966,-1.232 l -0.595,0"
         style="fill:#000000;fill-opacity:1;fill-rule:nonzero;stroke:none"
         id="path884"
         inkscape:connector-curvature="0" /><path
         d="m 66.5,382.826 c 0,-0.312 0.016,-0.664 0.192,-0.928 l -1.616,0 c -0.04,0.112 -0.064,0.28 -0.056,0.392 l -0.016,0 c -0.336,-0.384 -0.824,-0.496 -1.336,-0.496 -0.8,0 -1.464,0.384 -1.464,1.256 0,1.312 1.536,1.264 2.344,1.416 0.216,0.04 0.432,0.104 0.432,0.368 0,0.28 -0.264,0.384 -0.52,0.384 -0.488,0 -0.584,-0.248 -0.592,-0.424 l -1.472,0 c 0.048,1.168 1.152,1.36 2.136,1.36 1.984,0 1.968,-0.824 1.968,-1.624 l 0,-1.704 z m -1.52,0.936 c -0.192,-0.096 -0.408,-0.152 -0.624,-0.2 -0.352,-0.08 -0.536,-0.168 -0.536,-0.448 0,-0.192 0.208,-0.384 0.496,-0.384 0.36,0 0.64,0.216 0.664,0.648 l 0,0.384"
         style="fill:#000000;fill-opacity:1;fill-rule:nonzero;stroke:none"
         id="path886"
         inkscape:connector-curvature="0" /></g></g></svg>