<?xml version="1.0" encoding="UTF-8" standalone="no"?>
<!-- Created with Inkscape (http://www.inkscape.org/) -->

<svg
   xmlns:dc="http://purl.org/dc/elements/1.1/"
   xmlns:cc="http://creativecommons.org/ns#"
   xmlns:rdf="http://www.w3.org/1999/02/22-rdf-syntax-ns#"
   xmlns:svg="http://www.w3.org/2000/svg"
   xmlns="http://www.w3.org/2000/svg"
   xmlns:sodipodi="http://sodipodi.sourceforge.net/DTD/sodipodi-0.dtd"
   xmlns:inkscape="http://www.inkscape.org/namespaces/inkscape"
   id="svg2"
   version="1.1"
   inkscape:version="0.48.4 r9939"
   width="302.50806"
   height="393.81467"
   xml:space="preserve"
   sodipodi:docname="Tsiganis2005.pdf"><metadata
     id="metadata8"><rdf:RDF><cc:Work
         rdf:about=""><dc:format>image/svg+xml</dc:format><dc:type
           rdf:resource="http://purl.org/dc/dcmitype/StillImage" /><dc:title></dc:title></cc:Work></rdf:RDF></metadata><defs
     id="defs6"><clipPath
       clipPathUnits="userSpaceOnUse"
       id="clipPath1252"><path
         d="m 0,782.362 595.275,0 0,-782.302 L 0,0.06 0,782.362 z"
         id="path1254"
         inkscape:connector-curvature="0" /></clipPath></defs><sodipodi:namedview
     pagecolor="#ffffff"
     bordercolor="#666666"
     borderopacity="1"
     objecttolerance="10"
     gridtolerance="10"
     guidetolerance="10"
     inkscape:pageopacity="0"
     inkscape:pageshadow="2"
     inkscape:window-width="1280"
     inkscape:window-height="951"
     id="namedview4"
     showgrid="false"
     fit-margin-top="5"
     fit-margin-right="5"
     fit-margin-bottom="5"
     fit-margin-left="5"
     inkscape:zoom="0.68"
     inkscape:cx="10.028581"
     inkscape:cy="281.9"
     inkscape:window-x="0"
     inkscape:window-y="25"
     inkscape:window-maximized="1"
     inkscape:current-layer="g10" /><g
     id="g10"
     inkscape:groupmode="layer"
     inkscape:label="Tsiganis2005"
     transform="matrix(1.25,0,0,-1.25,-380.86125,606.91467)"><path
       inkscape:connector-curvature="0"
       id="path844"
       style="fill:none;stroke:#000000;stroke-width:0.5;stroke-linecap:round;stroke-linejoin:round;stroke-miterlimit:10;stroke-opacity:1;stroke-dasharray:none"
       d="m 336.431,346.706 206.008,0 m -206.008,0 0,5.682 m 5.722,-5.682 0,2.838 m 5.723,-2.838 0,2.838 m 5.722,-2.838 0,2.838 m 5.723,-2.838 0,2.838 m 5.722,-2.838 0,5.682 m 5.722,-5.682 0,2.838 m 5.722,-2.838 0,2.838 m 5.724,-2.838 0,2.838 m 5.72,-2.838 0,2.838 m 5.722,-2.838 0,5.682 m 5.725,-5.682 0,2.838 m 5.723,-2.838 0,2.838 m 5.721,-2.838 0,2.838 m 5.722,-2.838 0,2.838 m 5.722,-2.838 0,5.682 m 5.722,-5.682 0,2.838 m 5.724,-2.838 0,2.838 m 5.721,-2.838 0,2.838 m 5.723,-2.838 0,2.838 m 5.724,-2.838 0,5.682 m 5.721,-5.682 0,2.838 m 5.723,-2.838 0,2.838 m 5.72,-2.838 0,2.838 m 5.725,-2.838 0,2.838 m 5.72,-2.838 0,5.682 m 5.724,-5.682 0,2.838 m 5.721,-2.838 0,2.838 m 5.724,-2.838 0,2.838 m 5.722,-2.838 0,2.838 m 5.723,-2.838 0,5.682 m 5.718,-5.682 0,2.838 m 5.724,-2.838 0,2.838 m 5.724,-2.838 0,2.838 m 5.723,-2.838 0,2.838 m 5.723,-2.838 0,5.682 m 5.724,-5.682 0,2.838 m -206.008,131.73 206.008,0 m -206.008,0 0,-5.68 m 5.722,5.68 0,-2.838 m 5.723,2.838 0,-2.838 m 5.722,2.838 0,-2.838 m 5.723,2.838 0,-2.838 m 5.722,2.838 0,-5.68 m 5.722,5.68 0,-2.838 m 5.722,2.838 0,-2.838 m 5.724,2.838 0,-2.838 m 5.72,2.838 0,-2.838 m 5.722,2.838 0,-5.68 m 5.725,5.68 0,-2.838 m 5.723,2.838 0,-2.838 m 5.721,2.838 0,-2.838 m 5.722,2.838 0,-2.838 m 5.722,2.838 0,-5.68 m 5.722,5.68 0,-2.838 m 5.724,2.838 0,-2.838 m 5.721,2.838 0,-2.838 m 5.723,2.838 0,-2.838 m 5.724,2.838 0,-5.68 m 5.721,5.68 0,-2.838 m 5.723,2.838 0,-2.838 m 5.72,2.838 0,-2.838 m 5.725,2.838 0,-2.838 m 5.72,2.838 0,-5.68 m 5.724,5.68 0,-2.838 m 5.721,2.838 0,-2.838 m 5.724,2.838 0,-2.838 m 5.722,2.838 0,-2.838 m 5.723,2.838 0,-5.68 m 5.718,5.68 0,-2.838 m 5.724,2.838 0,-2.838 m 5.724,2.838 0,-2.838 m 5.723,2.838 0,-2.838 m 5.723,2.838 0,-5.68 m 5.724,5.68 0,-2.838 m -206.008,-131.73 0,134.568 m 0,-134.568 5.679,0 m -5.679,8.412 2.837,0 m -2.837,8.409 2.837,0 m -2.837,8.412 2.837,0 m -2.837,8.411 2.837,0 m -2.837,8.412 5.679,0 m -5.679,8.407 2.837,0 m -2.837,8.412 2.837,0 m -2.837,8.412 2.837,0 m -2.837,8.406 2.837,0 m -2.837,8.413 5.679,0 m -5.679,8.412 2.837,0 m -2.837,8.406 2.837,0 m -2.837,8.412 2.837,0 m -2.837,8.413 2.837,0 m -2.837,8.407 5.679,0 m -5.679,8.412 2.837,0" /><path
       inkscape:connector-curvature="0"
       id="path846"
       style="fill:none;stroke:#000000;stroke-width:0.5;stroke-linecap:round;stroke-linejoin:round;stroke-miterlimit:10;stroke-opacity:1;stroke-dasharray:none"
       d="m 542.439,346.706 0,134.568 m 0,-134.568 -5.681,0 m 5.681,8.412 -2.841,0 m 2.841,8.409 -2.841,0 m 2.841,8.412 -2.841,0 m 2.841,8.411 -2.841,0 m 2.841,8.412 -5.681,0 m 5.681,8.407 -2.841,0 m 2.841,8.412 -2.841,0 m 2.841,8.412 -2.841,0 m 2.841,8.406 -2.841,0 m 2.841,8.413 -5.681,0 m 5.681,8.412 -2.841,0 m 2.841,8.406 -2.841,0 m 2.841,8.412 -2.841,0 m 2.841,8.413 -2.841,0 m 2.841,8.407 -5.681,0 m 5.681,8.412 -2.841,0" /><path
       inkscape:connector-curvature="0"
       id="path848"
       style="fill:none;stroke:#888888;stroke-width:0.5;stroke-linecap:round;stroke-linejoin:round;stroke-miterlimit:10;stroke-opacity:1;stroke-dasharray:none"
       d="m 367.966,363.564 c 0,1.045 -0.85,1.893 -1.894,1.893 -1.044,0 -1.893,-0.848 -1.893,-1.893 0,-1.045 0.849,-1.893 1.893,-1.893 1.044,0 1.894,0.848 1.894,1.893 m 22.716,8.354 c 0,1.046 -0.847,1.895 -1.892,1.895 -1.045,0 -1.893,-0.849 -1.893,-1.895 0,-1.044 0.848,-1.892 1.893,-1.892 1.045,0 1.892,0.848 1.892,1.892 m 47.671,10.988 c 0,1.045 -0.85,1.893 -1.898,1.893 -1.042,0 -1.89,-0.848 -1.89,-1.893 0,-1.045 0.848,-1.893 1.89,-1.893 1.048,0 1.898,0.848 1.898,1.893 m 72.216,-7.554 c 0,1.045 -0.849,1.893 -1.896,1.893 -1.043,0 -1.892,-0.848 -1.892,-1.893 0,-1.044 0.849,-1.893 1.892,-1.893 1.047,0 1.896,0.849 1.896,1.893 m -144.525,-11.825 0.632,0 m 0,1.883 0,-3.768 0,3.768 z m 22.12,6.529 1.735,0 m 0,1.882 0,-3.767 0,3.767 z m 45.937,9.052 7.92,0 m 0,1.884 0,-3.769 0,3.769 z m 64.336,-9.452 11.998,0 m 0,1.884 0,-3.768 0,3.768 z m -154.678,-13.662 -0.636,0 m 0,1.883 0,-3.768 0,3.768 z m 23.388,6.529 -1.732,0 m 0,1.882 0,-3.767 0,3.767 z m 49.404,9.052 -7.917,0 m 0,1.884 0,-3.769 0,3.769 z m 80.173,-9.452 -12.004,0 m 0,1.884 0,-3.768 0,3.768 z m -130.676,-13.662 0,8.412 m 1.884,0 -3.768,0 3.768,0 z m 20.868,0 0,14.296 m 1.882,0 -3.767,0 3.767,0 z m 45.79,-3.362 0,30.276 m 1.885,0 -3.769,0 3.769,0 z m 70.371,-37.844 0,21.024 m 1.882,0 -3.767,0 3.767,0 z m -144.562,-32.802 0,-8.409 m 1.884,0 -3.768,0 3.768,0 z m 20.868,16.821 0,-14.298 m 1.882,0 -3.767,0 3.767,0 z m 45.79,25.232 0,-30.278 m 1.885,0 -3.769,0 3.769,0 z m 70.371,22.71 0,-21.03 m 1.882,0 -3.767,0 3.767,0 z" /><path
       inkscape:connector-curvature="0"
       id="path850"
       style="fill:none;stroke:#000000;stroke-width:0.5;stroke-linecap:round;stroke-linejoin:round;stroke-miterlimit:10;stroke-opacity:1;stroke-dasharray:none"
       d="m 367.966,383.708 c 0,1.045 -0.85,1.892 -1.894,1.892 -1.044,0 -1.893,-0.847 -1.893,-1.892 0,-1.046 0.849,-1.894 1.893,-1.894 1.044,0 1.894,0.848 1.894,1.894 m 22.145,29.413 c 0,1.044 -0.847,1.893 -1.894,1.893 -1.044,0 -1.892,-0.849 -1.892,-1.893 0,-1.046 0.848,-1.894 1.892,-1.894 1.047,0 1.894,0.848 1.894,1.894 m 58.767,-3.32 c 0,1.045 -0.845,1.892 -1.891,1.892 -1.047,0 -1.893,-0.847 -1.893,-1.892 0,-1.044 0.846,-1.892 1.893,-1.892 1.046,0 1.891,0.848 1.891,1.892 m 60.316,-21.859 c 0,1.044 -0.846,1.893 -1.892,1.893 -1.047,0 -1.892,-0.849 -1.892,-1.893 0,-1.045 0.845,-1.895 1.892,-1.895 1.046,0 1.892,0.85 1.892,1.895 m -143.126,-4.23 0.434,0 m 0,1.884 0,-3.768 0,3.768 z m 21.721,27.553 2.274,0 m 0,1.882 0,-3.766 0,3.766 z m 56.493,-5.245 7.171,0 m 0,1.883 0,-3.766 0,3.766 z m 53.121,-23.75 13.887,0 m 0,1.882 0,-3.767 0,3.767 z m -155.101,-6.089 -0.435,0 m 0,1.884 0,-3.768 0,3.768 z m 22.59,27.553 -2.271,0 m 0,1.882 0,-3.766 0,3.766 z m 61.038,-5.245 -7.16,0 m 0,1.883 0,-3.766 0,3.766 z m 67.452,-23.75 -13.882,0 m 0,1.882 0,-3.767 0,3.767 z m -127.332,-6.089 0,20.186 m 1.884,0 -3.768,0 3.768,0 z m 20.271,9.251 0,33.642 m 1.884,0 -3.769,0 3.769,0 z m 56.883,-37.005 0,48.78 m 1.885,0 -3.767,0 3.767,0 z m 58.407,-70.647 0,34.48 m 1.883,0 -3.767,0 3.767,0 z m -143.097,-38.687 0,-20.185 m 1.884,0 -3.768,0 3.768,0 z m 20.271,49.622 0,-33.642 m 1.884,0 -3.769,0 3.769,0 z m 56.883,30.279 0,-48.783 m 1.885,0 -3.767,0 3.767,0 z m 58.407,26.916 0,-34.484 m 1.883,0 -3.767,0 3.767,0 z" /><path
       inkscape:connector-curvature="0"
       id="path852"
       style="fill:#000000;fill-opacity:1;fill-rule:nonzero;stroke:none"
       d="m 368.08,398.815 c 0,1.044 -0.849,1.893 -1.893,1.893 -1.046,0 -1.893,-0.849 -1.893,-1.893 0,-1.044 0.847,-1.894 1.893,-1.894 1.044,0 1.893,0.85 1.893,1.894" /><path
       inkscape:connector-curvature="0"
       id="path854"
       style="fill:#000000;fill-opacity:1;fill-rule:nonzero;stroke:none"
       d="m 393.029,421.588 c 0,1.047 -0.847,1.894 -1.892,1.894 -1.047,0 -1.894,-0.847 -1.894,-1.894 0,-1.044 0.847,-1.891 1.894,-1.891 1.045,0 1.892,0.847 1.892,1.891" /><path
       inkscape:connector-curvature="0"
       id="path856"
       style="fill:#000000;fill-opacity:1;fill-rule:nonzero;stroke:none"
       d="m 448.309,411.459 c 0,1.047 -0.851,1.895 -1.895,1.895 -1.045,0 -1.892,-0.848 -1.892,-1.895 0,-1.043 0.847,-1.891 1.892,-1.891 1.044,0 1.895,0.848 1.895,1.891" /><path
       inkscape:connector-curvature="0"
       id="path858"
       style="fill:#000000;fill-opacity:1;fill-rule:nonzero;stroke:none"
       d="m 510.623,365.166 c 0,1.044 -0.846,1.894 -1.892,1.894 -1.044,0 -1.892,-0.85 -1.892,-1.894 0,-1.044 0.848,-1.892 1.892,-1.892 1.046,0 1.892,0.848 1.892,1.892" /><path
       inkscape:connector-curvature="0"
       id="path860"
       style="fill:none;stroke:#000000;stroke-width:0.5;stroke-linecap:round;stroke-linejoin:round;stroke-miterlimit:10;stroke-opacity:1;stroke-dasharray:none"
       d="m 336.431,194.932 206.008,0 m -206.008,0 0,5.68 m 5.722,-5.68 0,2.837 m 5.723,-2.837 0,2.837 m 5.722,-2.837 0,2.837 m 5.723,-2.837 0,2.837 m 5.722,-2.837 0,5.68 m 5.722,-5.68 0,2.837 m 5.722,-2.837 0,2.837 m 5.724,-2.837 0,2.837 m 5.72,-2.837 0,2.837 m 5.722,-2.837 0,5.68 m 5.725,-5.68 0,2.837 m 5.723,-2.837 0,2.837 m 5.721,-2.837 0,2.837 m 5.722,-2.837 0,2.837 m 5.722,-2.837 0,5.68 m 5.722,-5.68 0,2.837 m 5.724,-2.837 0,2.837 m 5.721,-2.837 0,2.837 m 5.723,-2.837 0,2.837 m 5.724,-2.837 0,5.68 m 5.721,-5.68 0,2.837 m 5.723,-2.837 0,2.837 m 5.72,-2.837 0,2.837 m 5.725,-2.837 0,2.837 m 5.72,-2.837 0,5.68 m 5.724,-5.68 0,2.837 m 5.721,-2.837 0,2.837 m 5.724,-2.837 0,2.837 m 5.722,-2.837 0,2.837 m 5.723,-2.837 0,5.68 m 5.718,-5.68 0,2.837 m 5.724,-2.837 0,2.837 m 5.724,-2.837 0,2.837 m 5.723,-2.837 0,2.837 m 5.723,-2.837 0,5.68 m 5.724,-5.68 0,2.837 m -206.008,131.73 206.008,0 m -206.008,0 0,-5.681 m 5.722,5.681 0,-2.839 m 5.723,2.839 0,-2.839 m 5.722,2.839 0,-2.839 m 5.723,2.839 0,-2.839 m 5.722,2.839 0,-5.681 m 5.722,5.681 0,-2.839 m 5.722,2.839 0,-2.839 m 5.724,2.839 0,-2.839 m 5.72,2.839 0,-2.839 m 5.722,2.839 0,-5.681 m 5.725,5.681 0,-2.839 m 5.723,2.839 0,-2.839 m 5.721,2.839 0,-2.839 m 5.722,2.839 0,-2.839 m 5.722,2.839 0,-5.681 m 5.722,5.681 0,-2.839 m 5.724,2.839 0,-2.839 m 5.721,2.839 0,-2.839 m 5.723,2.839 0,-2.839 m 5.724,2.839 0,-5.681 m 5.721,5.681 0,-2.839 m 5.723,2.839 0,-2.839 m 5.72,2.839 0,-2.839 m 5.725,2.839 0,-2.839 m 5.72,2.839 0,-5.681 m 5.724,5.681 0,-2.839 m 5.721,2.839 0,-2.839 m 5.724,2.839 0,-2.839 m 5.722,2.839 0,-2.839 m 5.723,2.839 0,-5.681 m 5.718,5.681 0,-2.839 m 5.724,2.839 0,-2.839 m 5.724,2.839 0,-2.839 m 5.723,2.839 0,-2.839 m 5.723,2.839 0,-5.681 m 5.724,5.681 0,-2.839 m -206.008,-131.728 0,134.567 m 0,-134.567 5.679,0 m -5.679,8.968 2.837,0 m -2.837,8.976 2.837,0 m -2.837,8.971 2.837,0 m -2.837,8.969 2.837,0 m -2.837,8.971 5.679,0 m -5.679,8.974 2.837,0 m -2.837,8.968 2.837,0 m -2.837,8.972 2.837,0 m -2.837,8.968 2.837,0 m -2.837,8.977 5.679,0 m -5.679,8.969 2.837,0 m -2.837,8.969 2.837,0 m -2.837,8.97 2.837,0 m -2.837,8.973 2.837,0 m -2.837,8.972 5.679,0" /><path
       inkscape:connector-curvature="0"
       id="path862"
       style="fill:none;stroke:#000000;stroke-width:0.5;stroke-linecap:round;stroke-linejoin:round;stroke-miterlimit:10;stroke-opacity:1;stroke-dasharray:none"
       d="m 542.439,194.932 0,134.567 m 0,-134.567 -5.681,0 m 5.681,8.968 -2.841,0 m 2.841,8.976 -2.841,0 m 2.841,8.971 -2.841,0 m 2.841,8.969 -2.841,0 m 2.841,8.971 -5.681,0 m 5.681,8.974 -2.841,0 m 2.841,8.968 -2.841,0 m 2.841,8.972 -2.841,0 m 2.841,8.968 -2.841,0 m 2.841,8.977 -5.681,0 m 5.681,8.969 -2.841,0 m 2.841,8.969 -2.841,0 m 2.841,8.97 -2.841,0 m 2.841,8.973 -2.841,0 m 2.841,8.972 -5.681,0" /><path
       inkscape:connector-curvature="0"
       id="path864"
       style="fill:none;stroke:#888888;stroke-width:0.5;stroke-linecap:round;stroke-linejoin:round;stroke-miterlimit:10;stroke-opacity:1;stroke-dasharray:none"
       d="m 367.966,194.932 c 0,1.047 -0.85,1.894 -1.894,1.894 -1.044,0 -1.893,-0.847 -1.893,-1.894 0,-1.044 0.849,-1.891 1.893,-1.891 1.044,0 1.894,0.847 1.894,1.891 m 22.716,29.127 c 0,1.044 -0.847,1.893 -1.892,1.893 -1.045,0 -1.893,-0.849 -1.893,-1.893 0,-1.048 0.848,-1.893 1.893,-1.893 1.045,0 1.892,0.845 1.892,1.893 m 47.671,17.969 c 0,1.044 -0.85,1.896 -1.898,1.896 -1.042,0 -1.89,-0.852 -1.89,-1.896 0,-1.047 0.848,-1.895 1.89,-1.895 1.048,0 1.898,0.848 1.898,1.895 m 72.216,3.433 c 0,1.043 -0.849,1.893 -1.896,1.893 -1.043,0 -1.892,-0.85 -1.892,-1.893 0,-1.045 0.849,-1.894 1.892,-1.894 1.047,0 1.896,0.849 1.896,1.894 m -144.525,-50.529 0.632,0 m 0,1.883 0,-3.768 0,3.768 z m 22.12,27.273 1.735,0 m 0,1.882 0,-3.766 0,3.766 z m 45.937,16.105 7.92,0 m 0,1.882 0,-3.766 0,3.766 z m 64.336,1.478 11.998,0 m 0,1.886 0,-3.768 0,3.768 z m -154.678,-52.389 -0.636,0 m 0,1.883 0,-3.768 0,3.768 z m 23.388,27.273 -1.732,0 m 0,1.882 0,-3.766 0,3.766 z m 49.404,16.105 -7.917,0 m 0,1.882 0,-3.766 0,3.766 z m 80.173,1.478 -12.004,0 m 0,1.886 0,-3.768 0,3.768 z m -130.676,-52.389 0,0 m 1.884,0 -3.768,0 3.768,0 z m 20.868,29.156 0,21.485 m 1.882,0 -3.767,0 3.767,0 z m 45.79,-3.498 0,28.666 m 1.885,0 -3.769,0 3.769,0 z m 70.371,-25.306 0,41.272 m 1.882,0 -3.767,0 3.767,0 z m -144.562,-91.775 0,0 m 1.884,0 -3.768,0 3.768,0 z m 20.868,29.156 0,-21.489 m 1.882,0 -3.767,0 3.767,0 z m 45.79,39.476 0,-28.667 m 1.885,0 -3.769,0 3.769,0 z m 70.371,32.027 0,-41.26 m 1.882,0 -3.767,0 3.767,0 z" /><path
       inkscape:connector-curvature="0"
       id="path866"
       style="fill:none;stroke:#000000;stroke-width:0.5;stroke-linecap:round;stroke-linejoin:round;stroke-miterlimit:10;stroke-opacity:1;stroke-dasharray:none"
       d="m 367.966,194.932 c 0,1.047 -0.85,1.894 -1.894,1.894 -1.044,0 -1.893,-0.847 -1.893,-1.894 0,-1.044 0.849,-1.891 1.893,-1.891 1.044,0 1.894,0.847 1.894,1.891 m 22.145,56.651 c 0,1.047 -0.847,1.893 -1.894,1.893 -1.044,0 -1.892,-0.846 -1.892,-1.893 0,-1.045 0.848,-1.891 1.892,-1.891 1.047,0 1.894,0.846 1.894,1.891 m 58.767,8.526 c 0,1.047 -0.845,1.893 -1.891,1.893 -1.047,0 -1.893,-0.846 -1.893,-1.893 0,-1.046 0.846,-1.893 1.893,-1.893 1.046,0 1.891,0.847 1.891,1.893 m 60.316,-15.793 c 0,1.046 -0.846,1.894 -1.892,1.894 -1.047,0 -1.892,-0.848 -1.892,-1.894 0,-1.046 0.845,-1.892 1.892,-1.892 1.046,0 1.892,0.846 1.892,1.892 m -143.126,-49.384 0.434,0 m 0,1.883 0,-3.768 0,3.768 z m 21.721,54.768 2.274,0 m 0,1.884 0,-3.766 0,3.766 z m 56.493,6.598 7.171,0 m 0,1.881 0,-3.768 0,3.768 z m 53.121,-17.63 13.887,0 m 0,1.884 0,-3.768 0,3.768 z m -155.101,-51.268 -0.435,0 m 0,1.883 0,-3.768 0,3.768 z m 22.59,54.768 -2.271,0 m 0,1.884 0,-3.766 0,3.766 z m 61.038,6.598 -7.16,0 m 0,1.881 0,-3.768 0,3.768 z m 67.452,-17.63 -13.882,0 m 0,1.884 0,-3.768 0,3.768 z m -127.332,-51.268 0,0 m 1.884,0 -3.768,0 3.768,0 z m 20.271,56.651 0,27.232 m 1.884,0 -3.769,0 3.769,0 z m 56.883,-18.75 0,54.9 m 1.885,0 -3.767,0 3.767,0 z m 58.407,-70.649 0,30.954 m 1.883,0 -3.767,0 3.767,0 z m -143.097,-80.338 0,0 m 1.884,0 -3.768,0 3.768,0 z m 20.271,56.651 0,-27.222 m 1.884,0 -3.769,0 3.769,0 z m 56.883,35.704 0,-54.906 m 1.885,0 -3.767,0 3.767,0 z m 58.407,39.157 0,-30.947 m 1.883,0 -3.767,0 3.767,0 z" /><path
       inkscape:connector-curvature="0"
       id="path868"
       style="fill:#000000;fill-opacity:1;fill-rule:nonzero;stroke:none"
       d="m 368.08,194.932 c 0,1.047 -0.849,1.894 -1.893,1.894 -1.046,0 -1.893,-0.847 -1.893,-1.894 0,-1.044 0.847,-1.891 1.893,-1.891 1.044,0 1.893,0.847 1.893,1.891" /><path
       inkscape:connector-curvature="0"
       id="path870"
       style="fill:#000000;fill-opacity:1;fill-rule:nonzero;stroke:none"
       d="m 393.029,252.786 c 0,1.044 -0.847,1.894 -1.892,1.894 -1.047,0 -1.894,-0.85 -1.894,-1.894 0,-1.046 0.847,-1.894 1.894,-1.894 1.045,0 1.892,0.848 1.892,1.894" /><path
       inkscape:connector-curvature="0"
       id="path872"
       style="fill:#000000;fill-opacity:1;fill-rule:nonzero;stroke:none"
       d="m 448.309,264.46 c 0,1.045 -0.851,1.892 -1.895,1.892 -1.045,0 -1.892,-0.847 -1.892,-1.892 0,-1.047 0.847,-1.894 1.892,-1.894 1.044,0 1.895,0.847 1.895,1.894" /><path
       inkscape:connector-curvature="0"
       id="path874"
       style="fill:#000000;fill-opacity:1;fill-rule:nonzero;stroke:none"
       d="m 510.623,246.95 c 0,1.044 -0.846,1.89 -1.892,1.89 -1.044,0 -1.892,-0.846 -1.892,-1.89 0,-1.047 0.848,-1.896 1.892,-1.896 1.046,0 1.892,0.849 1.892,1.896" /><path
       inkscape:connector-curvature="0"
       id="path876"
       style="fill:#000000;fill-opacity:1;fill-rule:nonzero;stroke:none"
       d="m 365.86,191.503 -2.002,0 -0.266,-1.428 0.014,-0.014 c 0.217,0.245 0.588,0.357 0.924,0.357 0.882,0 1.603,-0.567 1.603,-1.701 0,-0.84 -0.581,-1.652 -1.736,-1.652 -0.861,0 -1.561,0.526 -1.582,1.421 l 0.595,0 c 0.035,-0.511 0.448,-0.895 1.043,-0.895 0.567,0 1.05,0.384 1.05,1.175 0,0.658 -0.455,1.127 -1.12,1.127 -0.378,0 -0.693,-0.189 -0.924,-0.469 l -0.511,0.028 0.462,2.576 2.45,0 0,-0.525" /><path
       inkscape:connector-curvature="0"
       id="path878"
       style="fill:#000000;fill-opacity:1;fill-rule:nonzero;stroke:none"
       d="m 392.691,192.112 -0.455,0 c -0.132,-0.749 -0.749,-0.931 -1.428,-0.931 l 0,-0.476 1.288,0 0,-3.556 0.595,0 0,4.963" /><path
       inkscape:connector-curvature="0"
       id="path880"
       style="fill:#000000;fill-opacity:1;fill-rule:nonzero;stroke:none"
       d="m 396.037,192.112 c 1.554,0 1.653,-1.428 1.653,-2.527 0,-1.092 -0.099,-2.52 -1.653,-2.52 -1.554,0 -1.652,1.428 -1.652,2.52 0,1.099 0.098,2.527 1.652,2.527 z m 0,-4.521 c 1.015,0 1.022,1.259 1.022,2.001 0,0.735 -0.007,1.995 -1.022,1.995 -1.014,0 -1.022,-1.26 -1.022,-1.995 0,-0.742 0.008,-2.001 1.022,-2.001" /><path
       inkscape:connector-curvature="0"
       id="path882"
       style="fill:#000000;fill-opacity:1;fill-rule:nonzero;stroke:none"
       d="m 421.203,187.149 -0.596,0 0,3.556 -1.288,0 0,0.476 c 0.679,0 1.296,0.182 1.428,0.931 l 0.456,0 0,-4.963" /><path
       inkscape:connector-curvature="0"
       id="path884"
       style="fill:#000000;fill-opacity:1;fill-rule:nonzero;stroke:none"
       d="m 425.892,191.503 -2.001,0 -0.267,-1.428 0.015,-0.014 c 0.216,0.245 0.587,0.357 0.923,0.357 0.882,0 1.603,-0.567 1.603,-1.701 0,-0.84 -0.581,-1.652 -1.735,-1.652 -0.862,0 -1.561,0.526 -1.582,1.421 l 0.594,0 c 0.035,-0.511 0.449,-0.895 1.043,-0.895 0.568,0 1.051,0.384 1.051,1.175 0,0.658 -0.456,1.127 -1.121,1.127 -0.378,0 -0.692,-0.189 -0.923,-0.469 l -0.512,0.028 0.462,2.576 2.45,0 0,-0.525" /><path
       inkscape:connector-curvature="0"
       id="path886"
       style="fill:#000000;fill-opacity:1;fill-rule:nonzero;stroke:none"
       d="m 447.528,190.355 c -0.049,1.008 0.546,1.757 1.595,1.757 0.868,0 1.555,-0.504 1.555,-1.428 0,-0.875 -0.589,-1.316 -1.204,-1.701 -0.623,-0.378 -1.275,-0.693 -1.394,-1.309 l 2.548,0 0,-0.525 -3.24,0 c 0.098,1.176 0.692,1.596 1.393,2.03 0.839,0.518 1.266,0.827 1.266,1.512 0,0.539 -0.433,0.896 -0.959,0.896 -0.692,0 -0.986,-0.637 -0.966,-1.232 l -0.594,0" /><path
       inkscape:connector-curvature="0"
       id="path888"
       style="fill:#000000;fill-opacity:1;fill-rule:nonzero;stroke:none"
       d="m 453.058,192.112 c 1.554,0 1.651,-1.428 1.651,-2.527 0,-1.092 -0.097,-2.52 -1.651,-2.52 -1.555,0 -1.652,1.428 -1.652,2.52 0,1.099 0.097,2.527 1.652,2.527 z m 0,-4.521 c 1.014,0 1.021,1.259 1.021,2.001 0,0.735 -0.007,1.995 -1.021,1.995 -1.016,0 -1.023,-1.26 -1.023,-1.995 0,-0.742 0.007,-2.001 1.023,-2.001" /><path
       inkscape:connector-curvature="0"
       id="path890"
       style="fill:#000000;fill-opacity:1;fill-rule:nonzero;stroke:none"
       d="m 476.037,190.355 c -0.049,1.008 0.546,1.757 1.596,1.757 0.868,0 1.555,-0.504 1.555,-1.428 0,-0.875 -0.589,-1.316 -1.205,-1.701 -0.623,-0.378 -1.274,-0.693 -1.393,-1.309 l 2.548,0 0,-0.525 -3.24,0 c 0.097,1.176 0.692,1.596 1.392,2.03 0.84,0.518 1.267,0.827 1.267,1.512 0,0.539 -0.434,0.896 -0.959,0.896 -0.693,0 -0.987,-0.637 -0.966,-1.232 l -0.595,0" /><path
       inkscape:connector-curvature="0"
       id="path892"
       style="fill:#000000;fill-opacity:1;fill-rule:nonzero;stroke:none"
       d="m 482.911,191.503 -2.002,0 -0.265,-1.428 0.013,-0.014 c 0.217,0.245 0.588,0.357 0.924,0.357 0.882,0 1.603,-0.567 1.603,-1.701 0,-0.84 -0.58,-1.652 -1.736,-1.652 -0.861,0 -1.561,0.526 -1.582,1.421 l 0.595,0 c 0.035,-0.511 0.448,-0.895 1.043,-0.895 0.567,0 1.05,0.384 1.05,1.175 0,0.658 -0.455,1.127 -1.119,1.127 -0.379,0 -0.694,-0.189 -0.925,-0.469 l -0.511,0.028 0.462,2.576 2.45,0 0,-0.525" /><path
       inkscape:connector-curvature="0"
       id="path894"
       style="fill:#000000;fill-opacity:1;fill-rule:nonzero;stroke:none"
       d="m 505.763,189.984 c 0.09,-0.007 0.174,-0.007 0.258,-0.007 0.505,0 0.946,0.273 0.946,0.812 0,0.518 -0.378,0.798 -0.882,0.798 -0.651,0 -0.931,-0.496 -0.939,-1.078 l -0.594,0 c 0.035,0.945 0.539,1.603 1.533,1.603 0.861,0 1.512,-0.413 1.512,-1.33 0,-0.434 -0.308,-0.812 -0.686,-0.986 l 0,-0.015 c 0.602,-0.133 0.896,-0.608 0.896,-1.204 0,-0.994 -0.777,-1.512 -1.708,-1.512 -1.008,0 -1.673,0.595 -1.652,1.617 l 0.595,0 c 0.02,-0.644 0.378,-1.091 1.057,-1.091 0.581,0 1.078,0.356 1.078,0.958 0,0.624 -0.469,0.952 -1.057,0.952 -0.119,0 -0.245,-0.007 -0.357,-0.021 l 0,0.504" /><path
       inkscape:connector-curvature="0"
       id="path896"
       style="fill:#000000;fill-opacity:1;fill-rule:nonzero;stroke:none"
       d="m 510.075,192.112 c 1.554,0 1.651,-1.428 1.651,-2.527 0,-1.092 -0.097,-2.52 -1.651,-2.52 -1.555,0 -1.652,1.428 -1.652,2.52 0,1.099 0.097,2.527 1.652,2.527 z m 0,-4.521 c 1.015,0 1.022,1.259 1.022,2.001 0,0.735 -0.007,1.995 -1.022,1.995 -1.015,0 -1.022,-1.26 -1.022,-1.995 0,-0.742 0.007,-2.001 1.022,-2.001" /><path
       inkscape:connector-curvature="0"
       id="path898"
       style="fill:#000000;fill-opacity:1;fill-rule:nonzero;stroke:none"
       d="m 534.273,189.984 c 0.091,-0.007 0.175,-0.007 0.259,-0.007 0.505,0 0.945,0.273 0.945,0.812 0,0.518 -0.378,0.798 -0.882,0.798 -0.651,0 -0.93,-0.496 -0.938,-1.078 l -0.595,0 c 0.035,0.945 0.539,1.603 1.533,1.603 0.862,0 1.512,-0.413 1.512,-1.33 0,-0.434 -0.307,-0.812 -0.685,-0.986 l 0,-0.015 c 0.601,-0.133 0.895,-0.608 0.895,-1.204 0,-0.994 -0.776,-1.512 -1.708,-1.512 -1.008,0 -1.673,0.595 -1.651,1.617 l 0.595,0 c 0.02,-0.644 0.377,-1.091 1.056,-1.091 0.581,0 1.078,0.356 1.078,0.958 0,0.624 -0.468,0.952 -1.056,0.952 -0.12,0 -0.245,-0.007 -0.358,-0.021 l 0,0.504" /><path
       inkscape:connector-curvature="0"
       id="path900"
       style="fill:#000000;fill-opacity:1;fill-rule:nonzero;stroke:none"
       d="m 539.929,191.503 -2.001,0 -0.266,-1.428 0.014,-0.014 c 0.216,0.245 0.587,0.357 0.923,0.357 0.882,0 1.603,-0.567 1.603,-1.701 0,-0.84 -0.58,-1.652 -1.735,-1.652 -0.862,0 -1.562,0.526 -1.582,1.421 l 0.594,0 c 0.035,-0.511 0.449,-0.895 1.043,-0.895 0.568,0 1.05,0.384 1.05,1.175 0,0.658 -0.455,1.127 -1.12,1.127 -0.378,0 -0.692,-0.189 -0.924,-0.469 l -0.511,0.028 0.462,2.576 2.45,0 0,-0.525" /><path
       inkscape:connector-curvature="0"
       id="path902"
       style="fill:#000000;fill-opacity:1;fill-rule:nonzero;stroke:none"
       d="m 335.881,343.586 c 1.554,0 1.652,-1.428 1.652,-2.527 0,-1.092 -0.098,-2.52 -1.652,-2.52 -1.554,0 -1.652,1.428 -1.652,2.52 0,1.099 0.098,2.527 1.652,2.527 z m 0,-4.522 c 1.015,0 1.022,1.26 1.022,2.002 0,0.735 -0.007,1.995 -1.022,1.995 -1.015,0 -1.022,-1.26 -1.022,-1.995 0,-0.742 0.007,-2.002 1.022,-2.002" /><path
       inkscape:connector-curvature="0"
       id="path904"
       style="fill:#000000;fill-opacity:1;fill-rule:nonzero;stroke:none"
       d="m 365.86,342.977 -2.002,0 -0.266,-1.428 0.014,-0.014 c 0.217,0.245 0.588,0.357 0.924,0.357 0.882,0 1.603,-0.567 1.603,-1.701 0,-0.84 -0.581,-1.652 -1.736,-1.652 -0.861,0 -1.561,0.525 -1.582,1.421 l 0.595,0 c 0.035,-0.511 0.448,-0.896 1.043,-0.896 0.567,0 1.05,0.385 1.05,1.176 0,0.658 -0.455,1.127 -1.12,1.127 -0.378,0 -0.693,-0.189 -0.924,-0.469 l -0.511,0.028 0.462,2.576 2.45,0 0,-0.525" /><path
       inkscape:connector-curvature="0"
       id="path906"
       style="fill:#000000;fill-opacity:1;fill-rule:nonzero;stroke:none"
       d="m 392.691,338.623 -0.595,0 0,3.556 -1.288,0 0,0.476 c 0.679,0 1.296,0.182 1.428,0.931 l 0.455,0 0,-4.963" /><path
       inkscape:connector-curvature="0"
       id="path908"
       style="fill:#000000;fill-opacity:1;fill-rule:nonzero;stroke:none"
       d="m 396.037,343.586 c 1.554,0 1.653,-1.428 1.653,-2.527 0,-1.092 -0.099,-2.52 -1.653,-2.52 -1.554,0 -1.652,1.428 -1.652,2.52 0,1.099 0.098,2.527 1.652,2.527 z m 0,-4.522 c 1.015,0 1.022,1.26 1.022,2.002 0,0.735 -0.007,1.995 -1.022,1.995 -1.014,0 -1.022,-1.26 -1.022,-1.995 0,-0.742 0.008,-2.002 1.022,-2.002" /><path
       inkscape:connector-curvature="0"
       id="path910"
       style="fill:#000000;fill-opacity:1;fill-rule:nonzero;stroke:none"
       d="m 421.203,338.623 -0.596,0 0,3.556 -1.288,0 0,0.476 c 0.679,0 1.296,0.182 1.428,0.931 l 0.456,0 0,-4.963" /><path
       inkscape:connector-curvature="0"
       id="path912"
       style="fill:#000000;fill-opacity:1;fill-rule:nonzero;stroke:none"
       d="m 425.892,342.977 -2.001,0 -0.267,-1.428 0.015,-0.014 c 0.216,0.245 0.587,0.357 0.923,0.357 0.882,0 1.603,-0.567 1.603,-1.701 0,-0.84 -0.581,-1.652 -1.735,-1.652 -0.862,0 -1.561,0.525 -1.582,1.421 l 0.594,0 c 0.035,-0.511 0.449,-0.896 1.043,-0.896 0.568,0 1.051,0.385 1.051,1.176 0,0.658 -0.456,1.127 -1.121,1.127 -0.378,0 -0.692,-0.189 -0.923,-0.469 l -0.512,0.028 0.462,2.576 2.45,0 0,-0.525" /><path
       inkscape:connector-curvature="0"
       id="path914"
       style="fill:#000000;fill-opacity:1;fill-rule:nonzero;stroke:none"
       d="m 447.528,341.829 c -0.049,1.008 0.546,1.757 1.595,1.757 0.868,0 1.555,-0.504 1.555,-1.428 0,-0.875 -0.589,-1.316 -1.204,-1.701 -0.623,-0.378 -1.275,-0.693 -1.394,-1.309 l 2.548,0 0,-0.525 -3.24,0 c 0.098,1.176 0.692,1.596 1.393,2.03 0.839,0.518 1.266,0.826 1.266,1.512 0,0.539 -0.433,0.896 -0.959,0.896 -0.692,0 -0.986,-0.637 -0.966,-1.232 l -0.594,0" /><path
       inkscape:connector-curvature="0"
       id="path916"
       style="fill:#000000;fill-opacity:1;fill-rule:nonzero;stroke:none"
       d="m 453.058,343.586 c 1.554,0 1.651,-1.428 1.651,-2.527 0,-1.092 -0.097,-2.52 -1.651,-2.52 -1.555,0 -1.652,1.428 -1.652,2.52 0,1.099 0.097,2.527 1.652,2.527 z m 0,-4.522 c 1.014,0 1.021,1.26 1.021,2.002 0,0.735 -0.007,1.995 -1.021,1.995 -1.016,0 -1.023,-1.26 -1.023,-1.995 0,-0.742 0.007,-2.002 1.023,-2.002" /><path
       inkscape:connector-curvature="0"
       id="path918"
       style="fill:#000000;fill-opacity:1;fill-rule:nonzero;stroke:none"
       d="m 476.037,341.829 c -0.049,1.008 0.546,1.757 1.596,1.757 0.868,0 1.555,-0.504 1.555,-1.428 0,-0.875 -0.589,-1.316 -1.205,-1.701 -0.623,-0.378 -1.274,-0.693 -1.393,-1.309 l 2.548,0 0,-0.525 -3.24,0 c 0.097,1.176 0.692,1.596 1.392,2.03 0.84,0.518 1.267,0.826 1.267,1.512 0,0.539 -0.434,0.896 -0.959,0.896 -0.693,0 -0.987,-0.637 -0.966,-1.232 l -0.595,0" /><path
       inkscape:connector-curvature="0"
       id="path920"
       style="fill:#000000;fill-opacity:1;fill-rule:nonzero;stroke:none"
       d="m 482.911,342.977 -2.002,0 -0.265,-1.428 0.013,-0.014 c 0.217,0.245 0.588,0.357 0.924,0.357 0.882,0 1.603,-0.567 1.603,-1.701 0,-0.84 -0.58,-1.652 -1.736,-1.652 -0.861,0 -1.561,0.525 -1.582,1.421 l 0.595,0 c 0.035,-0.511 0.448,-0.896 1.043,-0.896 0.567,0 1.05,0.385 1.05,1.176 0,0.658 -0.455,1.127 -1.119,1.127 -0.379,0 -0.694,-0.189 -0.925,-0.469 l -0.511,0.028 0.462,2.576 2.45,0 0,-0.525" /><path
       inkscape:connector-curvature="0"
       id="path922"
       style="fill:#000000;fill-opacity:1;fill-rule:nonzero;stroke:none"
       d="m 505.763,341.458 c 0.09,-0.007 0.174,-0.007 0.258,-0.007 0.505,0 0.946,0.273 0.946,0.812 0,0.518 -0.378,0.798 -0.882,0.798 -0.651,0 -0.931,-0.497 -0.939,-1.078 l -0.594,0 c 0.035,0.945 0.539,1.603 1.533,1.603 0.861,0 1.512,-0.413 1.512,-1.33 0,-0.434 -0.308,-0.812 -0.686,-0.987 l 0,-0.014 c 0.602,-0.133 0.896,-0.609 0.896,-1.204 0,-0.994 -0.777,-1.512 -1.708,-1.512 -1.008,0 -1.673,0.595 -1.652,1.617 l 0.595,0 c 0.02,-0.644 0.378,-1.092 1.057,-1.092 0.581,0 1.078,0.357 1.078,0.959 0,0.623 -0.469,0.952 -1.057,0.952 -0.119,0 -0.245,-0.007 -0.357,-0.021 l 0,0.504" /><path
       inkscape:connector-curvature="0"
       id="path924"
       style="fill:#000000;fill-opacity:1;fill-rule:nonzero;stroke:none"
       d="m 510.075,343.586 c 1.554,0 1.651,-1.428 1.651,-2.527 0,-1.092 -0.097,-2.52 -1.651,-2.52 -1.555,0 -1.652,1.428 -1.652,2.52 0,1.099 0.097,2.527 1.652,2.527 z m 0,-4.522 c 1.015,0 1.022,1.26 1.022,2.002 0,0.735 -0.007,1.995 -1.022,1.995 -1.015,0 -1.022,-1.26 -1.022,-1.995 0,-0.742 0.007,-2.002 1.022,-2.002" /><path
       inkscape:connector-curvature="0"
       id="path926"
       style="fill:#000000;fill-opacity:1;fill-rule:nonzero;stroke:none"
       d="m 534.273,340.954 c 0.113,0.014 0.238,0.021 0.358,0.021 0.588,0 1.056,-0.329 1.056,-0.952 0,-0.602 -0.497,-0.959 -1.078,-0.959 -0.679,0 -1.036,0.448 -1.056,1.092 l -0.595,0 c -0.022,-1.022 0.643,-1.617 1.651,-1.617 0.932,0 1.708,0.518 1.708,1.512 0,0.595 -0.294,1.071 -0.895,1.204 l 0,0.014 c 0.378,0.175 0.685,0.553 0.685,0.987 0,0.917 -0.65,1.33 -1.512,1.33 -0.994,0 -1.498,-0.658 -1.533,-1.603 l 0.595,0 c 0.008,0.581 0.287,1.078 0.938,1.078 0.504,0 0.882,-0.28 0.882,-0.798 0,-0.539 -0.44,-0.812 -0.945,-0.812 -0.084,0 -0.168,0 -0.259,0.007 l 0,-0.504" /><path
       inkscape:connector-curvature="0"
       id="path928"
       style="fill:#000000;fill-opacity:1;fill-rule:nonzero;stroke:none"
       d="m 539.929,342.977 -2.001,0 -0.266,-1.428 0.014,-0.014 c 0.216,0.245 0.587,0.357 0.923,0.357 0.882,0 1.603,-0.567 1.603,-1.701 0,-0.84 -0.58,-1.652 -1.735,-1.652 -0.862,0 -1.562,0.525 -1.582,1.421 l 0.594,0 c 0.035,-0.511 0.449,-0.896 1.043,-0.896 0.568,0 1.05,0.385 1.05,1.176 0,0.658 -0.455,1.127 -1.12,1.127 -0.378,0 -0.692,-0.189 -0.924,-0.469 l -0.511,0.028 0.462,2.576 2.45,0 0,-0.525" /><path
       inkscape:connector-curvature="0"
       id="path930"
       style="fill:#000000;fill-opacity:1;fill-rule:nonzero;stroke:none"
       d="m 331.876,237.518 -0.595,0 0,3.556 -1.288,0 0,0.476 c 0.679,0 1.295,0.182 1.428,0.931 l 0.455,0 0,-4.963" /><path
       inkscape:connector-curvature="0"
       id="path932"
       style="fill:#000000;fill-opacity:1;fill-rule:nonzero;stroke:none"
       d="m 329.692,285.346 c -0.049,1.008 0.546,1.757 1.596,1.757 0.868,0 1.554,-0.504 1.554,-1.428 0,-0.875 -0.588,-1.316 -1.204,-1.701 -0.623,-0.378 -1.274,-0.694 -1.393,-1.309 l 2.548,0 0,-0.525 -3.241,0 c 0.098,1.176 0.693,1.596 1.393,2.03 0.84,0.518 1.267,0.826 1.267,1.512 0,0.539 -0.434,0.896 -0.959,0.896 -0.693,0 -0.987,-0.637 -0.966,-1.232 l -0.595,0" /><path
       inkscape:connector-curvature="0"
       id="path934"
       style="fill:#000000;fill-opacity:1;fill-rule:nonzero;stroke:none"
       d="m 321.6,391.528 c 1.554,0 1.652,-1.427 1.652,-2.526 0,-1.092 -0.098,-2.52 -1.652,-2.52 -1.554,0 -1.652,1.428 -1.652,2.52 0,1.099 0.098,2.526 1.652,2.526 z m 0,-4.522 c 1.015,0 1.022,1.261 1.022,2.002 0,0.736 -0.007,1.995 -1.022,1.995 -1.015,0 -1.022,-1.259 -1.022,-1.995 0,-0.741 0.007,-2.002 1.022,-2.002" /><path
       inkscape:connector-curvature="0"
       id="path936"
       style="fill:#000000;fill-opacity:1;fill-rule:nonzero;stroke:none"
       d="m 324.127,387.342 0.777,0 0,-0.777 -0.777,0 0,0.777 z" /><path
       inkscape:connector-curvature="0"
       id="path938"
       style="fill:#000000;fill-opacity:1;fill-rule:nonzero;stroke:none"
       d="m 327.438,391.528 c 1.554,0 1.652,-1.427 1.652,-2.526 0,-1.092 -0.098,-2.52 -1.652,-2.52 -1.554,0 -1.652,1.428 -1.652,2.52 0,1.099 0.098,2.526 1.652,2.526 z m 0,-4.522 c 1.015,0 1.022,1.261 1.022,2.002 0,0.736 -0.007,1.995 -1.022,1.995 -1.015,0 -1.022,-1.259 -1.022,-1.995 0,-0.741 0.007,-2.002 1.022,-2.002" /><path
       inkscape:connector-curvature="0"
       id="path940"
       style="fill:#000000;fill-opacity:1;fill-rule:nonzero;stroke:none"
       d="m 332.674,390.919 -2.002,0 -0.266,-1.428 0.014,-0.013 c 0.217,0.245 0.588,0.357 0.924,0.357 0.882,0 1.603,-0.567 1.603,-1.702 0,-0.839 -0.581,-1.651 -1.736,-1.651 -0.861,0 -1.561,0.524 -1.582,1.421 l 0.595,0 c 0.035,-0.511 0.448,-0.897 1.043,-0.897 0.567,0 1.05,0.386 1.05,1.177 0,0.657 -0.455,1.127 -1.12,1.127 -0.378,0 -0.693,-0.189 -0.924,-0.47 l -0.511,0.029 0.462,2.575 2.45,0 0,-0.525" /><path
       inkscape:connector-curvature="0"
       id="path942"
       style="fill:#000000;fill-opacity:1;fill-rule:nonzero;stroke:none"
       d="m 325.492,433.645 c 1.554,0 1.652,-1.427 1.652,-2.526 0,-1.092 -0.098,-2.521 -1.652,-2.521 -1.554,0 -1.652,1.429 -1.652,2.521 0,1.099 0.098,2.526 1.652,2.526 z m 0,-4.522 c 1.015,0 1.022,1.261 1.022,2.002 0,0.736 -0.007,1.995 -1.022,1.995 -1.015,0 -1.022,-1.259 -1.022,-1.995 0,-0.741 0.007,-2.002 1.022,-2.002" /><path
       inkscape:connector-curvature="0"
       id="path944"
       style="fill:#000000;fill-opacity:1;fill-rule:nonzero;stroke:none"
       d="m 328.019,429.459 0.777,0 0,-0.777 -0.777,0 0,0.777 z" /><path
       inkscape:connector-curvature="0"
       id="path946"
       style="fill:#000000;fill-opacity:1;fill-rule:nonzero;stroke:none"
       d="m 331.876,428.682 -0.595,0 0,3.557 -1.288,0 0,0.475 c 0.679,0 1.295,0.182 1.428,0.931 l 0.455,0 0,-4.963" /><path
       inkscape:connector-curvature="0"
       id="path948"
       style="fill:#000000;fill-opacity:1;fill-rule:nonzero;stroke:none"
       d="m 308.809,381.262 0,2.191 c 0,0.994 0.553,1.533 1.477,1.533 0.923,0 1.484,-0.539 1.477,-1.533 l 0,-1.526 2.044,0 0,-0.665 -4.998,0 z m 2.394,0.665 0,1.303 c 0.006,0.749 -0.322,1.091 -0.917,1.091 -0.596,0 -0.917,-0.342 -0.917,-1.091 l 0,-1.303 1.834,0" /><path
       inkscape:connector-curvature="0"
       id="path950"
       style="fill:#000000;fill-opacity:1;fill-rule:nonzero;stroke:none"
       d="m 310.188,385.679 0,0.56 0.763,0 0,0.014 c -0.581,0.287 -0.868,0.687 -0.847,1.331 l 0.629,0 c 0,-0.959 0.547,-1.31 1.464,-1.31 l 1.61,0 0,-0.595 -3.619,0" /><path
       inkscape:connector-curvature="0"
       id="path952"
       style="fill:#000000;fill-opacity:1;fill-rule:nonzero;stroke:none"
       d="m 310.104,389.467 c 0,1.148 0.833,1.758 1.896,1.758 1.058,0 1.891,-0.61 1.891,-1.758 0,-1.148 -0.833,-1.756 -1.891,-1.756 -1.063,0 -1.896,0.608 -1.896,1.756 z m 3.262,0 c 0,0.623 -0.491,1.127 -1.366,1.127 -0.881,0 -1.372,-0.504 -1.372,-1.127 0,-0.623 0.491,-1.127 1.372,-1.127 0.875,0 1.366,0.504 1.366,1.127" /><path
       inkscape:connector-curvature="0"
       id="path954"
       style="fill:#000000;fill-opacity:1;fill-rule:nonzero;stroke:none"
       d="m 310.188,391.945 0,0.596 0.49,0 0,0.013 c -0.399,0.197 -0.574,0.658 -0.574,1.156 0,1.112 0.882,1.666 1.904,1.666 1.022,0 1.883,-0.546 1.883,-1.653 0,-0.37 -0.141,-0.903 -0.567,-1.169 l 0,-0.013 1.868,0 0,-0.596 -5.004,0 z m 0.44,1.681 c 0,-0.799 0.686,-1.106 1.366,-1.106 0.714,0 1.372,0.321 1.372,1.14 0,0.812 -0.693,1.086 -1.4,1.086 -0.679,0 -1.338,-0.35 -1.338,-1.12" /><path
       inkscape:connector-curvature="0"
       id="path956"
       style="fill:#000000;fill-opacity:1;fill-rule:nonzero;stroke:none"
       d="m 312.659,399.162 c 0.798,-0.16 1.232,-0.735 1.232,-1.547 0,-1.154 -0.798,-1.701 -1.904,-1.736 -1.085,0 -1.883,0.714 -1.883,1.701 0,1.281 1.197,1.673 2.072,1.638 l 0,-2.709 c 0.63,-0.021 1.19,0.336 1.19,1.127 0,0.491 -0.239,0.833 -0.707,0.938 l 0,0.588 z m -1.008,-0.574 c -0.568,-0.028 -1.023,-0.455 -1.023,-1.043 0,-0.623 0.47,-0.994 1.023,-1.036 l 0,2.079" /><path
       inkscape:connector-curvature="0"
       id="path958"
       style="fill:#000000;fill-opacity:1;fill-rule:nonzero;stroke:none"
       d="m 310.188,399.813 0,0.56 0.763,0 0,0.014 c -0.581,0.287 -0.868,0.686 -0.847,1.33 l 0.629,0 c 0,-0.959 0.547,-1.309 1.464,-1.309 l 1.61,0 0,-0.595 -3.619,0" /><path
       inkscape:connector-curvature="0"
       id="path960"
       style="fill:#000000;fill-opacity:1;fill-rule:nonzero;stroke:none"
       d="m 312.659,407.198 c 0.798,-0.161 1.232,-0.735 1.232,-1.547 0,-1.155 -0.798,-1.701 -1.904,-1.736 -1.085,0 -1.883,0.714 -1.883,1.701 0,1.281 1.197,1.673 2.072,1.638 l 0,-2.709 c 0.63,-0.021 1.19,0.336 1.19,1.127 0,0.49 -0.239,0.833 -0.707,0.938 l 0,0.588 z m -1.008,-0.574 c -0.568,-0.028 -1.023,-0.455 -1.023,-1.043 0,-0.623 0.47,-0.994 1.023,-1.036 l 0,2.079" /><path
       inkscape:connector-curvature="0"
       id="path962"
       style="fill:#000000;fill-opacity:1;fill-rule:nonzero;stroke:none"
       d="m 311.35,410.327 c -0.455,-0.091 -0.722,-0.406 -0.722,-0.896 0,-0.861 0.68,-1.127 1.414,-1.127 0.666,0 1.324,0.301 1.324,1.057 0,0.574 -0.336,0.917 -0.883,0.994 l 0,0.609 c 0.883,-0.133 1.408,-0.686 1.408,-1.596 0,-1.106 -0.77,-1.694 -1.849,-1.694 -1.084,0 -1.938,0.56 -1.938,1.708 0,0.819 0.385,1.477 1.246,1.561 l 0,-0.616" /><path
       inkscape:connector-curvature="0"
       id="path964"
       style="fill:#000000;fill-opacity:1;fill-rule:nonzero;stroke:none"
       d="m 311.35,414.086 c -0.455,-0.091 -0.722,-0.406 -0.722,-0.896 0,-0.861 0.68,-1.127 1.414,-1.127 0.666,0 1.324,0.301 1.324,1.057 0,0.574 -0.336,0.917 -0.883,0.994 l 0,0.609 c 0.883,-0.133 1.408,-0.686 1.408,-1.596 0,-1.106 -0.77,-1.694 -1.849,-1.694 -1.084,0 -1.938,0.56 -1.938,1.708 0,0.819 0.385,1.477 1.246,1.561 l 0,-0.616" /><path
       inkscape:connector-curvature="0"
       id="path966"
       style="fill:#000000;fill-opacity:1;fill-rule:nonzero;stroke:none"
       d="m 312.659,418.475 c 0.798,-0.161 1.232,-0.735 1.232,-1.547 0,-1.155 -0.798,-1.701 -1.904,-1.736 -1.085,0 -1.883,0.714 -1.883,1.701 0,1.281 1.197,1.673 2.072,1.638 l 0,-2.709 c 0.63,-0.021 1.19,0.336 1.19,1.127 0,0.49 -0.239,0.833 -0.707,0.938 l 0,0.588 z m -1.008,-0.574 c -0.568,-0.028 -1.023,-0.455 -1.023,-1.043 0,-0.623 0.47,-0.994 1.023,-1.036 l 0,2.079" /><path
       inkscape:connector-curvature="0"
       id="path968"
       style="fill:#000000;fill-opacity:1;fill-rule:nonzero;stroke:none"
       d="m 313.807,419.147 0,0.595 -2.044,0 c -0.651,0 -1.135,0.35 -1.135,1.071 0,0.455 0.288,0.735 0.728,0.735 l 2.451,0 0,0.595 -2.38,0 c -0.778,0 -1.323,-0.295 -1.323,-1.246 0,-0.518 0.209,-0.924 0.658,-1.176 l 0,-0.014 -0.574,0 0,-0.56 3.619,0" /><path
       inkscape:connector-curvature="0"
       id="path970"
       style="fill:#000000;fill-opacity:1;fill-rule:nonzero;stroke:none"
       d="m 310.188,423.865 0,0.721 0.525,0 0,-0.721 2.246,0 c 0.273,0 0.323,0.077 0.323,0.448 l 0,0.273 0.525,0 0,-0.455 c 0,-0.616 -0.126,-0.861 -0.791,-0.861 l -2.303,0 0,-0.616 -0.525,0 0,0.616 -1.085,0 0,0.595 1.085,0" /><path
       inkscape:connector-curvature="0"
       id="path972"
       style="fill:#000000;fill-opacity:1;fill-rule:nonzero;stroke:none"
       d="m 310.188,425.223 0,0.56 0.763,0 0,0.014 c -0.581,0.286 -0.868,0.686 -0.847,1.329 l 0.629,0 c 0,-0.959 0.547,-1.308 1.464,-1.308 l 1.61,0 0,-0.595 -3.619,0" /><path
       inkscape:connector-curvature="0"
       id="path974"
       style="fill:#000000;fill-opacity:1;fill-rule:nonzero;stroke:none"
       d="m 308.809,427.61 0.728,0 0,0.595 -0.728,0 0,-0.595 z m 1.379,0 3.619,0 0,0.595 -3.619,0 0,-0.595 z" /><path
       inkscape:connector-curvature="0"
       id="path976"
       style="fill:#000000;fill-opacity:1;fill-rule:nonzero;stroke:none"
       d="m 311.35,431.585 c -0.455,-0.091 -0.722,-0.405 -0.722,-0.896 0,-0.861 0.68,-1.127 1.414,-1.127 0.666,0 1.324,0.302 1.324,1.057 0,0.574 -0.336,0.917 -0.883,0.995 l 0,0.609 c 0.883,-0.134 1.408,-0.687 1.408,-1.597 0,-1.106 -0.77,-1.693 -1.849,-1.693 -1.084,0 -1.938,0.56 -1.938,1.707 0,0.819 0.385,1.478 1.246,1.562 l 0,-0.617" /><path
       inkscape:connector-curvature="0"
       id="path978"
       style="fill:#000000;fill-opacity:1;fill-rule:nonzero;stroke:none"
       d="m 308.809,432.922 0.728,0 0,0.595 -0.728,0 0,-0.595 z m 1.379,0 3.619,0 0,0.595 -3.619,0 0,-0.595 z" /><path
       inkscape:connector-curvature="0"
       id="path980"
       style="fill:#000000;fill-opacity:1;fill-rule:nonzero;stroke:none"
       d="m 310.188,435.267 0,0.721 0.525,0 0,-0.721 2.246,0 c 0.273,0 0.323,0.077 0.323,0.448 l 0,0.273 0.525,0 0,-0.455 c 0,-0.616 -0.126,-0.861 -0.791,-0.861 l -2.303,0 0,-0.616 -0.525,0 0,0.616 -1.085,0 0,0.595 1.085,0" /><path
       inkscape:connector-curvature="0"
       id="path982"
       style="fill:#000000;fill-opacity:1;fill-rule:nonzero;stroke:none"
       d="m 314.29,438.067 c 0.707,-0.273 0.966,-0.518 0.966,-1.05 0,-0.14 -0.014,-0.28 -0.064,-0.413 l -0.546,0 c 0.036,0.112 0.084,0.231 0.084,0.35 0,0.245 -0.118,0.378 -0.328,0.49 l -0.616,0.245 -3.598,-1.435 0,0.672 2.96,1.057 0,0.014 -2.96,1.015 0,0.63 4.102,-1.575" /><path
       inkscape:connector-curvature="0"
       id="path984"
       style="fill:#000000;fill-opacity:1;fill-rule:nonzero;stroke:none"
       d="m 331.33,349.412 c 1.554,0 1.652,-1.428 1.652,-2.527 0,-1.092 -0.098,-2.52 -1.652,-2.52 -1.554,0 -1.652,1.428 -1.652,2.52 0,1.099 0.098,2.527 1.652,2.527 z m 0,-4.522 c 1.015,0 1.022,1.26 1.022,2.002 0,0.735 -0.007,1.995 -1.022,1.995 -1.015,0 -1.022,-1.26 -1.022,-1.995 0,-0.742 0.007,-2.002 1.022,-2.002" /><path
       inkscape:connector-curvature="0"
       id="path986"
       style="fill:#000000;fill-opacity:1;fill-rule:nonzero;stroke:none"
       d="m 321.6,475.762 c 1.554,0 1.652,-1.428 1.652,-2.527 0,-1.092 -0.098,-2.52 -1.652,-2.52 -1.554,0 -1.652,1.428 -1.652,2.52 0,1.099 0.098,2.527 1.652,2.527 z m 0,-4.522 c 1.015,0 1.022,1.26 1.022,2.002 0,0.735 -0.007,1.995 -1.022,1.995 -1.015,0 -1.022,-1.26 -1.022,-1.995 0,-0.742 0.007,-2.002 1.022,-2.002" /><path
       inkscape:connector-curvature="0"
       id="path988"
       style="fill:#000000;fill-opacity:1;fill-rule:nonzero;stroke:none"
       d="m 324.127,471.576 0.777,0 0,-0.777 -0.777,0 0,0.777 z" /><path
       inkscape:connector-curvature="0"
       id="path990"
       style="fill:#000000;fill-opacity:1;fill-rule:nonzero;stroke:none"
       d="m 327.984,470.799 -0.595,0 0,3.556 -1.288,0 0,0.476 c 0.679,0 1.295,0.182 1.428,0.931 l 0.455,0 0,-4.963" /><path
       inkscape:connector-curvature="0"
       id="path992"
       style="fill:#000000;fill-opacity:1;fill-rule:nonzero;stroke:none"
       d="m 332.674,475.153 -2.002,0 -0.266,-1.428 0.014,-0.014 c 0.217,0.245 0.588,0.357 0.924,0.357 0.882,0 1.603,-0.567 1.603,-1.701 0,-0.84 -0.581,-1.652 -1.736,-1.652 -0.861,0 -1.561,0.525 -1.582,1.421 l 0.595,0 c 0.035,-0.511 0.448,-0.896 1.043,-0.896 0.567,0 1.05,0.385 1.05,1.176 0,0.658 -0.455,1.127 -1.12,1.127 -0.378,0 -0.693,-0.189 -0.924,-0.469 l -0.511,0.028 0.462,2.576 2.45,0 0,-0.525" /><path
       inkscape:connector-curvature="0"
       id="path994"
       style="fill:#000000;fill-opacity:1;fill-rule:nonzero;stroke:none"
       d="m 349.662,469.147 c 0,-0.312 0.017,-0.664 0.192,-0.928 l -1.615,0 c -0.04,0.112 -0.064,0.28 -0.057,0.392 l -0.016,0 c -0.336,-0.384 -0.823,-0.496 -1.336,-0.496 -0.799,0 -1.463,0.384 -1.463,1.256 0,1.312 1.535,1.264 2.343,1.416 0.217,0.04 0.432,0.104 0.432,0.368 0,0.28 -0.264,0.384 -0.52,0.384 -0.487,0 -0.584,-0.248 -0.591,-0.424 l -1.473,0 c 0.048,1.168 1.152,1.36 2.136,1.36 1.985,0 1.968,-0.824 1.968,-1.624 l 0,-1.704 z m -1.52,0.936 c -0.192,-0.096 -0.408,-0.152 -0.624,-0.2 -0.352,-0.08 -0.536,-0.168 -0.536,-0.448 0,-0.192 0.208,-0.384 0.496,-0.384 0.36,0 0.64,0.216 0.664,0.648 l 0,0.384" /><path
       inkscape:connector-curvature="0"
       id="path996"
       style="fill:#000000;fill-opacity:1;fill-rule:nonzero;stroke:none"
       d="m 345.615,321.947 1.584,0 0,-2.016 0.015,0 c 0.24,0.352 0.664,0.56 1.136,0.56 1.392,0 1.768,-1.184 1.768,-2.159 0,-1.041 -0.567,-2.2 -1.744,-2.2 -0.776,0 -1.016,0.296 -1.216,0.559 l -0.016,0 0,-0.456 -1.527,0 0,5.712 z m 2.223,-2.608 c -0.568,0 -0.696,-0.536 -0.696,-1.024 0,-0.496 0.128,-1.032 0.696,-1.032 0.569,0 0.696,0.536 0.696,1.032 0,0.488 -0.127,1.024 -0.696,1.024" /><path
       inkscape:connector-curvature="0"
       id="path998"
       style="fill:#000000;fill-opacity:1;fill-rule:nonzero;stroke:none"
       d="m 308.809,220.307 0,2.192 c 0,0.994 0.553,1.532 1.477,1.532 0.923,0 1.484,-0.538 1.477,-1.532 l 0,-1.527 2.044,0 0,-0.665 -4.998,0 z m 2.394,0.665 0,1.302 c 0.006,0.749 -0.322,1.092 -0.917,1.092 -0.596,0 -0.917,-0.343 -0.917,-1.092 l 0,-1.302 1.834,0" /><path
       inkscape:connector-curvature="0"
       id="path1000"
       style="fill:#000000;fill-opacity:1;fill-rule:nonzero;stroke:none"
       d="m 313.807,224.724 0,0.595 -1.61,0 c -0.917,0 -1.464,0.35 -1.464,1.309 l -0.629,0 c -0.021,-0.644 0.266,-1.043 0.847,-1.33 l 0,-0.014 -0.763,0 0,-0.56 3.619,0" /><path
       inkscape:connector-curvature="0"
       id="path1002"
       style="fill:#000000;fill-opacity:1;fill-rule:nonzero;stroke:none"
       d="m 310.104,228.512 c 0,1.149 0.833,1.757 1.896,1.757 1.058,0 1.891,-0.608 1.891,-1.757 0,-1.147 -0.833,-1.757 -1.891,-1.757 -1.063,0 -1.896,0.61 -1.896,1.757 z m 3.262,0 c 0,0.623 -0.491,1.127 -1.366,1.127 -0.881,0 -1.372,-0.504 -1.372,-1.127 0,-0.623 0.491,-1.127 1.372,-1.127 0.875,0 1.366,0.504 1.366,1.127" /><path
       inkscape:connector-curvature="0"
       id="path1004"
       style="fill:#000000;fill-opacity:1;fill-rule:nonzero;stroke:none"
       d="m 310.188,230.991 0,0.594 0.49,0 0,0.014 c -0.399,0.196 -0.574,0.658 -0.574,1.155 0,1.114 0.882,1.666 1.904,1.666 1.022,0 1.883,-0.546 1.883,-1.652 0,-0.371 -0.141,-0.902 -0.567,-1.169 l 0,-0.014 1.868,0 0,-0.594 -5.004,0 z m 0.44,1.679 c 0,-0.797 0.686,-1.106 1.366,-1.106 0.714,0 1.372,0.322 1.372,1.142 0,0.811 -0.693,1.084 -1.4,1.084 -0.679,0 -1.338,-0.35 -1.338,-1.12" /><path
       inkscape:connector-curvature="0"
       id="path1006"
       style="fill:#000000;fill-opacity:1;fill-rule:nonzero;stroke:none"
       d="m 312.659,238.207 c 0.798,-0.161 1.232,-0.735 1.232,-1.546 0,-1.156 -0.798,-1.702 -1.904,-1.737 -1.085,0 -1.883,0.714 -1.883,1.701 0,1.281 1.197,1.673 2.072,1.638 l 0,-2.709 c 0.63,-0.02 1.19,0.336 1.19,1.127 0,0.49 -0.239,0.833 -0.707,0.939 l 0,0.587 z m -1.008,-0.574 c -0.568,-0.028 -1.023,-0.455 -1.023,-1.043 0,-0.623 0.47,-0.994 1.023,-1.036 l 0,2.079" /><path
       inkscape:connector-curvature="0"
       id="path1008"
       style="fill:#000000;fill-opacity:1;fill-rule:nonzero;stroke:none"
       d="m 310.188,238.858 0,0.56 0.763,0 0,0.014 c -0.581,0.287 -0.868,0.686 -0.847,1.33 l 0.629,0 c 0,-0.959 0.547,-1.309 1.464,-1.309 l 1.61,0 0,-0.595 -3.619,0" /><path
       inkscape:connector-curvature="0"
       id="path1010"
       style="fill:#000000;fill-opacity:1;fill-rule:nonzero;stroke:none"
       d="m 308.809,243.786 0.728,0 0,-0.595 -0.728,0 0,0.595 z m 1.379,0 3.619,0 0,-0.595 -3.619,0 0,0.595 z" /><path
       inkscape:connector-curvature="0"
       id="path1012"
       style="fill:#000000;fill-opacity:1;fill-rule:nonzero;stroke:none"
       d="m 310.188,244.71 0,0.56 0.574,0 0,0.014 c -0.449,0.252 -0.658,0.658 -0.658,1.175 0,0.953 0.545,1.246 1.323,1.246 l 2.38,0 0,-0.594 -2.451,0 c -0.44,0 -0.728,-0.281 -0.728,-0.736 0,-0.72 0.484,-1.07 1.135,-1.07 l 2.044,0 0,-0.595 -3.619,0" /><path
       inkscape:connector-curvature="0"
       id="path1014"
       style="fill:#000000;fill-opacity:1;fill-rule:nonzero;stroke:none"
       d="m 311.35,251.059 c -0.455,-0.091 -0.722,-0.406 -0.722,-0.897 0,-0.86 0.68,-1.126 1.414,-1.126 0.666,0 1.324,0.301 1.324,1.057 0,0.573 -0.336,0.917 -0.883,0.994 l 0,0.609 c 0.883,-0.133 1.408,-0.686 1.408,-1.596 0,-1.106 -0.77,-1.694 -1.849,-1.694 -1.084,0 -1.938,0.56 -1.938,1.708 0,0.819 0.385,1.477 1.246,1.561 l 0,-0.616" /><path
       inkscape:connector-curvature="0"
       id="path1016"
       style="fill:#000000;fill-opacity:1;fill-rule:nonzero;stroke:none"
       d="m 308.809,252.991 4.998,0 0,-0.595 -4.998,0 0,0.595 z" /><path
       inkscape:connector-curvature="0"
       id="path1018"
       style="fill:#000000;fill-opacity:1;fill-rule:nonzero;stroke:none"
       d="m 308.809,254.544 0.728,0 0,-0.595 -0.728,0 0,0.595 z m 1.379,0 3.619,0 0,-0.595 -3.619,0 0,0.595 z" /><path
       inkscape:connector-curvature="0"
       id="path1020"
       style="fill:#000000;fill-opacity:1;fill-rule:nonzero;stroke:none"
       d="m 310.188,255.468 0,0.561 0.574,0 0,0.013 c -0.449,0.252 -0.658,0.659 -0.658,1.176 0,0.952 0.545,1.246 1.323,1.246 l 2.38,0 0,-0.595 -2.451,0 c -0.44,0 -0.728,-0.28 -0.728,-0.735 0,-0.721 0.484,-1.07 1.135,-1.07 l 2.044,0 0,-0.596 -3.619,0" /><path
       inkscape:connector-curvature="0"
       id="path1022"
       style="fill:#000000;fill-opacity:1;fill-rule:nonzero;stroke:none"
       d="m 313.792,262.567 c 0.063,-0.106 0.099,-0.239 0.099,-0.428 0,-0.308 -0.168,-0.504 -0.56,-0.504 0.385,-0.328 0.56,-0.769 0.56,-1.273 0,-0.659 -0.294,-1.198 -1.016,-1.198 -0.818,0 -0.993,0.61 -1.112,1.226 -0.126,0.657 -0.084,1.218 -0.533,1.218 -0.517,0 -0.602,-0.428 -0.602,-0.806 0,-0.504 0.155,-0.875 0.686,-0.902 l 0,-0.596 c -0.896,0.035 -1.21,0.728 -1.21,1.533 0,0.652 0.146,1.359 0.994,1.359 l 1.861,0 c 0.281,0 0.407,0 0.407,0.188 0,0.05 -0.008,0.106 -0.035,0.183 l 0.461,0 z m -1.854,-0.966 c 0.167,-0.232 0.175,-0.68 0.245,-1.078 0.069,-0.393 0.21,-0.729 0.65,-0.729 0.393,0 0.533,0.336 0.533,0.7 0,0.785 -0.491,1.107 -0.819,1.107 l -0.609,0" /><path
       inkscape:connector-curvature="0"
       id="path1024"
       style="fill:#000000;fill-opacity:1;fill-rule:nonzero;stroke:none"
       d="m 310.188,263.946 0,0.72 0.525,0 0,-0.72 2.246,0 c 0.273,0 0.323,0.077 0.323,0.448 l 0,0.272 0.525,0 0,-0.455 c 0,-0.616 -0.126,-0.861 -0.791,-0.861 l -2.303,0 0,-0.615 -0.525,0 0,0.615 -1.085,0 0,0.596 1.085,0" /><path
       inkscape:connector-curvature="0"
       id="path1026"
       style="fill:#000000;fill-opacity:1;fill-rule:nonzero;stroke:none"
       d="m 308.809,265.954 0.728,0 0,-0.595 -0.728,0 0,0.595 z m 1.379,0 3.619,0 0,-0.595 -3.619,0 0,0.595 z" /><path
       inkscape:connector-curvature="0"
       id="path1028"
       style="fill:#000000;fill-opacity:1;fill-rule:nonzero;stroke:none"
       d="m 310.104,268.439 c 0,1.148 0.833,1.758 1.896,1.758 1.058,0 1.891,-0.61 1.891,-1.758 0,-1.148 -0.833,-1.757 -1.891,-1.757 -1.063,0 -1.896,0.609 -1.896,1.757 z m 3.262,0 c 0,0.623 -0.491,1.127 -1.366,1.127 -0.881,0 -1.372,-0.504 -1.372,-1.127 0,-0.623 0.491,-1.127 1.372,-1.127 0.875,0 1.366,0.504 1.366,1.127" /><path
       inkscape:connector-curvature="0"
       id="path1030"
       style="fill:#000000;fill-opacity:1;fill-rule:nonzero;stroke:none"
       d="m 310.188,270.896 0,0.56 0.574,0 0,0.014 c -0.449,0.252 -0.658,0.658 -0.658,1.176 0,0.952 0.545,1.246 1.323,1.246 l 2.38,0 0,-0.595 -2.451,0 c -0.44,0 -0.728,-0.28 -0.728,-0.735 0,-0.721 0.484,-1.071 1.135,-1.071 l 2.044,0 0,-0.595 -3.619,0" /><path
       inkscape:connector-curvature="0"
       id="path1032"
       style="fill:#000000;fill-opacity:1;fill-rule:nonzero;stroke:none"
       d="m 315.192,277.714 c -1.049,-0.672 -2.05,-1.099 -3.275,-1.099 -1.092,0 -2.275,0.385 -3.228,1.099 l 0,0.455 c 1.051,-0.665 2.094,-0.924 3.228,-0.924 1.176,0 2.205,0.259 3.275,0.924 l 0,-0.455" /><path
       inkscape:connector-curvature="0"
       id="path1034"
       style="fill:#000000;fill-opacity:1;fill-rule:nonzero;stroke:none"
       d="m 313.807,281.78 0,-0.594 -0.491,0 0,-0.014 c 0.4,-0.196 0.575,-0.658 0.575,-1.155 0,-1.113 -0.882,-1.666 -1.904,-1.666 -1.022,0 -1.883,0.546 -1.883,1.652 0,0.371 0.14,0.902 0.567,1.169 l 0,0.014 -1.862,0 0,0.594 4.998,0 z m -0.441,-1.679 c 0,0.798 -0.686,1.106 -1.366,1.106 -0.713,0 -1.372,-0.322 -1.372,-1.141 0,-0.812 0.694,-1.085 1.401,-1.085 0.679,0 1.337,0.35 1.337,1.12" /><path
       inkscape:connector-curvature="0"
       id="path1036"
       style="fill:#000000;fill-opacity:1;fill-rule:nonzero;stroke:none"
       d="m 312.659,285.784 c 0.798,-0.16 1.232,-0.734 1.232,-1.547 0,-1.154 -0.798,-1.7 -1.904,-1.735 -1.085,0 -1.883,0.714 -1.883,1.701 0,1.281 1.197,1.673 2.072,1.638 l 0,-2.709 c 0.63,-0.021 1.19,0.336 1.19,1.127 0,0.49 -0.239,0.833 -0.707,0.937 l 0,0.588 z m -1.008,-0.573 c -0.568,-0.028 -1.023,-0.455 -1.023,-1.043 0,-0.623 0.47,-0.994 1.023,-1.036 l 0,2.079" /><path
       inkscape:connector-curvature="0"
       id="path1038"
       style="fill:#000000;fill-opacity:1;fill-rule:nonzero;stroke:none"
       d="m 313.499,289.578 c 1.176,0 1.778,-0.539 1.778,-1.679 0,-0.679 -0.274,-1.463 -1.065,-1.498 l 0,0.594 c 0.434,0.029 0.589,0.547 0.589,0.939 0,0.777 -0.56,1.085 -1.372,1.085 l -0.239,0 0,-0.014 c 0.442,-0.196 0.659,-0.672 0.659,-1.127 0,-1.078 -0.848,-1.617 -1.834,-1.617 -0.854,0 -1.911,0.42 -1.911,1.673 0,0.455 0.203,0.861 0.602,1.078 l 0,-0.007 0,0.014 -0.518,0 0,0.559 3.311,0 z m -1.575,-0.588 c -0.637,0 -1.296,-0.279 -1.296,-1.028 0,-0.764 0.623,-1.071 1.317,-1.071 0.651,0 1.379,0.238 1.379,1.021 0,0.784 -0.721,1.078 -1.4,1.078" /><path
       inkscape:connector-curvature="0"
       id="path1040"
       style="fill:#000000;fill-opacity:1;fill-rule:nonzero;stroke:none"
       d="m 310.188,290.453 0,0.561 0.763,0 0,0.013 c -0.581,0.288 -0.868,0.687 -0.847,1.33 l 0.629,0 c 0,-0.958 0.547,-1.308 1.464,-1.308 l 1.61,0 0,-0.596 -3.619,0" /><path
       inkscape:connector-curvature="0"
       id="path1042"
       style="fill:#000000;fill-opacity:1;fill-rule:nonzero;stroke:none"
       d="m 312.659,295.768 c 0.798,-0.161 1.232,-0.736 1.232,-1.547 0,-1.156 -0.798,-1.701 -1.904,-1.737 -1.085,0 -1.883,0.714 -1.883,1.702 0,1.281 1.197,1.672 2.072,1.637 l 0,-2.709 c 0.63,-0.02 1.19,0.336 1.19,1.127 0,0.491 -0.239,0.833 -0.707,0.939 l 0,0.588 z m -1.008,-0.575 c -0.568,-0.027 -1.023,-0.455 -1.023,-1.043 0,-0.623 0.47,-0.994 1.023,-1.036 l 0,2.079" /><path
       inkscape:connector-curvature="0"
       id="path1044"
       style="fill:#000000;fill-opacity:1;fill-rule:nonzero;stroke:none"
       d="m 312.659,299.526 c 0.798,-0.161 1.232,-0.734 1.232,-1.546 0,-1.156 -0.798,-1.702 -1.904,-1.737 -1.085,0 -1.883,0.715 -1.883,1.701 0,1.282 1.197,1.673 2.072,1.639 l 0,-2.709 c 0.63,-0.021 1.19,0.336 1.19,1.127 0,0.489 -0.239,0.833 -0.707,0.938 l 0,0.587 z m -1.008,-0.574 c -0.568,-0.027 -1.023,-0.454 -1.023,-1.043 0,-0.623 0.47,-0.993 1.023,-1.035 l 0,2.078" /><path
       inkscape:connector-curvature="0"
       id="path1046"
       style="fill:#000000;fill-opacity:1;fill-rule:nonzero;stroke:none"
       d="m 312.666,300.563 c 0.532,0.021 0.7,0.483 0.7,0.972 0,0.371 -0.084,0.875 -0.539,0.875 -0.462,0 -0.539,-0.588 -0.672,-1.182 -0.134,-0.588 -0.329,-1.183 -1.022,-1.183 -0.728,0 -1.029,0.721 -1.029,1.351 0,0.797 0.251,1.434 1.134,1.484 l 0,-0.596 c -0.462,-0.042 -0.61,-0.447 -0.61,-0.84 0,-0.356 0.099,-0.769 0.463,-0.769 0.427,0 0.497,0.63 0.63,1.182 0.133,0.595 0.329,1.183 1.029,1.183 0.861,0 1.141,-0.805 1.141,-1.54 0,-0.811 -0.329,-1.497 -1.225,-1.532 l 0,0.595" /><path
       inkscape:connector-curvature="0"
       id="path1048"
       style="fill:#000000;fill-opacity:1;fill-rule:nonzero;stroke:none"
       d="m 315.192,303.181 c -1.049,0.665 -2.092,0.924 -3.226,0.924 -1.176,0 -2.205,-0.259 -3.277,-0.924 l 0,0.455 c 1.051,0.672 2.052,1.098 3.277,1.098 1.092,0 2.275,-0.384 3.226,-1.098 l 0,-0.455" /><path
       inkscape:connector-curvature="0"
       id="path1050"
       style="fill:#000000;fill-opacity:1;fill-rule:nonzero;stroke:none"
       d="m 331.33,197.859 c 1.554,0 1.652,-1.428 1.652,-2.527 0,-1.092 -0.098,-2.52 -1.652,-2.52 -1.554,0 -1.652,1.428 -1.652,2.52 0,1.099 0.098,2.527 1.652,2.527 z m 0,-4.521 c 1.015,0 1.022,1.259 1.022,2.001 0,0.735 -0.007,1.996 -1.022,1.996 -1.015,0 -1.022,-1.261 -1.022,-1.996 0,-0.742 0.007,-2.001 1.022,-2.001" /><path
       inkscape:connector-curvature="0"
       id="path1052"
       style="fill:#000000;fill-opacity:1;fill-rule:nonzero;stroke:none"
       d="m 330.91,329.597 c 0.091,-0.007 0.175,-0.007 0.259,-0.007 0.504,0 0.945,0.273 0.945,0.812 0,0.518 -0.378,0.798 -0.882,0.798 -0.651,0 -0.931,-0.497 -0.938,-1.078 l -0.595,0 c 0.035,0.945 0.539,1.603 1.533,1.603 0.861,0 1.512,-0.413 1.512,-1.33 0,-0.434 -0.308,-0.812 -0.686,-0.987 l 0,-0.014 c 0.602,-0.133 0.896,-0.609 0.896,-1.204 0,-0.994 -0.777,-1.512 -1.708,-1.512 -1.008,0 -1.673,0.595 -1.652,1.617 l 0.595,0 c 0.021,-0.644 0.378,-1.092 1.057,-1.092 0.581,0 1.078,0.357 1.078,0.959 0,0.623 -0.469,0.952 -1.057,0.952 -0.119,0 -0.245,-0.007 -0.357,-0.021 l 0,0.504" /><path
       inkscape:connector-curvature="0"
       id="path1054"
       style="fill:#000000;fill-opacity:1;fill-rule:nonzero;stroke:none"
       d="m 412.095,179.401 c -0.077,0.714 -0.553,1.022 -1.239,1.022 -0.56,0 -1.12,-0.204 -1.12,-0.854 0,-0.616 0.799,-0.707 1.603,-0.889 0.798,-0.182 1.596,-0.463 1.596,-1.442 0,-1.064 -1.042,-1.491 -1.953,-1.491 -1.12,0 -2.065,0.546 -2.065,1.764 l 0.63,0 c 0,-0.84 0.7,-1.204 1.456,-1.204 0.602,0 1.267,0.189 1.267,0.91 0,0.686 -0.797,0.805 -1.596,0.98 -0.798,0.175 -1.603,0.406 -1.603,1.323 0,1.015 0.904,1.463 1.813,1.463 1.022,0 1.8,-0.483 1.841,-1.582 l -0.63,0" /><path
       inkscape:connector-curvature="0"
       id="path1056"
       style="fill:#000000;fill-opacity:1;fill-rule:nonzero;stroke:none"
       d="m 416.729,177.014 c -0.161,-0.798 -0.734,-1.232 -1.546,-1.232 -1.156,0 -1.702,0.798 -1.737,1.904 0,1.085 0.715,1.883 1.701,1.883 1.281,0 1.673,-1.197 1.638,-2.072 l -2.709,0 c -0.021,-0.63 0.337,-1.19 1.128,-1.19 0.489,0 0.833,0.238 0.938,0.707 l 0.587,0 z m -0.574,1.008 c -0.028,0.567 -0.455,1.022 -1.043,1.022 -0.623,0 -0.993,-0.469 -1.036,-1.022 l 2.079,0" /><path
       inkscape:connector-curvature="0"
       id="path1058"
       style="fill:#000000;fill-opacity:1;fill-rule:nonzero;stroke:none"
       d="m 417.401,179.485 0.56,0 0,-0.532 0.014,0 c 0.266,0.406 0.672,0.616 1.169,0.616 0.441,0 0.847,-0.175 0.994,-0.616 0.245,0.385 0.672,0.616 1.134,0.616 0.721,0 1.204,-0.301 1.204,-1.05 l 0,-2.653 -0.595,0 0,2.373 c 0,0.448 -0.119,0.805 -0.7,0.805 -0.574,0 -0.945,-0.364 -0.945,-0.924 l 0,-2.254 -0.595,0 0,2.373 c 0,0.469 -0.147,0.805 -0.679,0.805 -0.707,0 -0.966,-0.651 -0.966,-0.924 l 0,-2.254 -0.595,0 0,3.619" /><path
       inkscape:connector-curvature="0"
       id="path1060"
       style="fill:#000000;fill-opacity:1;fill-rule:nonzero;stroke:none"
       d="m 423.407,180.136 0.595,0 0,0.728 -0.595,0 0,-0.728 z m 0,-4.27 0.595,0 0,3.619 -0.595,0 0,-3.619 z" /><path
       inkscape:connector-curvature="0"
       id="path1062"
       style="fill:#000000;fill-opacity:1;fill-rule:nonzero;stroke:none"
       d="m 424.926,179.485 0.56,0 0,-0.532 0.014,0 c 0.266,0.406 0.672,0.616 1.169,0.616 0.441,0 0.847,-0.175 0.994,-0.616 0.245,0.385 0.672,0.616 1.134,0.616 0.721,0 1.204,-0.301 1.204,-1.05 l 0,-2.653 -0.595,0 0,2.373 c 0,0.448 -0.119,0.805 -0.7,0.805 -0.574,0 -0.945,-0.364 -0.945,-0.924 l 0,-2.254 -0.595,0 0,2.373 c 0,0.469 -0.147,0.805 -0.679,0.805 -0.707,0 -0.966,-0.651 -0.966,-0.924 l 0,-2.254 -0.595,0 0,3.619" /><path
       inkscape:connector-curvature="0"
       id="path1064"
       style="fill:#000000;fill-opacity:1;fill-rule:nonzero;stroke:none"
       d="m 434.103,175.88 c -0.105,-0.063 -0.238,-0.098 -0.427,-0.098 -0.309,0 -0.504,0.168 -0.504,0.56 -0.329,-0.385 -0.77,-0.56 -1.274,-0.56 -0.658,0 -1.197,0.294 -1.197,1.015 0,0.819 0.609,0.994 1.225,1.113 0.658,0.126 1.218,0.084 1.218,0.532 0,0.518 -0.427,0.602 -0.805,0.602 -0.504,0 -0.875,-0.154 -0.903,-0.686 l -0.595,0 c 0.035,0.896 0.728,1.211 1.533,1.211 0.651,0 1.358,-0.147 1.358,-0.994 l 0,-1.862 c 0,-0.28 0,-0.406 0.189,-0.406 0.049,0 0.105,0.007 0.182,0.035 l 0,-0.462 z m -0.966,1.855 c -0.231,-0.168 -0.679,-0.175 -1.078,-0.245 -0.392,-0.07 -0.728,-0.21 -0.728,-0.651 0,-0.392 0.336,-0.532 0.7,-0.532 0.784,0 1.106,0.49 1.106,0.819 l 0,0.609" /><path
       inkscape:connector-curvature="0"
       id="path1066"
       style="fill:#000000;fill-opacity:1;fill-rule:nonzero;stroke:none"
       d="m 435.285,175.404 c 0,-0.644 -0.342,-0.924 -0.867,-0.924 -0.098,0 -0.203,0.007 -0.308,0.028 l 0,0.511 c 0.084,-0.014 0.161,-0.014 0.245,-0.014 0.259,0 0.336,0.126 0.336,0.497 l 0,3.983 0.594,0 0,-4.081 z m -0.594,5.46 0.595,0 0,-0.728 -0.595,0 0,0.728 z" /><path
       inkscape:connector-curvature="0"
       id="path1068"
       style="fill:#000000;fill-opacity:1;fill-rule:nonzero;stroke:none"
       d="m 437.771,179.569 c 1.148,0 1.757,-0.833 1.757,-1.897 0,-1.057 -0.609,-1.89 -1.757,-1.89 -1.149,0 -1.757,0.833 -1.757,1.89 0,1.064 0.608,1.897 1.757,1.897 z m 0,-3.262 c 0.623,0 1.127,0.49 1.127,1.365 0,0.882 -0.504,1.372 -1.127,1.372 -0.623,0 -1.127,-0.49 -1.127,-1.372 0,-0.875 0.504,-1.365 1.127,-1.365" /><path
       inkscape:connector-curvature="0"
       id="path1070"
       style="fill:#000000;fill-opacity:1;fill-rule:nonzero;stroke:none"
       d="m 440.206,179.485 0.561,0 0,-0.763 0.014,0 c 0.287,0.58 0.686,0.868 1.33,0.847 l 0,-0.63 c -0.959,0 -1.309,-0.546 -1.309,-1.463 l 0,-1.61 -0.596,0 0,3.619" /><path
       inkscape:connector-curvature="0"
       id="path1072"
       style="fill:#000000;fill-opacity:1;fill-rule:nonzero;stroke:none"
       d="m 447.71,175.88 c -0.104,-0.063 -0.237,-0.098 -0.427,-0.098 -0.307,0 -0.503,0.168 -0.503,0.56 -0.33,-0.385 -0.77,-0.56 -1.275,-0.56 -0.657,0 -1.196,0.294 -1.196,1.015 0,0.819 0.608,0.994 1.224,1.113 0.659,0.126 1.218,0.084 1.218,0.532 0,0.518 -0.427,0.602 -0.804,0.602 -0.504,0 -0.875,-0.154 -0.904,-0.686 l -0.594,0 c 0.035,0.896 0.728,1.211 1.533,1.211 0.651,0 1.357,-0.147 1.357,-0.994 l 0,-1.862 c 0,-0.28 0,-0.406 0.19,-0.406 0.048,0 0.105,0.007 0.181,0.035 l 0,-0.462 z m -0.966,1.855 c -0.23,-0.168 -0.678,-0.175 -1.078,-0.245 -0.391,-0.07 -0.727,-0.21 -0.727,-0.651 0,-0.392 0.336,-0.532 0.7,-0.532 0.783,0 1.105,0.49 1.105,0.819 l 0,0.609" /><path
       inkscape:connector-curvature="0"
       id="path1074"
       style="fill:#000000;fill-opacity:1;fill-rule:nonzero;stroke:none"
       d="m 449.237,177.77 -1.26,1.715 0.763,0 0.868,-1.268 0.902,1.268 0.715,0 -1.246,-1.666 1.399,-1.953 -0.762,0 -1.008,1.498 -1.008,-1.498 -0.722,0 1.359,1.904" /><path
       inkscape:connector-curvature="0"
       id="path1076"
       style="fill:#000000;fill-opacity:1;fill-rule:nonzero;stroke:none"
       d="m 451.924,180.136 0.596,0 0,0.728 -0.596,0 0,-0.728 z m 0,-4.27 0.596,0 0,3.619 -0.596,0 0,-3.619 z" /><path
       inkscape:connector-curvature="0"
       id="path1078"
       style="fill:#000000;fill-opacity:1;fill-rule:nonzero;stroke:none"
       d="m 453.807,177.007 c 0.021,-0.532 0.483,-0.7 0.973,-0.7 0.372,0 0.876,0.084 0.876,0.539 0,0.462 -0.588,0.539 -1.184,0.672 -0.588,0.133 -1.183,0.329 -1.183,1.022 0,0.728 0.721,1.029 1.351,1.029 0.799,0 1.435,-0.252 1.484,-1.134 l -0.595,0 c -0.042,0.462 -0.448,0.609 -0.839,0.609 -0.358,0 -0.771,-0.098 -0.771,-0.462 0,-0.427 0.63,-0.497 1.184,-0.63 0.594,-0.133 1.182,-0.329 1.182,-1.029 0,-0.861 -0.804,-1.141 -1.54,-1.141 -0.812,0 -1.498,0.329 -1.533,1.225 l 0.595,0" /><path
       inkscape:connector-curvature="0"
       id="path1080"
       style="fill:#000000;fill-opacity:1;fill-rule:nonzero;stroke:none"
       d="m 459.869,174.48 c -0.672,1.05 -1.098,2.051 -1.098,3.276 0,1.092 0.384,2.275 1.098,3.227 l 0.455,0 c -0.665,-1.05 -0.923,-2.093 -0.923,-3.227 0,-1.176 0.258,-2.206 0.923,-3.276 l -0.455,0" /><path
       inkscape:connector-curvature="0"
       id="path1082"
       style="fill:#000000;fill-opacity:1;fill-rule:nonzero;stroke:none"
       d="m 461.75,179.793 0.577,0 1.535,-3.927 -0.578,0 -0.428,1.183 -1.661,0 -0.44,-1.183 -0.539,0 1.534,3.927 z m -0.39,-2.305 1.331,0 -0.655,1.832 -0.01,0 -0.666,-1.832" /><path
       inkscape:connector-curvature="0"
       id="path1084"
       style="fill:#000000;fill-opacity:1;fill-rule:nonzero;stroke:none"
       d="m 467.382,177.285 c 0,-0.99 -0.566,-1.513 -1.545,-1.513 -1.013,0 -1.612,0.468 -1.612,1.513 l 0,2.508 0.522,0 0,-2.508 c 0,-0.693 0.397,-1.072 1.09,-1.072 0.659,0 1.023,0.379 1.023,1.072 l 0,2.508 0.522,0 0,-2.508" /><path
       inkscape:connector-curvature="0"
       id="path1086"
       style="fill:#000000;fill-opacity:1;fill-rule:nonzero;stroke:none"
       d="m 468.174,174.48 c 0.714,0.952 1.099,2.135 1.099,3.227 0,1.225 -0.427,2.226 -1.099,3.276 l -0.455,0 c 0.665,-1.071 0.924,-2.1 0.924,-3.276 0,-1.134 -0.259,-2.177 -0.924,-3.227 l 0.455,0" /><path
       inkscape:connector-curvature="0"
       id="path1088"
       style="fill:#000000;fill-opacity:1;fill-rule:nonzero;stroke:none"
       d="m 335.881,192.112 c 1.554,0 1.652,-1.428 1.652,-2.527 0,-1.092 -0.098,-2.52 -1.652,-2.52 -1.554,0 -1.652,1.428 -1.652,2.52 0,1.099 0.098,2.527 1.652,2.527 z m 0,-4.521 c 1.015,0 1.022,1.259 1.022,2.001 0,0.735 -0.007,1.995 -1.022,1.995 -1.015,0 -1.022,-1.26 -1.022,-1.995 0,-0.742 0.007,-2.001 1.022,-2.001" /></g></svg>