<?xml version="1.0" encoding="UTF-8" standalone="no"?>
<!-- Created with Inkscape (http://www.inkscape.org/) -->

<svg
   xmlns:dc="http://purl.org/dc/elements/1.1/"
   xmlns:cc="http://creativecommons.org/ns#"
   xmlns:rdf="http://www.w3.org/1999/02/22-rdf-syntax-ns#"
   xmlns:svg="http://www.w3.org/2000/svg"
   xmlns="http://www.w3.org/2000/svg"
   xmlns:sodipodi="http://sodipodi.sourceforge.net/DTD/sodipodi-0.dtd"
   xmlns:inkscape="http://www.inkscape.org/namespaces/inkscape"
   id="svg2"
   version="1.1"
   inkscape:version="0.48.4 r9939"
   width="302.50806"
   height="393.81467"
   xml:space="preserve"
   sodipodi:docname="Tsiganis2005-2.svg"><metadata
     id="metadata8"><rdf:RDF><cc:Work
         rdf:about=""><dc:format>image/svg+xml</dc:format><dc:type
           rdf:resource="http://purl.org/dc/dcmitype/StillImage" /><dc:title /></cc:Work></rdf:RDF></metadata><defs
     id="defs6"><clipPath
       clipPathUnits="userSpaceOnUse"
       id="clipPath1252"><path
         d="m 0,782.362 595.275,0 0,-782.302 L 0,0.06 0,782.362 z"
         id="path1254"
         inkscape:connector-curvature="0" /></clipPath></defs><sodipodi:namedview
     pagecolor="#ffffff"
     bordercolor="#666666"
     borderopacity="1"
     objecttolerance="10"
     gridtolerance="10"
     guidetolerance="10"
     inkscape:pageopacity="0"
     inkscape:pageshadow="2"
     inkscape:window-width="1280"
     inkscape:window-height="952"
     id="namedview4"
     showgrid="false"
     fit-margin-top="5"
     fit-margin-right="5"
     fit-margin-bottom="5"
     fit-margin-left="5"
     inkscape:zoom="1.91"
     inkscape:cx="130.62431"
     inkscape:cy="198.13037"
     inkscape:window-x="0"
     inkscape:window-y="24"
     inkscape:window-maximized="1"
     inkscape:current-layer="g10" /><g
     id="g10"
     inkscape:groupmode="layer"
     inkscape:label="Tsiganis2005"
     transform="matrix(1.25,0,0,-1.25,-380.86125,606.91467)"><path
       inkscape:connector-curvature="0"
       id="path844"
       style="fill:none;stroke:#000000;stroke-width:0.5;stroke-linecap:round;stroke-linejoin:round;stroke-miterlimit:10;stroke-opacity:1;stroke-dasharray:none"
       d="m 336.431,346.706 206.008,0 m -206.008,0 0,5.682 m 5.722,-5.682 0,2.838 m 5.723,-2.838 0,2.838 m 5.722,-2.838 0,2.838 m 5.723,-2.838 0,2.838 m 5.722,-2.838 0,5.682 m 5.722,-5.682 0,2.838 m 5.722,-2.838 0,2.838 m 5.724,-2.838 0,2.838 m 5.72,-2.838 0,2.838 m 5.722,-2.838 0,5.682 m 5.725,-5.682 0,2.838 m 5.723,-2.838 0,2.838 m 5.721,-2.838 0,2.838 m 5.722,-2.838 0,2.838 m 5.722,-2.838 0,5.682 m 5.722,-5.682 0,2.838 m 5.724,-2.838 0,2.838 m 5.721,-2.838 0,2.838 m 5.723,-2.838 0,2.838 m 5.724,-2.838 0,5.682 m 5.721,-5.682 0,2.838 m 5.723,-2.838 0,2.838 m 5.72,-2.838 0,2.838 m 5.725,-2.838 0,2.838 m 5.72,-2.838 0,5.682 m 5.724,-5.682 0,2.838 m 5.721,-2.838 0,2.838 m 5.724,-2.838 0,2.838 m 5.722,-2.838 0,2.838 m 5.723,-2.838 0,5.682 m 5.718,-5.682 0,2.838 m 5.724,-2.838 0,2.838 m 5.724,-2.838 0,2.838 m 5.723,-2.838 0,2.838 m 5.723,-2.838 0,5.682 m 5.724,-5.682 0,2.838 m -206.008,131.73 206.008,0 m -206.008,0 0,-5.68 m 5.722,5.68 0,-2.838 m 5.723,2.838 0,-2.838 m 5.722,2.838 0,-2.838 m 5.723,2.838 0,-2.838 m 5.722,2.838 0,-5.68 m 5.722,5.68 0,-2.838 m 5.722,2.838 0,-2.838 m 5.724,2.838 0,-2.838 m 5.72,2.838 0,-2.838 m 5.722,2.838 0,-5.68 m 5.725,5.68 0,-2.838 m 5.723,2.838 0,-2.838 m 5.721,2.838 0,-2.838 m 5.722,2.838 0,-2.838 m 5.722,2.838 0,-5.68 m 5.722,5.68 0,-2.838 m 5.724,2.838 0,-2.838 m 5.721,2.838 0,-2.838 m 5.723,2.838 0,-2.838 m 5.724,2.838 0,-5.68 m 5.721,5.68 0,-2.838 m 5.723,2.838 0,-2.838 m 5.72,2.838 0,-2.838 m 5.725,2.838 0,-2.838 m 5.72,2.838 0,-5.68 m 5.724,5.68 0,-2.838 m 5.721,2.838 0,-2.838 m 5.724,2.838 0,-2.838 m 5.722,2.838 0,-2.838 m 5.723,2.838 0,-5.68 m 5.718,5.68 0,-2.838 m 5.724,2.838 0,-2.838 m 5.724,2.838 0,-2.838 m 5.723,2.838 0,-2.838 m 5.723,2.838 0,-5.68 m 5.724,5.68 0,-2.838 m -206.008,-131.73 0,134.568 m 0,-134.568 5.679,0 m -5.679,8.412 2.837,0 m -2.837,8.409 2.837,0 m -2.837,8.412 2.837,0 m -2.837,8.411 2.837,0 m -2.837,8.412 5.679,0 m -5.679,8.407 2.837,0 m -2.837,8.412 2.837,0 m -2.837,8.412 2.837,0 m -2.837,8.406 2.837,0 m -2.837,8.413 5.679,0 m -5.679,8.412 2.837,0 m -2.837,8.406 2.837,0 m -2.837,8.412 2.837,0 m -2.837,8.413 2.837,0 m -2.837,8.407 5.679,0 m -5.679,8.412 2.837,0" /><path
       inkscape:connector-curvature="0"
       id="path846"
       style="fill:none;stroke:#000000;stroke-width:0.5;stroke-linecap:round;stroke-linejoin:round;stroke-miterlimit:10;stroke-opacity:1;stroke-dasharray:none"
       d="m 542.439,346.706 0,134.568 m 0,-134.568 -5.681,0 m 5.681,8.412 -2.841,0 m 2.841,8.409 -2.841,0 m 2.841,8.412 -2.841,0 m 2.841,8.411 -2.841,0 m 2.841,8.412 -5.681,0 m 5.681,8.407 -2.841,0 m 2.841,8.412 -2.841,0 m 2.841,8.412 -2.841,0 m 2.841,8.406 -2.841,0 m 2.841,8.413 -5.681,0 m 5.681,8.412 -2.841,0 m 2.841,8.406 -2.841,0 m 2.841,8.412 -2.841,0 m 2.841,8.413 -2.841,0 m 2.841,8.407 -5.681,0 m 5.681,8.412 -2.841,0" /><path
       inkscape:connector-curvature="0"
       id="path848"
       style="fill:none;stroke:#888888;stroke-width:0.5;stroke-linecap:round;stroke-linejoin:round;stroke-miterlimit:10;stroke-opacity:1;stroke-dasharray:none"
       d="m 367.966,363.564 c 0,1.045 -0.85,1.893 -1.894,1.893 -1.044,0 -1.893,-0.848 -1.893,-1.893 0,-1.045 0.849,-1.893 1.893,-1.893 1.044,0 1.894,0.848 1.894,1.893 m 22.716,8.354 c 0,1.046 -0.847,1.895 -1.892,1.895 -1.045,0 -1.893,-0.849 -1.893,-1.895 0,-1.044 0.848,-1.892 1.893,-1.892 1.045,0 1.892,0.848 1.892,1.892 m 47.671,10.988 c 0,1.045 -0.85,1.893 -1.898,1.893 -1.042,0 -1.89,-0.848 -1.89,-1.893 0,-1.045 0.848,-1.893 1.89,-1.893 1.048,0 1.898,0.848 1.898,1.893 m 72.216,-7.554 c 0,1.045 -0.849,1.893 -1.896,1.893 -1.043,0 -1.892,-0.848 -1.892,-1.893 0,-1.044 0.849,-1.893 1.892,-1.893 1.047,0 1.896,0.849 1.896,1.893 m -144.525,-11.825 0.632,0 m 0,1.883 0,-3.768 0,3.768 z m 22.12,6.529 1.735,0 m 0,1.882 0,-3.767 0,3.767 z m 45.937,9.052 7.92,0 m 0,1.884 0,-3.769 0,3.769 z m 64.336,-9.452 11.998,0 m 0,1.884 0,-3.768 0,3.768 z m -154.678,-13.662 -0.636,0 m 0,1.883 0,-3.768 0,3.768 z m 23.388,6.529 -1.732,0 m 0,1.882 0,-3.767 0,3.767 z m 49.404,9.052 -7.917,0 m 0,1.884 0,-3.769 0,3.769 z m 80.173,-9.452 -12.004,0 m 0,1.884 0,-3.768 0,3.768 z m -130.676,-13.662 0,8.412 m 1.884,0 -3.768,0 3.768,0 z m 20.868,0 0,14.296 m 1.882,0 -3.767,0 3.767,0 z m 45.79,-3.362 0,30.276 m 1.885,0 -3.769,0 3.769,0 z m 70.371,-37.844 0,21.024 m 1.882,0 -3.767,0 3.767,0 z m -144.562,-32.802 0,-8.409 m 1.884,0 -3.768,0 3.768,0 z m 20.868,16.821 0,-14.298 m 1.882,0 -3.767,0 3.767,0 z m 45.79,25.232 0,-30.278 m 1.885,0 -3.769,0 3.769,0 z m 70.371,22.71 0,-21.03 m 1.882,0 -3.767,0 3.767,0 z" /><path
       inkscape:connector-curvature="0"
       id="path850"
       style="fill:none;stroke:#000000;stroke-width:0.5;stroke-linecap:round;stroke-linejoin:round;stroke-miterlimit:10;stroke-opacity:1;stroke-dasharray:none"
       d="m 367.966,383.708 c 0,1.045 -0.85,1.892 -1.894,1.892 -1.044,0 -1.893,-0.847 -1.893,-1.892 0,-1.046 0.849,-1.894 1.893,-1.894 1.044,0 1.894,0.848 1.894,1.894 m 22.145,29.413 c 0,1.044 -0.847,1.893 -1.894,1.893 -1.044,0 -1.892,-0.849 -1.892,-1.893 0,-1.046 0.848,-1.894 1.892,-1.894 1.047,0 1.894,0.848 1.894,1.894 m 58.767,-3.32 c 0,1.045 -0.845,1.892 -1.891,1.892 -1.047,0 -1.893,-0.847 -1.893,-1.892 0,-1.044 0.846,-1.892 1.893,-1.892 1.046,0 1.891,0.848 1.891,1.892 m 60.316,-21.859 c 0,1.044 -0.846,1.893 -1.892,1.893 -1.047,0 -1.892,-0.849 -1.892,-1.893 0,-1.045 0.845,-1.895 1.892,-1.895 1.046,0 1.892,0.85 1.892,1.895 m -143.126,-4.23 0.434,0 m 0,1.884 0,-3.768 0,3.768 z m 21.721,27.553 2.274,0 m 0,1.882 0,-3.766 0,3.766 z m 56.493,-5.245 7.171,0 m 0,1.883 0,-3.766 0,3.766 z m 53.121,-23.75 13.887,0 m 0,1.882 0,-3.767 0,3.767 z m -155.101,-6.089 -0.435,0 m 0,1.884 0,-3.768 0,3.768 z m 22.59,27.553 -2.271,0 m 0,1.882 0,-3.766 0,3.766 z m 61.038,-5.245 -7.16,0 m 0,1.883 0,-3.766 0,3.766 z m 67.452,-23.75 -13.882,0 m 0,1.882 0,-3.767 0,3.767 z m -127.332,-6.089 0,20.186 m 1.884,0 -3.768,0 3.768,0 z m 20.271,9.251 0,33.642 m 1.884,0 -3.769,0 3.769,0 z m 56.883,-37.005 0,48.78 m 1.885,0 -3.767,0 3.767,0 z m 58.407,-70.647 0,34.48 m 1.883,0 -3.767,0 3.767,0 z m -143.097,-38.687 0,-20.185 m 1.884,0 -3.768,0 3.768,0 z m 20.271,49.622 0,-33.642 m 1.884,0 -3.769,0 3.769,0 z m 56.883,30.279 0,-48.783 m 1.885,0 -3.767,0 3.767,0 z m 58.407,26.916 0,-34.484 m 1.883,0 -3.767,0 3.767,0 z" /><path
       inkscape:connector-curvature="0"
       id="path852"
       style="fill:#000000;fill-opacity:1;fill-rule:nonzero;stroke:none"
       d="m 368.08,398.815 c 0,1.044 -0.849,1.893 -1.893,1.893 -1.046,0 -1.893,-0.849 -1.893,-1.893 0,-1.044 0.847,-1.894 1.893,-1.894 1.044,0 1.893,0.85 1.893,1.894" /><path
       inkscape:connector-curvature="0"
       id="path854"
       style="fill:#000000;fill-opacity:1;fill-rule:nonzero;stroke:none"
       d="m 393.029,421.588 c 0,1.047 -0.847,1.894 -1.892,1.894 -1.047,0 -1.894,-0.847 -1.894,-1.894 0,-1.044 0.847,-1.891 1.894,-1.891 1.045,0 1.892,0.847 1.892,1.891" /><path
       inkscape:connector-curvature="0"
       id="path856"
       style="fill:#000000;fill-opacity:1;fill-rule:nonzero;stroke:none"
       d="m 448.309,411.459 c 0,1.047 -0.851,1.895 -1.895,1.895 -1.045,0 -1.892,-0.848 -1.892,-1.895 0,-1.043 0.847,-1.891 1.892,-1.891 1.044,0 1.895,0.848 1.895,1.891" /><path
       inkscape:connector-curvature="0"
       id="path858"
       style="fill:#000000;fill-opacity:1;fill-rule:nonzero;stroke:none"
       d="m 510.623,365.166 c 0,1.044 -0.846,1.894 -1.892,1.894 -1.044,0 -1.892,-0.85 -1.892,-1.894 0,-1.044 0.848,-1.892 1.892,-1.892 1.046,0 1.892,0.848 1.892,1.892" /><path
       inkscape:connector-curvature="0"
       id="path860"
       style="fill:none;stroke:#000000;stroke-width:0.5;stroke-linecap:round;stroke-linejoin:round;stroke-miterlimit:10;stroke-opacity:1;stroke-dasharray:none"
       d="m 336.431,194.932 206.008,0 m -206.008,0 0,5.68 m 5.722,-5.68 0,2.837 m 5.723,-2.837 0,2.837 m 5.722,-2.837 0,2.837 m 5.723,-2.837 0,2.837 m 5.722,-2.837 0,5.68 m 5.722,-5.68 0,2.837 m 5.722,-2.837 0,2.837 m 5.724,-2.837 0,2.837 m 5.72,-2.837 0,2.837 m 5.722,-2.837 0,5.68 m 5.725,-5.68 0,2.837 m 5.723,-2.837 0,2.837 m 5.721,-2.837 0,2.837 m 5.722,-2.837 0,2.837 m 5.722,-2.837 0,5.68 m 5.722,-5.68 0,2.837 m 5.724,-2.837 0,2.837 m 5.721,-2.837 0,2.837 m 5.723,-2.837 0,2.837 m 5.724,-2.837 0,5.68 m 5.721,-5.68 0,2.837 m 5.723,-2.837 0,2.837 m 5.72,-2.837 0,2.837 m 5.725,-2.837 0,2.837 m 5.72,-2.837 0,5.68 m 5.724,-5.68 0,2.837 m 5.721,-2.837 0,2.837 m 5.724,-2.837 0,2.837 m 5.722,-2.837 0,2.837 m 5.723,-2.837 0,5.68 m 5.718,-5.68 0,2.837 m 5.724,-2.837 0,2.837 m 5.724,-2.837 0,2.837 m 5.723,-2.837 0,2.837 m 5.723,-2.837 0,5.68 m 5.724,-5.68 0,2.837 m -206.008,131.73 206.008,0 m -206.008,0 0,-5.681 m 5.722,5.681 0,-2.839 m 5.723,2.839 0,-2.839 m 5.722,2.839 0,-2.839 m 5.723,2.839 0,-2.839 m 5.722,2.839 0,-5.681 m 5.722,5.681 0,-2.839 m 5.722,2.839 0,-2.839 m 5.724,2.839 0,-2.839 m 5.72,2.839 0,-2.839 m 5.722,2.839 0,-5.681 m 5.725,5.681 0,-2.839 m 5.723,2.839 0,-2.839 m 5.721,2.839 0,-2.839 m 5.722,2.839 0,-2.839 m 5.722,2.839 0,-5.681 m 5.722,5.681 0,-2.839 m 5.724,2.839 0,-2.839 m 5.721,2.839 0,-2.839 m 5.723,2.839 0,-2.839 m 5.724,2.839 0,-5.681 m 5.721,5.681 0,-2.839 m 5.723,2.839 0,-2.839 m 5.72,2.839 0,-2.839 m 5.725,2.839 0,-2.839 m 5.72,2.839 0,-5.681 m 5.724,5.681 0,-2.839 m 5.721,2.839 0,-2.839 m 5.724,2.839 0,-2.839 m 5.722,2.839 0,-2.839 m 5.723,2.839 0,-5.681 m 5.718,5.681 0,-2.839 m 5.724,2.839 0,-2.839 m 5.724,2.839 0,-2.839 m 5.723,2.839 0,-2.839 m 5.723,2.839 0,-5.681 m 5.724,5.681 0,-2.839 m -206.008,-131.728 0,134.567 m 0,-134.567 5.679,0 m -5.679,8.968 2.837,0 m -2.837,8.976 2.837,0 m -2.837,8.971 2.837,0 m -2.837,8.969 2.837,0 m -2.837,8.971 5.679,0 m -5.679,8.974 2.837,0 m -2.837,8.968 2.837,0 m -2.837,8.972 2.837,0 m -2.837,8.968 2.837,0 m -2.837,8.977 5.679,0 m -5.679,8.969 2.837,0 m -2.837,8.969 2.837,0 m -2.837,8.97 2.837,0 m -2.837,8.973 2.837,0 m -2.837,8.972 5.679,0" /><path
       inkscape:connector-curvature="0"
       id="path862"
       style="fill:none;stroke:#000000;stroke-width:0.5;stroke-linecap:round;stroke-linejoin:round;stroke-miterlimit:10;stroke-opacity:1;stroke-dasharray:none"
       d="m 542.439,194.932 0,134.567 m 0,-134.567 -5.681,0 m 5.681,8.968 -2.841,0 m 2.841,8.976 -2.841,0 m 2.841,8.971 -2.841,0 m 2.841,8.969 -2.841,0 m 2.841,8.971 -5.681,0 m 5.681,8.974 -2.841,0 m 2.841,8.968 -2.841,0 m 2.841,8.972 -2.841,0 m 2.841,8.968 -2.841,0 m 2.841,8.977 -5.681,0 m 5.681,8.969 -2.841,0 m 2.841,8.969 -2.841,0 m 2.841,8.97 -2.841,0 m 2.841,8.973 -2.841,0 m 2.841,8.972 -5.681,0" /><path
       inkscape:connector-curvature="0"
       id="path864"
       style="fill:none;stroke:#888888;stroke-width:0.5;stroke-linecap:round;stroke-linejoin:round;stroke-miterlimit:10;stroke-opacity:1;stroke-dasharray:none"
       d="m 367.966,194.932 c 0,1.047 -0.85,1.894 -1.894,1.894 -1.044,0 -1.893,-0.847 -1.893,-1.894 0,-1.044 0.849,-1.891 1.893,-1.891 1.044,0 1.894,0.847 1.894,1.891 m 22.716,29.127 c 0,1.044 -0.847,1.893 -1.892,1.893 -1.045,0 -1.893,-0.849 -1.893,-1.893 0,-1.048 0.848,-1.893 1.893,-1.893 1.045,0 1.892,0.845 1.892,1.893 m 47.671,17.969 c 0,1.044 -0.85,1.896 -1.898,1.896 -1.042,0 -1.89,-0.852 -1.89,-1.896 0,-1.047 0.848,-1.895 1.89,-1.895 1.048,0 1.898,0.848 1.898,1.895 m 72.216,3.433 c 0,1.043 -0.849,1.893 -1.896,1.893 -1.043,0 -1.892,-0.85 -1.892,-1.893 0,-1.045 0.849,-1.894 1.892,-1.894 1.047,0 1.896,0.849 1.896,1.894 m -144.525,-50.529 0.632,0 m 0,1.883 0,-3.768 0,3.768 z m 22.12,27.273 1.735,0 m 0,1.882 0,-3.766 0,3.766 z m 45.937,16.105 7.92,0 m 0,1.882 0,-3.766 0,3.766 z m 64.336,1.478 11.998,0 m 0,1.886 0,-3.768 0,3.768 z m -154.678,-52.389 -0.636,0 m 0,1.883 0,-3.768 0,3.768 z m 23.388,27.273 -1.732,0 m 0,1.882 0,-3.766 0,3.766 z m 49.404,16.105 -7.917,0 m 0,1.882 0,-3.766 0,3.766 z m 80.173,1.478 -12.004,0 m 0,1.886 0,-3.768 0,3.768 z m -130.676,-52.389 0,0 m 1.884,0 -3.768,0 3.768,0 z m 20.868,29.156 0,21.485 m 1.882,0 -3.767,0 3.767,0 z m 45.79,-3.498 0,28.666 m 1.885,0 -3.769,0 3.769,0 z m 70.371,-25.306 0,41.272 m 1.882,0 -3.767,0 3.767,0 z m -144.562,-91.775 0,0 m 1.884,0 -3.768,0 3.768,0 z m 20.868,29.156 0,-21.489 m 1.882,0 -3.767,0 3.767,0 z m 45.79,39.476 0,-28.667 m 1.885,0 -3.769,0 3.769,0 z m 70.371,32.027 0,-41.26 m 1.882,0 -3.767,0 3.767,0 z" /><path
       inkscape:connector-curvature="0"
       id="path866"
       style="fill:none;stroke:#000000;stroke-width:0.5;stroke-linecap:round;stroke-linejoin:round;stroke-miterlimit:10;stroke-opacity:1;stroke-dasharray:none"
       d="m 367.966,194.932 c 0,1.047 -0.85,1.894 -1.894,1.894 -1.044,0 -1.893,-0.847 -1.893,-1.894 0,-1.044 0.849,-1.891 1.893,-1.891 1.044,0 1.894,0.847 1.894,1.891 m 22.145,56.651 c 0,1.047 -0.847,1.893 -1.894,1.893 -1.044,0 -1.892,-0.846 -1.892,-1.893 0,-1.045 0.848,-1.891 1.892,-1.891 1.047,0 1.894,0.846 1.894,1.891 m 58.767,8.526 c 0,1.047 -0.845,1.893 -1.891,1.893 -1.047,0 -1.893,-0.846 -1.893,-1.893 0,-1.046 0.846,-1.893 1.893,-1.893 1.046,0 1.891,0.847 1.891,1.893 m 60.316,-15.793 c 0,1.046 -0.846,1.894 -1.892,1.894 -1.047,0 -1.892,-0.848 -1.892,-1.894 0,-1.046 0.845,-1.892 1.892,-1.892 1.046,0 1.892,0.846 1.892,1.892 m -143.126,-49.384 0.434,0 m 0,1.883 0,-3.768 0,3.768 z m 21.721,54.768 2.274,0 m 0,1.884 0,-3.766 0,3.766 z m 56.493,6.598 7.171,0 m 0,1.881 0,-3.768 0,3.768 z m 53.121,-17.63 13.887,0 m 0,1.884 0,-3.768 0,3.768 z m -155.101,-51.268 -0.435,0 m 0,1.883 0,-3.768 0,3.768 z m 22.59,54.768 -2.271,0 m 0,1.884 0,-3.766 0,3.766 z m 61.038,6.598 -7.16,0 m 0,1.881 0,-3.768 0,3.768 z m 67.452,-17.63 -13.882,0 m 0,1.884 0,-3.768 0,3.768 z m -127.332,-51.268 0,0 m 1.884,0 -3.768,0 3.768,0 z m 20.271,56.651 0,27.232 m 1.884,0 -3.769,0 3.769,0 z m 56.883,-18.75 0,54.9 m 1.885,0 -3.767,0 3.767,0 z m 58.407,-70.649 0,30.954 m 1.883,0 -3.767,0 3.767,0 z m -143.097,-80.338 0,0 m 1.884,0 -3.768,0 3.768,0 z m 20.271,56.651 0,-27.222 m 1.884,0 -3.769,0 3.769,0 z m 56.883,35.704 0,-54.906 m 1.885,0 -3.767,0 3.767,0 z m 58.407,39.157 0,-30.947 m 1.883,0 -3.767,0 3.767,0 z" /><path
       inkscape:connector-curvature="0"
       id="path868"
       style="fill:#000000;fill-opacity:1;fill-rule:nonzero;stroke:none"
       d="m 368.08,194.932 c 0,1.047 -0.849,1.894 -1.893,1.894 -1.046,0 -1.893,-0.847 -1.893,-1.894 0,-1.044 0.847,-1.891 1.893,-1.891 1.044,0 1.893,0.847 1.893,1.891" /><path
       inkscape:connector-curvature="0"
       id="path870"
       style="fill:#000000;fill-opacity:1;fill-rule:nonzero;stroke:none"
       d="m 393.029,252.786 c 0,1.044 -0.847,1.894 -1.892,1.894 -1.047,0 -1.894,-0.85 -1.894,-1.894 0,-1.046 0.847,-1.894 1.894,-1.894 1.045,0 1.892,0.848 1.892,1.894" /><path
       inkscape:connector-curvature="0"
       id="path872"
       style="fill:#000000;fill-opacity:1;fill-rule:nonzero;stroke:none"
       d="m 448.309,264.46 c 0,1.045 -0.851,1.892 -1.895,1.892 -1.045,0 -1.892,-0.847 -1.892,-1.892 0,-1.047 0.847,-1.894 1.892,-1.894 1.044,0 1.895,0.847 1.895,1.894" /><path
       inkscape:connector-curvature="0"
       id="path874"
       style="fill:#000000;fill-opacity:1;fill-rule:nonzero;stroke:none"
       d="m 510.623,246.95 c 0,1.044 -0.846,1.89 -1.892,1.89 -1.044,0 -1.892,-0.846 -1.892,-1.89 0,-1.047 0.848,-1.896 1.892,-1.896 1.046,0 1.892,0.849 1.892,1.896" /><path
       inkscape:connector-curvature="0"
       id="path876"
       style="fill:#000000;fill-opacity:1;fill-rule:nonzero;stroke:none"
       d="m 365.86,191.503 -2.002,0 -0.266,-1.428 0.014,-0.014 c 0.217,0.245 0.588,0.357 0.924,0.357 0.882,0 1.603,-0.567 1.603,-1.701 0,-0.84 -0.581,-1.652 -1.736,-1.652 -0.861,0 -1.561,0.526 -1.582,1.421 l 0.595,0 c 0.035,-0.511 0.448,-0.895 1.043,-0.895 0.567,0 1.05,0.384 1.05,1.175 0,0.658 -0.455,1.127 -1.12,1.127 -0.378,0 -0.693,-0.189 -0.924,-0.469 l -0.511,0.028 0.462,2.576 2.45,0 0,-0.525" /><path
       inkscape:connector-curvature="0"
       id="path878"
       style="fill:#000000;fill-opacity:1;fill-rule:nonzero;stroke:none"
       d="m 392.691,192.112 -0.455,0 c -0.132,-0.749 -0.749,-0.931 -1.428,-0.931 l 0,-0.476 1.288,0 0,-3.556 0.595,0 0,4.963" /><path
       inkscape:connector-curvature="0"
       id="path880"
       style="fill:#000000;fill-opacity:1;fill-rule:nonzero;stroke:none"
       d="m 396.037,192.112 c 1.554,0 1.653,-1.428 1.653,-2.527 0,-1.092 -0.099,-2.52 -1.653,-2.52 -1.554,0 -1.652,1.428 -1.652,2.52 0,1.099 0.098,2.527 1.652,2.527 z m 0,-4.521 c 1.015,0 1.022,1.259 1.022,2.001 0,0.735 -0.007,1.995 -1.022,1.995 -1.014,0 -1.022,-1.26 -1.022,-1.995 0,-0.742 0.008,-2.001 1.022,-2.001" /><path
       inkscape:connector-curvature="0"
       id="path882"
       style="fill:#000000;fill-opacity:1;fill-rule:nonzero;stroke:none"
       d="m 421.203,187.149 -0.596,0 0,3.556 -1.288,0 0,0.476 c 0.679,0 1.296,0.182 1.428,0.931 l 0.456,0 0,-4.963" /><path
       inkscape:connector-curvature="0"
       id="path884"
       style="fill:#000000;fill-opacity:1;fill-rule:nonzero;stroke:none"
       d="m 425.892,191.503 -2.001,0 -0.267,-1.428 0.015,-0.014 c 0.216,0.245 0.587,0.357 0.923,0.357 0.882,0 1.603,-0.567 1.603,-1.701 0,-0.84 -0.581,-1.652 -1.735,-1.652 -0.862,0 -1.561,0.526 -1.582,1.421 l 0.594,0 c 0.035,-0.511 0.449,-0.895 1.043,-0.895 0.568,0 1.051,0.384 1.051,1.175 0,0.658 -0.456,1.127 -1.121,1.127 -0.378,0 -0.692,-0.189 -0.923,-0.469 l -0.512,0.028 0.462,2.576 2.45,0 0,-0.525" /><path
       inkscape:connector-curvature="0"
       id="path886"
       style="fill:#000000;fill-opacity:1;fill-rule:nonzero;stroke:none"
       d="m 447.528,190.355 c -0.049,1.008 0.546,1.757 1.595,1.757 0.868,0 1.555,-0.504 1.555,-1.428 0,-0.875 -0.589,-1.316 -1.204,-1.701 -0.623,-0.378 -1.275,-0.693 -1.394,-1.309 l 2.548,0 0,-0.525 -3.24,0 c 0.098,1.176 0.692,1.596 1.393,2.03 0.839,0.518 1.266,0.827 1.266,1.512 0,0.539 -0.433,0.896 -0.959,0.896 -0.692,0 -0.986,-0.637 -0.966,-1.232 l -0.594,0" /><path
       inkscape:connector-curvature="0"
       id="path888"
       style="fill:#000000;fill-opacity:1;fill-rule:nonzero;stroke:none"
       d="m 453.058,192.112 c 1.554,0 1.651,-1.428 1.651,-2.527 0,-1.092 -0.097,-2.52 -1.651,-2.52 -1.555,0 -1.652,1.428 -1.652,2.52 0,1.099 0.097,2.527 1.652,2.527 z m 0,-4.521 c 1.014,0 1.021,1.259 1.021,2.001 0,0.735 -0.007,1.995 -1.021,1.995 -1.016,0 -1.023,-1.26 -1.023,-1.995 0,-0.742 0.007,-2.001 1.023,-2.001" /><path
       inkscape:connector-curvature="0"
       id="path890"
       style="fill:#000000;fill-opacity:1;fill-rule:nonzero;stroke:none"
       d="m 476.037,190.355 c -0.049,1.008 0.546,1.757 1.596,1.757 0.868,0 1.555,-0.504 1.555,-1.428 0,-0.875 -0.589,-1.316 -1.205,-1.701 -0.623,-0.378 -1.274,-0.693 -1.393,-1.309 l 2.548,0 0,-0.525 -3.24,0 c 0.097,1.176 0.692,1.596 1.392,2.03 0.84,0.518 1.267,0.827 1.267,1.512 0,0.539 -0.434,0.896 -0.959,0.896 -0.693,0 -0.987,-0.637 -0.966,-1.232 l -0.595,0" /><path
       inkscape:connector-curvature="0"
       id="path892"
       style="fill:#000000;fill-opacity:1;fill-rule:nonzero;stroke:none"
       d="m 482.911,191.503 -2.002,0 -0.265,-1.428 0.013,-0.014 c 0.217,0.245 0.588,0.357 0.924,0.357 0.882,0 1.603,-0.567 1.603,-1.701 0,-0.84 -0.58,-1.652 -1.736,-1.652 -0.861,0 -1.561,0.526 -1.582,1.421 l 0.595,0 c 0.035,-0.511 0.448,-0.895 1.043,-0.895 0.567,0 1.05,0.384 1.05,1.175 0,0.658 -0.455,1.127 -1.119,1.127 -0.379,0 -0.694,-0.189 -0.925,-0.469 l -0.511,0.028 0.462,2.576 2.45,0 0,-0.525" /><path
       inkscape:connector-curvature="0"
       id="path894"
       style="fill:#000000;fill-opacity:1;fill-rule:nonzero;stroke:none"
       d="m 505.763,189.984 c 0.09,-0.007 0.174,-0.007 0.258,-0.007 0.505,0 0.946,0.273 0.946,0.812 0,0.518 -0.378,0.798 -0.882,0.798 -0.651,0 -0.931,-0.496 -0.939,-1.078 l -0.594,0 c 0.035,0.945 0.539,1.603 1.533,1.603 0.861,0 1.512,-0.413 1.512,-1.33 0,-0.434 -0.308,-0.812 -0.686,-0.986 l 0,-0.015 c 0.602,-0.133 0.896,-0.608 0.896,-1.204 0,-0.994 -0.777,-1.512 -1.708,-1.512 -1.008,0 -1.673,0.595 -1.652,1.617 l 0.595,0 c 0.02,-0.644 0.378,-1.091 1.057,-1.091 0.581,0 1.078,0.356 1.078,0.958 0,0.624 -0.469,0.952 -1.057,0.952 -0.119,0 -0.245,-0.007 -0.357,-0.021 l 0,0.504" /><path
       inkscape:connector-curvature="0"
       id="path896"
       style="fill:#000000;fill-opacity:1;fill-rule:nonzero;stroke:none"
       d="m 510.075,192.112 c 1.554,0 1.651,-1.428 1.651,-2.527 0,-1.092 -0.097,-2.52 -1.651,-2.52 -1.555,0 -1.652,1.428 -1.652,2.52 0,1.099 0.097,2.527 1.652,2.527 z m 0,-4.521 c 1.015,0 1.022,1.259 1.022,2.001 0,0.735 -0.007,1.995 -1.022,1.995 -1.015,0 -1.022,-1.26 -1.022,-1.995 0,-0.742 0.007,-2.001 1.022,-2.001" /><path
       inkscape:connector-curvature="0"
       id="path898"
       style="fill:#000000;fill-opacity:1;fill-rule:nonzero;stroke:none"
       d="m 534.273,189.984 c 0.091,-0.007 0.175,-0.007 0.259,-0.007 0.505,0 0.945,0.273 0.945,0.812 0,0.518 -0.378,0.798 -0.882,0.798 -0.651,0 -0.93,-0.496 -0.938,-1.078 l -0.595,0 c 0.035,0.945 0.539,1.603 1.533,1.603 0.862,0 1.512,-0.413 1.512,-1.33 0,-0.434 -0.307,-0.812 -0.685,-0.986 l 0,-0.015 c 0.601,-0.133 0.895,-0.608 0.895,-1.204 0,-0.994 -0.776,-1.512 -1.708,-1.512 -1.008,0 -1.673,0.595 -1.651,1.617 l 0.595,0 c 0.02,-0.644 0.377,-1.091 1.056,-1.091 0.581,0 1.078,0.356 1.078,0.958 0,0.624 -0.468,0.952 -1.056,0.952 -0.12,0 -0.245,-0.007 -0.358,-0.021 l 0,0.504" /><path
       inkscape:connector-curvature="0"
       id="path900"
       style="fill:#000000;fill-opacity:1;fill-rule:nonzero;stroke:none"
       d="m 539.929,191.503 -2.001,0 -0.266,-1.428 0.014,-0.014 c 0.216,0.245 0.587,0.357 0.923,0.357 0.882,0 1.603,-0.567 1.603,-1.701 0,-0.84 -0.58,-1.652 -1.735,-1.652 -0.862,0 -1.562,0.526 -1.582,1.421 l 0.594,0 c 0.035,-0.511 0.449,-0.895 1.043,-0.895 0.568,0 1.05,0.384 1.05,1.175 0,0.658 -0.455,1.127 -1.12,1.127 -0.378,0 -0.692,-0.189 -0.924,-0.469 l -0.511,0.028 0.462,2.576 2.45,0 0,-0.525" /><path
       inkscape:connector-curvature="0"
       id="path902"
       style="fill:#000000;fill-opacity:1;fill-rule:nonzero;stroke:none"
       d="m 335.881,343.586 c 1.554,0 1.652,-1.428 1.652,-2.527 0,-1.092 -0.098,-2.52 -1.652,-2.52 -1.554,0 -1.652,1.428 -1.652,2.52 0,1.099 0.098,2.527 1.652,2.527 z m 0,-4.522 c 1.015,0 1.022,1.26 1.022,2.002 0,0.735 -0.007,1.995 -1.022,1.995 -1.015,0 -1.022,-1.26 -1.022,-1.995 0,-0.742 0.007,-2.002 1.022,-2.002" /><path
       inkscape:connector-curvature="0"
       id="path904"
       style="fill:#000000;fill-opacity:1;fill-rule:nonzero;stroke:none"
       d="m 365.86,342.977 -2.002,0 -0.266,-1.428 0.014,-0.014 c 0.217,0.245 0.588,0.357 0.924,0.357 0.882,0 1.603,-0.567 1.603,-1.701 0,-0.84 -0.581,-1.652 -1.736,-1.652 -0.861,0 -1.561,0.525 -1.582,1.421 l 0.595,0 c 0.035,-0.511 0.448,-0.896 1.043,-0.896 0.567,0 1.05,0.385 1.05,1.176 0,0.658 -0.455,1.127 -1.12,1.127 -0.378,0 -0.693,-0.189 -0.924,-0.469 l -0.511,0.028 0.462,2.576 2.45,0 0,-0.525" /><path
       inkscape:connector-curvature="0"
       id="path906"
       style="fill:#000000;fill-opacity:1;fill-rule:nonzero;stroke:none"
       d="m 392.691,338.623 -0.595,0 0,3.556 -1.288,0 0,0.476 c 0.679,0 1.296,0.182 1.428,0.931 l 0.455,0 0,-4.963" /><path
       inkscape:connector-curvature="0"
       id="path908"
       style="fill:#000000;fill-opacity:1;fill-rule:nonzero;stroke:none"
       d="m 396.037,343.586 c 1.554,0 1.653,-1.428 1.653,-2.527 0,-1.092 -0.099,-2.52 -1.653,-2.52 -1.554,0 -1.652,1.428 -1.652,2.52 0,1.099 0.098,2.527 1.652,2.527 z m 0,-4.522 c 1.015,0 1.022,1.26 1.022,2.002 0,0.735 -0.007,1.995 -1.022,1.995 -1.014,0 -1.022,-1.26 -1.022,-1.995 0,-0.742 0.008,-2.002 1.022,-2.002" /><path
       inkscape:connector-curvature="0"
       id="path910"
       style="fill:#000000;fill-opacity:1;fill-rule:nonzero;stroke:none"
       d="m 421.203,338.623 -0.596,0 0,3.556 -1.288,0 0,0.476 c 0.679,0 1.296,0.182 1.428,0.931 l 0.456,0 0,-4.963" /><path
       inkscape:connector-curvature="0"
       id="path912"
       style="fill:#000000;fill-opacity:1;fill-rule:nonzero;stroke:none"
       d="m 425.892,342.977 -2.001,0 -0.267,-1.428 0.015,-0.014 c 0.216,0.245 0.587,0.357 0.923,0.357 0.882,0 1.603,-0.567 1.603,-1.701 0,-0.84 -0.581,-1.652 -1.735,-1.652 -0.862,0 -1.561,0.525 -1.582,1.421 l 0.594,0 c 0.035,-0.511 0.449,-0.896 1.043,-0.896 0.568,0 1.051,0.385 1.051,1.176 0,0.658 -0.456,1.127 -1.121,1.127 -0.378,0 -0.692,-0.189 -0.923,-0.469 l -0.512,0.028 0.462,2.576 2.45,0 0,-0.525" /><path
       inkscape:connector-curvature="0"
       id="path914"
       style="fill:#000000;fill-opacity:1;fill-rule:nonzero;stroke:none"
       d="m 447.528,341.829 c -0.049,1.008 0.546,1.757 1.595,1.757 0.868,0 1.555,-0.504 1.555,-1.428 0,-0.875 -0.589,-1.316 -1.204,-1.701 -0.623,-0.378 -1.275,-0.693 -1.394,-1.309 l 2.548,0 0,-0.525 -3.24,0 c 0.098,1.176 0.692,1.596 1.393,2.03 0.839,0.518 1.266,0.826 1.266,1.512 0,0.539 -0.433,0.896 -0.959,0.896 -0.692,0 -0.986,-0.637 -0.966,-1.232 l -0.594,0" /><path
       inkscape:connector-curvature="0"
       id="path916"
       style="fill:#000000;fill-opacity:1;fill-rule:nonzero;stroke:none"
       d="m 453.058,343.586 c 1.554,0 1.651,-1.428 1.651,-2.527 0,-1.092 -0.097,-2.52 -1.651,-2.52 -1.555,0 -1.652,1.428 -1.652,2.52 0,1.099 0.097,2.527 1.652,2.527 z m 0,-4.522 c 1.014,0 1.021,1.26 1.021,2.002 0,0.735 -0.007,1.995 -1.021,1.995 -1.016,0 -1.023,-1.26 -1.023,-1.995 0,-0.742 0.007,-2.002 1.023,-2.002" /><path
       inkscape:connector-curvature="0"
       id="path918"
       style="fill:#000000;fill-opacity:1;fill-rule:nonzero;stroke:none"
       d="m 476.037,341.829 c -0.049,1.008 0.546,1.757 1.596,1.757 0.868,0 1.555,-0.504 1.555,-1.428 0,-0.875 -0.589,-1.316 -1.205,-1.701 -0.623,-0.378 -1.274,-0.693 -1.393,-1.309 l 2.548,0 0,-0.525 -3.24,0 c 0.097,1.176 0.692,1.596 1.392,2.03 0.84,0.518 1.267,0.826 1.267,1.512 0,0.539 -0.434,0.896 -0.959,0.896 -0.693,0 -0.987,-0.637 -0.966,-1.232 l -0.595,0" /><path
       inkscape:connector-curvature="0"
       id="path920"
       style="fill:#000000;fill-opacity:1;fill-rule:nonzero;stroke:none"
       d="m 482.911,342.977 -2.002,0 -0.265,-1.428 0.013,-0.014 c 0.217,0.245 0.588,0.357 0.924,0.357 0.882,0 1.603,-0.567 1.603,-1.701 0,-0.84 -0.58,-1.652 -1.736,-1.652 -0.861,0 -1.561,0.525 -1.582,1.421 l 0.595,0 c 0.035,-0.511 0.448,-0.896 1.043,-0.896 0.567,0 1.05,0.385 1.05,1.176 0,0.658 -0.455,1.127 -1.119,1.127 -0.379,0 -0.694,-0.189 -0.925,-0.469 l -0.511,0.028 0.462,2.576 2.45,0 0,-0.525" /><path
       inkscape:connector-curvature="0"
       id="path922"
       style="fill:#000000;fill-opacity:1;fill-rule:nonzero;stroke:none"
       d="m 505.763,341.458 c 0.09,-0.007 0.174,-0.007 0.258,-0.007 0.505,0 0.946,0.273 0.946,0.812 0,0.518 -0.378,0.798 -0.882,0.798 -0.651,0 -0.931,-0.497 -0.939,-1.078 l -0.594,0 c 0.035,0.945 0.539,1.603 1.533,1.603 0.861,0 1.512,-0.413 1.512,-1.33 0,-0.434 -0.308,-0.812 -0.686,-0.987 l 0,-0.014 c 0.602,-0.133 0.896,-0.609 0.896,-1.204 0,-0.994 -0.777,-1.512 -1.708,-1.512 -1.008,0 -1.673,0.595 -1.652,1.617 l 0.595,0 c 0.02,-0.644 0.378,-1.092 1.057,-1.092 0.581,0 1.078,0.357 1.078,0.959 0,0.623 -0.469,0.952 -1.057,0.952 -0.119,0 -0.245,-0.007 -0.357,-0.021 l 0,0.504" /><path
       inkscape:connector-curvature="0"
       id="path924"
       style="fill:#000000;fill-opacity:1;fill-rule:nonzero;stroke:none"
       d="m 510.075,343.586 c 1.554,0 1.651,-1.428 1.651,-2.527 0,-1.092 -0.097,-2.52 -1.651,-2.52 -1.555,0 -1.652,1.428 -1.652,2.52 0,1.099 0.097,2.527 1.652,2.527 z m 0,-4.522 c 1.015,0 1.022,1.26 1.022,2.002 0,0.735 -0.007,1.995 -1.022,1.995 -1.015,0 -1.022,-1.26 -1.022,-1.995 0,-0.742 0.007,-2.002 1.022,-2.002" /><path
       inkscape:connector-curvature="0"
       id="path926"
       style="fill:#000000;fill-opacity:1;fill-rule:nonzero;stroke:none"
       d="m 534.273,340.954 c 0.113,0.014 0.238,0.021 0.358,0.021 0.588,0 1.056,-0.329 1.056,-0.952 0,-0.602 -0.497,-0.959 -1.078,-0.959 -0.679,0 -1.036,0.448 -1.056,1.092 l -0.595,0 c -0.022,-1.022 0.643,-1.617 1.651,-1.617 0.932,0 1.708,0.518 1.708,1.512 0,0.595 -0.294,1.071 -0.895,1.204 l 0,0.014 c 0.378,0.175 0.685,0.553 0.685,0.987 0,0.917 -0.65,1.33 -1.512,1.33 -0.994,0 -1.498,-0.658 -1.533,-1.603 l 0.595,0 c 0.008,0.581 0.287,1.078 0.938,1.078 0.504,0 0.882,-0.28 0.882,-0.798 0,-0.539 -0.44,-0.812 -0.945,-0.812 -0.084,0 -0.168,0 -0.259,0.007 l 0,-0.504" /><path
       inkscape:connector-curvature="0"
       id="path928"
       style="fill:#000000;fill-opacity:1;fill-rule:nonzero;stroke:none"
       d="m 539.929,342.977 -2.001,0 -0.266,-1.428 0.014,-0.014 c 0.216,0.245 0.587,0.357 0.923,0.357 0.882,0 1.603,-0.567 1.603,-1.701 0,-0.84 -0.58,-1.652 -1.735,-1.652 -0.862,0 -1.562,0.525 -1.582,1.421 l 0.594,0 c 0.035,-0.511 0.449,-0.896 1.043,-0.896 0.568,0 1.05,0.385 1.05,1.176 0,0.658 -0.455,1.127 -1.12,1.127 -0.378,0 -0.692,-0.189 -0.924,-0.469 l -0.511,0.028 0.462,2.576 2.45,0 0,-0.525" /><path
       inkscape:connector-curvature="0"
       id="path930"
       style="fill:#000000;fill-opacity:1;fill-rule:nonzero;stroke:none"
       d="m 331.876,237.518 -0.595,0 0,3.556 -1.288,0 0,0.476 c 0.679,0 1.295,0.182 1.428,0.931 l 0.455,0 0,-4.963" /><path
       inkscape:connector-curvature="0"
       id="path932"
       style="fill:#000000;fill-opacity:1;fill-rule:nonzero;stroke:none"
       d="m 329.692,285.346 c -0.049,1.008 0.546,1.757 1.596,1.757 0.868,0 1.554,-0.504 1.554,-1.428 0,-0.875 -0.588,-1.316 -1.204,-1.701 -0.623,-0.378 -1.274,-0.694 -1.393,-1.309 l 2.548,0 0,-0.525 -3.241,0 c 0.098,1.176 0.693,1.596 1.393,2.03 0.84,0.518 1.267,0.826 1.267,1.512 0,0.539 -0.434,0.896 -0.959,0.896 -0.693,0 -0.987,-0.637 -0.966,-1.232 l -0.595,0" /><path
       inkscape:connector-curvature="0"
       id="path934"
       style="fill:#000000;fill-opacity:1;fill-rule:nonzero;stroke:none"
       d="m 321.6,391.528 c 1.554,0 1.652,-1.427 1.652,-2.526 0,-1.092 -0.098,-2.52 -1.652,-2.52 -1.554,0 -1.652,1.428 -1.652,2.52 0,1.099 0.098,2.526 1.652,2.526 z m 0,-4.522 c 1.015,0 1.022,1.261 1.022,2.002 0,0.736 -0.007,1.995 -1.022,1.995 -1.015,0 -1.022,-1.259 -1.022,-1.995 0,-0.741 0.007,-2.002 1.022,-2.002" /><path
       inkscape:connector-curvature="0"
       id="path936"
       style="fill:#000000;fill-opacity:1;fill-rule:nonzero;stroke:none"
       d="m 324.127,387.342 0.777,0 0,-0.777 -0.777,0 0,0.777 z" /><path
       inkscape:connector-curvature="0"
       id="path938"
       style="fill:#000000;fill-opacity:1;fill-rule:nonzero;stroke:none"
       d="m 327.438,391.528 c 1.554,0 1.652,-1.427 1.652,-2.526 0,-1.092 -0.098,-2.52 -1.652,-2.52 -1.554,0 -1.652,1.428 -1.652,2.52 0,1.099 0.098,2.526 1.652,2.526 z m 0,-4.522 c 1.015,0 1.022,1.261 1.022,2.002 0,0.736 -0.007,1.995 -1.022,1.995 -1.015,0 -1.022,-1.259 -1.022,-1.995 0,-0.741 0.007,-2.002 1.022,-2.002" /><path
       inkscape:connector-curvature="0"
       id="path940"
       style="fill:#000000;fill-opacity:1;fill-rule:nonzero;stroke:none"
       d="m 332.674,390.919 -2.002,0 -0.266,-1.428 0.014,-0.013 c 0.217,0.245 0.588,0.357 0.924,0.357 0.882,0 1.603,-0.567 1.603,-1.702 0,-0.839 -0.581,-1.651 -1.736,-1.651 -0.861,0 -1.561,0.524 -1.582,1.421 l 0.595,0 c 0.035,-0.511 0.448,-0.897 1.043,-0.897 0.567,0 1.05,0.386 1.05,1.177 0,0.657 -0.455,1.127 -1.12,1.127 -0.378,0 -0.693,-0.189 -0.924,-0.47 l -0.511,0.029 0.462,2.575 2.45,0 0,-0.525" /><path
       inkscape:connector-curvature="0"
       id="path942"
       style="fill:#000000;fill-opacity:1;fill-rule:nonzero;stroke:none"
       d="m 325.492,433.645 c 1.554,0 1.652,-1.427 1.652,-2.526 0,-1.092 -0.098,-2.521 -1.652,-2.521 -1.554,0 -1.652,1.429 -1.652,2.521 0,1.099 0.098,2.526 1.652,2.526 z m 0,-4.522 c 1.015,0 1.022,1.261 1.022,2.002 0,0.736 -0.007,1.995 -1.022,1.995 -1.015,0 -1.022,-1.259 -1.022,-1.995 0,-0.741 0.007,-2.002 1.022,-2.002" /><path
       inkscape:connector-curvature="0"
       id="path944"
       style="fill:#000000;fill-opacity:1;fill-rule:nonzero;stroke:none"
       d="m 328.019,429.459 0.777,0 0,-0.777 -0.777,0 0,0.777 z" /><path
       inkscape:connector-curvature="0"
       id="path946"
       style="fill:#000000;fill-opacity:1;fill-rule:nonzero;stroke:none"
       d="m 331.876,428.682 -0.595,0 0,3.557 -1.288,0 0,0.475 c 0.679,0 1.295,0.182 1.428,0.931 l 0.455,0 0,-4.963" /><path
       inkscape:connector-curvature="0"
       id="path984"
       style="fill:#000000;fill-opacity:1;fill-rule:nonzero;stroke:none"
       d="m 331.33,349.412 c 1.554,0 1.652,-1.428 1.652,-2.527 0,-1.092 -0.098,-2.52 -1.652,-2.52 -1.554,0 -1.652,1.428 -1.652,2.52 0,1.099 0.098,2.527 1.652,2.527 z m 0,-4.522 c 1.015,0 1.022,1.26 1.022,2.002 0,0.735 -0.007,1.995 -1.022,1.995 -1.015,0 -1.022,-1.26 -1.022,-1.995 0,-0.742 0.007,-2.002 1.022,-2.002" /><path
       inkscape:connector-curvature="0"
       id="path986"
       style="fill:#000000;fill-opacity:1;fill-rule:nonzero;stroke:none"
       d="m 321.6,475.762 c 1.554,0 1.652,-1.428 1.652,-2.527 0,-1.092 -0.098,-2.52 -1.652,-2.52 -1.554,0 -1.652,1.428 -1.652,2.52 0,1.099 0.098,2.527 1.652,2.527 z m 0,-4.522 c 1.015,0 1.022,1.26 1.022,2.002 0,0.735 -0.007,1.995 -1.022,1.995 -1.015,0 -1.022,-1.26 -1.022,-1.995 0,-0.742 0.007,-2.002 1.022,-2.002" /><path
       inkscape:connector-curvature="0"
       id="path988"
       style="fill:#000000;fill-opacity:1;fill-rule:nonzero;stroke:none"
       d="m 324.127,471.576 0.777,0 0,-0.777 -0.777,0 0,0.777 z" /><path
       inkscape:connector-curvature="0"
       id="path990"
       style="fill:#000000;fill-opacity:1;fill-rule:nonzero;stroke:none"
       d="m 327.984,470.799 -0.595,0 0,3.556 -1.288,0 0,0.476 c 0.679,0 1.295,0.182 1.428,0.931 l 0.455,0 0,-4.963" /><path
       inkscape:connector-curvature="0"
       id="path992"
       style="fill:#000000;fill-opacity:1;fill-rule:nonzero;stroke:none"
       d="m 332.674,475.153 -2.002,0 -0.266,-1.428 0.014,-0.014 c 0.217,0.245 0.588,0.357 0.924,0.357 0.882,0 1.603,-0.567 1.603,-1.701 0,-0.84 -0.581,-1.652 -1.736,-1.652 -0.861,0 -1.561,0.525 -1.582,1.421 l 0.595,0 c 0.035,-0.511 0.448,-0.896 1.043,-0.896 0.567,0 1.05,0.385 1.05,1.176 0,0.658 -0.455,1.127 -1.12,1.127 -0.378,0 -0.693,-0.189 -0.924,-0.469 l -0.511,0.028 0.462,2.576 2.45,0 0,-0.525" /><path
       inkscape:connector-curvature="0"
       id="path994"
       style="fill:#000000;fill-opacity:1;fill-rule:nonzero;stroke:none"
       d="m 349.662,469.147 c 0,-0.312 0.017,-0.664 0.192,-0.928 l -1.615,0 c -0.04,0.112 -0.064,0.28 -0.057,0.392 l -0.016,0 c -0.336,-0.384 -0.823,-0.496 -1.336,-0.496 -0.799,0 -1.463,0.384 -1.463,1.256 0,1.312 1.535,1.264 2.343,1.416 0.217,0.04 0.432,0.104 0.432,0.368 0,0.28 -0.264,0.384 -0.52,0.384 -0.487,0 -0.584,-0.248 -0.591,-0.424 l -1.473,0 c 0.048,1.168 1.152,1.36 2.136,1.36 1.985,0 1.968,-0.824 1.968,-1.624 l 0,-1.704 z m -1.52,0.936 c -0.192,-0.096 -0.408,-0.152 -0.624,-0.2 -0.352,-0.08 -0.536,-0.168 -0.536,-0.448 0,-0.192 0.208,-0.384 0.496,-0.384 0.36,0 0.64,0.216 0.664,0.648 l 0,0.384" /><path
       inkscape:connector-curvature="0"
       id="path996"
       style="fill:#000000;fill-opacity:1;fill-rule:nonzero;stroke:none"
       d="m 345.615,321.947 1.584,0 0,-2.016 0.015,0 c 0.24,0.352 0.664,0.56 1.136,0.56 1.392,0 1.768,-1.184 1.768,-2.159 0,-1.041 -0.567,-2.2 -1.744,-2.2 -0.776,0 -1.016,0.296 -1.216,0.559 l -0.016,0 0,-0.456 -1.527,0 0,5.712 z m 2.223,-2.608 c -0.568,0 -0.696,-0.536 -0.696,-1.024 0,-0.496 0.128,-1.032 0.696,-1.032 0.569,0 0.696,0.536 0.696,1.032 0,0.488 -0.127,1.024 -0.696,1.024" /><path
       inkscape:connector-curvature="0"
       id="path1050"
       style="fill:#000000;fill-opacity:1;fill-rule:nonzero;stroke:none"
       d="m 331.33,197.859 c 1.554,0 1.652,-1.428 1.652,-2.527 0,-1.092 -0.098,-2.52 -1.652,-2.52 -1.554,0 -1.652,1.428 -1.652,2.52 0,1.099 0.098,2.527 1.652,2.527 z m 0,-4.521 c 1.015,0 1.022,1.259 1.022,2.001 0,0.735 -0.007,1.996 -1.022,1.996 -1.015,0 -1.022,-1.261 -1.022,-1.996 0,-0.742 0.007,-2.001 1.022,-2.001" /><path
       inkscape:connector-curvature="0"
       id="path1052"
       style="fill:#000000;fill-opacity:1;fill-rule:nonzero;stroke:none"
       d="m 330.91,329.597 c 0.091,-0.007 0.175,-0.007 0.259,-0.007 0.504,0 0.945,0.273 0.945,0.812 0,0.518 -0.378,0.798 -0.882,0.798 -0.651,0 -0.931,-0.497 -0.938,-1.078 l -0.595,0 c 0.035,0.945 0.539,1.603 1.533,1.603 0.861,0 1.512,-0.413 1.512,-1.33 0,-0.434 -0.308,-0.812 -0.686,-0.987 l 0,-0.014 c 0.602,-0.133 0.896,-0.609 0.896,-1.204 0,-0.994 -0.777,-1.512 -1.708,-1.512 -1.008,0 -1.673,0.595 -1.652,1.617 l 0.595,0 c 0.021,-0.644 0.378,-1.092 1.057,-1.092 0.581,0 1.078,0.357 1.078,0.959 0,0.623 -0.469,0.952 -1.057,0.952 -0.119,0 -0.245,-0.007 -0.357,-0.021 l 0,0.504" /><path
       inkscape:connector-curvature="0"
       id="path1088"
       style="fill:#000000;fill-opacity:1;fill-rule:nonzero;stroke:none"
       d="m 335.881,192.112 c 1.554,0 1.652,-1.428 1.652,-2.527 0,-1.092 -0.098,-2.52 -1.652,-2.52 -1.554,0 -1.652,1.428 -1.652,2.52 0,1.099 0.098,2.527 1.652,2.527 z m 0,-4.521 c 1.015,0 1.022,1.259 1.022,2.001 0,0.735 -0.007,1.995 -1.022,1.995 -1.015,0 -1.022,-1.26 -1.022,-1.995 0,-0.742 0.007,-2.001 1.022,-2.001" /><text
       xml:space="preserve"
       style="font-size:7.19999981px;font-style:normal;font-weight:normal;line-height:125%;letter-spacing:0px;word-spacing:0px;fill:#000000;fill-opacity:1;stroke:none;font-family:Sans"
       x="403.95599"
       y="-175.66541"
       id="text3107"
       sodipodi:linespacing="125%"
       transform="scale(1,-1)"><tspan
         sodipodi:role="line"
         id="tspan3109"
         x="403.95599"
         y="-175.66541"
         style="font-size:6.4000001px">Große Halbachse (AU)</tspan></text>
<text
       xml:space="preserve"
       style="font-size:9.60000038px;font-style:normal;font-weight:normal;line-height:125%;letter-spacing:0px;word-spacing:0px;fill:#000000;fill-opacity:1;stroke:none;font-family:Sans"
       x="234.43925"
       y="316.5712"
       id="text3130"
       sodipodi:linespacing="125%"
       transform="matrix(0,1,1,0,0,0)"><tspan
         sodipodi:role="line"
         id="tspan3132"
         x="234.43925"
         y="316.5712"
         style="font-size:6.4000001px">Inklination (Grad)</tspan></text>
<text
       xml:space="preserve"
       style="font-size:6.4000001px;font-style:normal;font-weight:normal;line-height:125%;letter-spacing:0px;word-spacing:0px;fill:#000000;fill-opacity:1;stroke:none;font-family:Sans"
       x="390.1098"
       y="316.94775"
       id="text3162"
       sodipodi:linespacing="125%"
       transform="matrix(0,1,1,0,0,0)"><tspan
         sodipodi:role="line"
         id="tspan3164"
         x="390.1098"
         y="316.94775">Exzentrizität</tspan></text>
</g></svg>